<svg id="Layer_1" data-name="Layer 1" xmlns="http://www.w3.org/2000/svg" xmlns:xlink="http://www.w3.org/1999/xlink" viewBox="0 0 600 300"><defs><style>.cls-1{fill:none;}.cls-2{fill:#a22f2f;}.cls-3{fill:#ffcb8e;}.cls-4{clip-path:url(#clip-path);}</style><clipPath id="clip-path"><rect class="cls-1" x="634.65" width="1000" height="1000"/></clipPath></defs><rect class="cls-2" x="0.23" width="599.77" height="300"/><polygon class="cls-3" points="255.68 83.4 251.59 106.58 279.41 106.58 277.16 119.34 249.34 119.34 246 138.27 286.38 138.27 284.14 151.02 231 151.02 233.25 138.27 236.59 119.34 238.84 106.58 242.93 83.4 245.17 70.64 335.61 70.64 333.36 83.4 255.68 83.4"/><path class="cls-3" d="M197.1,70.64,194.85,83.4l-3.23,18.35-2.25,12.75L182.93,151h12.75l5-28.1L212.78,151h14.93L211.93,114.5h18l.31-1.73,1.94-11,3.24-18.35,2-11.21.27-1.55Zm22.34,31.11H204.37l3.24-18.35h15.07Z"/><polygon class="cls-3" points="331.75 92.48 329.51 105.23 315.6 105.23 307.56 150.82 294.81 150.82 302.84 105.23 288.93 105.23 291.18 92.48 331.75 92.48"/><path class="cls-3" d="M390.31,70.64l-1.58,9h0L382,117.87l-.41,2.3h0l-1.84,10.45h40.58l1.84-10.45.41-2.3,6.07-34.47.67-3.81,1.58-9Zm19.49,47.23H394.73l6.08-34.47h15.07Z"/><path class="cls-3" d="M367.46,138.27,357.19,114.5h18l.31-1.73,1.94-11,3.23-18.35,2-11.21.27-1.55H342.36L340.11,83.4l-3.24,18.35-2.25,12.75L328.18,151h12.75l5-28.11L358,151h58.67L419,138.27ZM352.86,83.4h15.07l-3.24,18.35H349.62Z"/><path class="cls-3" d="M181.4,159.69l-2,11.05-2.8,15.91-2,11-5.58,31.66h11l5.58-31.66h24.12l.26-1.5,1.69-9.55,2.8-15.91,1.71-9.71.24-1.34Zm19.36,27H187.7l2.8-15.91h13.07Z"/><polygon class="cls-3" points="370.29 178.61 368.34 189.67 356.28 189.67 349.29 229.36 338.23 229.36 345.23 189.67 333.17 189.67 335.12 178.61 370.29 178.61"/><polygon class="cls-3" points="389.55 170.74 386.45 188.3 410.57 188.3 409.53 194.19 408.62 199.35 405.27 218.3 403.33 229.36 368.16 229.36 370.11 218.3 394.22 218.3 397.56 199.35 373.45 199.35 373.74 197.7 375.4 188.3 378.49 170.74 380.44 159.69 415.61 159.69 413.66 170.74 389.55 170.74"/><path class="cls-3" d="M246.79,218.3l-8.9-20.6H253.5l.26-1.5,1.69-9.55,2.8-15.91L260,161l.23-1.34H225l-1.95,11.05-2.8,15.91-1.95,11-5.58,31.66H223.8L228.1,205l10.4,24.08.13.29h49.43L290,218.3Zm-12.65-47.56H247.2l-2.8,15.91H231.33Z"/><polygon class="cls-3" points="271.65 211.82 260.6 211.82 269.79 159.69 280.85 159.69 271.65 211.82"/><polygon class="cls-3" points="373.63 159.69 371.68 170.74 328.37 170.74 318.03 229.36 306.98 229.36 306.98 229.35 306.97 229.35 295.55 186.87 291.15 211.83 280.1 211.83 289.29 159.69 300.34 159.69 300.34 159.72 300.35 159.72 311.77 202.19 319.26 159.69 373.63 159.69"/><g class="cls-4"><image width="2730" height="1820" transform="translate(384.65) scale(0.55)" xlink:href="../../../../portfolio/Retro%20Prints/buscard.jpg"/></g></svg>