<svg id="copy_text" data-name="copy text" xmlns="http://www.w3.org/2000/svg" viewBox="0 0 1500 1500"><path d="M577.2,1129.09a132.34,132.34,0,0,1-80.82-121.94V467.82H307.44a25.38,25.38,0,0,0-25.38,25.39v872.61a25.38,25.38,0,0,0,25.38,25.39H870.3a25.38,25.38,0,0,0,25.38-25.39V1139.54H628.76A131.63,131.63,0,0,1,577.2,1129.09Z"/><path d="M1191.62,109.15H628.76a25.38,25.38,0,0,0-25.38,25.39v872.61a25.38,25.38,0,0,0,25.38,25.39h562.86a25.38,25.38,0,0,0,25.38-25.39V134.54A25.38,25.38,0,0,0,1191.62,109.15Z"/></svg>