<svg xmlns="http://www.w3.org/2000/svg" viewBox="0 0 1256.31 1256.31"><g id="Layer_2" data-name="Layer 2"><g id="copy_link" data-name="copy link"><rect x="396.56" y="561.93" width="463.18" height="132.44" rx="31.01" transform="translate(-260.19 628.15) rotate(-45)"/><path d="M1247.23,391.79l-71.73-71.72h0L936.24,80.82h0L864.51,9.08a31,31,0,0,0-43.84,0l-337,337.05a31,31,0,0,0,0,43.84l49.81,49.81a31,31,0,0,0,43.85,0L820.67,196.39a31,31,0,0,1,43.85,0l195.4,195.41a31,31,0,0,1,0,43.85L816.53,679a31,31,0,0,0,0,43.84l49.8,49.8a31,31,0,0,0,43.85,0l337.05-337A31,31,0,0,0,1247.23,391.79Z"/><path d="M772.68,866.33l-49.8-49.8a31,31,0,0,0-43.84,0L435.65,1059.92a31,31,0,0,1-43.85,0L196.39,864.52a31,31,0,0,1,0-43.85L439.78,577.28a31,31,0,0,0,0-43.85L390,483.62a31,31,0,0,0-43.84,0l-337,337a31,31,0,0,0,0,43.84l71.73,71.74h0L320.07,1175.5h0l71.72,71.73a31,31,0,0,0,43.85,0l337-337.05A31,31,0,0,0,772.68,866.33Z"/></g></g></svg>