<svg id="moon" xmlns="http://www.w3.org/2000/svg" viewBox="0 0 1500 1500"><path d="M1187.41,1118.81c25.84-7.73,46.15,22.7,29,43.56-114.52,139.7-288.44,228.84-483.18,228.84-344.9,0-624.49-279.59-624.49-624.49,0-219.32,113.07-412.24,284.1-523.64,22.62-14.74,50.76,8.71,40.21,33.56a622.49,622.49,0,0,0-49.37,243.78c0,345.5,282.21,626.22,627.71,624.47A624.42,624.42,0,0,0,1187.41,1118.81Z"/><path d="M1100.94,284.65c-68.36,25.19-98.66,55.5-123.86,123.85-6.34,17.2-30.56,17.2-36.9,0-25.2-68.35-55.51-98.66-123.86-123.85-17.2-6.34-17.2-30.57,0-36.91,68.35-25.19,98.66-55.5,123.86-123.85,6.34-17.2,30.56-17.2,36.9,0,25.2,68.35,55.5,98.66,123.86,123.85C1118.13,254.08,1118.13,278.31,1100.94,284.65Z"/><path d="M1375.41,647.33c-83.73,30.86-120.86,68-151.73,151.72-7.76,21.07-37.44,21.07-45.2,0-30.87-83.73-68-120.86-151.73-151.72-21.07-7.76-21.07-37.44,0-45.21,83.73-30.86,120.86-68,151.73-151.72,7.76-21.07,37.44-21.07,45.2,0,30.87,83.73,68,120.86,151.73,151.72C1396.47,609.89,1396.47,639.57,1375.41,647.33Z"/></svg>