<svg id="sun" xmlns="http://www.w3.org/2000/svg" viewBox="0 0 1500 1500"><circle cx="750" cy="750" r="350.46"/><path d="M1119.94,457.84l83.46-83.46a55,55,0,1,0-77.78-77.78l-83.46,83.46a55,55,0,0,0,77.78,77.78Z"/><path d="M1336.21,695h-118a55,55,0,0,0,0,110h118a55,55,0,0,0,0-110Z"/><path d="M1119.94,1042.16a55,55,0,0,0-77.78,77.78l83.46,83.46a55,55,0,0,0,77.78-77.78Z"/><path d="M750,1163.17a55,55,0,0,0-55,55v118a55,55,0,0,0,110,0v-118A55,55,0,0,0,750,1163.17Z"/><path d="M380.06,1042.16l-83.46,83.46a55,55,0,0,0,77.78,77.78l83.46-83.46a55,55,0,0,0-77.78-77.78Z"/><path d="M336.83,750a55,55,0,0,0-55-55h-118a55,55,0,1,0,0,110h118A55,55,0,0,0,336.83,750Z"/><path d="M380.06,457.84a55,55,0,0,0,77.78-77.78L374.38,296.6a55,55,0,0,0-77.78,77.78Z"/><path d="M750,336.83a55,55,0,0,0,55-55v-118a55,55,0,0,0-110,0v118A55,55,0,0,0,750,336.83Z"/></svg>