<svg xmlns="http://www.w3.org/2000/svg" version="1.1" xmlns:xlink="http://www.w3.org/1999/xlink" width="1080" height="1080"><svg xmlns="http://www.w3.org/2000/svg" version="1.1" xmlns:xlink="http://www.w3.org/1999/xlink" width="1080" height="1080"><svg id="SvgjsSvg1214" data-name="Layer 1" xmlns="http://www.w3.org/2000/svg" viewBox="0 0 1080 1080">
  <defs>
    <style>
      .cls-1 {
        fill: #fff;
      }

      .cls-2 {
        fill: #26211d;
      }
    </style>
  </defs>
  <rect class="cls-2" x="0" width="1080" height="1080" rx="86.88" ry="86.88"></rect>
  <path class="cls-1" d="M539.57,921.58c-43.42,0-82.81-8.48-118.15-25.47-35.35-16.96-65.68-39.52-91.02-67.63-25.34-28.1-44.94-60.24-58.86-96.42-13.92-36.17-20.87-73.2-20.87-111.05s7.37-77.37,22.12-113.56c14.75-36.17,35.08-68.18,60.96-96.03,25.88-27.83,56.64-49.95,92.26-66.38,35.61-16.41,74.31-24.62,116.06-24.62s81.96,8.75,117.31,26.29c35.35,17.54,65.54,40.5,90.61,68.88,25.03,28.4,44.52,60.69,58.43,96.86,13.92,36.19,20.89,72.93,20.89,110.23,0,39.52-7.25,77.2-21.71,113.14-14.5,35.9-34.53,67.63-60.14,95.15-25.61,27.56-56.21,49.58-91.84,65.99-35.63,16.41-74.33,24.62-116.06,24.62ZM367.58,621.01c0,25.61,3.88,50.36,11.69,74.3,7.78,23.93,19.06,45.1,33.81,63.46,14.74,18.36,32.84,33.13,54.26,44.24,21.42,11.15,45.78,16.72,73.07,16.72s52.45-5.71,73.89-17.13c21.44-11.39,39.52-26.57,54.3-45.51,14.74-18.91,25.88-40.21,33.37-63.87,7.52-23.66,11.28-47.73,11.28-72.21s-4.03-50.38-12.1-74.31c-8.07-23.93-19.49-45.1-34.23-63.46-14.77-18.38-32.86-32.99-54.3-43.85-21.4-10.86-45.49-16.27-72.21-16.27s-52.6,5.71-74.31,17.11c-21.71,11.42-39.8,26.45-54.28,45.1-14.48,18.65-25.46,39.8-32.98,63.46-7.5,23.66-11.27,47.75-11.27,72.23ZM414.33,257.78v-99.36h92.67v99.36h-92.67ZM574.64,257.78v-99.36h92.69v99.36h-92.69Z"></path>
</svg><style>@media (prefers-color-scheme: light) { :root { filter: none; } }
@media (prefers-color-scheme: dark) { :root { filter: none; } }
</style></svg><style>@media (prefers-color-scheme: light) { :root { filter: none; } }
@media (prefers-color-scheme: dark) { :root { filter: none; } }
</style></svg>