<?xml version="1.0" standalone="no"?>
<!DOCTYPE svg PUBLIC "-//W3C//DTD SVG 20010904//EN"
 "http://www.w3.org/TR/2001/REC-SVG-20010904/DTD/svg10.dtd">
<svg version="1.0" xmlns="http://www.w3.org/2000/svg"
 width="1080.000000pt" height="1080.000000pt" viewBox="0 0 1080.000000 1080.000000"
 preserveAspectRatio="xMidYMid meet">
<metadata>
Created by potrace 1.14, written by Peter Selinger 2001-2017
</metadata>
<g transform="translate(0.000000,1080.000000) scale(0.100000,-0.100000)"
fill="#000000" stroke="none">
<path d="M727 10790 c-330 -56 -591 -288 -694 -617 l-28 -88 0 -4685 0 -4685
28 -88 c92 -296 298 -502 594 -594 l88 -28 4685 0 4685 0 88 28 c303 95 511
308 599 614 l23 78 0 4680 0 4680 -28 88 c-92 296 -298 502 -594 594 l-88 28
-4655 1 c-2560 1 -4677 -2 -4703 -6z m4343 -2070 l0 -500 -465 0 -465 0 0 500
0 500 465 0 465 0 0 -500z m1608 -2 l2 -498 -470 0 -470 0 0 493 c0 272 3 497
7 500 3 4 214 6 467 5 l461 -3 3 -497z m-897 -1143 c317 -42 563 -117 840
-256 663 -332 1163 -888 1452 -1614 376 -945 270 -1979 -292 -2827 -149 -225
-364 -466 -571 -640 -217 -183 -574 -389 -840 -486 -334 -121 -598 -166 -975
-166 -260 0 -399 14 -618 60 -371 78 -778 272 -1117 534 -113 88 -379 351
-474 470 -366 460 -600 1037 -667 1640 -15 136 -15 476 1 610 80 712 390 1360
890 1860 485 486 1090 768 1775 830 136 12 455 4 596 -15z"/>
<path d="M5245 6560 c-271 -23 -512 -107 -740 -258 -421 -279 -708 -767 -802
-1362 -22 -144 -25 -537 -5 -675 46 -308 142 -591 277 -820 247 -420 634 -710
1078 -807 90 -20 131 -22 352 -22 221 0 262 2 352 22 406 89 757 334 1004 701
317 470 440 1105 328 1690 -149 777 -659 1357 -1320 1499 -166 36 -342 47
-524 32z"/>
</g>
</svg>
