<svg id="Layer_1" data-name="Layer 1" xmlns="http://www.w3.org/2000/svg" xmlns:xlink="http://www.w3.org/1999/xlink" viewBox="0 0 1000 1000"><defs><style>.cls-1,.cls-3{fill:none;}.cls-2{clip-path:url(#clip-path);}.cls-3{stroke:#000;stroke-miterlimit:10;stroke-width:1.45px;}.cls-4{fill:#eb5a2e;}.cls-5{fill:#eee;}.cls-6{opacity:0.5;}</style><clipPath id="clip-path"><rect class="cls-1" x="-753.42" y="1050.23" width="703.24" height="283.14"/></clipPath></defs><g class="cls-2"><path class="cls-3" d="M-593.88,994.89c22.45,9.16,51.07,20.86,74.56,30.22,21.93,8.74,41.37,16.78,64.59,22.68q4,1,8.16,2c18.78,4.23,39.1,7.3,59.42,10,40.83,5.31,82.19,9.35,123.55,11.83,24,1.44,48.61,1.47,71.61-3.74,24.82-5.63,60-43.44,83.64-46.25,8.21-1,18.18,4.19,29.76,12.42,24.62,17.5,52.36,45,78.06,69,20,18.59,38.53,34.59,53.37,38.9,10.34,3,26.07-6.8,39.88-13.82,6-3.06,11.57-5.57,16.09-5.61,25.64-.2-5.59-46.37,13.12-64.19"/><path class="cls-3" d="M-566.72,984.58c22.36,12.35,51.91,23.2,77.32,30.5a553.26,553.26,0,0,0,69.28,15.5c2.81.44,5.66.87,8.53,1.28,19.58,2.8,40.3,5.19,61,7.52,41.63,4.67,83.63,9.47,125.62,12.69,24.37,1.87,49.5,2.35,72.7-4S-93.59,995.68-71.59,991c7.89-1.68,18,3.87,29.86,13.13,23.62,18.38,51.18,48.16,76.26,74,20.06,20.64,38.43,38.36,52.14,42.75,9.67,3.1,25.75-9,39.57-17.22,6.13-3.66,11.73-6.54,16.08-6.43,24.93.61-18.2-52.35.09-69.56"/><path class="cls-3" d="M-539.55,974.26c22.25,15.55,52.75,25.58,80.06,30.79,24.88,4.74,48.47,6.58,74,8.32l8.91.6c20.36,1.38,41.48,3.07,62.59,5.09,42.43,4,85.07,9.59,127.68,13.55,24.75,2.3,50.44,3.33,73.81-4.28,21.43-7,57.34-61.38,77.69-67.92,7.56-2.43,17.77,3.5,30,13.82,22.69,19.21,50,51.34,74.45,79,20.14,22.73,38.35,42.14,50.92,46.61,9,3.21,25.42-11.16,39.25-20.61,6.25-4.27,11.9-7.52,16.09-7.27C200,1073.37,145,1013.62,162.9,997"/><path class="cls-3" d="M-512.39,963.94c22.16,18.74,53.6,28,82.81,31.07,26.38,2.79,52,1.49,78.68,1.14,3.09,0,6.18-.07,9.28-.07,21.15-.05,42.67,1,64.18,2.66,43.22,3.4,86.52,9.7,129.75,14.41,25.13,2.73,51.43,4.4,74.9-4.55,19.79-7.54,56-70.45,74.72-78.75C9.14,926.66,19.55,933,32,944.37c21.8,20,48.7,54.52,72.64,84,20.19,24.84,38.25,46,49.7,50.48,8.33,3.32,25.07-13.37,38.94-24,6.35-4.88,12.06-8.47,16.09-8.09,23.47,2.28-43.43-64.29-26-80.3"/><path class="cls-3" d="M-485.23,953.62c22.07,21.94,54.47,30.42,85.57,31.36s62-4.71,93-6.79c66-4.42,131.91,7.34,197.58,15.5,25.52,3.17,52.5,5.6,76-4.81,18.2-8.07,54.54-79.58,71.75-89.59,27.93-16.27,120,145.35,149.46,158.54,11.22,5,42.54-38,54.71-36.34,22.75,3.09-56-70.26-39-85.66"/></g><rect class="cls-4" x="-0.06" y="-0.06" width="1000.12" height="1000.12"/><path class="cls-5" d="M382,446.09H342.19a9.22,9.22,0,0,0,4.14,6.47,15.1,15.1,0,0,0,8.44,2.23q7.55,0,14-6.71l11.43,12.58A29.59,29.59,0,0,1,368.82,469a39.69,39.69,0,0,1-16.41,3.24,33.41,33.41,0,0,1-16.27-4,28.78,28.78,0,0,1-11.39-11.22,34.82,34.82,0,0,1-.12-32.71,28.84,28.84,0,0,1,11.21-11.24,32.47,32.47,0,0,1,16.2-4.05,31.79,31.79,0,0,1,12.16,2.32,28.14,28.14,0,0,1,16.05,16.27,33.57,33.57,0,0,1,2.33,12.54A24.16,24.16,0,0,1,382,446.09Zm-36.36-18a9.7,9.7,0,0,0-3.36,6h18.86a13,13,0,0,0-1.24-3.39,9.61,9.61,0,0,0-2-2.57,7.76,7.76,0,0,0-2.69-1.6,9.93,9.93,0,0,0-3.3-.54A9.66,9.66,0,0,0,345.61,428.1Z"/><path class="cls-5" d="M452.84,410.36V471h-21v-5.69h-.19q-5.43,7-15.59,7a27.74,27.74,0,0,1-11.4-2.33,26,26,0,0,1-8.92-6.44,29.51,29.51,0,0,1-5.77-10,38.25,38.25,0,0,1-2.09-12.84A38.67,38.67,0,0,1,390,427.89a29.91,29.91,0,0,1,5.65-10,26,26,0,0,1,8.56-6.44,24.58,24.58,0,0,1,10.58-2.32,20,20,0,0,1,15.72,7.25h.18v-6Zm-24.28,39.17a14.16,14.16,0,0,0,0-17.56,9.74,9.74,0,0,0-7.59-3.41,9.91,9.91,0,0,0-7.74,3.38,14.36,14.36,0,0,0,0,17.62,10,10,0,0,0,7.74,3.36A9.78,9.78,0,0,0,428.56,449.53Z"/><path class="cls-5" d="M459,463.2l10-13.67q7.92,6.9,15.18,6.9,4.47,0,4.47-2.48a2.12,2.12,0,0,0-.48-1.42,7.2,7.2,0,0,0-2.33-1.42,39.93,39.93,0,0,0-5.47-1.88,60.43,60.43,0,0,1-6-2.08,32,32,0,0,1-5.23-2.81,20.08,20.08,0,0,1-4.26-3.75,16.16,16.16,0,0,1-2.75-4.9,18.34,18.34,0,0,1-1-6.23A20.36,20.36,0,0,1,463,420.7a17.38,17.38,0,0,1,5.05-6.44,22.93,22.93,0,0,1,7.4-3.84,29.51,29.51,0,0,1,9-1.33,42.24,42.24,0,0,1,9,.9A36.06,36.06,0,0,1,501,412.5a47.06,47.06,0,0,1,7.16,4.27l-10.22,14.69a23.09,23.09,0,0,0-6.35-4.57,14.78,14.78,0,0,0-6.4-1.66,5.38,5.38,0,0,0-2.69.63,2,2,0,0,0-1.12,1.85c0,.64.52,1.28,1.57,1.9a32.37,32.37,0,0,0,5.92,2.33q4.49,1.46,7.47,2.69a37.23,37.23,0,0,1,5.65,2.93,15.78,15.78,0,0,1,4.18,3.69,15.23,15.23,0,0,1,2.35,4.72,20.75,20.75,0,0,1,.85,6.22,20,20,0,0,1-1.6,8.14,17.72,17.72,0,0,1-4.72,6.35,21.34,21.34,0,0,1-8,4.14,39.94,39.94,0,0,1-11.21,1.45Q469.22,472.27,459,463.2Z"/><path class="cls-5" d="M576.24,410.36l-31.13,85.12H523.64l10.28-29L510.7,410.36h22.8l10.28,28.72H544l9.67-28.72Z"/><path class="cls-5" d="M318.73,558.75l10-13.67q7.92,6.9,15.17,6.89,4.49,0,4.48-2.47a2.08,2.08,0,0,0-.49-1.42,7.27,7.27,0,0,0-2.32-1.43,41.84,41.84,0,0,0-5.48-1.87,57.67,57.67,0,0,1-5.95-2.09,30.13,30.13,0,0,1-5.23-2.81,19.8,19.8,0,0,1-4.26-3.75,15.9,15.9,0,0,1-2.75-4.89,18.1,18.1,0,0,1-1-6.23,20.4,20.4,0,0,1,1.84-8.77,17.46,17.46,0,0,1,5.05-6.44,23.48,23.48,0,0,1,7.41-3.84,29.77,29.77,0,0,1,9-1.33,42.19,42.19,0,0,1,9,.91,36.06,36.06,0,0,1,7.56,2.51,47.35,47.35,0,0,1,7.17,4.26L357.67,527a23.41,23.41,0,0,0-6.35-4.56,14.82,14.82,0,0,0-6.41-1.66,5.41,5.41,0,0,0-2.69.63,2,2,0,0,0-1.12,1.85c0,.64.53,1.28,1.57,1.9a32.55,32.55,0,0,0,5.93,2.33c3,1,5.47,1.86,7.47,2.69a36.8,36.8,0,0,1,5.65,2.93,15.89,15.89,0,0,1,4.17,3.69,15.25,15.25,0,0,1,2.36,4.72,21,21,0,0,1,.84,6.22,20,20,0,0,1-1.6,8.13,17.73,17.73,0,0,1-4.71,6.35,21.21,21.21,0,0,1-8,4.14,39.69,39.69,0,0,1-11.22,1.46Q329,567.82,318.73,558.75Z"/><path class="cls-5" d="M423,505.69a25.14,25.14,0,0,1,6.47,3,25.58,25.58,0,0,1,5.38,4.74,30.3,30.3,0,0,1,4.14,6.29,34.06,34.06,0,0,1,2.66,7.68,40.55,40.55,0,0,1,.94,8.79A36.73,36.73,0,0,1,439,552.67a26.65,26.65,0,0,1-10,11.19,27.25,27.25,0,0,1-14.63,4,19.09,19.09,0,0,1-15.05-6.53h-.18V591H377.08V505.9h22.19V512h.18a20.48,20.48,0,0,1,16.26-7.38A25.2,25.2,0,0,1,423,505.69Zm-5.75,39.42a14.32,14.32,0,0,0,0-17.62,9.88,9.88,0,0,0-7.73-3.39,10.5,10.5,0,0,0-8.05,3.39,13.93,13.93,0,0,0,0,17.62,10.54,10.54,0,0,0,8.05,3.36A9.92,9.92,0,0,0,417.22,545.11Z"/><path class="cls-5" d="M509.61,541.64H469.83a9.24,9.24,0,0,0,4.14,6.47,15.09,15.09,0,0,0,8.43,2.23q7.56,0,14-6.71l11.43,12.58a29.8,29.8,0,0,1-11.34,8.37,39.69,39.69,0,0,1-16.41,3.24,33.41,33.41,0,0,1-16.27-4,28.78,28.78,0,0,1-11.39-11.22,34.75,34.75,0,0,1-.12-32.71,28.71,28.71,0,0,1,11.21-11.24,32.37,32.37,0,0,1,16.2-4.06A31.8,31.8,0,0,1,491.84,507a28.14,28.14,0,0,1,16.05,16.27,33.57,33.57,0,0,1,2.33,12.54A24.73,24.73,0,0,1,509.61,541.64Zm-36.37-18a9.74,9.74,0,0,0-3.35,6h18.86a12.91,12.91,0,0,0-1.24-3.38,9.66,9.66,0,0,0-2-2.57,7.61,7.61,0,0,0-2.69-1.6,10.3,10.3,0,0,0-9.62,1.6Z"/><path class="cls-5" d="M580.47,505.9v60.65h-21v-5.69h-.19q-5.43,7-15.59,7a27.7,27.7,0,0,1-11.4-2.33,26,26,0,0,1-8.92-6.44,29.51,29.51,0,0,1-5.77-10,40.52,40.52,0,0,1,0-25.6,29.91,29.91,0,0,1,5.65-10A25.88,25.88,0,0,1,531.8,507a24.67,24.67,0,0,1,10.59-2.33,19.93,19.93,0,0,1,15.71,7.26h.19v-6ZM556.2,545.08a14.16,14.16,0,0,0,0-17.56,9.76,9.76,0,0,0-7.59-3.42,9.92,9.92,0,0,0-7.74,3.39,14.36,14.36,0,0,0,0,17.62,10,10,0,0,0,7.74,3.36A9.8,9.8,0,0,0,556.2,545.08Z"/><path class="cls-5" d="M617.84,545.93l-4.59,5.26v15.36H591.12V475.37h22.13v46.92h.18l14-16.39h25.39l-20.31,23.22,21,37.43H629.15l-11.06-20.62Z"/><path class="cls-5" d="M660.56,564.34A11.38,11.38,0,0,1,657,555.9a11.23,11.23,0,0,1,3.56-8.31,12.17,12.17,0,0,1,17,0,11.25,11.25,0,0,1,3.54,8.31,11.39,11.39,0,0,1-3.54,8.44,12.18,12.18,0,0,1-17.05,0Z"/><g class="cls-6"><path class="cls-5" d="M718.15,618v39.78a9.22,9.22,0,0,0,6.47-4.14,15.1,15.1,0,0,0,2.24-8.44q0-7.54-6.71-14l12.57-11.43a29.71,29.71,0,0,1,8.38,11.34,39.85,39.85,0,0,1,3.23,16.41,33.41,33.41,0,0,1-4,16.27,28.82,28.82,0,0,1-11.21,11.39,34.82,34.82,0,0,1-32.71.12,28.8,28.8,0,0,1-11.25-11.21,32.47,32.47,0,0,1-4.05-16.2,31.8,31.8,0,0,1,2.33-12.16,28.16,28.16,0,0,1,16.26-16,33.58,33.58,0,0,1,12.55-2.33A24.13,24.13,0,0,1,718.15,618Zm-18,36.36a9.73,9.73,0,0,0,6,3.36V638.89a13,13,0,0,0-3.39,1.24,9.77,9.77,0,0,0-2.57,2,7.76,7.76,0,0,0-1.6,2.69,9.93,9.93,0,0,0-.54,3.3A9.66,9.66,0,0,0,700.16,654.39Z"/><path class="cls-5" d="M682.42,547.16h60.64v21h-5.68v.19q6.95,5.43,7,15.59a27.74,27.74,0,0,1-2.33,11.4,26,26,0,0,1-6.44,8.92,29.46,29.46,0,0,1-10,5.77,38.27,38.27,0,0,1-12.85,2.09A38.71,38.71,0,0,1,700,610a29.86,29.86,0,0,1-10-5.65,25.81,25.81,0,0,1-6.44-8.56,24.59,24.59,0,0,1-2.33-10.58,20,20,0,0,1,7.25-15.72v-.18h-6Zm39.18,24.28a14.18,14.18,0,0,0-17.57,0,9.77,9.77,0,0,0-3.41,7.59,9.94,9.94,0,0,0,3.38,7.74,14.37,14.37,0,0,0,17.63,0A10,10,0,0,0,725,579,9.81,9.81,0,0,0,721.6,571.44Z"/><path class="cls-5" d="M735.26,541,721.6,531q6.89-7.92,6.89-15.18,0-4.47-2.48-4.47a2.14,2.14,0,0,0-1.42.48,7.38,7.38,0,0,0-1.42,2.33,40.16,40.16,0,0,0-1.87,5.47,60.36,60.36,0,0,1-2.09,6,31.2,31.2,0,0,1-2.81,5.23,20.08,20.08,0,0,1-3.75,4.26,16,16,0,0,1-4.9,2.75,18.3,18.3,0,0,1-6.23,1,20.36,20.36,0,0,1-8.76-1.85,17.38,17.38,0,0,1-6.44-5.05,23.32,23.32,0,0,1-3.84-7.4,29.51,29.51,0,0,1-1.33-9,41.58,41.58,0,0,1,.91-9,35.49,35.49,0,0,1,2.51-7.56,46.14,46.14,0,0,1,4.26-7.16l14.69,10.22a23,23,0,0,0-4.56,6.35,14.8,14.8,0,0,0-1.67,6.4,5.28,5.28,0,0,0,.64,2.69,2,2,0,0,0,1.84,1.12c.65,0,1.28-.52,1.91-1.57a32.55,32.55,0,0,0,2.32-5.92q1.46-4.49,2.69-7.47a36.39,36.39,0,0,1,2.94-5.65,15.58,15.58,0,0,1,3.68-4.18,15.34,15.34,0,0,1,4.72-2.35,20.77,20.77,0,0,1,6.23-.85,20,20,0,0,1,8.13,1.6,17.72,17.72,0,0,1,6.35,4.72,21.34,21.34,0,0,1,4.14,8,39.58,39.58,0,0,1,1.45,11.21Q744.33,530.78,735.26,541Z"/><path class="cls-5" d="M682.42,423.76l85.13,31.13v21.47l-29-10.28L682.42,489.3V466.5l28.72-10.28V456l-28.72-9.67Z"/><path class="cls-5" d="M830.81,681.27l-13.66-10q6.89-7.92,6.89-15.17,0-4.48-2.48-4.48a2.08,2.08,0,0,0-1.42.49,7.3,7.3,0,0,0-1.42,2.32,40.16,40.16,0,0,0-1.88,5.48,60.2,60.2,0,0,1-2.08,6,31.54,31.54,0,0,1-2.81,5.23,20.08,20.08,0,0,1-3.75,4.26,16,16,0,0,1-4.9,2.75,18.06,18.06,0,0,1-6.23,1,20.36,20.36,0,0,1-8.76-1.84,17.38,17.38,0,0,1-6.44-5,23.08,23.08,0,0,1-3.84-7.41,29.46,29.46,0,0,1-1.33-9,42.21,42.21,0,0,1,.9-9,36.65,36.65,0,0,1,2.51-7.56,46.64,46.64,0,0,1,4.27-7.17l14.69,10.22a23.24,23.24,0,0,0-4.57,6.35,14.82,14.82,0,0,0-1.66,6.41,5.41,5.41,0,0,0,.63,2.69,2,2,0,0,0,1.85,1.12c.64,0,1.28-.53,1.9-1.57a32.55,32.55,0,0,0,2.33-5.93q1.46-4.47,2.69-7.47a37.71,37.71,0,0,1,2.93-5.65,15.89,15.89,0,0,1,3.69-4.17,15.25,15.25,0,0,1,4.72-2.36,21.11,21.11,0,0,1,6.23-.84,20,20,0,0,1,8.13,1.6,17.81,17.81,0,0,1,6.35,4.71,21.5,21.5,0,0,1,4.14,8,40.07,40.07,0,0,1,1.45,11.22Q839.88,671,830.81,681.27Z"/><path class="cls-5" d="M777.76,577a24.79,24.79,0,0,1,3-6.47,25.58,25.58,0,0,1,4.74-5.38,30.3,30.3,0,0,1,6.29-4.14,34.06,34.06,0,0,1,7.68-2.66,40.58,40.58,0,0,1,8.8-.94A36.69,36.69,0,0,1,824.73,561a26.65,26.65,0,0,1,11.19,10,27.25,27.25,0,0,1,4,14.63,19.09,19.09,0,0,1-6.53,15v.18H863.1v22.07H778V600.73h6.1v-.18a20.5,20.5,0,0,1-7.37-16.26A24.86,24.86,0,0,1,777.76,577Zm39.42,5.75a14.34,14.34,0,0,0-17.63,0,9.87,9.87,0,0,0-3.38,7.73,10.49,10.49,0,0,0,3.38,8,13.94,13.94,0,0,0,17.63,0,10.57,10.57,0,0,0,3.35-8A10,10,0,0,0,817.18,582.78Z"/><path class="cls-5" d="M813.7,490.39v39.78a9.22,9.22,0,0,0,6.47-4.14,15.09,15.09,0,0,0,2.24-8.43q0-7.56-6.72-14l12.58-11.43a29.59,29.59,0,0,1,8.37,11.34A39.69,39.69,0,0,1,839.88,520a33.41,33.41,0,0,1-4,16.27,28.78,28.78,0,0,1-11.22,11.39,34.75,34.75,0,0,1-32.71.12,28.78,28.78,0,0,1-11.24-11.21,32.47,32.47,0,0,1-4-16.2A31.61,31.61,0,0,1,779,508.16a28.87,28.87,0,0,1,6.37-9.7,29.17,29.17,0,0,1,9.89-6.35,33.57,33.57,0,0,1,12.54-2.33A24.67,24.67,0,0,1,813.7,490.39Zm-18,36.37a9.73,9.73,0,0,0,6,3.35V511.25a13,13,0,0,0-3.39,1.24,9.82,9.82,0,0,0-2.57,2,7.76,7.76,0,0,0-1.6,2.69,9.93,9.93,0,0,0-.54,3.3A9.69,9.69,0,0,0,795.71,526.76Z"/><path class="cls-5" d="M778,419.53h60.64v21h-5.68v.19q6.95,5.43,7,15.59a27.7,27.7,0,0,1-2.33,11.4,26,26,0,0,1-6.44,8.92,29.46,29.46,0,0,1-10,5.77,40.55,40.55,0,0,1-25.61,0,29.91,29.91,0,0,1-10-5.65A25.85,25.85,0,0,1,779,468.2a24.52,24.52,0,0,1-2.33-10.59A20,20,0,0,1,784,441.9v-.19h-6Zm39.18,24.27a14.18,14.18,0,0,0-17.57,0,9.75,9.75,0,0,0-3.41,7.59,9.91,9.91,0,0,0,3.38,7.74,14.37,14.37,0,0,0,17.63,0,10,10,0,0,0,3.35-7.74A9.82,9.82,0,0,0,817.15,443.8Z"/><path class="cls-5" d="M818,382.16l5.26,4.59h15.36v22.13H747.43V386.75h46.92v-.18l-16.38-14V347.15l23.21,20.31,37.43-21v24.37L818,381.91Z"/><path class="cls-5" d="M836.4,339.44A11.37,11.37,0,0,1,828,343a11.24,11.24,0,0,1-8.32-3.56,12.17,12.17,0,0,1,0-17,11.25,11.25,0,0,1,8.32-3.54,11.38,11.38,0,0,1,8.43,3.54,12.18,12.18,0,0,1,0,17.05Z"/></g><g class="cls-6"><path class="cls-5" d="M173.79,618v39.78a9.22,9.22,0,0,0,6.47-4.14,15.1,15.1,0,0,0,2.23-8.44q0-7.54-6.71-14l12.58-11.43a29.69,29.69,0,0,1,8.37,11.34A39.69,39.69,0,0,1,200,647.59a33.41,33.41,0,0,1-4,16.27,28.78,28.78,0,0,1-11.22,11.39,34.82,34.82,0,0,1-32.71.12,28.84,28.84,0,0,1-11.24-11.21,32.47,32.47,0,0,1-4.05-16.2,31.79,31.79,0,0,1,2.32-12.16,28.14,28.14,0,0,1,16.27-16,33.57,33.57,0,0,1,12.54-2.33A24.16,24.16,0,0,1,173.79,618Zm-18,36.36a9.7,9.7,0,0,0,6,3.36V638.89a13,13,0,0,0-3.39,1.24,9.61,9.61,0,0,0-2.57,2,7.76,7.76,0,0,0-1.6,2.69,9.93,9.93,0,0,0-.55,3.3A9.67,9.67,0,0,0,155.8,654.39Z"/><path class="cls-5" d="M138.06,547.16H198.7v21H193v.19q7,5.43,7,15.59a27.74,27.74,0,0,1-2.33,11.4,26,26,0,0,1-6.44,8.92,29.51,29.51,0,0,1-10,5.77,38.25,38.25,0,0,1-12.84,2.09A38.67,38.67,0,0,1,155.59,610a29.91,29.91,0,0,1-10-5.65,26,26,0,0,1-6.44-8.56,24.58,24.58,0,0,1-2.32-10.58A20,20,0,0,1,144,569.53v-.18h-6Zm39.17,24.28a14.16,14.16,0,0,0-17.56,0,9.75,9.75,0,0,0-3.42,7.59,9.92,9.92,0,0,0,3.39,7.74,14.36,14.36,0,0,0,17.62,0,10,10,0,0,0,3.36-7.74A9.78,9.78,0,0,0,177.23,571.44Z"/><path class="cls-5" d="M190.9,541l-13.67-10q6.9-7.92,6.9-15.18,0-4.47-2.48-4.47a2.12,2.12,0,0,0-1.42.48,7.2,7.2,0,0,0-1.42,2.33,39.93,39.93,0,0,0-1.88,5.47,60.43,60.43,0,0,1-2.08,6,31.27,31.27,0,0,1-2.82,5.23,19.77,19.77,0,0,1-3.74,4.26,16.16,16.16,0,0,1-4.9,2.75,18.34,18.34,0,0,1-6.23,1,20.41,20.41,0,0,1-8.77-1.85,17.35,17.35,0,0,1-6.43-5.05,22.93,22.93,0,0,1-3.84-7.4,29.51,29.51,0,0,1-1.33-9,42.24,42.24,0,0,1,.9-9A36.06,36.06,0,0,1,140.2,499a47.78,47.78,0,0,1,4.26-7.16l14.7,10.22a23.09,23.09,0,0,0-4.57,6.35,14.78,14.78,0,0,0-1.66,6.4,5.38,5.38,0,0,0,.63,2.69,2,2,0,0,0,1.85,1.12c.64,0,1.28-.52,1.9-1.57a32.37,32.37,0,0,0,2.33-5.92c1-3,1.86-5.48,2.69-7.47a36.34,36.34,0,0,1,2.93-5.65,15.78,15.78,0,0,1,3.69-4.18,15.23,15.23,0,0,1,4.72-2.35,20.75,20.75,0,0,1,6.22-.85,20,20,0,0,1,8.14,1.6,17.69,17.69,0,0,1,6.34,4.72,21.21,21.21,0,0,1,4.15,8A39.94,39.94,0,0,1,200,516.2Q200,530.78,190.9,541Z"/><path class="cls-5" d="M138.06,423.76l85.12,31.13v21.47l-29-10.28L138.06,489.3V466.5l28.71-10.28V456l-28.71-9.67Z"/><path class="cls-5" d="M286.45,681.27l-13.67-10q6.9-7.92,6.89-15.17,0-4.48-2.47-4.48a2.12,2.12,0,0,0-1.43.49,7.49,7.49,0,0,0-1.42,2.32,40.39,40.39,0,0,0-1.87,5.48,60.13,60.13,0,0,1-2.09,6,30.13,30.13,0,0,1-2.81,5.23,20.08,20.08,0,0,1-3.75,4.26,15.9,15.9,0,0,1-4.89,2.75,18.1,18.1,0,0,1-6.23,1,20.37,20.37,0,0,1-8.77-1.84,17.46,17.46,0,0,1-6.44-5,23.48,23.48,0,0,1-3.84-7.41,29.77,29.77,0,0,1-1.33-9,42.19,42.19,0,0,1,.91-9,36.06,36.06,0,0,1,2.51-7.56,47.35,47.35,0,0,1,4.26-7.17l14.69,10.22a23.41,23.41,0,0,0-4.56,6.35,14.82,14.82,0,0,0-1.66,6.41,5.41,5.41,0,0,0,.63,2.69A2,2,0,0,0,251,658.9c.64,0,1.28-.53,1.9-1.57a33.32,33.32,0,0,0,2.33-5.93q1.44-4.47,2.69-7.47a35.93,35.93,0,0,1,2.93-5.65,15.89,15.89,0,0,1,3.69-4.17,15.3,15.3,0,0,1,4.71-2.36,21.15,21.15,0,0,1,6.23-.84,20,20,0,0,1,8.13,1.6,17.73,17.73,0,0,1,6.35,4.71,21.21,21.21,0,0,1,4.14,8,39.7,39.7,0,0,1,1.45,11.22Q295.51,671,286.45,681.27Z"/><path class="cls-5" d="M233.39,577a25.12,25.12,0,0,1,3-6.47,25.63,25.63,0,0,1,4.75-5.38,30.3,30.3,0,0,1,6.29-4.14,34.06,34.06,0,0,1,7.68-2.66,40.55,40.55,0,0,1,8.79-.94A36.73,36.73,0,0,1,280.37,561a26.62,26.62,0,0,1,11.18,10,27.25,27.25,0,0,1,4,14.63,19.06,19.06,0,0,1-6.53,15v.18h29.75v22.07H233.6V600.73h6.11v-.18a20.48,20.48,0,0,1-7.38-16.26A25.2,25.2,0,0,1,233.39,577Zm39.42,5.75a14.32,14.32,0,0,0-17.62,0,9.88,9.88,0,0,0-3.39,7.73,10.5,10.5,0,0,0,3.39,8,13.93,13.93,0,0,0,17.62,0,10.54,10.54,0,0,0,3.36-8A9.92,9.92,0,0,0,272.81,582.78Z"/><path class="cls-5" d="M269.34,490.39v39.78A9.2,9.2,0,0,0,275.8,526,15,15,0,0,0,278,517.6q0-7.56-6.71-14l12.58-11.43a29.8,29.8,0,0,1,8.37,11.34A39.69,39.69,0,0,1,295.51,520a33.41,33.41,0,0,1-4,16.27,28.76,28.76,0,0,1-11.21,11.39,34.75,34.75,0,0,1-32.71.12,28.8,28.8,0,0,1-11.25-11.21,32.47,32.47,0,0,1-4-16.2,31.8,31.8,0,0,1,2.33-12.16,28.89,28.89,0,0,1,6.38-9.7,29.22,29.22,0,0,1,9.88-6.35,33.62,33.62,0,0,1,12.55-2.33A24.73,24.73,0,0,1,269.34,490.39Zm-18,36.37a9.71,9.71,0,0,0,6,3.35V511.25a12.91,12.91,0,0,0-3.38,1.24,9.66,9.66,0,0,0-2.57,2,7.61,7.61,0,0,0-1.6,2.69,10.3,10.3,0,0,0,1.6,9.62Z"/><path class="cls-5" d="M233.6,419.53h60.64v21h-5.68v.19q7,5.43,6.95,15.59a27.7,27.7,0,0,1-2.32,11.4,26,26,0,0,1-6.44,8.92,29.51,29.51,0,0,1-10,5.77,40.52,40.52,0,0,1-25.6,0,29.91,29.91,0,0,1-10-5.65,25.88,25.88,0,0,1-6.44-8.55,24.67,24.67,0,0,1-2.33-10.59,19.93,19.93,0,0,1,7.26-15.71v-.19h-6Zm39.18,24.27a14.16,14.16,0,0,0-17.56,0,9.76,9.76,0,0,0-3.42,7.59,9.92,9.92,0,0,0,3.39,7.74,14.36,14.36,0,0,0,17.62,0,10,10,0,0,0,3.36-7.74A9.8,9.8,0,0,0,272.78,443.8Z"/><path class="cls-5" d="M273.63,382.16l5.26,4.59h15.35v22.13H203.07V386.75H250v-.18l-16.39-14V347.15l23.22,20.31,37.42-21v24.37l-20.61,11.06Z"/><path class="cls-5" d="M292,339.44A11.38,11.38,0,0,1,283.6,343a11.23,11.23,0,0,1-8.31-3.56,12.15,12.15,0,0,1,0-17,11.25,11.25,0,0,1,8.31-3.54,11.39,11.39,0,0,1,8.44,3.54,12.21,12.21,0,0,1,0,17.05Z"/></g><g class="cls-6"><path class="cls-5" d="M382,627.3H342.19a9.22,9.22,0,0,0,4.14,6.47,15.1,15.1,0,0,0,8.44,2.23q7.55,0,14-6.71l11.43,12.58a29.69,29.69,0,0,1-11.34,8.37,39.69,39.69,0,0,1-16.41,3.24,33.41,33.41,0,0,1-16.27-4,28.78,28.78,0,0,1-11.39-11.22,34.82,34.82,0,0,1-.12-32.71,28.84,28.84,0,0,1,11.21-11.24A32.47,32.47,0,0,1,352,590.3a31.79,31.79,0,0,1,12.16,2.32,28.14,28.14,0,0,1,16.05,16.27,33.57,33.57,0,0,1,2.33,12.54A24.16,24.16,0,0,1,382,627.3Zm-36.36-18a9.7,9.7,0,0,0-3.36,6h18.86a13,13,0,0,0-1.24-3.39,9.61,9.61,0,0,0-2-2.57,7.76,7.76,0,0,0-2.69-1.6,9.93,9.93,0,0,0-3.3-.55A9.67,9.67,0,0,0,345.61,609.31Z"/><path class="cls-5" d="M452.84,591.57v60.64h-21v-5.69h-.19q-5.43,7-15.59,7a27.74,27.74,0,0,1-11.4-2.33,26,26,0,0,1-8.92-6.44,29.51,29.51,0,0,1-5.77-10,38.25,38.25,0,0,1-2.09-12.84A38.67,38.67,0,0,1,390,609.1a29.91,29.91,0,0,1,5.65-10,26,26,0,0,1,8.56-6.44,24.58,24.58,0,0,1,10.58-2.32,20,20,0,0,1,15.72,7.25h.18v-6Zm-24.28,39.17a14.16,14.16,0,0,0,0-17.56,9.75,9.75,0,0,0-7.59-3.42,9.92,9.92,0,0,0-7.74,3.39,14.36,14.36,0,0,0,0,17.62,10,10,0,0,0,7.74,3.36A9.78,9.78,0,0,0,428.56,630.74Z"/><path class="cls-5" d="M459,644.41l10-13.67q7.92,6.9,15.18,6.9,4.47,0,4.47-2.48a2.12,2.12,0,0,0-.48-1.42,7.2,7.2,0,0,0-2.33-1.42,39.93,39.93,0,0,0-5.47-1.88,60.43,60.43,0,0,1-6-2.08,31.27,31.27,0,0,1-5.23-2.82A19.77,19.77,0,0,1,465,621.8a16.16,16.16,0,0,1-2.75-4.9,18.34,18.34,0,0,1-1-6.23A20.41,20.41,0,0,1,463,601.9a17.35,17.35,0,0,1,5.05-6.43,22.93,22.93,0,0,1,7.4-3.84,29.51,29.51,0,0,1,9-1.33,42.24,42.24,0,0,1,9,.9,36.06,36.06,0,0,1,7.56,2.51,47.78,47.78,0,0,1,7.16,4.26l-10.22,14.7a23.09,23.09,0,0,0-6.35-4.57,14.78,14.78,0,0,0-6.4-1.66,5.38,5.38,0,0,0-2.69.63,2,2,0,0,0-1.12,1.85c0,.64.52,1.28,1.57,1.9a32.37,32.37,0,0,0,5.92,2.33c3,1,5.48,1.86,7.47,2.69a36.34,36.34,0,0,1,5.65,2.93,15.78,15.78,0,0,1,4.18,3.69,15.23,15.23,0,0,1,2.35,4.72,20.75,20.75,0,0,1,.85,6.22,20,20,0,0,1-1.6,8.14,17.69,17.69,0,0,1-4.72,6.34,21.21,21.21,0,0,1-8,4.15,39.94,39.94,0,0,1-11.21,1.45Q469.22,653.48,459,644.41Z"/><path class="cls-5" d="M576.24,591.57l-31.13,85.12H523.64l10.28-29L510.7,591.57h22.8l10.28,28.71H544l9.67-28.71Z"/><path class="cls-5" d="M318.73,740l10-13.67q7.92,6.9,15.17,6.89,4.49,0,4.48-2.47a2.12,2.12,0,0,0-.49-1.43,7.49,7.49,0,0,0-2.32-1.42,40.39,40.39,0,0,0-5.48-1.87,60.13,60.13,0,0,1-5.95-2.09,30.13,30.13,0,0,1-5.23-2.81,20.08,20.08,0,0,1-4.26-3.75,15.9,15.9,0,0,1-2.75-4.89,18.1,18.1,0,0,1-1-6.23,20.37,20.37,0,0,1,1.84-8.77A17.46,17.46,0,0,1,327.8,691a23.48,23.48,0,0,1,7.41-3.84,29.77,29.77,0,0,1,9-1.33,42.19,42.19,0,0,1,9,.91,36.06,36.06,0,0,1,7.56,2.51,47.35,47.35,0,0,1,7.17,4.26l-10.22,14.69a23.41,23.41,0,0,0-6.35-4.56,14.82,14.82,0,0,0-6.41-1.66,5.41,5.41,0,0,0-2.69.63,2,2,0,0,0-1.12,1.85c0,.64.53,1.28,1.57,1.9a33.32,33.32,0,0,0,5.93,2.33c3,1,5.47,1.86,7.47,2.69a35.93,35.93,0,0,1,5.65,2.93,15.89,15.89,0,0,1,4.17,3.69,15.3,15.3,0,0,1,2.36,4.71,21.15,21.15,0,0,1,.84,6.23,20,20,0,0,1-1.6,8.13,17.73,17.73,0,0,1-4.71,6.35,21.21,21.21,0,0,1-8,4.14A39.7,39.7,0,0,1,343.52,749Q329,749,318.73,740Z"/><path class="cls-5" d="M423,686.9a25.12,25.12,0,0,1,6.47,3,25.63,25.63,0,0,1,5.38,4.75,30.3,30.3,0,0,1,4.14,6.29,34.06,34.06,0,0,1,2.66,7.68,40.55,40.55,0,0,1,.94,8.79A36.73,36.73,0,0,1,439,733.88a26.62,26.62,0,0,1-10,11.18,27.25,27.25,0,0,1-14.63,4,19.06,19.06,0,0,1-15.05-6.53h-.18v29.75H377.08V687.11h22.19v6.11h.18a20.48,20.48,0,0,1,16.26-7.38A25.2,25.2,0,0,1,423,686.9Zm-5.75,39.42a14.32,14.32,0,0,0,0-17.62,9.88,9.88,0,0,0-7.73-3.39,10.5,10.5,0,0,0-8.05,3.39,13.93,13.93,0,0,0,0,17.62,10.54,10.54,0,0,0,8.05,3.36A9.92,9.92,0,0,0,417.22,726.32Z"/><path class="cls-5" d="M509.61,722.85H469.83a9.2,9.2,0,0,0,4.14,6.46,15,15,0,0,0,8.43,2.24q7.56,0,14-6.71l11.43,12.58a29.8,29.8,0,0,1-11.34,8.37A39.69,39.69,0,0,1,480.05,749a33.41,33.41,0,0,1-16.27-4,28.76,28.76,0,0,1-11.39-11.21,34.75,34.75,0,0,1-.12-32.71,28.8,28.8,0,0,1,11.21-11.25,32.47,32.47,0,0,1,16.2-4,31.8,31.8,0,0,1,12.16,2.33,28.89,28.89,0,0,1,9.7,6.38,29.22,29.22,0,0,1,6.35,9.88A33.62,33.62,0,0,1,510.22,717,24.73,24.73,0,0,1,509.61,722.85Zm-36.37-18a9.71,9.71,0,0,0-3.35,5.95h18.86a12.91,12.91,0,0,0-1.24-3.38,9.66,9.66,0,0,0-2-2.57,7.61,7.61,0,0,0-2.69-1.6,10.3,10.3,0,0,0-9.62,1.6Z"/><path class="cls-5" d="M580.47,687.11v60.65h-21v-5.69h-.19q-5.43,7-15.59,6.95a27.7,27.7,0,0,1-11.4-2.32,26,26,0,0,1-8.92-6.44,29.51,29.51,0,0,1-5.77-10,40.52,40.52,0,0,1,0-25.6,29.91,29.91,0,0,1,5.65-10,25.88,25.88,0,0,1,8.55-6.44,24.67,24.67,0,0,1,10.59-2.33,19.93,19.93,0,0,1,15.71,7.26h.19v-6ZM556.2,726.29a14.16,14.16,0,0,0,0-17.56,9.76,9.76,0,0,0-7.59-3.42,9.92,9.92,0,0,0-7.74,3.39,14.36,14.36,0,0,0,0,17.62,10,10,0,0,0,7.74,3.36A9.8,9.8,0,0,0,556.2,726.29Z"/><path class="cls-5" d="M617.84,727.14l-4.59,5.26v15.36H591.12V656.58h22.13V703.5h.18l14-16.39h25.39l-20.31,23.22,21,37.43H629.15l-11.06-20.62Z"/><path class="cls-5" d="M660.56,745.55a11.38,11.38,0,0,1-3.53-8.44,11.23,11.23,0,0,1,3.56-8.31,12.15,12.15,0,0,1,17,0,11.25,11.25,0,0,1,3.54,8.31,11.39,11.39,0,0,1-3.54,8.44,12.21,12.21,0,0,1-17.05,0Z"/></g><g class="cls-6"><path class="cls-5" d="M382,264.88H342.19a9.22,9.22,0,0,0,4.14,6.47,15.1,15.1,0,0,0,8.44,2.24q7.55,0,14-6.72l11.43,12.58a29.59,29.59,0,0,1-11.34,8.37,39.69,39.69,0,0,1-16.41,3.24,33.41,33.41,0,0,1-16.27-4,28.78,28.78,0,0,1-11.39-11.22,34.82,34.82,0,0,1-.12-32.71,28.84,28.84,0,0,1,11.21-11.24,32.47,32.47,0,0,1,16.2-4.05,31.61,31.61,0,0,1,12.16,2.33,28.87,28.87,0,0,1,9.7,6.37,29.17,29.17,0,0,1,6.35,9.89A33.57,33.57,0,0,1,382.58,259,24.16,24.16,0,0,1,382,264.88Zm-36.36-18a9.7,9.7,0,0,0-3.36,6h18.86a13,13,0,0,0-1.24-3.39,9.61,9.61,0,0,0-2-2.57,7.76,7.76,0,0,0-2.69-1.6,9.93,9.93,0,0,0-3.3-.54A9.66,9.66,0,0,0,345.61,246.89Z"/><path class="cls-5" d="M452.84,229.15v60.64h-21v-5.68h-.19q-5.43,6.94-15.59,6.95a27.74,27.74,0,0,1-11.4-2.33,26,26,0,0,1-8.92-6.44,29.46,29.46,0,0,1-5.77-10,40.55,40.55,0,0,1,0-25.61,30,30,0,0,1,5.65-10,25.79,25.79,0,0,1,8.56-6.43,24.45,24.45,0,0,1,10.58-2.33,20,20,0,0,1,15.72,7.25h.18v-6Zm-24.28,39.18a14.18,14.18,0,0,0,0-17.57,9.74,9.74,0,0,0-7.59-3.41,9.91,9.91,0,0,0-7.74,3.38,14.37,14.37,0,0,0,0,17.63,10,10,0,0,0,7.74,3.35A9.81,9.81,0,0,0,428.56,268.33Z"/><path class="cls-5" d="M459,282l10-13.66q7.92,6.89,15.18,6.89,4.47,0,4.47-2.48a2.12,2.12,0,0,0-.48-1.42,7.38,7.38,0,0,0-2.33-1.42,39.93,39.93,0,0,0-5.47-1.88,60.43,60.43,0,0,1-6-2.08,32,32,0,0,1-5.23-2.81,20.08,20.08,0,0,1-4.26-3.75,16.16,16.16,0,0,1-2.75-4.9,18.3,18.3,0,0,1-1-6.23,20.36,20.36,0,0,1,1.85-8.76,17.38,17.38,0,0,1,5.05-6.44,22.93,22.93,0,0,1,7.4-3.84,29.51,29.51,0,0,1,9-1.33,42.24,42.24,0,0,1,9,.9,36.65,36.65,0,0,1,7.56,2.51,47.06,47.06,0,0,1,7.16,4.27l-10.22,14.69a23.09,23.09,0,0,0-6.35-4.57,14.78,14.78,0,0,0-6.4-1.66,5.28,5.28,0,0,0-2.69.64,2,2,0,0,0-1.12,1.84c0,.64.52,1.28,1.57,1.9a32.37,32.37,0,0,0,5.92,2.33q4.49,1.46,7.47,2.69a37.23,37.23,0,0,1,5.65,2.93,15.78,15.78,0,0,1,4.18,3.69,15.23,15.23,0,0,1,2.35,4.72,20.77,20.77,0,0,1,.85,6.23,20,20,0,0,1-1.6,8.13,17.72,17.72,0,0,1-4.72,6.35,21.34,21.34,0,0,1-8,4.14,39.58,39.58,0,0,1-11.21,1.45Q469.22,291.06,459,282Z"/><path class="cls-5" d="M576.24,229.15l-31.13,85.13H523.64l10.28-29L510.7,229.15h22.8l10.28,28.72H544l9.67-28.72Z"/><path class="cls-5" d="M318.73,377.54l10-13.67q7.92,6.9,15.17,6.9,4.49,0,4.48-2.48a2.08,2.08,0,0,0-.49-1.42,7.12,7.12,0,0,0-2.32-1.42,40.16,40.16,0,0,0-5.48-1.88,57.67,57.67,0,0,1-5.95-2.09,30.13,30.13,0,0,1-5.23-2.81,19.77,19.77,0,0,1-4.26-3.74,16.07,16.07,0,0,1-2.75-4.9,18.1,18.1,0,0,1-1-6.23,20.4,20.4,0,0,1,1.84-8.77,17.46,17.46,0,0,1,5.05-6.44,23.26,23.26,0,0,1,7.41-3.83,29.46,29.46,0,0,1,9-1.33,42.21,42.21,0,0,1,9,.9,36.06,36.06,0,0,1,7.56,2.51,47.35,47.35,0,0,1,7.17,4.26l-10.22,14.7a23.24,23.24,0,0,0-6.35-4.57,14.82,14.82,0,0,0-6.41-1.66,5.41,5.41,0,0,0-2.69.63,2,2,0,0,0-1.12,1.85c0,.64.53,1.28,1.57,1.9a32.55,32.55,0,0,0,5.93,2.33c3,1,5.47,1.86,7.47,2.69a36.8,36.8,0,0,1,5.65,2.93,15.89,15.89,0,0,1,4.17,3.69,15.25,15.25,0,0,1,2.36,4.72,21.08,21.08,0,0,1,.84,6.22,20,20,0,0,1-1.6,8.14,17.78,17.78,0,0,1-4.71,6.34,21.36,21.36,0,0,1-8,4.15,40.07,40.07,0,0,1-11.22,1.45Q329,386.61,318.73,377.54Z"/><path class="cls-5" d="M423,324.48a25.14,25.14,0,0,1,6.47,3,25.58,25.58,0,0,1,5.38,4.74,30.3,30.3,0,0,1,4.14,6.29,34.06,34.06,0,0,1,2.66,7.68,40.58,40.58,0,0,1,.94,8.8A36.72,36.72,0,0,1,439,371.46a26.65,26.65,0,0,1-10,11.19,27.25,27.25,0,0,1-14.63,4,19.09,19.09,0,0,1-15.05-6.53h-.18v29.74H377.08V324.7h22.19v6.1h.18a20.47,20.47,0,0,1,16.26-7.37A25.2,25.2,0,0,1,423,324.48Zm-5.75,39.42a14.32,14.32,0,0,0,0-17.62,9.88,9.88,0,0,0-7.73-3.39,10.5,10.5,0,0,0-8.05,3.39,13.93,13.93,0,0,0,0,17.62,10.54,10.54,0,0,0,8.05,3.36A9.92,9.92,0,0,0,417.22,363.9Z"/><path class="cls-5" d="M509.61,360.43H469.83A9.24,9.24,0,0,0,474,366.9a15.09,15.09,0,0,0,8.43,2.23q7.56,0,14-6.71L507.8,375a29.69,29.69,0,0,1-11.34,8.37,39.69,39.69,0,0,1-16.41,3.24,33.41,33.41,0,0,1-16.27-4,28.78,28.78,0,0,1-11.39-11.22,34.75,34.75,0,0,1-.12-32.71,28.78,28.78,0,0,1,11.21-11.24,32.47,32.47,0,0,1,16.2-4.05,31.79,31.79,0,0,1,12.16,2.32A28.14,28.14,0,0,1,507.89,342a33.57,33.57,0,0,1,2.33,12.54A24.73,24.73,0,0,1,509.61,360.43Zm-36.37-18a9.73,9.73,0,0,0-3.35,6h18.86a13,13,0,0,0-1.24-3.39,9.82,9.82,0,0,0-2-2.57,7.61,7.61,0,0,0-2.69-1.6,9.93,9.93,0,0,0-3.3-.55A9.7,9.7,0,0,0,473.24,342.44Z"/><path class="cls-5" d="M580.47,324.7v60.64h-21v-5.69h-.19q-5.43,7-15.59,7a27.7,27.7,0,0,1-11.4-2.33,26,26,0,0,1-8.92-6.44,29.51,29.51,0,0,1-5.77-10A38.25,38.25,0,0,1,515.54,355a38.67,38.67,0,0,1,2.06-12.76,29.91,29.91,0,0,1,5.65-10,25.88,25.88,0,0,1,8.55-6.44,24.66,24.66,0,0,1,10.59-2.32,19.92,19.92,0,0,1,15.71,7.25h.19v-6ZM556.2,363.87a14.16,14.16,0,0,0,0-17.56,9.76,9.76,0,0,0-7.59-3.42,9.92,9.92,0,0,0-7.74,3.39,14.36,14.36,0,0,0,0,17.62,10,10,0,0,0,7.74,3.36A9.8,9.8,0,0,0,556.2,363.87Z"/><path class="cls-5" d="M617.84,364.72,613.25,370v15.36H591.12V294.16h22.13v46.92h.18l14-16.38h25.39l-20.31,23.21,21,37.43H629.15l-11.06-20.62Z"/><path class="cls-5" d="M660.56,383.13A11.37,11.37,0,0,1,657,374.7a11.24,11.24,0,0,1,3.56-8.32,12.17,12.17,0,0,1,17,0,11.25,11.25,0,0,1,3.54,8.32,11.38,11.38,0,0,1-3.54,8.43,12.18,12.18,0,0,1-17.05,0Z"/></g></svg>