<svg id="Layer_1" data-name="Layer 1" xmlns="http://www.w3.org/2000/svg" xmlns:xlink="http://www.w3.org/1999/xlink" viewBox="0 0 1000 1000"><defs><style>.cls-1,.cls-3,.cls-31,.cls-34{fill:none;}.cls-2{fill:#eee;}.cls-3{font-size:56.72px;stroke:#eb5a2e;stroke-width:1.42px;}.cls-3,.cls-31,.cls-34{stroke-miterlimit:10;}.cls-20,.cls-3,.cls-33{font-family:Averta-Black;font-weight:800;}.cls-4{letter-spacing:-0.04em;}.cls-5{letter-spacing:-0.03em;}.cls-6{letter-spacing:-0.02em;}.cls-7{letter-spacing:0em;}.cls-8{letter-spacing:-0.01em;}.cls-20,.cls-23,.cls-9{font-size:34.03px;}.cls-9{font-family:Averta-Regular;}.cls-23,.cls-28,.cls-9{letter-spacing:0.01em;}.cls-10{letter-spacing:0.01em;}.cls-11{letter-spacing:0.01em;}.cls-12{letter-spacing:0.01em;}.cls-13{letter-spacing:0em;}.cls-14{letter-spacing:0.01em;}.cls-15{letter-spacing:0em;}.cls-16{letter-spacing:0em;}.cls-17{letter-spacing:-0.02em;}.cls-18{letter-spacing:0em;}.cls-19{letter-spacing:-0.02em;}.cls-20{letter-spacing:0.01em;}.cls-21{letter-spacing:0.01em;}.cls-22{letter-spacing:-0.03em;}.cls-23{font-family:Averta-Light;font-weight:300;}.cls-24{letter-spacing:0.01em;}.cls-25{letter-spacing:-0.01em;}.cls-26{letter-spacing:-0.01em;}.cls-27{letter-spacing:0em;}.cls-29{letter-spacing:-0.01em;}.cls-30{clip-path:url(#clip-path);}.cls-31,.cls-34{stroke:#000;}.cls-31{stroke-width:1.45px;}.cls-32{clip-path:url(#clip-path-2);}.cls-33{font-size:70.91px;}.cls-34{stroke-width:1.81px;}.cls-35{clip-path:url(#clip-path-3);}</style><clipPath id="clip-path"><rect class="cls-1" x="296.93" y="-0.12" width="703.24" height="283.14"/></clipPath><clipPath id="clip-path-2"><rect class="cls-1" x="-0.18" y="-0.12" width="1000" height="1000"/></clipPath><clipPath id="clip-path-3"><rect class="cls-1" x="1050.18" y="-0.18" width="1000.35" height="1000.35"/></clipPath></defs><rect class="cls-2" x="-0.18" y="-0.12" width="1000" height="1000"/><text class="cls-3" transform="translate(390.35 230.94)"><tspan class="cls-4">A</tspan><tspan class="cls-5" x="36.86" y="0">v</tspan><tspan x="65.85" y="0">er</tspan><tspan class="cls-6" x="117.89" y="0">t</tspan><tspan class="cls-7" x="138.02" y="0">a </tspan><tspan class="cls-8" x="184.38" y="0">R</tspan><tspan x="220.1" y="0">egular</tspan></text><text class="cls-9" transform="translate(390.24 283.02)">A<tspan class="cls-10" x="23.44" y="0">a Bb </tspan><tspan class="cls-11" x="107.53" y="0">C</tspan><tspan class="cls-12" x="132.5" y="0">c Dd </tspan><tspan class="cls-13" x="216.7" y="0">E</tspan><tspan class="cls-14" x="236.97" y="0">e </tspan><tspan class="cls-15" x="265.93" y="0">F</tspan><tspan class="cls-12" x="285.66" y="0">f Gg Hh </tspan><tspan class="cls-16" x="419.4" y="0">I</tspan><tspan class="cls-10" x="428.93" y="0">i Jj</tspan><tspan class="cls-10"><tspan x="0" y="49.63">Kk Ll Mm Nn Oo Pp Qq Rr Ss</tspan></tspan><tspan class="cls-17"><tspan x="0" y="99.25">T</tspan><tspan class="cls-12" x="19.02" y="99.25">t Uu Vv </tspan><tspan class="cls-18" x="146.94" y="99.25">W</tspan><tspan class="cls-12" x="181.89" y="99.25">w Xx </tspan><tspan class="cls-19" x="268.89" y="99.25">Y</tspan><tspan class="cls-12" x="288.94" y="99.25">y Zz</tspan></tspan></text><text class="cls-3" transform="translate(390.35 496.01)"><tspan class="cls-4">A</tspan><tspan class="cls-5" x="36.86" y="0">v</tspan><tspan x="65.85" y="0">er</tspan><tspan class="cls-6" x="117.89" y="0">t</tspan><tspan class="cls-7" x="138.02" y="0">a Black</tspan></text><text class="cls-20" transform="translate(390.24 548.09)">A<tspan class="cls-12" x="23.85" y="0">a Bb </tspan><tspan class="cls-21" x="103.11" y="0">C</tspan><tspan class="cls-12" x="127.39" y="0">c Dd Ee Ff Gg Hh Ii Jj</tspan><tspan class="cls-12"><tspan x="0" y="49.63">Kk Ll Mm Nn Oo Pp Qq Rr Ss</tspan></tspan><tspan x="0" y="99.25">T</tspan><tspan class="cls-12" x="20.15" y="99.25">t Uu Vv Ww Xx </tspan><tspan class="cls-22" x="265.12" y="99.25">Y</tspan><tspan class="cls-12" x="285.93" y="99.25">y Zz</tspan></text><text class="cls-3" transform="translate(390.35 761.2)"><tspan class="cls-4">A</tspan><tspan class="cls-5" x="36.86" y="0">v</tspan><tspan x="65.85" y="0">er</tspan><tspan class="cls-6" x="117.89" y="0">t</tspan><tspan class="cls-7" x="138.02" y="0">a Light</tspan></text><text class="cls-23" transform="translate(390.24 813.28)">A<tspan class="cls-12" x="22.92" y="0">a Bb </tspan><tspan class="cls-24" x="106.6" y="0">C</tspan><tspan class="cls-10" x="131.42" y="0">c Dd </tspan><tspan class="cls-25" x="215.44" y="0">E</tspan><tspan class="cls-10" x="235.21" y="0">e </tspan><tspan class="cls-26" x="264.1" y="0">F</tspan><tspan class="cls-12" x="283.35" y="0">f Gg Hh </tspan><tspan class="cls-27" x="416.32" y="0">I</tspan><tspan class="cls-12" x="424.97" y="0">i Jj</tspan><tspan class="cls-12"><tspan x="0" y="49.63">Kk Ll Mm Nn Oo Pp Qq Rr Ss</tspan></tspan><tspan class="cls-15"><tspan x="0" y="99.25">T</tspan><tspan class="cls-12" x="19.1" y="99.25">t Uu Vv </tspan><tspan class="cls-28" x="145.89" y="99.25">W</tspan><tspan class="cls-12" x="180.58" y="99.25">w Xx </tspan><tspan class="cls-29" x="266.53" y="99.25">Y</tspan><tspan class="cls-12" x="286.09" y="99.25">y Zz</tspan></tspan></text><g class="cls-30"><path class="cls-31" d="M320.66-3.87c22.92-6.81,46.57,9.58,60.81,28.79s23.6,42.27,41.08,58.59c15.77,14.72,36.77,22.59,57.79,27.43,100.6,23.19,210.69-14.84,307.13,22,30.4,11.61,57.63,30.12,87.1,43.93C906.1,191.63,940.7,201,975.49,199.62s69.78-14.17,94.38-38.81"/><path class="cls-31" d="M347.82-14.19c22.83-3.61,47.54,11.81,63.56,29.08C427.23,32,438.54,52.06,457.17,66.3q3.22,2.46,6.68,4.65c15.63,9.94,34.34,15.77,53.06,19.67,37.65,7.86,76.42,8.89,115.31,8.39,22.44-.29,45.07-1.36,67.2-2.66,31.78-1.88,65.21-8.26,95.53-2.91,9.53,1.68,19.34,5.12,29.38,9.63C853.48,116.15,881,136,909.62,152c19.16,10.7,38.87,19.55,58.25,23.46,13,2.64,27.25,1.67,41.14-.24,5.5-.75,10.91-1.67,16.09-2.28,28.53-3.35,44.87-22.49,65.25-42.72"/><path class="cls-31" d="M375-24.51c22.74-.42,48.48,14,66.32,29.37,17.41,15,30.7,32.07,50.48,44.22,2.29,1.41,4.64,2.73,7.05,4,16.42,8.51,35.53,13.65,54.65,17.24,38.45,7.23,77.87,9,117.37,9.25a658.26,658.26,0,0,0,68.31-2.93c30-3,63.86-17,92.55-13.75,9.19,1,19,5,29.48,10.33,27.94,14.38,55.62,35.84,83.48,53.94,19.4,12.6,38.78,23.33,57,27.32,12.33,2.74,27-.39,40.83-3.63a126.22,126.22,0,0,1,16.08-3.12c27.81-2.54,32.26-28.46,52.23-48.09"/><path class="cls-31" d="M402.15-34.82C424.79-32,451.51-18.54,471.21-5.17c18.94,12.86,34.26,27,55.18,37q3.63,1.74,7.43,3.3C551,42.26,570.54,46.71,590.06,50c39.24,6.59,79.3,9.13,119.43,10.11,23.21.58,46.84-.06,69.4-3.2,28.3-3.94,62.55-25.75,89.58-24.58,8.86.38,18.73,4.74,29.58,11,26.77,15.52,54.57,38.83,81.67,58.94,19.61,14.56,38.7,27.06,55.81,31.18,11.67,2.81,26.67-2.5,40.51-7,5.76-1.88,11.24-3.62,16.09-3.94,27.08-1.8,19.64-34.44,39.19-53.46"/><path class="cls-31" d="M429.31-45.14c22.54,6,50.23,18.55,71.81,29.93C521.57-4.43,538.94,6.67,561,14.66c2.56.92,5.16,1.79,7.8,2.63,18,5.65,37.91,9.41,57.83,12.37,40,5.95,80.75,9.24,121.49,11,23.6,1,47.72.68,70.51-3.47,26.55-4.83,61.24-34.56,86.61-35.41,8.53-.29,18.44,4.48,29.67,11.72,25.66,16.56,53.48,41.9,79.87,64,19.79,16.55,38.61,30.82,54.58,35,11,2.9,26.38-4.64,40.2-10.43,5.89-2.47,11.4-4.6,16.08-4.78,26.37-1,7-40.4,26.16-58.82"/><path class="cls-31" d="M456.47-55.46C478.92-46.3,507.55-34.6,531-25.24,553-16.5,572.4-8.46,595.62-2.56c2.68.68,5.41,1.33,8.16,2,18.79,4.23,39.1,7.3,59.42,9.94C704,14.66,745.39,18.7,786.76,21.17c24,1.44,48.6,1.48,71.6-3.73,24.83-5.63,60-43.44,83.64-46.26,8.21-1,18.19,4.2,29.76,12.43,24.62,17.5,52.36,45,78.07,69,19.94,18.58,38.52,34.59,53.36,38.9,10.34,3,26.07-6.8,39.89-13.83,6-3.06,11.56-5.57,16.08-5.6,25.64-.2-5.59-46.38,13.12-64.19"/><path class="cls-31" d="M483.64-65.78C506-53.42,535.55-42.57,561-35.27a553.26,553.26,0,0,0,69.28,15.5c2.82.44,5.66.86,8.54,1.28,19.57,2.8,40.29,5.19,61,7.51C741.4-6.3,783.4-1.5,825.39,1.71c24.37,1.88,49.51,2.36,72.71-4s58.66-52.38,80.66-57.09c7.89-1.69,18,3.87,29.86,13.12,23.63,18.38,51.18,48.16,76.26,74,20.06,20.65,38.44,38.37,52.14,42.76,9.68,3.1,25.75-9,39.57-17.22,6.14-3.66,11.74-6.54,16.09-6.44,24.92.62-18.2-52.34.09-69.56"/><path class="cls-31" d="M510.8-76.09c22.26,15.54,52.75,25.58,80.06,30.78,24.88,4.75,48.48,6.59,74,8.32l8.91.61c20.36,1.38,41.48,3.07,62.59,5.08,42.43,4,85.08,9.59,127.69,13.55,24.75,2.31,50.44,3.33,73.8-4.27,21.43-7,57.35-61.39,77.69-67.92,7.56-2.43,17.77,3.5,30,13.82,22.69,19.21,50,51.33,74.45,79,20.14,22.73,38.35,42.14,50.92,46.61,9,3.2,25.42-11.16,39.26-20.62,6.24-4.26,11.9-7.51,16.08-7.26,24.2,1.43-30.81-58.32-12.94-74.93"/><path class="cls-31" d="M538-86.41c22.16,18.74,53.6,28,82.82,31.07,26.37,2.79,52,1.49,78.68,1.14,3.08,0,6.17-.07,9.27-.07,21.16,0,42.68,1,64.19,2.65,43.22,3.41,86.51,9.71,129.74,14.41,25.14,2.74,51.43,4.41,74.91-4.54,19.79-7.54,56-70.46,74.72-78.75,7.21-3.2,17.61,3.1,30,14.52,21.81,20,48.7,54.51,72.64,84,20.19,24.84,38.25,46,49.7,50.47,8.33,3.33,25.07-13.36,38.94-24,6.36-4.88,12.07-8.48,16.09-8.1,23.47,2.29-43.43-64.29-26-80.29"/><path class="cls-31" d="M565.13-96.73c22.06,21.94,54.46,30.42,85.56,31.36s62-4.71,93-6.79c66-4.43,131.9,7.33,197.58,15.49,25.52,3.17,52.49,5.61,76-4.81,18.21-8.06,54.54-79.57,71.75-89.59C1117-167.33,1209-5.72,1238.51,7.47c11.22,5,42.54-38,54.72-36.33,22.75,3.08-56-70.26-39-85.66"/></g><g class="cls-32"><text class="cls-33" transform="translate(-21.13 126.82) rotate(7.17)">A</text><text class="cls-33" transform="matrix(0.96, 0.28, -0.28, 0.96, 22.79, 132.3)">v</text><text class="cls-33" transform="matrix(0.9, 0.43, -0.43, 0.9, 55.93, 141.49)">e</text><text class="cls-33" transform="translate(89 157.52) rotate(34.52)">r</text><text class="cls-33" transform="translate(109.5 171.46) rotate(42.35)">t</text><text class="cls-33" transform="translate(127.31 186.48) rotate(51.87)">a</text><text class="cls-33" transform="translate(151.36 218.41) rotate(59.81)"> </text><text class="cls-33" transform="translate(159.52 230.89) rotate(66.77)">F</text><text class="cls-33" transform="translate(174.02 264.3) rotate(74.72)">o</text><text class="cls-33" transform="translate(184.63 302.61) rotate(82.44)">n</text><text class="cls-33" transform="translate(189.49 341.78) rotate(89.1)">t</text><text class="cls-33" transform="translate(189.74 367.7) rotate(93.28)"> </text><text class="cls-33" transform="matrix(-0.15, 0.99, -0.99, -0.15, 189.44, 382.9)">F</text><text class="cls-33" transform="translate(184.14 419.52) rotate(104.71)">a</text><text class="cls-33" transform="translate(174.2 458.79) rotate(110.64)">m</text><text class="cls-33" transform="matrix(-0.39, 0.92, -0.92, -0.39, 152.1, 515.88)">i</text><text class="cls-33" transform="matrix(-0.4, 0.92, -0.92, -0.4, 144.49, 533.79)">l</text><text class="cls-33" transform="translate(136.62 551.76) rotate(112.47)">y</text><text class="cls-33" transform="translate(121.72 588.28) rotate(109.96)"> </text><text class="cls-33" transform="translate(114.07 606.61) rotate(103.55)">A</text><text class="cls-33" transform="translate(102.59 659.45) rotate(88.85)">v</text><text class="cls-33" transform="translate(104.11 693.49) rotate(100.36)">e</text><text class="cls-33" transform="translate(97.14 729.31) rotate(110.69)">r</text><text class="cls-33" transform="translate(88.46 752.59) rotate(118.32)">t</text><text class="cls-33" transform="translate(78.03 773.59) rotate(126.97)">a</text><text class="cls-33" transform="translate(53.33 805.21) rotate(134.36)"> </text><text class="cls-33" transform="translate(43.6 816.38) rotate(141.63)">F</text><text class="cls-33" transform="translate(15.79 839.09) rotate(152.57)">o</text><text class="cls-33" transform="translate(-18.22 857.32) rotate(166.65)">n</text><text class="cls-33" transform="translate(-55.14 865.71) rotate(-178.76)">t</text><text class="cls-33" transform="matrix(-0.98, -0.21, 0.21, -0.98, -79.69, 864.92)"> </text><path class="cls-34" d="M-59.36,158.37c21.19,2,42.34,8.19,62,16.36,45.75,19,82.18,52.12,102.17,99,44.93,105.25-11.3,210.07-34.17,313C57,648.22,53.44,716.08,12.52,766.48-.3,782.27-14,802.64-32.14,812.31c-34,18.18-60.93-1.42-96.88,12.2-9.4,3.56-18.83,7-28.33,10.31"/><path class="cls-34" d="M-86.33,158.37c21.19,2,42.35,8.19,62,16.36,45.76,19,91.89,70.29,111.88,117.11,44.93,105.26-27.15,181.9-50,284.84-13.68,61.53-11.09,139.4-52,189.8C-27.26,782.27-41,802.64-59.11,812.31c-34,18.18-60.92-1.42-96.87,12.2-9.4,3.56-18.83,7-28.33,10.31"/><path class="cls-34" d="M-113.29,158.37c21.19,2,42.34,8.19,62,16.36C-5.51,193.72,50.33,263.18,70.32,310c44.93,105.25-43,153.72-65.88,256.66C-9.23,628.2-.49,716.08-41.41,766.48-54.23,782.27-68,802.64-86.07,812.31c-34,18.18-60.93-1.42-96.88,12.2-9.39,3.56-18.83,7-28.32,10.31"/><path class="cls-34" d="M-140.25,158.37c21.19,2,42.34,8.19,62,16.36,45.76,19,111.3,106.61,131.29,153.44C98,433.43-5.79,453.72-28.67,556.66c-13.67,61.53,1.22,159.42-39.7,209.82-12.82,15.79-26.56,36.16-44.67,45.83-34,18.18-60.92-1.42-96.87,12.2-9.4,3.56-18.83,7-28.33,10.31"/><path class="cls-34" d="M-167.22,158.37c21.19,2,42.35,8.19,62,16.36,45.75,19,121,124.78,141,171.61,44.93,105.25-74.71,97.37-97.58,200.31-13.67,61.53,7.36,169.43-33.55,219.83-12.83,15.79-26.56,36.16-44.67,45.83-34,18.18-60.92-1.42-96.87,12.2-9.4,3.56-18.83,7-28.33,10.31"/><path class="cls-34" d="M-194.18,158.37c21.19,2,42.34,8.19,62,16.36,45.75,19,130.7,142.94,150.69,189.77C63.47,469.75-72,433.7-94.89,536.64c-13.68,61.53,13.51,179.44-27.41,229.84-12.82,15.79-26.55,36.16-44.66,45.83-34,18.18-60.93-1.42-96.88,12.2-9.4,3.56-18.83,7-28.32,10.31"/><path class="cls-34" d="M-221.15,158.37c21.19,2,42.35,8.19,62,16.36,45.76,19,140.41,161.11,160.4,207.93,44.93,105.26-106.41,41-129.29,144-13.67,61.54,19.67,189.46-21.25,239.86-12.82,15.79-26.56,36.16-44.67,45.83-34,18.18-60.92-1.42-96.87,12.2-9.4,3.56-18.83,7-28.33,10.31"/></g><g class="cls-35"><image width="2500" height="2000" transform="translate(925.18 -0.18) scale(0.5)" xlink:href="../../../../easyspeak/examReportPaper/mockup.jpg"/></g></svg>