<svg id="Layer_1" data-name="Layer 1" xmlns="http://www.w3.org/2000/svg" xmlns:xlink="http://www.w3.org/1999/xlink" viewBox="0 0 1000 1000"><defs><style>.cls-1,.cls-3,.cls-5,.cls-7{fill:none;}.cls-2{fill:#eee;}.cls-3{stroke:#eb5a2e;stroke-width:1.42px;}.cls-3,.cls-5,.cls-7{stroke-miterlimit:10;}.cls-4{clip-path:url(#clip-path);}.cls-5,.cls-7{stroke:#000;}.cls-5{stroke-width:1.45px;}.cls-6{clip-path:url(#clip-path-2);}.cls-7{stroke-width:1.81px;}.cls-8{clip-path:url(#clip-path-3);}</style><clipPath id="clip-path"><rect class="cls-1" x="296.93" y="-0.12" width="703.24" height="283.14"/></clipPath><clipPath id="clip-path-2"><rect class="cls-1" x="-0.18" y="-0.12" width="1000" height="1000"/></clipPath><clipPath id="clip-path-3"><rect class="cls-1" x="1050.18" y="-0.18" width="1000.35" height="1000.35"/></clipPath></defs><rect class="cls-2" x="-0.18" y="-0.12" width="1000" height="1000"/><path class="cls-3" d="M416.49,224.43H403.56l-2,6.51h-11.3l14.62-40.29h10.3l14.63,40.29H418.51Zm-2.82-9.05-3.6-11.58H410l-3.6,11.58Z"/><path class="cls-3" d="M457.78,203.16l-10.6,27.78h-9.12l-10.63-27.78h10.5l4.65,15.76h.11l4.51-15.76Z"/><path class="cls-3" d="M485.61,219.53H467.39a4.24,4.24,0,0,0,1.9,3,6.84,6.84,0,0,0,3.86,1,8.76,8.76,0,0,0,6.4-3.08l5.23,5.77a13.64,13.64,0,0,1-5.19,3.83,18.19,18.19,0,0,1-7.52,1.48,15.3,15.3,0,0,1-7.45-1.81,13.23,13.23,0,0,1-5.22-5.14,15.9,15.9,0,0,1,0-15,13.1,13.1,0,0,1,5.13-5.15,14.85,14.85,0,0,1,7.43-1.86,14.53,14.53,0,0,1,5.56,1.07,13.19,13.19,0,0,1,4.45,2.92,13.51,13.51,0,0,1,2.9,4.53,15.14,15.14,0,0,1,1.07,5.74A10.94,10.94,0,0,1,485.61,219.53ZM469,211.29a4.45,4.45,0,0,0-1.54,2.73h8.64a6.06,6.06,0,0,0-.57-1.55,4.49,4.49,0,0,0-.9-1.18,3.47,3.47,0,0,0-1.23-.73,4.39,4.39,0,0,0-1.51-.25A4.43,4.43,0,0,0,469,211.29Z"/><path class="cls-3" d="M507.63,202.58v10.83c-.55,0-1.27,0-2.13,0a5.78,5.78,0,0,0-4.3,1.48,5.41,5.41,0,0,0-1.46,4v12.13H489.6V203.16h10.14V207h.08a10.44,10.44,0,0,1,3.48-3.26,8.67,8.67,0,0,1,4.27-1.12Z"/><path class="cls-3" d="M516.86,231a7.36,7.36,0,0,1-2.63-1.68,7.76,7.76,0,0,1-1.75-2.93,12.17,12.17,0,0,1-.64-4.12v-11h-3v-8h3v-8.72L522,193.39v9.77h6v8h-6V220a9.72,9.72,0,0,0,0,1,4,4,0,0,0,.22.87,1.36,1.36,0,0,0,.57.7,1.9,1.9,0,0,0,1,.24,4.78,4.78,0,0,0,2.05-.44l2.47,7.06a16.12,16.12,0,0,1-3.57,1.54,16.89,16.89,0,0,1-4.55.51A9.31,9.31,0,0,1,516.86,231Z"/><path class="cls-3" d="M559.33,203.16v27.78h-9.61v-2.6h-.08a8.54,8.54,0,0,1-7.15,3.18,12.72,12.72,0,0,1-5.22-1.06,12.08,12.08,0,0,1-4.08-3,13.6,13.6,0,0,1-2.65-4.59,18.67,18.67,0,0,1,0-11.73,13.73,13.73,0,0,1,2.59-4.59,11.72,11.72,0,0,1,3.92-2.95,11.27,11.27,0,0,1,4.85-1.07,9.15,9.15,0,0,1,7.2,3.32h.08v-2.74Zm-11.12,18a6.49,6.49,0,0,0,0-8.05,4.47,4.47,0,0,0-3.47-1.56,4.57,4.57,0,0,0-3.55,1.55,6.59,6.59,0,0,0,0,8.07,4.56,4.56,0,0,0,3.55,1.54A4.49,4.49,0,0,0,548.21,221.11Z"/><path class="cls-3" d="M598.27,230.94l-7.59-12.3h-2.49v12.3H577.72V190.65h16.15a18.63,18.63,0,0,1,6.55,1.06,11.46,11.46,0,0,1,4.59,3,12.69,12.69,0,0,1,2.65,4.51,17.58,17.58,0,0,1,.88,5.73,17.35,17.35,0,0,1-.45,4.06,12.51,12.51,0,0,1-1.35,3.37,11.59,11.59,0,0,1-2.13,2.63,11.93,11.93,0,0,1-2.88,1.91l0,.08,9.11,13.93Zm-10.08-21.63h3.27a7.09,7.09,0,0,0,4.28-1.19,4,4,0,0,0,1.62-3.41,4.16,4.16,0,0,0-1.54-3.28,6.56,6.56,0,0,0-4.36-1.31h-3.27Z"/><path class="cls-3" d="M639.86,219.53H621.64a4.24,4.24,0,0,0,1.9,3,6.84,6.84,0,0,0,3.86,1,8.76,8.76,0,0,0,6.4-3.08l5.23,5.77a13.64,13.64,0,0,1-5.19,3.83,18.19,18.19,0,0,1-7.52,1.48,15.3,15.3,0,0,1-7.45-1.81,13.23,13.23,0,0,1-5.22-5.14,15.9,15.9,0,0,1,0-15,13.1,13.1,0,0,1,5.13-5.15,14.85,14.85,0,0,1,7.43-1.86,14.53,14.53,0,0,1,5.56,1.07,13.19,13.19,0,0,1,4.45,2.92,13.51,13.51,0,0,1,2.9,4.53,15.14,15.14,0,0,1,1.07,5.74A10.94,10.94,0,0,1,639.86,219.53Zm-16.65-8.24a4.45,4.45,0,0,0-1.54,2.73h8.64a6.06,6.06,0,0,0-.57-1.55,4.49,4.49,0,0,0-.9-1.18,3.47,3.47,0,0,0-1.23-.73,4.39,4.39,0,0,0-1.51-.25A4.43,4.43,0,0,0,623.21,211.29Z"/><path class="cls-3" d="M672.32,203.16V226.9a27,27,0,0,1-.47,5.25,14.92,14.92,0,0,1-1.58,4.34,11,11,0,0,1-2.85,3.37A13,13,0,0,1,663,242a22.31,22.31,0,0,1-6.08.76,29.28,29.28,0,0,1-6.23-.58,21.17,21.17,0,0,1-5.29-2l2.24-8a15.24,15.24,0,0,0,3.78,1.59,15.68,15.68,0,0,0,4.23.65,8.41,8.41,0,0,0,5-1.28,3.82,3.82,0,0,0,1.77-3.21v-2.52h-.08a9.44,9.44,0,0,1-7.34,2.91,11.9,11.9,0,0,1-6.45-1.79,12,12,0,0,1-4.42-4.87,15.1,15.1,0,0,1-1.56-6.91,17.48,17.48,0,0,1,.92-5.71,14.12,14.12,0,0,1,2.51-4.51,11.37,11.37,0,0,1,3.78-2.92,10.64,10.64,0,0,1,4.69-1.07,9.73,9.73,0,0,1,7.62,3.3h.08v-2.72Zm-11.09,16.91a5,5,0,0,0-3.5-8.52,4.82,4.82,0,0,0-4.93,5,4.74,4.74,0,0,0,1.41,3.56,5.18,5.18,0,0,0,7,0Z"/><path class="cls-3" d="M704.47,203.16v27.78H694.31v-3h-.11a9.34,9.34,0,0,1-3.37,2.64,9.89,9.89,0,0,1-4.19.9q-9.84,0-9.83-12.1V203.16h10.1V217a8.23,8.23,0,0,0,.85,4.28,3,3,0,0,0,2.78,1.32,3.27,3.27,0,0,0,2.73-1.37,6.76,6.76,0,0,0,1-4.09v-14Z"/><path class="cls-3" d="M709.57,189.18h10.11v41.76H709.57Z"/><path class="cls-3" d="M753.41,203.16v27.78H743.8v-2.6h-.09a8.53,8.53,0,0,1-7.14,3.18,12.65,12.65,0,0,1-5.22-1.06,12,12,0,0,1-4.09-3,13.58,13.58,0,0,1-2.64-4.59,17.43,17.43,0,0,1-1-5.88,17.94,17.94,0,0,1,.94-5.85,13.91,13.91,0,0,1,2.59-4.59,11.82,11.82,0,0,1,3.92-2.95,11.3,11.3,0,0,1,4.85-1.07,9.15,9.15,0,0,1,7.2,3.32h.08v-2.74Zm-11.12,18a6.49,6.49,0,0,0,0-8.05,4.49,4.49,0,0,0-3.48-1.56,4.54,4.54,0,0,0-3.54,1.55,6.55,6.55,0,0,0,0,8.07,4.76,4.76,0,0,0,7,0Z"/><path class="cls-3" d="M776.31,202.58v10.83c-.56,0-1.27,0-2.13,0a5.78,5.78,0,0,0-4.3,1.48,5.37,5.37,0,0,0-1.46,4v12.13H758.28V203.16h10.14V207h.08A10.51,10.51,0,0,1,772,203.7a8.74,8.74,0,0,1,4.28-1.12Z"/><path d="M407.24,277.13H396.45L394.31,283H391.2l9.14-24.18h3L412.52,283H409.4Zm-.95-2.59-4.42-12.08h-.07l-4.4,12.08Z"/><path d="M431.92,266.45V283h-2.64v-2.63h0a7.12,7.12,0,0,1-2.5,2.1,7.34,7.34,0,0,1-3.3.74,8.46,8.46,0,0,1-3.19-.6,7.53,7.53,0,0,1-4.31-4.35,9.75,9.75,0,0,1,.41-7.83,7.83,7.83,0,0,1,7.07-4.2,7.53,7.53,0,0,1,3.18.68,7,7,0,0,1,2.51,2h.06v-2.46Zm-6.1,13.83a5.37,5.37,0,0,0,3-3,6.23,6.23,0,0,0,.45-2.38,6.79,6.79,0,0,0-.42-2.39,6.21,6.21,0,0,0-1.16-1.93,5.28,5.28,0,0,0-1.76-1.29,5.13,5.13,0,0,0-2.19-.47,5.36,5.36,0,0,0-4,1.67,6.16,6.16,0,0,0-1.6,4.41,5.9,5.9,0,0,0,1.55,4.19,5.23,5.23,0,0,0,4,1.66A5.34,5.34,0,0,0,425.82,280.28Z"/><path d="M461.42,271a6.41,6.41,0,0,1,1.59,1.25,5.59,5.59,0,0,1,1.1,1.83,6.93,6.93,0,0,1,.4,2.37,6.84,6.84,0,0,1-.5,2.65,5.68,5.68,0,0,1-1.48,2.06,6.89,6.89,0,0,1-2.54,1.36,12,12,0,0,1-3.56.48h-8.81V258.84h7.9a13.66,13.66,0,0,1,3.21.35,7.29,7.29,0,0,1,2.45,1.05,4.57,4.57,0,0,1,1.58,1.85,6,6,0,0,1,.55,2.65,6,6,0,0,1-1,3.37,5.4,5.4,0,0,1-2.88,2.15v.05A6.8,6.8,0,0,1,461.42,271Zm-10.84-1.79h4.9a7.89,7.89,0,0,0,1.39-.13,5.06,5.06,0,0,0,1.3-.42,4.94,4.94,0,0,0,1.09-.73,3.11,3.11,0,0,0,.73-1.12,3.87,3.87,0,0,0,.28-1.51,3.61,3.61,0,0,0-.31-1.55,3.09,3.09,0,0,0-.94-1.17,4.32,4.32,0,0,0-1.67-.77,9.84,9.84,0,0,0-2.45-.26h-4.32Zm9.26,10a3.43,3.43,0,0,0,1.56-3.05,4.17,4.17,0,0,0-.64-2.31,4.11,4.11,0,0,0-1.92-1.48,8.18,8.18,0,0,0-3.11-.53h-5.15v8.41h5A7.52,7.52,0,0,0,459.84,279.25Z"/><path d="M482,267.37a7.82,7.82,0,0,1,2.9,3.08,9.75,9.75,0,0,1,.41,7.83,7.85,7.85,0,0,1-1.73,2.66,7.76,7.76,0,0,1-2.58,1.69,8.5,8.5,0,0,1-3.19.6,7.21,7.21,0,0,1-3.3-.74,6.92,6.92,0,0,1-2.5-2.1H472V283h-2.64V258h2.76v11h.06a6.91,6.91,0,0,1,2.51-2,7.53,7.53,0,0,1,3.18-.68A7.9,7.9,0,0,1,482,267.37Zm-.42,11.68a5.9,5.9,0,0,0,1.55-4.19,6.12,6.12,0,0,0-1.61-4.41,5.32,5.32,0,0,0-4-1.67,5.24,5.24,0,0,0-2.83.8,5.57,5.57,0,0,0-2,2.2,6.74,6.74,0,0,0-.71,3.08,6.23,6.23,0,0,0,.45,2.38,5.37,5.37,0,0,0,3,3,5.65,5.65,0,0,0,6.16-1.23Z"/><path d="M508.07,282.7a11.44,11.44,0,0,1-3.31-1.51,11.1,11.1,0,0,1-2.62-2.45,10.6,10.6,0,0,1-1.74-3.42,14,14,0,0,1-.62-4.28,15.22,15.22,0,0,1,.49-3.93,11.74,11.74,0,0,1,1.52-3.42,11.1,11.1,0,0,1,2.44-2.67,10.58,10.58,0,0,1,3.37-1.76,13.38,13.38,0,0,1,4.22-.64,12,12,0,0,1,3.33.47,11.76,11.76,0,0,1,3.22,1.52,12.7,12.7,0,0,1,2.87,2.63L519,265.09a9.71,9.71,0,0,0-3.26-2.69,8.52,8.52,0,0,0-3.95-.95,9,9,0,0,0-4.75,1.23,8.08,8.08,0,0,0-3.12,3.4,11,11,0,0,0-1.08,5,10.84,10.84,0,0,0,.44,3.17,8.39,8.39,0,0,0,3.15,4.53,8.26,8.26,0,0,0,2.47,1.22,9.76,9.76,0,0,0,2.89.42,9,9,0,0,0,7.21-3.61l2.21,1.86a12.6,12.6,0,0,1-4,3.34,11.44,11.44,0,0,1-5.38,1.23A14,14,0,0,1,508.07,282.7Z"/><path d="M528.31,282.17a7.46,7.46,0,0,1-2.92-3,9.77,9.77,0,0,1,0-8.83,7.52,7.52,0,0,1,2.94-3,8.5,8.5,0,0,1,4.3-1.08,9.28,9.28,0,0,1,3.69.77,7.93,7.93,0,0,1,3,2.19l-1.92,1.66a5.54,5.54,0,0,0-2-1.52,6.2,6.2,0,0,0-2.63-.55,5.31,5.31,0,0,0-4.06,1.66,6.67,6.67,0,0,0,0,8.6,5.34,5.34,0,0,0,4.06,1.65,6.62,6.62,0,0,0,2.66-.54,5.69,5.69,0,0,0,2-1.44l1.91,1.72a8.17,8.17,0,0,1-2.91,2,9.85,9.85,0,0,1-3.93.78A8.36,8.36,0,0,1,528.31,282.17Z"/><path d="M553.77,258.84H561a14.51,14.51,0,0,1,5.19.9,11.37,11.37,0,0,1,4,2.49,11.15,11.15,0,0,1,2.5,3.84,13.22,13.22,0,0,1,.89,4.9,11.68,11.68,0,0,1-3.37,8.72A12.34,12.34,0,0,1,561.1,283h-7.33Zm7.15,21.48a11.45,11.45,0,0,0,2.72-.31,9.64,9.64,0,0,0,2.34-.9,8.58,8.58,0,0,0,3.32-3.3,9.16,9.16,0,0,0,.88-2.26,10.36,10.36,0,0,0,.31-2.58,9.94,9.94,0,0,0-1.18-4.89,8.49,8.49,0,0,0-3.33-3.34,9.87,9.87,0,0,0-4.93-1.21h-4.32v18.79Z"/><path d="M594.11,258V283h-2.64v-2.63h-.05a6.94,6.94,0,0,1-1.53,1.53,6.54,6.54,0,0,1-1.94,1,7.34,7.34,0,0,1-2.27.34,8.53,8.53,0,0,1-3.19-.6,8,8,0,0,1-2.58-1.69,7.69,7.69,0,0,1-1.72-2.66,9.19,9.19,0,0,1-.63-3.44,9.33,9.33,0,0,1,.61-3.4,8.31,8.31,0,0,1,1.68-2.74,7.52,7.52,0,0,1,2.58-1.79,8,8,0,0,1,3.24-.66,7.58,7.58,0,0,1,2.14.3,6.89,6.89,0,0,1,3.49,2.36h.05V258ZM588,280.28a5.4,5.4,0,0,0,1.76-1.18,5.53,5.53,0,0,0,1.2-1.86,6.23,6.23,0,0,0,.45-2.38,6.79,6.79,0,0,0-.42-2.39,6.38,6.38,0,0,0-1.15-1.93,5.2,5.2,0,0,0-1.74-1.29,4.94,4.94,0,0,0-2.16-.47,5.35,5.35,0,0,0-4,1.67,6.12,6.12,0,0,0-1.6,4.41,5.89,5.89,0,0,0,1.54,4.19,5.6,5.6,0,0,0,6.13,1.23Z"/><path d="M610,258.84H624.8v2.73H613v8.09h9.7v2.72H613v7.91h12.53V283H610Z"/><path d="M644.35,275.61H631.62a5.69,5.69,0,0,0,1.78,3.69,5.32,5.32,0,0,0,3.74,1.39,5.67,5.67,0,0,0,2.66-.61,6.1,6.1,0,0,0,2-1.62l1.93,1.65a7.9,7.9,0,0,1-2.82,2.28,8.65,8.65,0,0,1-3.88.84,8.41,8.41,0,0,1-3.26-.62,7.62,7.62,0,0,1-4.35-4.41,9.88,9.88,0,0,1,0-6.89,8.12,8.12,0,0,1,1.67-2.69,7.68,7.68,0,0,1,2.52-1.74,7.85,7.85,0,0,1,3.13-.63,7.72,7.72,0,0,1,4,1.06,7.15,7.15,0,0,1,2.72,2.94,9.09,9.09,0,0,1,.95,4.23A6.53,6.53,0,0,1,644.35,275.61ZM633.49,270a5.55,5.55,0,0,0-1.8,3.3h10a5.67,5.67,0,0,0-1.6-3.29,4.44,4.44,0,0,0-3.22-1.23A5.05,5.05,0,0,0,633.49,270Z"/><path d="M659.24,258.84h15.42v2.73H662.2v8.49h10.58v2.72H662.2V283h-3Z"/><path d="M679.22,268.84h-2v-2.39h2v-3.36a5.79,5.79,0,0,1,1.21-4,4.35,4.35,0,0,1,3.45-1.36,7.33,7.33,0,0,1,3.85,1.05l-.61,2.38a6.55,6.55,0,0,0-2.89-.85c-1.51,0-2.26,1-2.26,3v3.09h4.7v2.39H682V283h-2.75Z"/><path d="M721,270.55v9.56a12.57,12.57,0,0,1-4.17,2.28,16.67,16.67,0,0,1-5.24.81,13.26,13.26,0,0,1-4.81-.86,11.22,11.22,0,0,1-3.82-2.44,11,11,0,0,1-2.52-3.87,13.56,13.56,0,0,1-.91-5.06,14,14,0,0,1,.85-4.94,11.43,11.43,0,0,1,2.4-3.92,10.42,10.42,0,0,1,3.78-2.56,12.84,12.84,0,0,1,4.93-.93,13.68,13.68,0,0,1,5,.93,11.75,11.75,0,0,1,4.23,2.86l-2.11,1.83a9.82,9.82,0,0,0-7.13-2.79,9.21,9.21,0,0,0-3.53.68,8.17,8.17,0,0,0-2.8,1.9,8.64,8.64,0,0,0-1.85,3,11,11,0,0,0-.67,3.92,10.54,10.54,0,0,0,1.1,4.86,8.16,8.16,0,0,0,3.16,3.37,9,9,0,0,0,4.71,1.23,10.6,10.6,0,0,0,6.45-1.85v-5.3h-7v-2.73Z"/><path d="M741.81,266.45v15.32a10.91,10.91,0,0,1-.47,3.3,7.39,7.39,0,0,1-1.43,2.58,6.22,6.22,0,0,1-2.54,1.7,10.44,10.44,0,0,1-3.7.6,12.71,12.71,0,0,1-6.75-1.8l.67-2.54a14.38,14.38,0,0,0,2.92,1.32,10.27,10.27,0,0,0,3,.42A7.18,7.18,0,0,0,736,287a4.67,4.67,0,0,0,1.76-1,4.53,4.53,0,0,0,1-1.54,5.14,5.14,0,0,0,.35-1.9v-2.31H739a6.91,6.91,0,0,1-5.62,2.52,8.31,8.31,0,0,1-3.11-.59,7.92,7.92,0,0,1-2.55-1.64,7.71,7.71,0,0,1-1.72-2.61,8.9,8.9,0,0,1-.63-3.37,8.63,8.63,0,0,1,1-4.19,7.65,7.65,0,0,1,6.86-4.05,7.83,7.83,0,0,1,3.16.64,7.1,7.1,0,0,1,2.55,1.85h.07v-2.29Zm-4.17,12.06a5.78,5.78,0,0,0,1.53-4.13,5.36,5.36,0,0,0-5.53-5.57,5.16,5.16,0,0,0-3.89,1.59,5.57,5.57,0,0,0-1.53,4,6.79,6.79,0,0,0,.27,1.94,5.3,5.3,0,0,0,.78,1.6,5.46,5.46,0,0,0,1.17,1.18,5.09,5.09,0,0,0,1.49.75,6.1,6.1,0,0,0,1.71.25A5.24,5.24,0,0,0,737.64,278.51Z"/><path d="M757.52,258.84h3v11.33h12.65V258.84h3V283h-3V272.9H760.47V283h-3Z"/><path d="M795.52,268a7.25,7.25,0,0,1,1.6,5.13V283h-2.76v-9.17q0-5.08-4.05-5.08a5.09,5.09,0,0,0-3.93,1.56,6.16,6.16,0,0,0-1.44,4.34V283h-2.76V258h2.76v11.18H785a6.6,6.6,0,0,1,1.18-1.24,6.78,6.78,0,0,1,1.44-.92,8.08,8.08,0,0,1,1.66-.55,8.92,8.92,0,0,1,1.82-.18A5.78,5.78,0,0,1,795.52,268Z"/><path d="M812.87,258.84h3V283h-3Z"/><path d="M822,262.81a1.85,1.85,0,0,1-.57-1.36,1.95,1.95,0,0,1,2-1.95,2,2,0,0,1,1,.26,2,2,0,0,1,.71.71,1.9,1.9,0,0,1-.31,2.34,2,2,0,0,1-2.78,0Zm0,3.64h2.74V283H822Z"/><path d="M841.86,282.4a8,8,0,0,1-2.92-2.29l1.66-2.18a8.07,8.07,0,0,0,2.16,1.76,5.07,5.07,0,0,0,2.43.67q3.94,0,3.95-5.29V258.84h3v16.32q0,4-1.64,6t-5.17,2A8.21,8.21,0,0,1,841.86,282.4Z"/><path d="M853.45,289.4l.45-2.44a3.27,3.27,0,0,0,1.71.49,2,2,0,0,0,1.57-.66,3,3,0,0,0,.59-2V266.45h2.76v18.31a5.86,5.86,0,0,1-1.13,3.82,3.77,3.77,0,0,1-3.09,1.38A7.22,7.22,0,0,1,853.45,289.4Zm4.32-26.59a1.88,1.88,0,0,1-.56-1.36,1.93,1.93,0,0,1,2-1.95,1.94,1.94,0,0,1,1,.26,2,2,0,0,1,.72.71,1.94,1.94,0,0,1,.26,1,1.85,1.85,0,0,1-.57,1.36,2,2,0,0,1-2.79,0Z"/><path d="M399.74,321.86,396.27,326v6.69h-3V308.47h3v13.27h.07l11-13.27h3.79l-9.36,11,9.61,13.16h-3.71l-7.86-10.78Z"/><path d="M421.63,325.05l-3.47,3.85v3.74h-2.74V307.58h2.74v17.54h0l8.16-9h3.34l-6.18,6.86,6.21,9.7H426.6l-4.92-7.59Z"/><path d="M443.75,308.47h3v21.45h12v2.72H443.75Z"/><path d="M463.09,307.58h2.74v25.06h-2.74Z"/><path d="M505.74,308.47v24.17h-3V314.12h0l-7.87,13.65h-2L485,314.12h-.05v18.52h-3V308.47h3l8.87,15.63h.1l8.86-15.63Z"/><path d="M535.88,317.61c1,1.15,1.46,2.92,1.46,5.33v9.7H534.6v-8.95a6.84,6.84,0,0,0-.94-4,3.41,3.41,0,0,0-2.93-1.27,4.12,4.12,0,0,0-3.33,1.65,6.76,6.76,0,0,0-1.33,4.37v8.22h-2.74v-9a8.52,8.52,0,0,0-.45-3,3.34,3.34,0,0,0-1.31-1.72,4,4,0,0,0-2.18-.54A4.3,4.3,0,0,0,516,320a6.61,6.61,0,0,0-1.36,4.38v8.22h-2.74V316.08h2.74v2.82h0a7.12,7.12,0,0,1,2.48-2.23,6.34,6.34,0,0,1,3.09-.79c2.62,0,4.37,1.07,5.23,3.22h.07a6.84,6.84,0,0,1,2.58-2.38,7.22,7.22,0,0,1,3.45-.84A5.35,5.35,0,0,1,535.88,317.61Z"/><path d="M572.47,308.47v24.17h-3l-13.54-19.06h-.07v19.06h-3V308.47h2.93l13.62,19.25h.07V308.47Z"/><path d="M591.76,317.62a7.49,7.49,0,0,1,1.59,5.2v9.84h-2.76v-9.07a9.14,9.14,0,0,0-.29-2.45,4.15,4.15,0,0,0-.84-1.61,3.26,3.26,0,0,0-1.27-.86,4.66,4.66,0,0,0-1.66-.27,4.81,4.81,0,0,0-3.78,1.61,6.35,6.35,0,0,0-1.42,4.36v8.27h-2.76V316.08h2.76v2.85h0a6.94,6.94,0,0,1,2.59-2.26,7.49,7.49,0,0,1,3.43-.79A5.61,5.61,0,0,1,591.76,317.62Z"/><path d="M615.08,331.91a11.12,11.12,0,0,1-3.85-2.59,12.15,12.15,0,0,1-2.46-3.91,13.86,13.86,0,0,1,0-9.72,11.94,11.94,0,0,1,2.46-3.91,11.24,11.24,0,0,1,3.85-2.58,12.75,12.75,0,0,1,4.94-.95,12.58,12.58,0,0,1,4.75.9,11,11,0,0,1,6.36,6.38,14,14,0,0,1,0,10,11.06,11.06,0,0,1-6.36,6.4,12.58,12.58,0,0,1-4.75.9A12.75,12.75,0,0,1,615.08,331.91Zm8.45-2.58a8.65,8.65,0,0,0,2.86-1.95,8.89,8.89,0,0,0,1.9-3,10.8,10.8,0,0,0,0-7.65,8.89,8.89,0,0,0-1.9-3,8.62,8.62,0,0,0-2.86-1.94,9.28,9.28,0,0,0-6.51-.21,8.24,8.24,0,0,0-2.52,1.35,9.46,9.46,0,0,0-1.9,2,9.61,9.61,0,0,0-1.22,2.61,10.49,10.49,0,0,0-.42,3,10.28,10.28,0,0,0,.66,3.69,9.49,9.49,0,0,0,1.84,3,8.48,8.48,0,0,0,2.88,2A9.16,9.16,0,0,0,620,330,8.84,8.84,0,0,0,623.53,329.33Z"/><path d="M641.14,332.2a7.68,7.68,0,0,1-2.71-1.79,8.13,8.13,0,0,1-1.73-2.69,9.31,9.31,0,0,1,0-6.68,8,8,0,0,1,1.73-2.71,7.84,7.84,0,0,1,2.71-1.8,9.4,9.4,0,0,1,3.51-.65,8.94,8.94,0,0,1,4.37,1.06,7.64,7.64,0,0,1,3.05,3,9.34,9.34,0,0,1,0,8.83,7.74,7.74,0,0,1-3.05,3,9.06,9.06,0,0,1-4.37,1.06A9.21,9.21,0,0,1,641.14,332.2Zm6.4-2.63a5.41,5.41,0,0,0,2.08-2.11,6.64,6.64,0,0,0,0-6.17,5.41,5.41,0,0,0-2.07-2.12,6,6,0,0,0-5.92.05,5.39,5.39,0,0,0-2,2.16,6.44,6.44,0,0,0-.71,3,6.29,6.29,0,0,0,.72,3,5.5,5.5,0,0,0,2,2.15,6,6,0,0,0,5.9.05Z"/><path d="M668.05,308.47h8.46a10.55,10.55,0,0,1,3.62.56,6.26,6.26,0,0,1,2.5,1.59A6.64,6.64,0,0,1,684,313a9,9,0,0,1,.47,3,8.32,8.32,0,0,1-.62,3.31,5.93,5.93,0,0,1-1.75,2.35,7.82,7.82,0,0,1-2.67,1.35,12.37,12.37,0,0,1-3.47.45h-5v9.22h-3Zm7.68,12.23a8.44,8.44,0,0,0,2.59-.36,4.46,4.46,0,0,0,1.78-1,4.22,4.22,0,0,0,1-1.51,5.3,5.3,0,0,0,.33-1.92,4.42,4.42,0,0,0-1.38-3.48,5.66,5.66,0,0,0-3.85-1.22H671v9.51Z"/><path d="M701.67,317a7.75,7.75,0,0,1,2.9,3.08,9.75,9.75,0,0,1,.41,7.83,7.83,7.83,0,0,1-1.72,2.66,7.72,7.72,0,0,1-2.59,1.68,8.27,8.27,0,0,1-3.19.61,7.12,7.12,0,0,1-3.17-.7,6.91,6.91,0,0,1-2.46-2h-.07v9.19H689V316.08h2.76v2.44h.07a6.84,6.84,0,0,1,2.48-2,7.25,7.25,0,0,1,3.15-.68A7.9,7.9,0,0,1,701.67,317Zm-.41,11.68a5.9,5.9,0,0,0,1.54-4.2,6.11,6.11,0,0,0-1.6-4.4,5.33,5.33,0,0,0-4-1.68,5.1,5.1,0,0,0-2.79.81,5.53,5.53,0,0,0-2,2.2,6.61,6.61,0,0,0-.72,3.07,6.28,6.28,0,0,0,.45,2.39,5.4,5.4,0,0,0,1.21,1.86,5.67,5.67,0,0,0,1.76,1.18,5.39,5.39,0,0,0,2.1.42A5.28,5.28,0,0,0,701.26,328.68Z"/><path d="M742.45,333.14l-3.21-2.91a11.74,11.74,0,0,1-3.54,1.95,13.26,13.26,0,0,1-9.12-.27,11.12,11.12,0,0,1-3.85-2.59,12.15,12.15,0,0,1-2.46-3.91,13.86,13.86,0,0,1,0-9.72,11.94,11.94,0,0,1,2.46-3.91,11.24,11.24,0,0,1,3.85-2.58,12.75,12.75,0,0,1,4.94-.95,12.56,12.56,0,0,1,4.76.9,11.05,11.05,0,0,1,6.35,6.38,13.31,13.31,0,0,1,.93,5,12.47,12.47,0,0,1-2.46,7.76l3,2.7ZM737,328.19l-2.79-2.53,1.69-2,2.91,2.61a9.86,9.86,0,0,0,1.68-5.7,10.45,10.45,0,0,0-.67-3.76,9.15,9.15,0,0,0-1.86-3,8.5,8.5,0,0,0-2.85-2,9,9,0,0,0-3.59-.73,9.15,9.15,0,0,0-3.62.73,8.73,8.73,0,0,0-2.88,2,9.19,9.19,0,0,0-1.88,3,10.45,10.45,0,0,0-.68,3.76,10.63,10.63,0,0,0,.43,3.06,9.07,9.07,0,0,0,3.17,4.64,8.24,8.24,0,0,0,2.51,1.32,9.3,9.3,0,0,0,2.95.46A8.67,8.67,0,0,0,737,328.19Z"/><path d="M764.74,316.08v23.29H762v-9.19h-.07a6.75,6.75,0,0,1-2.46,2,7.12,7.12,0,0,1-3.17.7,8.31,8.31,0,0,1-3.19-.61,7.58,7.58,0,0,1-2.58-1.68,7.69,7.69,0,0,1-1.72-2.66,9.19,9.19,0,0,1-.63-3.44,9.38,9.38,0,0,1,.61-3.41,8.37,8.37,0,0,1,1.68-2.73,7.74,7.74,0,0,1,2.57-1.8,8.19,8.19,0,0,1,3.24-.65,7.65,7.65,0,0,1,2.15.3,7,7,0,0,1,1.92.89,7.18,7.18,0,0,1,1.57,1.45H762v-2.44Zm-6.08,13.83a5.67,5.67,0,0,0,1.76-1.18,5.26,5.26,0,0,0,1.21-1.86,6.28,6.28,0,0,0,.45-2.39,6.61,6.61,0,0,0-.71-3.07,5.62,5.62,0,0,0-2-2.2,5.05,5.05,0,0,0-2.79-.81,5.31,5.31,0,0,0-4,1.68,6.11,6.11,0,0,0-1.61,4.4,5.9,5.9,0,0,0,1.55,4.2,5.65,5.65,0,0,0,6.13,1.23Z"/><path d="M794.19,332.64,788,323.42H783.5v9.22h-3V308.47h8.58a10.37,10.37,0,0,1,3.59.56,6.39,6.39,0,0,1,2.5,1.58,6.53,6.53,0,0,1,1.43,2.36,9.1,9.1,0,0,1,.47,3,7.22,7.22,0,0,1-1.52,4.81,7.31,7.31,0,0,1-4.24,2.38l0,0,6.43,9.45ZM783.5,320.7h4.82a6.18,6.18,0,0,0,4.3-1.31,4.54,4.54,0,0,0,1.42-3.5,4.39,4.39,0,0,0-1.4-3.49,5.8,5.8,0,0,0-3.9-1.21H783.5Z"/><path d="M811.41,315.91v3c-.4,0-.76-.05-1.1-.05a4.69,4.69,0,0,0-4.43,2.79,7,7,0,0,0-.6,3v8h-2.76V316.08h2.76V319h.07a6.74,6.74,0,0,1,2.31-2.29,6.09,6.09,0,0,1,3.07-.8A5.22,5.22,0,0,1,811.41,315.91Z"/><path d="M827.73,331.93a11.32,11.32,0,0,1-4-2.81l1.88-2.28a8.39,8.39,0,0,0,3.07,2.39,8.64,8.64,0,0,0,3.64.82,6,6,0,0,0,3.6-1,3.17,3.17,0,0,0,1.35-2.7,3.37,3.37,0,0,0-1.51-2.91,16.47,16.47,0,0,0-3.39-1.56h0l0,0h0v0h-.08l0,0h0v0h-.07l0,0h0l0,0H832l0,0h0l0,0-1.53-.6c-.42-.16-.9-.38-1.45-.64a10.75,10.75,0,0,1-1.37-.78,9.65,9.65,0,0,1-1.14-.91,5,5,0,0,1-.93-1.12,5.85,5.85,0,0,1-.56-1.36,5.92,5.92,0,0,1,.74-4.88,6.69,6.69,0,0,1,2.67-2.31,8.32,8.32,0,0,1,3.74-.84,11.1,11.1,0,0,1,4,.71,13.39,13.39,0,0,1,3.69,2.11l-1.77,2.3a10.92,10.92,0,0,0-2.95-1.76A8.12,8.12,0,0,0,832,311a5.53,5.53,0,0,0-2.1.39,3.66,3.66,0,0,0-1.57,1.2,3.13,3.13,0,0,0,1,4.57,20,20,0,0,0,3.49,1.6h0v0h0v0a40.11,40.11,0,0,1,4,1.68,6.36,6.36,0,0,1,3.07,3,6.43,6.43,0,0,1,.45,2.49,6.67,6.67,0,0,1-.44,2.42,5.89,5.89,0,0,1-1.2,1.92,7.65,7.65,0,0,1-1.79,1.37,8.35,8.35,0,0,1-2.2.84,10.4,10.4,0,0,1-2.45.28A11.76,11.76,0,0,1,827.73,331.93Z"/><path d="M843.72,330.47l1.43-2.1a7.45,7.45,0,0,0,2.24,1.48,7.31,7.31,0,0,0,2.83.5,3.75,3.75,0,0,0,2.29-.63,1.89,1.89,0,0,0,.85-1.58,2.34,2.34,0,0,0-.05-.47,1,1,0,0,0-.2-.4,3.41,3.41,0,0,0-.28-.33,1.75,1.75,0,0,0-.42-.31l-.5-.28a5.89,5.89,0,0,0-.63-.26l-.67-.25-.79-.29-.4-.14c-.62-.21-1.14-.41-1.57-.59a9.94,9.94,0,0,1-1.33-.73,4.46,4.46,0,0,1-1.12-.94,4.09,4.09,0,0,1-.69-1.22,4.67,4.67,0,0,1-.27-1.62,3.92,3.92,0,0,1,1.56-3.16,6,6,0,0,1,3.92-1.27,8.74,8.74,0,0,1,5.7,2l-1.43,2.18a6.54,6.54,0,0,0-4.4-1.73,3,3,0,0,0-1.77.54,1.69,1.69,0,0,0-.55,2.25,2.12,2.12,0,0,0,.7.7,7,7,0,0,0,1,.54c.32.15.75.32,1.27.52,1.77.69,2.84,1.12,3.2,1.3a4.44,4.44,0,0,1,2.25,2.08,4.54,4.54,0,0,1,.33,1.81,4.67,4.67,0,0,1-.37,1.83,4.39,4.39,0,0,1-1.1,1.51,4.91,4.91,0,0,1-1.88,1,8.41,8.41,0,0,1-2.6.38A9.47,9.47,0,0,1,843.72,330.47Z"/><path d="M398.53,360.82H391.3v-2.73h17.5v2.73h-7.31v21.45h-3Z"/><path d="M412.26,377.33V368.1h-2.11v-2.4h2.11V360l2.76-.3v6h5.49v2.4H415v8.82a4.37,4.37,0,0,0,.45,2.27,1.73,1.73,0,0,0,1.58.7,5.71,5.71,0,0,0,2.79-.84l.73,2.4a10.65,10.65,0,0,1-1,.51,6.73,6.73,0,0,1-1.28.37,9.22,9.22,0,0,1-1.71.15C413.7,382.48,412.26,380.77,412.26,377.33Z"/><path d="M440.09,381.8a8.29,8.29,0,0,1-2.95-1.94,8.56,8.56,0,0,1-1.91-3.17,12.36,12.36,0,0,1-.68-4.26V358.09h2.95v14.13a8,8,0,0,0,1.74,5.4,5.8,5.8,0,0,0,4.65,2,5.94,5.94,0,0,0,4.65-2,7.93,7.93,0,0,0,1.78-5.45V358.09h2.95v14.34a10.3,10.3,0,0,1-2.53,7.35,8.9,8.9,0,0,1-6.85,2.7A10.08,10.08,0,0,1,440.09,381.8Z"/><path d="M473.17,365.7v16.57h-2.76v-2.74h-.05a6.72,6.72,0,0,1-2.41,2.19,6.32,6.32,0,0,1-3,.76,6,6,0,0,1-4.57-1.72,7.25,7.25,0,0,1-1.64-5.19V365.7h2.76v9.07a6.28,6.28,0,0,0,1,4,3.74,3.74,0,0,0,3.05,1.2,4.34,4.34,0,0,0,1.88-.42,4.74,4.74,0,0,0,1.56-1.2,5.7,5.7,0,0,0,1.08-2,8.37,8.37,0,0,0,.39-2.62v-8Z"/><path d="M507.8,358.09l-9.1,24.18H496l-9.1-24.18h3.2l7.2,19.91h.05l7.24-19.91Z"/><path d="M526.14,365.7l-6.73,16.57h-2.64L510,365.7h3l5.1,13.06h.09l5-13.06Z"/><path d="M570.84,358.09l-7.73,24.18h-2.86l-5.58-19.81h-.07l-5.66,19.81h-2.86l-7.73-24.18h3.18l6,19.31h.06L553,358.09h3.21l5.43,19.36h.07l6-19.36Z"/><path d="M597.28,365.7l-5.75,16.57h-2.6l-3.73-12.06h-.06l-3.74,12.06h-2.54l-5.75-16.57h2.81l4.22,12.37h.06L584,365.7h2.4l3.82,12.38h.07l4.22-12.38Z"/><path d="M619.85,372.55h-.05l-6.66,9.72h-3.51l8.24-12.08-8.14-12.1h3.42l6.63,9.77h.07l6.6-9.77h3.44l-8.13,12.12L630,382.27h-3.5Z"/><path d="M640.3,376.25h-.07l-4.49,6h-3.1l6-8.38-6-8.19h3.24l4.3,6.05h.08l4.36-6.05h3.22l-6,8.18,6,8.39h-3.14Z"/><path d="M679.11,358.09l-8.25,13.38v10.8h-3v-10.8l-8.19-13.38h3.4l6.25,10.4h.07l6.25-10.4Z"/><path d="M696.31,365.7,686.93,389H684l3-7.38-7-15.92h2.94l5.39,12.61h.08l5-12.61Z"/><path d="M726.22,379.54v2.73H709.35v-2.36l12.89-19v-.05H710v-2.73h16.1v2.36l-13,19v.05Z"/><path d="M733.82,379.81v.07h9.65v2.39H730.08v-2l9.6-12.08v-.06H730.6v-2.4h12.89v2Z"/><path class="cls-3" d="M416.49,489.5H403.56l-2,6.51h-11.3l14.62-40.3h10.3L429.79,496H418.51Zm-2.82-9.06-3.6-11.57H410l-3.6,11.57Z"/><path class="cls-3" d="M457.78,468.23,447.18,496h-9.12l-10.63-27.78h10.5L442.58,484h.11l4.51-15.76Z"/><path class="cls-3" d="M485.61,484.6H467.39a4.24,4.24,0,0,0,1.9,3,6.84,6.84,0,0,0,3.86,1,8.76,8.76,0,0,0,6.4-3.08l5.23,5.76a13.56,13.56,0,0,1-5.19,3.84,18.19,18.19,0,0,1-7.52,1.48,15.3,15.3,0,0,1-7.45-1.81,13.23,13.23,0,0,1-5.22-5.14,15.9,15.9,0,0,1,0-15,13.1,13.1,0,0,1,5.13-5.15,14.85,14.85,0,0,1,7.43-1.86,14.53,14.53,0,0,1,5.56,1.07,12.81,12.81,0,0,1,7.35,7.45,15.14,15.14,0,0,1,1.07,5.74A10.94,10.94,0,0,1,485.61,484.6ZM469,476.36a4.42,4.42,0,0,0-1.54,2.73h8.64a6.06,6.06,0,0,0-.57-1.55,4.49,4.49,0,0,0-.9-1.18,3.47,3.47,0,0,0-1.23-.73,4.73,4.73,0,0,0-4.4.73Z"/><path class="cls-3" d="M507.63,467.65v10.83c-.55,0-1.27-.06-2.13-.06a5.83,5.83,0,0,0-4.3,1.48,5.45,5.45,0,0,0-1.46,4V496H489.6V468.23h10.14V472h.08a10.34,10.34,0,0,1,3.48-3.26,8.57,8.57,0,0,1,4.27-1.12Z"/><path class="cls-3" d="M516.86,496a7.25,7.25,0,0,1-2.63-1.69,7.64,7.64,0,0,1-1.75-2.92,12.17,12.17,0,0,1-.64-4.12v-11h-3v-8h3v-8.72L522,458.46v9.77h6v8h-6v8.84a9.87,9.87,0,0,0,0,1,4,4,0,0,0,.22.87,1.3,1.3,0,0,0,.57.69,1.81,1.81,0,0,0,1,.25,4.94,4.94,0,0,0,2.05-.44l2.47,7.06a16.6,16.6,0,0,1-3.57,1.54,16.89,16.89,0,0,1-4.55.51A9.31,9.31,0,0,1,516.86,496Z"/><path class="cls-3" d="M559.33,468.23V496h-9.61v-2.6h-.08a8.54,8.54,0,0,1-7.15,3.18,12.57,12.57,0,0,1-5.22-1.07,12,12,0,0,1-4.08-2.95,13.46,13.46,0,0,1-2.65-4.58,18.67,18.67,0,0,1,0-11.73,13.64,13.64,0,0,1,2.59-4.59,11.72,11.72,0,0,1,3.92-2.95,11.27,11.27,0,0,1,4.85-1.07,9.15,9.15,0,0,1,7.2,3.32h.08v-2.74Zm-11.12,17.95a6.49,6.49,0,0,0,0-8.05,4.47,4.47,0,0,0-3.47-1.56,4.54,4.54,0,0,0-3.55,1.55,6.59,6.59,0,0,0,0,8.07,4.56,4.56,0,0,0,3.55,1.54A4.49,4.49,0,0,0,548.21,486.18Z"/><path class="cls-3" d="M604.64,476.1a8.22,8.22,0,0,1,2.56,2.35,10,10,0,0,1,1.36,2.88,12.58,12.58,0,0,1,.43,3.35,12.2,12.2,0,0,1-.81,4.52,10.19,10.19,0,0,1-2.35,3.57,10.65,10.65,0,0,1-4,2.38,16.94,16.94,0,0,1-5.58.86H577.72v-40.3h15.81a22.65,22.65,0,0,1,6,.7,11.37,11.37,0,0,1,4.18,2,7.88,7.88,0,0,1,2.41,3.08,11,11,0,0,1,.5,6.61,9.77,9.77,0,0,1-1,2.38,7.79,7.79,0,0,1-1.93,2.22,11.69,11.69,0,0,1-3,1.7v.11A14.79,14.79,0,0,1,604.64,476.1Zm-16.48-4.49h3.52a5.33,5.33,0,0,0,3.18-.86,2.72,2.72,0,0,0,1.19-2.35,3,3,0,0,0-.47-1.69,3.21,3.21,0,0,0-1.49-1.16,6.22,6.22,0,0,0-2.49-.45h-3.44Zm8.34,14.21a3.41,3.41,0,0,0,.09-5.33,5.86,5.86,0,0,0-3.72-1h-4.71v7.26h4.76A6.08,6.08,0,0,0,596.5,485.82Z"/><path class="cls-3" d="M613,454.25h10.11V496H613Z"/><path class="cls-3" d="M656.84,468.23V496h-9.61v-2.6h-.08a8.55,8.55,0,0,1-7.15,3.18,12.57,12.57,0,0,1-5.22-1.07,11.76,11.76,0,0,1-4.08-2.95,13.46,13.46,0,0,1-2.65-4.58,18.67,18.67,0,0,1,0-11.73,13.64,13.64,0,0,1,2.59-4.59,11.72,11.72,0,0,1,3.92-2.95,11.26,11.26,0,0,1,4.84-1.07,9.15,9.15,0,0,1,7.2,3.32h.09v-2.74Zm-11.12,17.95a6.49,6.49,0,0,0,0-8.05,4.47,4.47,0,0,0-3.47-1.56,4.52,4.52,0,0,0-3.55,1.55,6.59,6.59,0,0,0,0,8.07,4.55,4.55,0,0,0,3.55,1.54A4.49,4.49,0,0,0,645.72,486.18Z"/><path class="cls-3" d="M667.64,494.78a13.21,13.21,0,0,1-5.22-5.13,14.77,14.77,0,0,1-1.9-7.52,14.6,14.6,0,0,1,1.93-7.53,13.2,13.2,0,0,1,5.4-5.12,16.72,16.72,0,0,1,7.91-1.83,16.23,16.23,0,0,1,6.82,1.48,13.47,13.47,0,0,1,5.31,4.25l-6.73,5.74a6.51,6.51,0,0,0-5.16-2.5,5,5,0,0,0-3.83,1.53,5.4,5.4,0,0,0-1.46,3.9,5.5,5.5,0,0,0,1.51,4,5.22,5.22,0,0,0,3.89,1.55,6.35,6.35,0,0,0,5-2.27l6.89,6a13.57,13.57,0,0,1-5.24,3.81,19.11,19.11,0,0,1-7.69,1.45A15.3,15.3,0,0,1,667.64,494.78Z"/><path class="cls-3" d="M703.28,486.57l-2.1,2.41v7H691V454.25h10.14v21.49h.08l6.42-7.51h11.64L710,478.87,719.62,496H708.46l-5.07-9.44Z"/><path d="M405.92,544.18h-7.76L397,548.09h-6.78l8.77-24.18h6.19l8.77,24.18h-6.76Zm-1.69-5.43-2.16-7H402l-2.16,7Z"/><path d="M432.67,531.42v16.67H426.9v-1.57h0a5.1,5.1,0,0,1-4.29,1.91,7.55,7.55,0,0,1-3.13-.64A7,7,0,0,1,417,546a8.22,8.22,0,0,1-1.59-2.75,11.12,11.12,0,0,1,0-7,8,8,0,0,1,1.55-2.76,7.18,7.18,0,0,1,2.35-1.77,6.72,6.72,0,0,1,2.91-.64,5.47,5.47,0,0,1,4.32,2h.05v-1.64ZM426,542.19a3.89,3.89,0,0,0,0-4.83,2.68,2.68,0,0,0-2.09-.94,2.75,2.75,0,0,0-2.13.93,3.94,3.94,0,0,0,0,4.84,2.75,2.75,0,0,0,2.13.93A2.71,2.71,0,0,0,426,542.19Z"/><path d="M460.67,536.14a5.14,5.14,0,0,1,1.54,1.41,5.81,5.81,0,0,1,.81,1.73,7.89,7.89,0,0,1-.22,4.72,6.21,6.21,0,0,1-1.42,2.14,6.32,6.32,0,0,1-2.4,1.43,10.16,10.16,0,0,1-3.35.52H444.52V523.91H454a14.16,14.16,0,0,1,3.58.41,7.06,7.06,0,0,1,2.51,1.19,4.85,4.85,0,0,1,1.44,1.85,6,6,0,0,1,.47,2.46,6.08,6.08,0,0,1-.17,1.51,6.46,6.46,0,0,1-.57,1.43,4.61,4.61,0,0,1-1.16,1.33,7.05,7.05,0,0,1-1.8,1v.06A9,9,0,0,1,460.67,536.14Zm-9.89-2.69h2.11a3.2,3.2,0,0,0,1.91-.52,1.63,1.63,0,0,0,.72-1.41,1.82,1.82,0,0,0-.29-1,1.89,1.89,0,0,0-.89-.69,3.72,3.72,0,0,0-1.5-.27h-2.06Zm5,8.52a1.88,1.88,0,0,0,.8-1.63,1.92,1.92,0,0,0-.74-1.57,3.56,3.56,0,0,0-2.23-.59h-2.83v4.36h2.86A3.6,3.6,0,0,0,455.78,542Z"/><path d="M478.93,531.48a6.47,6.47,0,0,1,2,1.18,8.18,8.18,0,0,1,1.58,1.82,8.44,8.44,0,0,1,1,2.4,10.68,10.68,0,0,1,.37,2.86,10.13,10.13,0,0,1-1,4.53,7.34,7.34,0,0,1-2.74,3.08,7.56,7.56,0,0,1-4,1.08,5.33,5.33,0,0,1-4.42-1.91h-.07v1.57h-5.77V523H472v10.05h0a5.73,5.73,0,0,1,4.47-2A7,7,0,0,1,478.93,531.48ZM477,542.19a3.94,3.94,0,0,0,0-4.84,2.75,2.75,0,0,0-2.13-.93,3,3,0,0,0-1.58.42,2.92,2.92,0,0,0-1.1,1.18,3.75,3.75,0,0,0-.39,1.74,3.38,3.38,0,0,0,.86,2.43,2.88,2.88,0,0,0,2.21.93A2.75,2.75,0,0,0,477,542.19Z"/><path d="M503.71,548.07a14.25,14.25,0,0,1-3-1.06,11.39,11.39,0,0,1-4.59-4.16,11.61,11.61,0,0,1-1.3-3.08,14.34,14.34,0,0,1-.46-3.71,14,14,0,0,1,.38-3.33,13.22,13.22,0,0,1,1.09-3,10.49,10.49,0,0,1,1.82-2.53,11.61,11.61,0,0,1,2.46-2,12.06,12.06,0,0,1,3.13-1.26,15,15,0,0,1,3.73-.45,13,13,0,0,1,5.27,1.16,12.43,12.43,0,0,1,4.58,3.51l-4.73,4a7.71,7.71,0,0,0-.93-.87,10,10,0,0,0-1.15-.79,5.82,5.82,0,0,0-1.44-.6,5.48,5.48,0,0,0-1.6-.23,6.07,6.07,0,0,0-1.75.25,5.39,5.39,0,0,0-1.58.77,5.51,5.51,0,0,0-1.29,1.26,5.74,5.74,0,0,0-.87,1.77,7.49,7.49,0,0,0-.31,2.22,6.81,6.81,0,0,0,.4,2.34,6.06,6.06,0,0,0,1.13,2,5.21,5.21,0,0,0,1.83,1.34,5.76,5.76,0,0,0,2.44.5,6.28,6.28,0,0,0,2.81-.68,6.56,6.56,0,0,0,2.31-1.78l4.73,4.08a12.67,12.67,0,0,1-4.24,3.33,12.24,12.24,0,0,1-5.61,1.28A14.79,14.79,0,0,1,503.71,548.07Z"/><path d="M522.68,547.35a7.92,7.92,0,0,1-3.13-3.08,9.44,9.44,0,0,1,0-9,7.93,7.93,0,0,1,3.24-3.07,10,10,0,0,1,4.74-1.1,9.83,9.83,0,0,1,4.1.89,8,8,0,0,1,3.18,2.55l-4,3.44a3.89,3.89,0,0,0-3.09-1.5,3,3,0,0,0-2.3.92,3.6,3.6,0,0,0,0,4.73,3.13,3.13,0,0,0,2.34.93,3.77,3.77,0,0,0,3-1.36l4.14,3.61a8.08,8.08,0,0,1-3.15,2.28,11.45,11.45,0,0,1-4.61.87A9.24,9.24,0,0,1,522.68,547.35Z"/><path d="M545.65,523.91h8.7a14.37,14.37,0,0,1,5.18.9,11.21,11.21,0,0,1,4,2.48,10.9,10.9,0,0,1,2.51,3.84,13.31,13.31,0,0,1,.89,4.91,13.48,13.48,0,0,1-.85,4.88,10.84,10.84,0,0,1-2.42,3.81,10.71,10.71,0,0,1-3.93,2.47,14.83,14.83,0,0,1-5.25.89h-8.8ZM554,542.34a6.06,6.06,0,0,0,3.19-.85,5.79,5.79,0,0,0,2.14-2.28,6.71,6.71,0,0,0,.75-3.17,7.2,7.2,0,0,0-.44-2.51,6.36,6.36,0,0,0-1.19-2,5.54,5.54,0,0,0-1.79-1.34,5.28,5.28,0,0,0-2.21-.49h-2.56v12.67Z"/><path d="M587.07,523v25.06H581.3v-1.57h-.07a5.33,5.33,0,0,1-4.42,1.91,7.55,7.55,0,0,1-3.13-.64,7,7,0,0,1-2.45-1.77,7.9,7.9,0,0,1-1.59-2.75,10.54,10.54,0,0,1-.57-3.53,10.75,10.75,0,0,1,.56-3.5,8.22,8.22,0,0,1,1.56-2.76,7.18,7.18,0,0,1,2.35-1.77,6.72,6.72,0,0,1,2.91-.64,5.73,5.73,0,0,1,4.47,2H581V523Zm-6.7,19.16a3.83,3.83,0,0,0,0-4.84,2.88,2.88,0,0,0-2.21-.93,2.73,2.73,0,0,0-2.13.93,3.94,3.94,0,0,0,0,4.84,2.73,2.73,0,0,0,2.13.93A2.88,2.88,0,0,0,580.37,542.19Z"/><path d="M599,523.91H615v5.76h-9.81v3.64h7.68v5.62h-7.68v3.41h10.52v5.75H599Z"/><path d="M634.78,541.24H623.85A2.52,2.52,0,0,0,625,543a4.1,4.1,0,0,0,2.31.61,5.23,5.23,0,0,0,3.84-1.84l3.14,3.45a8.16,8.16,0,0,1-3.11,2.31,11,11,0,0,1-4.51.88,9.24,9.24,0,0,1-4.47-1.08,8,8,0,0,1-3.14-3.09,9.62,9.62,0,0,1,0-9,8,8,0,0,1,3.08-3.09,9,9,0,0,1,4.46-1.11,8.71,8.71,0,0,1,3.34.64,7.75,7.75,0,0,1,4.41,4.47,9.36,9.36,0,0,1,.64,3.45A6.73,6.73,0,0,1,634.78,541.24Zm-10-4.94a2.65,2.65,0,0,0-.93,1.63h5.19a3.8,3.8,0,0,0-.34-.93,2.72,2.72,0,0,0-.54-.7,2.05,2.05,0,0,0-.74-.44,2.71,2.71,0,0,0-.91-.15A2.61,2.61,0,0,0,624.79,536.3Z"/><path d="M646.1,523.91h16.61v5.76H652.38v4.56h8.46V540h-8.46v8.13H646.1Z"/><path d="M666,536.24h-1.51v-4.82H666V529a6.61,6.61,0,0,1,1.54-4.75,5.56,5.56,0,0,1,4.18-1.61,8.35,8.35,0,0,1,2.85.47,6.53,6.53,0,0,1,1.78.89l-1,4.12a3.77,3.77,0,0,0-.9-.32,3.65,3.65,0,0,0-.87-.13,1.69,1.69,0,0,0-1.06.31,1.37,1.37,0,0,0-.38,1.11v2.29h2.72v4.82h-2.72v11.85H666Z"/><path d="M694.06,547.87a12,12,0,0,1-3.47-1.55,11.1,11.1,0,0,1-2.72-2.48,10.85,10.85,0,0,1-1.79-3.45,14,14,0,0,1-.64-4.33,14.84,14.84,0,0,1,.52-4,11.89,11.89,0,0,1,1.56-3.43,10.87,10.87,0,0,1,6-4.45,14.14,14.14,0,0,1,4.3-.63,13.68,13.68,0,0,1,7.09,2,11.61,11.61,0,0,1,2.88,2.45l-4.59,3.87a7.56,7.56,0,0,0-5.4-2.26,5.36,5.36,0,0,0-1.7.27,4.87,4.87,0,0,0-1.53.8,5.65,5.65,0,0,0-1.23,1.3,5.79,5.79,0,0,0-.82,1.79,8.18,8.18,0,0,0-.3,2.26,7.36,7.36,0,0,0,.4,2.45,6.51,6.51,0,0,0,1.12,2,5,5,0,0,0,1.85,1.4,5.81,5.81,0,0,0,2.49.52,8.57,8.57,0,0,0,3.62-.8v-2.23h-4.12v-5.21h10.19v11.25a14.25,14.25,0,0,1-4.32,2.08,17.9,17.9,0,0,1-5.37.82A15.14,15.14,0,0,1,694.06,547.87Z"/><path d="M728.09,531.42v14.24a15.93,15.93,0,0,1-.29,3.15,9,9,0,0,1-.94,2.61,6.84,6.84,0,0,1-1.71,2,7.92,7.92,0,0,1-2.64,1.27,13.4,13.4,0,0,1-3.65.45,17.77,17.77,0,0,1-3.73-.34,12.94,12.94,0,0,1-3.18-1.18l1.35-4.79a8.61,8.61,0,0,0,2.27,1,9.23,9.23,0,0,0,2.53.39,5,5,0,0,0,3-.77,2.29,2.29,0,0,0,1.06-1.93V546h0a5.67,5.67,0,0,1-4.4,1.75,7.09,7.09,0,0,1-3.87-1.08,7.2,7.2,0,0,1-2.65-2.92,9,9,0,0,1-.94-4.15,10.35,10.35,0,0,1,.56-3.42,8.42,8.42,0,0,1,1.5-2.71,7,7,0,0,1,2.27-1.75,6.33,6.33,0,0,1,2.82-.64,5.84,5.84,0,0,1,4.57,2h0v-1.63Zm-6.66,10.14a3,3,0,0,0-2.1-5.11,2.9,2.9,0,0,0-3,3,2.81,2.81,0,0,0,.85,2.13,3.08,3.08,0,0,0,4.21,0Z"/><path d="M739.94,523.91h6.54v9.64h7.3v-9.64h6.54v24.18h-6.54v-8.81h-7.3v8.81h-6.54Z"/><path d="M776.68,531.21a6.54,6.54,0,0,1,1.42.46,3.87,3.87,0,0,1,1.19.85,5.13,5.13,0,0,1,.9,1.28,7,7,0,0,1,.58,1.81A13.25,13.25,0,0,1,781,538v10.09h-6.08v-8.63a5.46,5.46,0,0,0-.24-1.83,1.59,1.59,0,0,0-.74-.92,3,3,0,0,0-1.36-.26,2.15,2.15,0,0,0-1.78.81,3.88,3.88,0,0,0-.65,2.45v8.38H764V523h6.08v10.23h0a6.51,6.51,0,0,1,1.41-1.22,6.31,6.31,0,0,1,1.66-.73,6.78,6.78,0,0,1,1.82-.24A9.14,9.14,0,0,1,776.68,531.21Z"/><path d="M792.89,523.91h6.56v24.18h-6.56Z"/><path d="M804,528.59a3.11,3.11,0,0,1-1-2.36,3.07,3.07,0,0,1,.44-1.63,3.11,3.11,0,0,1,1.24-1.17,3.76,3.76,0,0,1,1.81-.44,3.51,3.51,0,0,1,2.51.93,3,3,0,0,1,1,2.31,3.11,3.11,0,0,1-1,2.36,3.85,3.85,0,0,1-5,0Zm-.53,2.83h6.06v16.67h-6.06Z"/><path d="M823.07,547.57a8.32,8.32,0,0,1-3.16-2.51l3.79-4.3a3.41,3.41,0,0,0,2.71,1.64,1.91,1.91,0,0,0,1.5-.7,3.31,3.31,0,0,0,.61-2.21V523.91H835V539q0,9.4-8,9.4A9.33,9.33,0,0,1,823.07,547.57Z"/><path d="M837.14,555a11.31,11.31,0,0,1-1.25-.21l-.9-.28,1-4.68a4.4,4.4,0,0,0,1.4.25.94.94,0,0,0,1-.46,4,4,0,0,0,.21-1.54V531.42h6.07v17.35a9,9,0,0,1-.62,3.56,4.32,4.32,0,0,1-1.84,2.12,6.18,6.18,0,0,1-3.08.7A13.35,13.35,0,0,1,837.14,555Zm2-26.43a3.11,3.11,0,0,1-1-2.36,3.12,3.12,0,0,1,1.68-2.8,3.75,3.75,0,0,1,1.8-.44,3.49,3.49,0,0,1,2.51.93,3,3,0,0,1,1,2.31,3.08,3.08,0,0,1-1,2.36,3.84,3.84,0,0,1-5,0Z"/><path d="M399.84,589l-1.38,1.68v7H392V573.53h6.43v8.15h.07l5.88-8.15h8.18l-8.51,10.34,8.85,13.84H405L399.86,589Z"/><path d="M422,592.05l-1.26,1.44v4.22h-6.08V572.65h6.08v12.9h0l3.86-4.51h7L426,587.43l5.77,10.28h-6.7l-3-5.66Z"/><path d="M441.94,573.53h6.51V592h9.61v5.75H441.94Z"/><path d="M460.68,572.65h6.06v25.06h-6.06Z"/><path d="M504.05,573.53v24.18h-6.4V585.8h-.1l-4.05,7.54h-4.12l-4.08-7.58h-.08v12h-6.4V573.53h6.55l6,12h.13l6-12Z"/><path d="M534.52,588v9.75h-6.07v-8.37q0-.4,0-.75a3.84,3.84,0,0,0-.09-.68,4.49,4.49,0,0,0-.16-.61,2.45,2.45,0,0,0-.26-.51,1.67,1.67,0,0,0-.37-.38,1.6,1.6,0,0,0-.49-.24,2,2,0,0,0-.61-.09,1.91,1.91,0,0,0-1.6.82,4,4,0,0,0-.61,2.44v8.37h-6.08v-8.37a8,8,0,0,0-.09-1.27,4.43,4.43,0,0,0-.31-1,1.6,1.6,0,0,0-.62-.71,1.87,1.87,0,0,0-1-.25,2,2,0,0,0-1.68.81,4,4,0,0,0-.63,2.45v8.37h-6.09V581h6.09v1.9h0a5.85,5.85,0,0,1,2-1.68,5.46,5.46,0,0,1,2.45-.56,5.19,5.19,0,0,1,4.79,2.36h0a6.6,6.6,0,0,1,5.4-2.36Q534.51,580.7,534.52,588Z"/><path d="M567.45,573.53v24.18h-6.71l-7.93-13.23h-.08v13.23H546.3V573.53h6.51l8.08,13.63H561V573.53Z"/><path d="M583.62,580.84a6,6,0,0,1,1.42.45,4,4,0,0,1,1.19.85,5.11,5.11,0,0,1,.9,1.29,6.53,6.53,0,0,1,.58,1.81,12.33,12.33,0,0,1,.2,2.39v10.08h-6.08v-8.62a5.54,5.54,0,0,0-.24-1.83,1.62,1.62,0,0,0-.7-.92,2.51,2.51,0,0,0-1.24-.26,2.14,2.14,0,0,0-1.77.81,3.8,3.8,0,0,0-.65,2.45v8.37h-6.08V581h6.08v1.83h0a6.2,6.2,0,0,1,2.14-1.62,6.29,6.29,0,0,1,2.6-.55A8.29,8.29,0,0,1,583.62,580.84Z"/><path d="M606.37,597.15a11.44,11.44,0,0,1-4-2.55,11.23,11.23,0,0,1-2.57-3.93,14.27,14.27,0,0,1,0-10.08,11.31,11.31,0,0,1,2.57-4,11.56,11.56,0,0,1,4-2.54,14.71,14.71,0,0,1,10.16,0,11.54,11.54,0,0,1,4,2.53,11.31,11.31,0,0,1,2.57,3.94,14.12,14.12,0,0,1,0,10.13,11.31,11.31,0,0,1-2.57,3.94,11.52,11.52,0,0,1-4,2.52,13.69,13.69,0,0,1-5,.91A14,14,0,0,1,606.37,597.15Zm8.11-6a5.76,5.76,0,0,0,2.06-2.31,7.61,7.61,0,0,0,0-6.46,5.76,5.76,0,0,0-2.06-2.31,5.74,5.74,0,0,0-6,0,5.86,5.86,0,0,0-2.07,2.31,7.15,7.15,0,0,0-.74,3.24,7,7,0,0,0,.74,3.23,5.88,5.88,0,0,0,2.08,2.31,5.45,5.45,0,0,0,3,.86A5.51,5.51,0,0,0,614.48,591.17Z"/><path d="M630.6,597a7.91,7.91,0,0,1-3.24-3.06,9.46,9.46,0,0,1,0-9,8,8,0,0,1,3.24-3.08,10.85,10.85,0,0,1,9.48,0,8,8,0,0,1,3.24,3.08,9.39,9.39,0,0,1,0,9,7.91,7.91,0,0,1-3.24,3.06,10.85,10.85,0,0,1-9.48,0Zm6.91-5.22a3.73,3.73,0,0,0,0-4.75,2.83,2.83,0,0,0-2.17-.92,2.93,2.93,0,0,0-1.22.25,2.75,2.75,0,0,0-1,.68,2.9,2.9,0,0,0-.62,1,3.83,3.83,0,0,0-.23,1.33,3.91,3.91,0,0,0,.15,1.08,3.3,3.3,0,0,0,.42.91,3.34,3.34,0,0,0,.65.7,2.93,2.93,0,0,0,.83.46,3.14,3.14,0,0,0,1,.15A2.81,2.81,0,0,0,637.51,591.75Z"/><path d="M655.69,573.53h9.4a11.59,11.59,0,0,1,3.23.42,7.77,7.77,0,0,1,2.49,1.18,7.22,7.22,0,0,1,1.73,1.84,8,8,0,0,1,1,2.35,11.82,11.82,0,0,1,.32,2.8,8.5,8.5,0,0,1-1.15,4.55,6.85,6.85,0,0,1-3.19,2.77,12.14,12.14,0,0,1-4.85.89H662v7.38h-6.28Zm7.95,11.2a4.16,4.16,0,0,0,2.56-.71,2.42,2.42,0,0,0,.95-2,2.5,2.5,0,0,0-.9-2,3.82,3.82,0,0,0-2.59-.79H662v5.51Z"/><path d="M689,581a6.56,6.56,0,0,1,1.78.82,7.23,7.23,0,0,1,1.48,1.3,8.64,8.64,0,0,1,1.14,1.73,9.53,9.53,0,0,1,.73,2.11,11.22,11.22,0,0,1,.25,2.42,10,10,0,0,1-1,4.53,7.25,7.25,0,0,1-2.74,3.07,7.43,7.43,0,0,1-4,1.09,5.27,5.27,0,0,1-4.14-1.79h-.05v8.17h-6.06V581h6.1v1.68h0a5.62,5.62,0,0,1,4.47-2A6.66,6.66,0,0,1,689,581Zm-1.58,10.83a3.94,3.94,0,0,0,0-4.84,2.71,2.71,0,0,0-2.12-.93,2.87,2.87,0,0,0-2.21.93,3.8,3.8,0,0,0,0,4.84,2.86,2.86,0,0,0,2.21.92A2.7,2.7,0,0,0,687.38,591.82Z"/><path d="M727.43,598.56,724.64,596a13,13,0,0,1-7.28,2,13.88,13.88,0,0,1-5.1-.91,11.58,11.58,0,0,1-4-2.55,11.37,11.37,0,0,1-2.57-3.93,14.27,14.27,0,0,1,0-10.08,11.45,11.45,0,0,1,2.57-4,11.7,11.7,0,0,1,4-2.54,14.68,14.68,0,0,1,10.15,0,11.2,11.2,0,0,1,6.55,6.47,13.53,13.53,0,0,1,.93,5.07,13,13,0,0,1-1.76,6.76l2.39,2.11Zm-7.73-7-1.61-1.46,3.06-3.81,1.71,1.5a7.41,7.41,0,0,0,.3-2.13,7.1,7.1,0,0,0-.43-2.5,6.4,6.4,0,0,0-1.17-2,5.49,5.49,0,0,0-1.85-1.36,5.63,5.63,0,0,0-2.35-.5,5.53,5.53,0,0,0-3,.85,5.93,5.93,0,0,0-2.07,2.31,7.15,7.15,0,0,0-.74,3.24,7,7,0,0,0,.74,3.23,5.88,5.88,0,0,0,2.08,2.31,5.45,5.45,0,0,0,3,.86A5.62,5.62,0,0,0,719.7,591.53Z"/><path d="M750.3,581v23.4h-6.06v-8.17h0a5.27,5.27,0,0,1-4.14,1.79,7.43,7.43,0,0,1-4-1.09,7.25,7.25,0,0,1-2.74-3.07,10,10,0,0,1-1-4.53,10.59,10.59,0,0,1,.56-3.51,8.43,8.43,0,0,1,1.55-2.75,7,7,0,0,1,2.36-1.77,6.65,6.65,0,0,1,2.9-.64,5.62,5.62,0,0,1,4.47,2h.05V581Zm-6.7,10.78a3.4,3.4,0,0,0,.87-2.43,3.67,3.67,0,0,0-.4-1.75,2.85,2.85,0,0,0-1.1-1.18,3.07,3.07,0,0,0-1.58-.41,2.71,2.71,0,0,0-2.12.93,3.94,3.94,0,0,0,0,4.84,2.7,2.7,0,0,0,2.12.92A2.86,2.86,0,0,0,743.6,591.82Z"/><path d="M774.63,597.71l-4.55-7.38h-1.5v7.38H762.3V573.53H772a11.32,11.32,0,0,1,3.93.64,7,7,0,0,1,2.76,1.81,7.56,7.56,0,0,1,1.58,2.71,11.28,11.28,0,0,1,.26,5.87,7.12,7.12,0,0,1-.81,2,6.77,6.77,0,0,1-1.28,1.58,7,7,0,0,1-1.72,1.14l0,.05,5.47,8.36Zm-6-13h2a4.23,4.23,0,0,0,2.57-.71,2.38,2.38,0,0,0,1-2,2.49,2.49,0,0,0-.92-2,3.91,3.91,0,0,0-2.62-.79h-2Z"/><path d="M795.13,580.7v6.49c-.34,0-.76,0-1.28,0a3.5,3.5,0,0,0-2.58.89,3.22,3.22,0,0,0-.88,2.38v7.28h-6.08V581h6.08v2.28h.05a6.23,6.23,0,0,1,2.09-2,5.13,5.13,0,0,1,2.56-.67Z"/><path d="M808.6,597.09a12.94,12.94,0,0,1-4.2-2.9l3.66-4.5a9.22,9.22,0,0,0,2.81,2,6.65,6.65,0,0,0,2.7.66,2.25,2.25,0,0,0,1.56-.46,1.4,1.4,0,0,0,.52-1.1,1.49,1.49,0,0,0-.59-1.22,8.92,8.92,0,0,0-2.47-1.11c-.58-.2-1.11-.39-1.57-.57s-.95-.41-1.48-.68a10.27,10.27,0,0,1-1.38-.84,8.64,8.64,0,0,1-1.18-1,6,6,0,0,1-.93-1.3,7.22,7.22,0,0,1-.58-1.59,7.92,7.92,0,0,1-.22-1.93,6.74,6.74,0,0,1,1-3.68,7.29,7.29,0,0,1,2.88-2.61,9.12,9.12,0,0,1,4.14-1,11.89,11.89,0,0,1,4.59.81,13,13,0,0,1,4,2.42L818.27,581a14.19,14.19,0,0,0-2.6-1.67,4.64,4.64,0,0,0-2-.5,1.88,1.88,0,0,0-1.26.38,1.32,1.32,0,0,0-.43,1,1.57,1.57,0,0,0,.61,1.2,8.64,8.64,0,0,0,2.36,1.21,42.1,42.1,0,0,1,4.06,1.71,6.19,6.19,0,0,1,2.94,2.92,6.83,6.83,0,0,1,.5,2.71,8.72,8.72,0,0,1-.3,2.34,6.76,6.76,0,0,1-.79,1.89,7.43,7.43,0,0,1-2.74,2.53,9.33,9.33,0,0,1-1.71.72,12.1,12.1,0,0,1-1.79.41,13.2,13.2,0,0,1-1.78.12A12.07,12.07,0,0,1,808.6,597.09Z"/><path d="M823.8,595.57l2.76-3.76a6.47,6.47,0,0,0,4.17,1.9c.82,0,1.23-.23,1.23-.68a.56.56,0,0,0-.13-.39,2.14,2.14,0,0,0-.64-.4,12.23,12.23,0,0,0-1.51-.51c-.6-.18-1.14-.37-1.63-.57a8.38,8.38,0,0,1-1.44-.78,5.14,5.14,0,0,1-1.17-1,4.26,4.26,0,0,1-.76-1.34,5,5,0,0,1-.28-1.71,5.56,5.56,0,0,1,.51-2.41,4.77,4.77,0,0,1,1.38-1.77,6.59,6.59,0,0,1,2-1.06,8.24,8.24,0,0,1,2.47-.36,11.87,11.87,0,0,1,2.46.24,10.15,10.15,0,0,1,2.08.69,13.29,13.29,0,0,1,2,1.18l-2.81,4a6.29,6.29,0,0,0-1.74-1.25,4,4,0,0,0-1.76-.46,1.42,1.42,0,0,0-.74.18.53.53,0,0,0-.31.5c0,.18.14.36.43.53A9.51,9.51,0,0,0,832,587c.82.26,1.5.51,2,.74a9.07,9.07,0,0,1,1.55.8,4.3,4.3,0,0,1,1.15,1,4.11,4.11,0,0,1,.65,1.29,6,6,0,0,1,.23,1.71,5.43,5.43,0,0,1-.44,2.24,4.77,4.77,0,0,1-1.29,1.74,5.71,5.71,0,0,1-2.21,1.14,10.82,10.82,0,0,1-3.09.4A9.9,9.9,0,0,1,823.8,595.57Z"/><path d="M397,628.93h-6.14v-5.77h18.69v5.77h-6.12v18.41H397Z"/><path d="M415.56,647.35a4.33,4.33,0,0,1-2.63-2.77,7.3,7.3,0,0,1-.38-2.48v-6.61h-1.82v-4.82h1.82v-5.23l6.06-.63v5.86h3.62v4.82h-3.62v5.3a5.4,5.4,0,0,0,0,.61,2.69,2.69,0,0,0,.14.52.78.78,0,0,0,.34.42,1.1,1.1,0,0,0,.59.14,2.89,2.89,0,0,0,1.23-.26l1.48,4.24a8.76,8.76,0,0,1-4.87,1.23A5.81,5.81,0,0,1,415.56,647.35Z"/><path d="M439.43,647a9,9,0,0,1-3.2-2,8.77,8.77,0,0,1-2.07-3.3,13.21,13.21,0,0,1-.73-4.51v-14H440v13.66a7.2,7.2,0,0,0,.37,2.4,3.87,3.87,0,0,0,1.22,1.76,3.07,3.07,0,0,0,2,.69,3.29,3.29,0,0,0,1.9-.56,3.71,3.71,0,0,0,1.33-1.67,6.55,6.55,0,0,0,.49-2.62V623.16h6.51v14a12.41,12.41,0,0,1-1.16,5.53,8.39,8.39,0,0,1-3.49,3.66,11.13,11.13,0,0,1-5.58,1.32A11.9,11.9,0,0,1,439.43,647Z"/><path d="M473.67,630.67v16.67h-6.1v-1.78h-.06a5.62,5.62,0,0,1-2,1.59,5.94,5.94,0,0,1-2.52.54q-5.89,0-5.9-7.26v-9.76h6.07V639a5,5,0,0,0,.5,2.57,1.83,1.83,0,0,0,1.67.79,2,2,0,0,0,1.64-.82,4.08,4.08,0,0,0,.62-2.45v-8.38Z"/><path d="M507,623.16l-8.79,24.18h-5.69l-8.83-24.18h7l4.59,15h.08l4.66-15Z"/><path d="M525.81,630.67l-6.37,16.67H514l-6.38-16.67h6.29l2.79,9.46h.07l2.71-9.46Z"/><path d="M569,623.16l-7.51,24.18h-5.88l-3.59-14.71H552l-3.77,14.71h-5.89l-7.51-24.18h6.9l3.52,13.48h.09l3.22-13.48h6.81l3.18,13.48h.08l3.51-13.48Z"/><path d="M595.47,630.67l-5.6,16.67h-4.72L582.68,638h0l-2.37,9.39h-4.82l-5.6-16.67h6l2.34,8h0l2.11-8H585l2.15,8h0l2.36-8Z"/><path d="M616.43,640.11h-.09L612,647.34H604.5l7.57-12.18-7.24-12h7.39l4.12,7h.09l4.12-7h7.38l-7.25,12,7.58,12.18h-7.55Z"/><path d="M637.85,643.75h-.08l-2.36,3.59H629l5.47-8.63-5.37-8h6.75l1.94,3.54h.07l2-3.54h6.73l-5.4,8.06,5.51,8.61h-6.48Z"/><path d="M677.37,623.16l-7.84,13.74v10.44h-6.6V636.9l-7.79-13.74h7.42l3.69,7.39h0l3.59-7.39Z"/><path d="M694.31,630.67l-8.56,23.4h-5.9l2.83-8-6.38-15.44h6.26l2.83,7.89h.06l2.66-7.89Z"/><path d="M712.47,641.52v.07h10.12v5.75H704.2v-5L714,629v-.06h-9.51v-5.77h18.13v4.89Z"/><path d="M732.72,642.55v.05h6.45v4.74H725v-4l6.61-7.93v-.07h-5.95v-4.7h13.91v3.94Z"/><path class="cls-3" d="M416.49,754.69H403.56l-2,6.51h-11.3l14.62-40.29h10.3l14.63,40.29H418.51Zm-2.82-9.05-3.6-11.58H410l-3.6,11.58Z"/><path class="cls-3" d="M457.78,733.43l-10.6,27.77h-9.12l-10.63-27.77h10.5l4.65,15.75h.11l4.51-15.75Z"/><path class="cls-3" d="M485.61,749.79H467.39a4.28,4.28,0,0,0,1.9,3,6.92,6.92,0,0,0,3.86,1,8.75,8.75,0,0,0,6.4-3.07l5.23,5.76a13.44,13.44,0,0,1-5.19,3.83,18.19,18.19,0,0,1-7.52,1.48,15.3,15.3,0,0,1-7.45-1.81,13.23,13.23,0,0,1-5.22-5.14,15.9,15.9,0,0,1,0-15,13.16,13.16,0,0,1,5.13-5.15,14.85,14.85,0,0,1,7.43-1.86,14.53,14.53,0,0,1,5.56,1.07,13.19,13.19,0,0,1,4.45,2.92,13.51,13.51,0,0,1,2.9,4.53,15.2,15.2,0,0,1,1.07,5.75A10.91,10.91,0,0,1,485.61,749.79ZM469,741.55a4.45,4.45,0,0,0-1.54,2.73h8.64a6.06,6.06,0,0,0-.57-1.55,4.66,4.66,0,0,0-.9-1.18,3.62,3.62,0,0,0-1.23-.73,4.39,4.39,0,0,0-1.51-.25A4.43,4.43,0,0,0,469,741.55Z"/><path class="cls-3" d="M507.63,732.84v10.83c-.55,0-1.27,0-2.13,0a5.78,5.78,0,0,0-4.3,1.48,5.43,5.43,0,0,0-1.46,4V761.2H489.6V733.43h10.14v3.79h.08A10.31,10.31,0,0,1,503.3,734a8.58,8.58,0,0,1,4.27-1.13Z"/><path class="cls-3" d="M516.86,761.22a7.52,7.52,0,0,1-2.63-1.69,7.71,7.71,0,0,1-1.75-2.92,12.27,12.27,0,0,1-.64-4.13v-11h-3v-8h3V724.7L522,723.65v9.78h6v8h-6v8.83a9.57,9.57,0,0,0,0,1,4,4,0,0,0,.22.87,1.36,1.36,0,0,0,.57.7,1.9,1.9,0,0,0,1,.25,4.79,4.79,0,0,0,2.05-.45l2.47,7.06a16.12,16.12,0,0,1-3.57,1.54,16.89,16.89,0,0,1-4.55.51A9.31,9.31,0,0,1,516.86,761.22Z"/><path class="cls-3" d="M559.33,733.43V761.2h-9.61v-2.6h-.08a8.54,8.54,0,0,1-7.15,3.18,12.72,12.72,0,0,1-5.22-1.06,12.08,12.08,0,0,1-4.08-3,13.65,13.65,0,0,1-2.65-4.58,18.67,18.67,0,0,1,0-11.73,13.69,13.69,0,0,1,2.59-4.6,11.72,11.72,0,0,1,3.92-3,11.27,11.27,0,0,1,4.85-1.07,9.13,9.13,0,0,1,7.2,3.33h.08v-2.74Zm-11.12,17.94a6.47,6.47,0,0,0,0-8,4.45,4.45,0,0,0-3.47-1.57,4.57,4.57,0,0,0-3.55,1.55,6.6,6.6,0,0,0,0,8.08,4.59,4.59,0,0,0,3.55,1.53A4.49,4.49,0,0,0,548.21,751.37Z"/><path class="cls-3" d="M577.72,720.91h10.86v30.71h16v9.58H577.72Z"/><path class="cls-3" d="M609.15,728.7a5.34,5.34,0,0,1,1.18-8.6,6.25,6.25,0,0,1,3-.72,5.9,5.9,0,0,1,4.19,1.54,5.11,5.11,0,0,1,1.63,3.86,5.24,5.24,0,0,1-1.63,3.94,5.86,5.86,0,0,1-4.19,1.55A5.78,5.78,0,0,1,609.15,728.7Zm-.88,4.73h10.1V761.2h-10.1Z"/><path class="cls-3" d="M652.11,733.43v23.73a27,27,0,0,1-.47,5.25,15.59,15.59,0,0,1-1.58,4.35,10.82,10.82,0,0,1-2.86,3.36,12.92,12.92,0,0,1-4.39,2.12,21.92,21.92,0,0,1-6.08.76,29.35,29.35,0,0,1-6.23-.58,20.93,20.93,0,0,1-5.29-2l2.25-8a14.56,14.56,0,0,0,3.78,1.59,15.62,15.62,0,0,0,4.22.65,8.47,8.47,0,0,0,5-1.27,3.83,3.83,0,0,0,1.77-3.22v-2.52h-.08a9.46,9.46,0,0,1-7.34,2.91,11.87,11.87,0,0,1-6.46-1.79,12,12,0,0,1-4.41-4.87,15,15,0,0,1-1.57-6.91,17.12,17.12,0,0,1,.93-5.7,13.88,13.88,0,0,1,2.51-4.52,11.37,11.37,0,0,1,3.78-2.92,10.61,10.61,0,0,1,4.69-1.07,9.73,9.73,0,0,1,7.62,3.3H642v-2.71ZM641,750.33a5,5,0,0,0-3.5-8.51,5,5,0,0,0-3.52,8.51,4.83,4.83,0,0,0,3.52,1.37A4.77,4.77,0,0,0,641,750.33Z"/><path class="cls-3" d="M678,733.08a10.4,10.4,0,0,1,2.37.76,6.54,6.54,0,0,1,2,1.41,8.92,8.92,0,0,1,1.5,2.15,11.91,11.91,0,0,1,1,3,21.58,21.58,0,0,1,.33,4V761.2H675.06V746.83a9.16,9.16,0,0,0-.4-3.06,2.63,2.63,0,0,0-1.23-1.52,4.93,4.93,0,0,0-2.27-.43,3.59,3.59,0,0,0-3,1.34,6.52,6.52,0,0,0-1.08,4.08v14H657V719.44h10.13V736.5h.09a10.3,10.3,0,0,1,5.11-3.26,11.66,11.66,0,0,1,3-.4A14.12,14.12,0,0,1,678,733.08Z"/><path class="cls-3" d="M696.07,761.22a7.34,7.34,0,0,1-2.63-1.69,7.6,7.6,0,0,1-1.76-2.92,12.27,12.27,0,0,1-.64-4.13v-11h-3v-8h3V724.7l10.11-1.05v9.78h6v8h-6v8.83a7.31,7.31,0,0,0,.06,1,3.47,3.47,0,0,0,.22.87,1.39,1.39,0,0,0,.56.7,1.91,1.91,0,0,0,1,.25,4.82,4.82,0,0,0,2-.45l2.46,7.06a16.12,16.12,0,0,1-3.57,1.54,16.81,16.81,0,0,1-4.54.51A9.27,9.27,0,0,1,696.07,761.22Z"/><path d="M407.42,806.88H395.74l-2.41,6.4h-2.05l9.26-24.18h2l9.33,24.18h-2.06Zm-.68-1.83-5.17-13.62h0l-5.12,13.62Z"/><path d="M430.94,796.74v16.54h-1.71v-3.17h-.05a7,7,0,0,1-2.61,2.45,7.54,7.54,0,0,1-3.69.88,8.27,8.27,0,0,1-3.14-.59,8.06,8.06,0,0,1-2.58-1.66,7.58,7.58,0,0,1-1.73-2.63,8.85,8.85,0,0,1-.64-3.41,9.34,9.34,0,0,1,1-4.34,7.81,7.81,0,0,1,2.86-3.09,7.73,7.73,0,0,1,4.15-1.14,7.33,7.33,0,0,1,3.59.9,7.16,7.16,0,0,1,2.68,2.51h.06v-3.25Zm-5.57,14.53a6.16,6.16,0,0,0,2-1.33,6.08,6.08,0,0,0,1.35-2.09,7,7,0,0,0,.51-2.68,7.53,7.53,0,0,0-.79-3.46,6.23,6.23,0,0,0-2.21-2.5,5.76,5.76,0,0,0-3.2-.92,6.33,6.33,0,0,0-4.51,1.86,6.4,6.4,0,0,0-1.38,2.19,7.69,7.69,0,0,0-.5,2.83,7,7,0,0,0,.79,3.35,6,6,0,0,0,2.26,2.37,6.5,6.5,0,0,0,3.33.86A6,6,0,0,0,425.37,811.27Z"/><path d="M460,801.14a6.61,6.61,0,0,1,1.33.87,6.08,6.08,0,0,1,1.1,1.22,5.49,5.49,0,0,1,.73,1.6,7,7,0,0,1,.26,2,6.51,6.51,0,0,1-.5,2.62,5.56,5.56,0,0,1-1.49,2.05,7.07,7.07,0,0,1-2.58,1.34,12.82,12.82,0,0,1-3.62.47h-8.14V789.1h7.44a15.8,15.8,0,0,1,2.14.14,10.54,10.54,0,0,1,1.86.44,6.09,6.09,0,0,1,1.55.78,5.92,5.92,0,0,1,1.16,1.13,4.8,4.8,0,0,1,.75,1.5,6.7,6.7,0,0,1,.25,1.89,6.31,6.31,0,0,1-1,3.43,5.22,5.22,0,0,1-2.76,2.17v0A6.17,6.17,0,0,1,460,801.14Zm-11-1.27h5.82a8.45,8.45,0,0,0,1.53-.14,6.57,6.57,0,0,0,1.46-.48,4.78,4.78,0,0,0,1.24-.85,3.73,3.73,0,0,0,.86-1.31,4.75,4.75,0,0,0,.32-1.81q0-4.35-6.16-4.35H449Zm10.61,10.39a4,4,0,0,0,1.79-3.53,4.48,4.48,0,0,0-1.68-3.73,7.62,7.62,0,0,0-4.8-1.32H449v9.77h5.73A8.66,8.66,0,0,0,459.58,810.26Z"/><path d="M479.32,797a7.4,7.4,0,0,1,2.23,1.21,8.18,8.18,0,0,1,1.69,1.83,8.27,8.27,0,0,1,1.09,2.37,10,10,0,0,1,.37,2.74,8.85,8.85,0,0,1-.64,3.41,7.58,7.58,0,0,1-1.73,2.63,8.06,8.06,0,0,1-2.58,1.66,8.23,8.23,0,0,1-3.14.59,7.49,7.49,0,0,1-3.67-.88,7,7,0,0,1-2.61-2.44h-.05v3.16h-1.74V788.22h1.79V800h.08a7.16,7.16,0,0,1,2.68-2.51,7.36,7.36,0,0,1,3.59-.9A8.2,8.2,0,0,1,479.32,797Zm.5,13.89a6,6,0,0,0,2.26-2.37,7.05,7.05,0,0,0,.8-3.35,7.69,7.69,0,0,0-.51-2.83,6.4,6.4,0,0,0-1.38-2.19,6.21,6.21,0,0,0-2-1.37,6.29,6.29,0,0,0-2.47-.49,5.81,5.81,0,0,0-2.49.54,5.89,5.89,0,0,0-2,1.46,6.9,6.9,0,0,0-1.27,2.2,7.71,7.71,0,0,0-.47,2.68,7.5,7.5,0,0,0,.23,1.85,6.85,6.85,0,0,0,.64,1.61,6.52,6.52,0,0,0,1,1.3,6.3,6.3,0,0,0,1.27,1,6.34,6.34,0,0,0,3.1.83A6.47,6.47,0,0,0,479.82,810.89Z"/><path d="M507.13,812.91a10.9,10.9,0,0,1-3.26-1.51,11.07,11.07,0,0,1-2.58-2.44,10.8,10.8,0,0,1-1.71-3.39,14.21,14.21,0,0,1-.62-4.27,15.59,15.59,0,0,1,.49-3.92,11.56,11.56,0,0,1,1.49-3.4,11.17,11.17,0,0,1,2.41-2.67,10.35,10.35,0,0,1,3.33-1.75,13.32,13.32,0,0,1,4.18-.62,12.26,12.26,0,0,1,3.32.45,11.4,11.4,0,0,1,3.16,1.51,12.68,12.68,0,0,1,2.83,2.62l-1.48,1.21a10.5,10.5,0,0,0-3.58-2.9,9.45,9.45,0,0,0-4.25-1,10.6,10.6,0,0,0-4.18.8,8.58,8.58,0,0,0-3.11,2.19,10,10,0,0,0-1.91,3.32,12.43,12.43,0,0,0-.67,4.16,11.63,11.63,0,0,0,.76,4.3,8.87,8.87,0,0,0,2.1,3.23,9.25,9.25,0,0,0,3.13,2,10.78,10.78,0,0,0,3.88.7,9.77,9.77,0,0,0,7.83-3.87l1.48,1.21a11.42,11.42,0,0,1-9.31,4.55A13.39,13.39,0,0,1,507.13,812.91Z"/><path d="M527.21,812.38a7.43,7.43,0,0,1-2.86-3,9.89,9.89,0,0,1,0-8.75,7.34,7.34,0,0,1,2.88-3,8.21,8.21,0,0,1,4.23-1.07,9.1,9.1,0,0,1,3.54.71,7.8,7.8,0,0,1,2.89,2.06l-1.28,1.15a6.15,6.15,0,0,0-2.2-1.62,6.78,6.78,0,0,0-2.89-.61,6.4,6.4,0,0,0-3.31.86,5.77,5.77,0,0,0-2.25,2.39,8,8,0,0,0,0,7,5.69,5.69,0,0,0,2.24,2.37,6.37,6.37,0,0,0,3.31.85,7.39,7.39,0,0,0,2.92-.58,6.21,6.21,0,0,0,2.28-1.6l1.23,1.18a8.14,8.14,0,0,1-2.84,2,9.21,9.21,0,0,1-3.71.74A8.17,8.17,0,0,1,527.21,812.38Z"/><path d="M552.79,789.1h6.8a14.41,14.41,0,0,1,5.18.9,11.19,11.19,0,0,1,4,2.49,11,11,0,0,1,2.51,3.84,13.22,13.22,0,0,1,.88,4.9,13.42,13.42,0,0,1-.87,4.9,10.68,10.68,0,0,1-2.47,3.81,11.05,11.05,0,0,1-3.93,2.46,14.68,14.68,0,0,1-5.17.88h-6.9Zm6.78,22.35a11.89,11.89,0,0,0,4.32-.76,9.72,9.72,0,0,0,3.34-2.11,9.35,9.35,0,0,0,2.12-3.24,11.56,11.56,0,0,0,0-8.27,9.43,9.43,0,0,0-2.12-3.27,9.59,9.59,0,0,0-3.31-2.11,11.72,11.72,0,0,0-4.29-.76H554.7v20.52Z"/><path d="M592.5,788.22v25.06h-1.75v-3.14h-.06a7.33,7.33,0,0,1-1.56,1.76A6.86,6.86,0,0,1,587,813a8.12,8.12,0,0,1-2.59.4,8.27,8.27,0,0,1-3.14-.59,8.12,8.12,0,0,1-2.57-1.66,7.74,7.74,0,0,1-1.74-2.63,8.85,8.85,0,0,1-.64-3.41,9.41,9.41,0,0,1,.6-3.37,8.52,8.52,0,0,1,1.64-2.72,7.61,7.61,0,0,1,2.55-1.82,7.89,7.89,0,0,1,3.24-.66,7.32,7.32,0,0,1,3.58.9,7.16,7.16,0,0,1,2.68,2.51h.08V788.22Zm-5.58,23a6.13,6.13,0,0,0,3.33-3.42,7.14,7.14,0,0,0,.5-2.68,7.7,7.7,0,0,0-.46-2.68,7.09,7.09,0,0,0-1.27-2.2,6,6,0,0,0-2-1.46,5.87,5.87,0,0,0-2.49-.54,6.24,6.24,0,0,0-2.48.49,6.32,6.32,0,0,0-2,1.37,6.4,6.4,0,0,0-1.38,2.19,7.9,7.9,0,0,0-.5,2.83,6.94,6.94,0,0,0,.8,3.35,5.92,5.92,0,0,0,2.26,2.37,6.44,6.44,0,0,0,3.32.86A6.06,6.06,0,0,0,586.92,811.27Z"/><path d="M608.8,789.1h14.42v1.83H610.71v9.39h10.4v1.83h-10.4v9.3h13.23v1.83H608.8Z"/><path d="M642.27,805.45H629a6.68,6.68,0,0,0,1.87,4.56,5.83,5.83,0,0,0,4.32,1.74,6.52,6.52,0,0,0,3-.66,6.88,6.88,0,0,0,2.25-1.83l1.28,1.09a7.73,7.73,0,0,1-2.74,2.27,8.75,8.75,0,0,1-6.91.21,7.67,7.67,0,0,1-2.56-1.71,7.86,7.86,0,0,1-1.69-2.68,9.86,9.86,0,0,1,0-6.83,8,8,0,0,1,1.64-2.67,7.51,7.51,0,0,1,5.49-2.34,7.46,7.46,0,0,1,3.93,1,7,7,0,0,1,2.62,2.85,9,9,0,0,1,.91,4.09A3.73,3.73,0,0,1,642.27,805.45Zm-10-6.49a5.83,5.83,0,0,0-2.12,1.93,6.94,6.94,0,0,0-1.08,2.9h11.5a7.23,7.23,0,0,0-.9-2.87,5.09,5.09,0,0,0-1.91-1.94,5.33,5.33,0,0,0-2.71-.69A6,6,0,0,0,632.23,799Z"/><path d="M657.46,789.1h15.07v1.83H659.37v9.64h11.29v1.83H659.37v10.88h-1.91Z"/><path d="M677.11,798.41H675v-1.67h2.16v-3.65a5.47,5.47,0,0,1,1.15-3.77,4.1,4.1,0,0,1,3.19-1.27,7,7,0,0,1,3.54,1l-.38,1.59a6.3,6.3,0,0,0-3-.84,2.46,2.46,0,0,0-2,.84,4,4,0,0,0-.72,2.63v3.5h5.27v1.67h-5.27v14.87h-1.8Z"/><path d="M718.54,801.23v9.06a11.94,11.94,0,0,1-4.14,2.32,15.92,15.92,0,0,1-5.2.82,12.7,12.7,0,0,1-4.78-.88,11.47,11.47,0,0,1-3.78-2.45,11,11,0,0,1-2.46-3.87,13.6,13.6,0,0,1-.89-5,14,14,0,0,1,.86-5,11.57,11.57,0,0,1,2.41-3.89,10.91,10.91,0,0,1,3.76-2.52,12.48,12.48,0,0,1,4.83-.91,12.18,12.18,0,0,1,9,3.57l-1.38,1.23a11.36,11.36,0,0,0-10.86-2.43,9.08,9.08,0,0,0-2.72,1.39,9.59,9.59,0,0,0-3.42,5,12.54,12.54,0,0,0-.47,3.47,11.48,11.48,0,0,0,1.23,5.34,9,9,0,0,0,3.49,3.66,10.06,10.06,0,0,0,5.17,1.31,11.31,11.31,0,0,0,7.43-2.27v-6.2h-8v-1.83Z"/><path d="M739.25,796.74V812.5a9.47,9.47,0,0,1-.47,3.1,6.78,6.78,0,0,1-1.42,2.41,6.22,6.22,0,0,1-2.46,1.6,9.94,9.94,0,0,1-3.51.56,12.73,12.73,0,0,1-6.73-1.84l.45-1.69a12.72,12.72,0,0,0,3,1.4,11.24,11.24,0,0,0,3.22.44,7.82,7.82,0,0,0,2.71-.43,4.85,4.85,0,0,0,3-3,6.65,6.65,0,0,0,.38-2.28v-2.82h-.07a7,7,0,0,1-2.61,2.23,7.74,7.74,0,0,1-3.54.79,8.37,8.37,0,0,1-3.13-.58,7.82,7.82,0,0,1-2.55-1.62,7.42,7.42,0,0,1-1.71-2.57,9.43,9.43,0,0,1,0-6.62,8.08,8.08,0,0,1,1.61-2.62,7.29,7.29,0,0,1,2.52-1.74,8.2,8.2,0,0,1,3.23-.63,7.82,7.82,0,0,1,3.53.81,7.37,7.37,0,0,1,2.69,2.3h.07v-3Zm-5.38,14a5.53,5.53,0,0,0,2-1.38,6.47,6.47,0,0,0,1.25-2.1,7.58,7.58,0,0,0,.44-2.64,7.41,7.41,0,0,0-.3-2.13,5.87,5.87,0,0,0-.88-1.77,6.75,6.75,0,0,0-1.34-1.33,5.54,5.54,0,0,0-1.7-.85,6.58,6.58,0,0,0-5.2.55,5.89,5.89,0,0,0-2.22,2.34,7.35,7.35,0,0,0-.3,6,5.86,5.86,0,0,0,1.35,2.06,5.93,5.93,0,0,0,2,1.29,6.22,6.22,0,0,0,2.4.46A6.43,6.43,0,0,0,733.87,810.77Z"/><path d="M755.34,789.1h1.91v11.83h14.22V789.1h1.91v24.18h-1.91V802.76H757.25v10.52h-1.91Z"/><path d="M792.19,798.24c1,1.11,1.51,2.85,1.51,5.24v9.8h-1.8v-9.57a9.34,9.34,0,0,0-.32-2.67,3.88,3.88,0,0,0-.94-1.68,3.68,3.68,0,0,0-1.36-.84,5.72,5.72,0,0,0-1.75-.25,5.6,5.6,0,0,0-4.4,1.87,7.14,7.14,0,0,0-1.66,5v8.19h-1.8V788.22h1.8V800h.06a7.25,7.25,0,0,1,2.72-2.5,7.78,7.78,0,0,1,3.7-.89A5.41,5.41,0,0,1,792.19,798.24Z"/><path d="M809.88,789.1h1.93v24.18h-1.93Z"/><path d="M818.34,793a1.61,1.61,0,0,1-.54-.53,1.45,1.45,0,0,1-.2-.75,1.46,1.46,0,0,1,.44-1.07,1.44,1.44,0,0,1,1.08-.44,1.48,1.48,0,0,1,1.07.44,1.46,1.46,0,0,1,.44,1.07,1.44,1.44,0,0,1-.44,1,1.47,1.47,0,0,1-1.07.43A1.56,1.56,0,0,1,818.34,793Zm-.16,3.7H820v16.54h-1.8Z"/><path d="M837.35,812.63a8.18,8.18,0,0,1-2.9-2.26l1.07-1.48a8.77,8.77,0,0,0,2.41,2,5.83,5.83,0,0,0,2.74.73,5.12,5.12,0,0,0,1.87-.32,3.73,3.73,0,0,0,1.42-1,4.52,4.52,0,0,0,.93-1.86,10.9,10.9,0,0,0,.31-2.79V789.1h1.92v16.68c0,2.58-.53,4.49-1.59,5.75a6,6,0,0,1-4.88,1.9A7.82,7.82,0,0,1,837.35,812.63Z"/><path d="M848.45,819.64l.29-1.68a3.37,3.37,0,0,0,1.91.54,2.18,2.18,0,0,0,1.73-.72,3.21,3.21,0,0,0,.64-2.21V796.74h1.8v18.83a5.37,5.37,0,0,1-1,3.35,3.36,3.36,0,0,1-2.88,1.25A6,6,0,0,1,848.45,819.64Zm4.36-26.76a1.4,1.4,0,0,1-.43-1,1.49,1.49,0,0,1,.43-1.08,1.53,1.53,0,0,1,2.15,0,1.5,1.5,0,0,1,.44,1.08,1.4,1.4,0,0,1-.44,1,1.46,1.46,0,0,1-1.07.44A1.5,1.5,0,0,1,852.81,792.88Z"/><path d="M399.43,851.49l-4.16,4.83v6.58h-1.91V838.73h1.91v14.79h0l12.54-14.79h2.51l-9.6,11.2,9.8,13h-2.44l-8.66-11.41Z"/><path d="M422.22,853.37l6.34,9.53h-2.09L421,854.76h-.05l-4.09,4.51v3.63h-1.8v-25h1.8v18.86h0l9.37-10.34h2.29Z"/><path d="M443.12,838.73H445v22.35h12.66v1.82H443.12Z"/><path d="M462.07,837.85h1.8v25h-1.8Z"/><path d="M503.75,838.73V862.9h-1.91V842.57h0l-9,15.32h-1.4l-9-15.32h-.05V862.9h-1.91V838.73h1.94l9.72,16.68h.07l9.7-16.68Z"/><path d="M533.27,848a8.36,8.36,0,0,1,1.41,5.28v9.69h-1.79v-9.12a12.28,12.28,0,0,0-.28-2.78,4.75,4.75,0,0,0-.82-1.84,3.13,3.13,0,0,0-1.31-1,4.76,4.76,0,0,0-1.81-.31,4.6,4.6,0,0,0-2.1.49,5.56,5.56,0,0,0-1.71,1.35,6.34,6.34,0,0,0-1.15,2.16,8.67,8.67,0,0,0-.43,2.81v8.23h-1.79v-9.27a7.16,7.16,0,0,0-1.08-4.42,3.72,3.72,0,0,0-3.08-1.35,4.93,4.93,0,0,0-3.93,1.88,7.45,7.45,0,0,0-1.57,4.93v8.19H510V846.37h1.79v3.14h.07a7.2,7.2,0,0,1,2.57-2.43,6.61,6.61,0,0,1,3.28-.88,5.43,5.43,0,0,1,3.18.91,5.17,5.17,0,0,1,1.89,2.68h.1a7.29,7.29,0,0,1,1.59-1.93,6.79,6.79,0,0,1,2.11-1.23,7.23,7.23,0,0,1,2.46-.43A5,5,0,0,1,533.27,848Z"/><path d="M569.71,838.73V862.9h-2l-15.22-20.78h0V862.9h-1.91V838.73h1.88l15.27,20.88h.07V838.73Z"/><path d="M588.38,847.87c1,1.12,1.48,2.86,1.48,5.23v9.8h-1.8v-9.57a10.47,10.47,0,0,0-.21-2.22,5.41,5.41,0,0,0-.59-1.56,3.33,3.33,0,0,0-.92-1,3.45,3.45,0,0,0-1.14-.52,5.41,5.41,0,0,0-1.33-.15,5.62,5.62,0,0,0-4.4,1.86,7.14,7.14,0,0,0-1.66,5v8.19H576V846.37h1.79v3.22h.07a7.31,7.31,0,0,1,2.71-2.5,7.81,7.81,0,0,1,3.7-.89A5.2,5.2,0,0,1,588.38,847.87Z"/><path d="M612,862.12a11.3,11.3,0,0,1-3.82-2.6,11.89,11.89,0,0,1-2.42-3.91,13.3,13.3,0,0,1-.87-4.82,13.09,13.09,0,0,1,.87-4.78,11.79,11.79,0,0,1,2.42-3.89,11,11,0,0,1,3.82-2.6,12.79,12.79,0,0,1,9.55-.07,11.7,11.7,0,0,1,3.81,2.47,11.23,11.23,0,0,1,2.54,3.88,13.19,13.19,0,0,1,.93,5,13.39,13.39,0,0,1-.93,5,11.27,11.27,0,0,1-2.54,3.89,11.54,11.54,0,0,1-3.81,2.47,12.36,12.36,0,0,1-4.67.89A12.49,12.49,0,0,1,612,862.12Zm8.75-1.71A9.48,9.48,0,0,0,626,855a11.72,11.72,0,0,0,0-8.41,9.48,9.48,0,0,0-2.12-3.28,9.61,9.61,0,0,0-3.15-2.1,10.5,10.5,0,0,0-7.94.06,9.12,9.12,0,0,0-3.16,2.22,10.36,10.36,0,0,0-2,3.3,11.13,11.13,0,0,0-.73,4,11.45,11.45,0,0,0,.46,3.28,9.75,9.75,0,0,0,1.34,2.86,9.86,9.86,0,0,0,2.08,2.24,9.09,9.09,0,0,0,2.77,1.48,10.36,10.36,0,0,0,3.32.53A9.9,9.9,0,0,0,620.71,860.41Z"/><path d="M638,862.41a8,8,0,0,1-2.67-1.8,8.16,8.16,0,0,1-1.69-2.67,9,9,0,0,1-.6-3.28,9.11,9.11,0,0,1,.6-3.3,8.36,8.36,0,0,1,1.69-2.69,7.67,7.67,0,0,1,2.67-1.8,8.83,8.83,0,0,1,3.44-.67,8.69,8.69,0,0,1,4.27,1.06,7.59,7.59,0,0,1,3,3,8.8,8.8,0,0,1,1.1,4.41,8.67,8.67,0,0,1-1.1,4.37,7.66,7.66,0,0,1-3,3,8.69,8.69,0,0,1-4.27,1.05A8.82,8.82,0,0,1,638,862.41Zm6.73-1.87a6.21,6.21,0,0,0,2.38-2.39,6.88,6.88,0,0,0,.88-3.49,7.35,7.35,0,0,0-.51-2.75,6.56,6.56,0,0,0-1.4-2.15,6.22,6.22,0,0,0-2.09-1.37,6.63,6.63,0,0,0-2.56-.49,6.48,6.48,0,0,0-3.44.91,6.17,6.17,0,0,0-2.32,2.46,7.13,7.13,0,0,0-.81,3.39,7,7,0,0,0,.82,3.38,6.16,6.16,0,0,0,2.32,2.43,6.91,6.91,0,0,0,6.73.07Z"/><path d="M665,838.73h8.19a10.52,10.52,0,0,1,3.53.54,6,6,0,0,1,2.42,1.52,6.32,6.32,0,0,1,1.36,2.25,8.79,8.79,0,0,1,.44,2.85,8.62,8.62,0,0,1-.4,2.68,6,6,0,0,1-1.12,2,6.1,6.1,0,0,1-1.75,1.41,8.45,8.45,0,0,1-2.29.84,13.18,13.18,0,0,1-2.75.26H666.9v9.77H665Zm7.56,12.58a9.2,9.2,0,0,0,2.93-.42,4.88,4.88,0,0,0,2-1.16,4.68,4.68,0,0,0,1.08-1.71,6.38,6.38,0,0,0,.35-2.15,5,5,0,0,0-1.53-4,6.13,6.13,0,0,0-4.2-1.35H666.9v10.75Z"/><path d="M697.92,847.34a7.72,7.72,0,0,1,2.85,3.09,9.27,9.27,0,0,1,1,4.35,9.08,9.08,0,0,1-.64,3.41,7.7,7.7,0,0,1-1.74,2.62,8,8,0,0,1-2.57,1.66,8.31,8.31,0,0,1-3.14.6,7.55,7.55,0,0,1-3.64-.85,7,7,0,0,1-2.58-2.37h-.07v9.78h-1.79V846.37h1.79v3.28h.07a7.25,7.25,0,0,1,2.68-2.54,7.46,7.46,0,0,1,3.6-.91A7.76,7.76,0,0,1,697.92,847.34Zm-1,13.17a5.8,5.8,0,0,0,2.26-2.37,7,7,0,0,0,.8-3.34,7.75,7.75,0,0,0-.51-2.84,6,6,0,0,0-1.38-2.18,6.06,6.06,0,0,0-2-1.37,6.26,6.26,0,0,0-2.47-.49,5.73,5.73,0,0,0-3.2.92,6.28,6.28,0,0,0-2.21,2.49,7.7,7.7,0,0,0-.79,3.47,7.17,7.17,0,0,0,.33,2.19,6.25,6.25,0,0,0,.9,1.83A6.59,6.59,0,0,0,690,860.2a5.84,5.84,0,0,0,1.7.88,6.23,6.23,0,0,0,1.93.3A6.35,6.35,0,0,0,696.9,860.51Z"/><path d="M739.26,863.29l-3.36-3a11.59,11.59,0,0,1-3.59,2.09,13,13,0,0,1-9.18-.22,11.21,11.21,0,0,1-3.8-2.6,11.75,11.75,0,0,1-2.43-3.91,13.3,13.3,0,0,1-.87-4.82,13.09,13.09,0,0,1,.87-4.78,11.66,11.66,0,0,1,2.43-3.89,11,11,0,0,1,3.81-2.6,12.82,12.82,0,0,1,9.56-.07,11.56,11.56,0,0,1,3.8,2.47A11.09,11.09,0,0,1,739,845.8a13.19,13.19,0,0,1,.94,5,12.38,12.38,0,0,1-2.71,8.06l3.24,2.91Zm-4.85-4.39-3.08-2.79,1.25-1.48,3.17,2.86a10.48,10.48,0,0,0,2.2-6.7,11.06,11.06,0,0,0-.76-4.13,9.89,9.89,0,0,0-2.06-3.28,9.31,9.31,0,0,0-3.15-2.14,10.43,10.43,0,0,0-7.94,0,9.51,9.51,0,0,0-3.17,2.17,9.78,9.78,0,0,0-2.06,3.28,11.58,11.58,0,0,0,0,8.2,9.77,9.77,0,0,0,2.06,3.3,9.39,9.39,0,0,0,3.17,2.18,10.06,10.06,0,0,0,4,.8A9.43,9.43,0,0,0,734.41,858.9Z"/><path d="M760.87,846.37v23.26h-1.8v-9.78H759a6.93,6.93,0,0,1-2.59,2.37,7.49,7.49,0,0,1-3.63.85,8.31,8.31,0,0,1-3.14-.6,8,8,0,0,1-2.57-1.66,7.7,7.7,0,0,1-1.74-2.62,8.88,8.88,0,0,1-.64-3.41,9.37,9.37,0,0,1,.6-3.37,8.46,8.46,0,0,1,1.64-2.73,7.58,7.58,0,0,1,2.55-1.81,7.89,7.89,0,0,1,3.24-.67,7.39,7.39,0,0,1,3.59.91,7.2,7.2,0,0,1,2.69,2.54h.06v-3.28Zm-5.58,14.52a6.36,6.36,0,0,0,2-1.32,6.25,6.25,0,0,0,1.36-2.09,7.17,7.17,0,0,0,.49-2.68,7.76,7.76,0,0,0-.46-2.69,6.85,6.85,0,0,0-1.27-2.19,5.94,5.94,0,0,0-4.46-2,7,7,0,0,0-1.46.15,6,6,0,0,0-1.33.48,6.64,6.64,0,0,0-1.19.75,5.74,5.74,0,0,0-1,1,7.45,7.45,0,0,0-.76,1.28,7.23,7.23,0,0,0-.49,1.49,8.52,8.52,0,0,0-.17,1.7,7,7,0,0,0,.8,3.34,5.8,5.8,0,0,0,2.26,2.37,6.35,6.35,0,0,0,3.32.87A5.9,5.9,0,0,0,755.29,860.89Z"/><path d="M791.18,862.9l-6.68-9.77H779v9.77h-1.91V838.73h8.26a10.26,10.26,0,0,1,3.48.54,6.18,6.18,0,0,1,2.43,1.51,6.46,6.46,0,0,1,1.38,2.26,8.61,8.61,0,0,1,.45,2.85,6.89,6.89,0,0,1-1.69,4.94,7.6,7.6,0,0,1-4.65,2.19v0l6.81,9.85ZM779,851.31h5.7a9.51,9.51,0,0,0,2.93-.41,4.79,4.79,0,0,0,2-1.16,4.57,4.57,0,0,0,1.1-1.71,6.12,6.12,0,0,0,.36-2.16,5,5,0,0,0-1.53-4,6.27,6.27,0,0,0-4.29-1.34H779Z"/><path d="M807.12,846.22v2c-.51-.05-.86-.07-1-.07a4.92,4.92,0,0,0-4,1.85,7.36,7.36,0,0,0-1.52,4.8v8.1h-1.79V846.37h1.79v3.14h.09a6.59,6.59,0,0,1,2.36-2.44,6.23,6.23,0,0,1,3.25-.87Z"/><path d="M823.52,862.16a10.91,10.91,0,0,1-3.88-2.78l1.24-1.49a8.94,8.94,0,0,0,3.25,2.45,9.56,9.56,0,0,0,3.93.85,6.76,6.76,0,0,0,4.13-1.2,3.78,3.78,0,0,0,1.62-3.18,4.11,4.11,0,0,0-1.76-3.51,17.79,17.79,0,0,0-3.49-1.68l-.83-.31a37.11,37.11,0,0,1-3.94-1.73,5.67,5.67,0,0,1-3.12-4,4.86,4.86,0,0,1-.09-1,5.47,5.47,0,0,1,.56-2.42,5.88,5.88,0,0,1,1.51-1.94,7.14,7.14,0,0,1,2.29-1.27,8.41,8.41,0,0,1,2.81-.47,11,11,0,0,1,3.78.69,13.23,13.23,0,0,1,3.58,2l-1.23,1.57a11.32,11.32,0,0,0-3-1.77,8.71,8.71,0,0,0-3.11-.61,6.79,6.79,0,0,0-1.86.26,5.58,5.58,0,0,0-1.61.77,3.71,3.71,0,0,0-1.6,3.07,3.57,3.57,0,0,0,1.75,3.13,18.73,18.73,0,0,0,3.34,1.56c.27.1.49.18.64.25,2,.79,3.24,1.32,3.79,1.61a6.61,6.61,0,0,1,3.18,3,6.16,6.16,0,0,1,.49,2.56,5.81,5.81,0,0,1-1,3.42A6.6,6.6,0,0,1,832,862.3a9.81,9.81,0,0,1-3.93.77A11.72,11.72,0,0,1,823.52,862.16Z"/><path d="M839.32,860.73l1-1.41a7.62,7.62,0,0,0,2.28,1.53,7.81,7.81,0,0,0,3.06.53,4.38,4.38,0,0,0,2.82-.82,2.52,2.52,0,0,0,1-2.08,2.65,2.65,0,0,0-.06-.58,1.77,1.77,0,0,0-.24-.5,5,5,0,0,0-.35-.41,1.8,1.8,0,0,0-.5-.37l-.58-.32a6.21,6.21,0,0,0-.71-.31l-.76-.28-.89-.3-.48-.17c-.61-.21-1.12-.4-1.54-.58a7.93,7.93,0,0,1-1.31-.69,4.61,4.61,0,0,1-1.09-.89,3.54,3.54,0,0,1-.67-1.14,4.3,4.3,0,0,1-.26-1.5,3.73,3.73,0,0,1,1.47-3,5.63,5.63,0,0,1,3.7-1.2,8.23,8.23,0,0,1,5.49,2l-1,1.42a6.85,6.85,0,0,0-4.67-1.75,4.13,4.13,0,0,0-1.56.29,2.72,2.72,0,0,0-1.17.88,2.24,2.24,0,0,0-.44,1.37,2.11,2.11,0,0,0,.1.68,2,2,0,0,0,.24.55,1.67,1.67,0,0,0,.43.47,5.25,5.25,0,0,0,.51.37,3.78,3.78,0,0,0,.67.33c.29.13.53.23.7.29l.8.29.18.06c1.78.63,2.9,1.07,3.38,1.3a4.22,4.22,0,0,1,2.21,2.18,5,5,0,0,1,.25,1.61,4,4,0,0,1-.37,1.72,4.37,4.37,0,0,1-1,1.43,5.19,5.19,0,0,1-1.79,1,7.94,7.94,0,0,1-2.48.36A9.29,9.29,0,0,1,839.32,860.73Z"/><path d="M398.83,890.18h-7.56v-1.83h17.15v1.83h-7.68v22.35h-1.91Z"/><path d="M413.47,911.48a5.93,5.93,0,0,1-.92-3.62v-10.2h-2.2V896h2.2v-5.79l1.79-.21v6h6v1.66h-6v9.75a5.46,5.46,0,0,0,.51,2.7,2,2,0,0,0,1.9.86,6.21,6.21,0,0,0,3.12-1l.47,1.61a7.15,7.15,0,0,1-3.79,1.07A3.62,3.62,0,0,1,413.47,911.48Z"/><path d="M440.38,912a8.11,8.11,0,0,1-4.75-5.06,12.24,12.24,0,0,1-.67-4.17V888.35h1.91v14.29a9.79,9.79,0,0,0,.9,4.33,6.55,6.55,0,0,0,2.53,2.84,7.09,7.09,0,0,0,3.77,1,6.75,6.75,0,0,0,5.24-2.18,8.58,8.58,0,0,0,2-6V888.35h1.91v14.44a12.31,12.31,0,0,1-.66,4.14,8.76,8.76,0,0,1-1.85,3.13,8.2,8.2,0,0,1-2.89,2,10.42,10.42,0,0,1-7.43,0Z"/><path d="M472.44,896v16.53h-1.79v-3.06h-.07a7.31,7.31,0,0,1-2.54,2.38,6.59,6.59,0,0,1-3.21.85,5.69,5.69,0,0,1-4.45-1.74,7.24,7.24,0,0,1-1.58-5.06V896h1.79v9.35a10.1,10.1,0,0,0,.3,2.64,4.08,4.08,0,0,0,.9,1.75,3.67,3.67,0,0,0,1.4,1,5.43,5.43,0,0,0,1.89.3,4.9,4.9,0,0,0,2.11-.49,5.6,5.6,0,0,0,1.78-1.36,6.26,6.26,0,0,0,1.22-2.16,8.49,8.49,0,0,0,.46-2.81V896Z"/><path d="M506.76,888.35l-9.21,24.18h-1.79l-9.19-24.18h2.09l8,21.32h.05l8-21.32Z"/><path d="M524.73,896l-6.85,16.53h-1.74L509.22,896h2L517,910.12h.08l5.7-14.12Z"/><path d="M569.34,888.35l-7.77,24.18h-2l-6.18-21.34h0l-6.23,21.34h-2l-7.77-24.18h2l6.72,21h.06l6.12-21h2.18l6.08,21.07h.06l6.7-21.07Z"/><path d="M595.71,896l-5.8,16.53h-1.86l-4.26-13.34h-.06l-4.16,13.34h-1.83L571.94,896h1.88l4.79,13.77h.06L582.94,896h1.67L589,909.79h.07l4.8-13.79Z"/><path d="M618.24,902.1h-.07l-7.34,10.43H608.5l8.44-12.06-8.41-12.12h2.26l7.4,10.52h0l7.29-10.52h2.3l-8.38,12.12,8.44,12.06h-2.32Z"/><path d="M638,905.69h0l-5.12,6.84h-2.13l6.2-8.29L630.66,896h2.18l5,6.74h.1l5-6.74h2.19l-6.15,8.21,6.2,8.32h-2.14Z"/><path d="M676,888.35l-8.37,13.28v10.9h-1.91v-10.9l-8.31-13.28h2.24l7,11.22h.13l7-11.22Z"/><path d="M693.13,896l-9.62,23.26h-1.94l2.92-7.18L677.28,896h2l6.13,13.89h.08l5.7-13.89Z"/><path d="M723,910.7v1.83H706.56v-1.59l13.76-20.69v-.07h-13v-1.83h15.52V890l-13.78,20.65v.08Z"/><path d="M740,910.87v1.66H726.84v-1.44l10.58-13.35v-.08H727.31V896H739.9v1.39l-10.62,13.4v.08Z"/><g class="cls-4"><path class="cls-5" d="M320.66-3.87c22.92-6.81,46.57,9.58,60.81,28.79s23.6,42.27,41.08,58.59c15.77,14.72,36.77,22.59,57.79,27.43,100.6,23.19,210.69-14.84,307.13,22,30.4,11.61,57.63,30.12,87.1,43.93C906.1,191.63,940.7,201,975.49,199.62s69.78-14.17,94.38-38.81"/><path class="cls-5" d="M347.82-14.19c22.83-3.61,47.54,11.81,63.56,29.08C427.23,32,438.54,52.06,457.17,66.3q3.22,2.46,6.68,4.65c15.63,9.94,34.34,15.77,53.06,19.67,37.65,7.86,76.42,8.89,115.31,8.39,22.44-.29,45.07-1.36,67.2-2.66,31.78-1.88,65.21-8.26,95.53-2.91,9.53,1.68,19.34,5.12,29.38,9.63C853.48,116.15,881,136,909.62,152c19.16,10.7,38.87,19.55,58.25,23.46,13,2.64,27.25,1.67,41.14-.24,5.5-.75,10.91-1.67,16.09-2.28,28.53-3.35,44.87-22.49,65.25-42.72"/><path class="cls-5" d="M375-24.51c22.74-.42,48.48,14,66.32,29.37,17.41,15,30.7,32.07,50.48,44.22,2.29,1.41,4.64,2.73,7.05,4,16.42,8.51,35.53,13.65,54.65,17.24,38.45,7.23,77.87,9,117.37,9.25a658.26,658.26,0,0,0,68.31-2.93c30-3,63.86-17,92.55-13.75,9.19,1,19,5,29.48,10.33,27.94,14.38,55.62,35.84,83.48,53.94,19.4,12.6,38.78,23.33,57,27.32,12.33,2.74,27-.39,40.83-3.63a126.22,126.22,0,0,1,16.08-3.12c27.81-2.54,32.26-28.46,52.23-48.09"/><path class="cls-5" d="M402.15-34.82C424.79-32,451.51-18.54,471.21-5.17c18.94,12.86,34.26,27,55.18,37q3.63,1.74,7.43,3.3C551,42.26,570.54,46.71,590.06,50c39.24,6.59,79.3,9.13,119.43,10.11,23.21.58,46.84-.06,69.4-3.2,28.3-3.94,62.55-25.75,89.58-24.58,8.86.38,18.73,4.74,29.58,11,26.77,15.52,54.57,38.83,81.67,58.94,19.61,14.56,38.7,27.06,55.81,31.18,11.67,2.81,26.67-2.5,40.51-7,5.76-1.88,11.24-3.62,16.09-3.94,27.08-1.8,19.64-34.44,39.19-53.46"/><path class="cls-5" d="M429.31-45.14c22.54,6,50.23,18.55,71.81,29.93C521.57-4.43,538.94,6.67,561,14.66c2.56.92,5.16,1.79,7.8,2.63,18,5.65,37.91,9.41,57.83,12.37,40,5.95,80.75,9.24,121.49,11,23.6,1,47.72.68,70.51-3.47,26.55-4.83,61.24-34.56,86.61-35.41,8.53-.29,18.44,4.48,29.67,11.72,25.66,16.56,53.48,41.9,79.87,64,19.79,16.55,38.61,30.82,54.58,35,11,2.9,26.38-4.64,40.2-10.43,5.89-2.47,11.4-4.6,16.08-4.78,26.37-1,7-40.4,26.16-58.82"/><path class="cls-5" d="M456.47-55.46C478.92-46.3,507.55-34.6,531-25.24,553-16.5,572.4-8.46,595.62-2.56c2.68.68,5.41,1.33,8.16,2,18.79,4.23,39.1,7.3,59.42,9.94C704,14.66,745.39,18.7,786.76,21.17c24,1.44,48.6,1.48,71.6-3.73,24.83-5.63,60-43.44,83.64-46.26,8.21-1,18.19,4.2,29.76,12.43,24.62,17.5,52.36,45,78.07,69,19.94,18.58,38.52,34.59,53.36,38.9,10.34,3,26.07-6.8,39.89-13.83,6-3.06,11.56-5.57,16.08-5.6,25.64-.2-5.59-46.38,13.12-64.19"/><path class="cls-5" d="M483.64-65.78C506-53.42,535.55-42.57,561-35.27a553.26,553.26,0,0,0,69.28,15.5c2.82.44,5.66.86,8.54,1.28,19.57,2.8,40.29,5.19,61,7.51C741.4-6.3,783.4-1.5,825.39,1.71c24.37,1.88,49.51,2.36,72.71-4s58.66-52.38,80.66-57.09c7.89-1.69,18,3.87,29.86,13.12,23.63,18.38,51.18,48.16,76.26,74,20.06,20.65,38.44,38.37,52.14,42.76,9.68,3.1,25.75-9,39.57-17.22,6.14-3.66,11.74-6.54,16.09-6.44,24.92.62-18.2-52.34.09-69.56"/><path class="cls-5" d="M510.8-76.09c22.26,15.54,52.75,25.58,80.06,30.78,24.88,4.75,48.48,6.59,74,8.32l8.91.61c20.36,1.38,41.48,3.07,62.59,5.08,42.43,4,85.08,9.59,127.69,13.55,24.75,2.31,50.44,3.33,73.8-4.27,21.43-7,57.35-61.39,77.69-67.92,7.56-2.43,17.77,3.5,30,13.82,22.69,19.21,50,51.33,74.45,79,20.14,22.73,38.35,42.14,50.92,46.61,9,3.2,25.42-11.16,39.26-20.62,6.24-4.26,11.9-7.51,16.08-7.26,24.2,1.43-30.81-58.32-12.94-74.93"/><path class="cls-5" d="M538-86.41c22.16,18.74,53.6,28,82.82,31.07,26.37,2.79,52,1.49,78.68,1.14,3.08,0,6.17-.07,9.27-.07,21.16,0,42.68,1,64.19,2.65,43.22,3.41,86.51,9.71,129.74,14.41,25.14,2.74,51.43,4.41,74.91-4.54,19.79-7.54,56-70.46,74.72-78.75,7.21-3.2,17.61,3.1,30,14.52,21.81,20,48.7,54.51,72.64,84,20.19,24.84,38.25,46,49.7,50.47,8.33,3.33,25.07-13.36,38.94-24,6.36-4.88,12.07-8.48,16.09-8.1,23.47,2.29-43.43-64.29-26-80.29"/><path class="cls-5" d="M565.13-96.73c22.06,21.94,54.46,30.42,85.56,31.36s62-4.71,93-6.79c66-4.43,131.9,7.33,197.58,15.49,25.52,3.17,52.49,5.61,76-4.81,18.21-8.06,54.54-79.57,71.75-89.59C1117-167.33,1209-5.72,1238.51,7.47c11.22,5,42.54-38,54.72-36.33,22.75,3.08-56-70.26-39-85.66"/></g><g class="cls-6"><path d="M12.31,122.82l-16-2-3.53,7.75-14-1.76L3.15,79.11l12.78,1.6L27.78,133l-14-1.76Zm-2.09-11.67L7.56,96.23H7.42L1.15,110Z"/><path d="M69.17,109.6l-22.4,29.65-10.94-3.17L32.73,99l12.6,3.66.1,20.53.13,0,10.91-17.34Z"/><path d="M95.26,144.35,74.68,134.6a5.31,5.31,0,0,0,.55,4.36,8.68,8.68,0,0,0,3.82,3.22q3.92,1.86,8.87,0l2.83,9.31A17,17,0,0,1,82.83,153a22.9,22.9,0,0,1-9.29-2.35,19.13,19.13,0,0,1-7.44-6A16.5,16.5,0,0,1,63,136a19.94,19.94,0,0,1,8-16.95A16.4,16.4,0,0,1,79.48,116a18.59,18.59,0,0,1,9.37,1.88,18.15,18.15,0,0,1,5.72,4.18,16.09,16.09,0,0,1,4.32,12.36A19.37,19.37,0,0,1,97,141.47,13.82,13.82,0,0,1,95.26,144.35Zm-14.4-18.22a5.55,5.55,0,0,0-3.2,2.26L87.42,133a7.72,7.72,0,0,0,.19-2,5.26,5.26,0,0,0-.39-1.81,4.21,4.21,0,0,0-1-1.49,5.37,5.37,0,0,0-1.57-1.09A5.49,5.49,0,0,0,80.86,126.13Z"/><path d="M130.23,142.85,122.55,154q-.81-.65-2.16-1.56a7.2,7.2,0,0,0-5.46-1.52A6.72,6.72,0,0,0,110.6,154L102,166.46l-10.44-7.18,19.69-28.6,10.43,7.18L119,141.77l.08,0a13,13,0,0,1,5.89-.88,10.76,10.76,0,0,1,5.2,1.87Z"/><path d="M117.46,178.73a9.09,9.09,0,0,1-1-3.77,9.71,9.71,0,0,1,.83-4.18,15.31,15.31,0,0,1,2.89-4.35l9.28-10.19-2.79-2.54,6.76-7.42,2.79,2.54,7.34-8.06,10.23,7.54-8.23,9,5.58,5.09-6.76,7.42-5.58-5.09-7.44,8.17a9.66,9.66,0,0,0-.8,1,4.65,4.65,0,0,0-.53,1A1.66,1.66,0,0,0,130,176a2.31,2.31,0,0,0,.7,1.06,6.16,6.16,0,0,0,2.27,1.31l-3.67,8.6a21.26,21.26,0,0,1-4.6-1.58A20.89,20.89,0,0,1,120,182,11.57,11.57,0,0,1,117.46,178.73Z"/><path d="M178.53,195.49l-27.32,21.44-7.42-9.45,2.56-2-.06-.08q-5.06,0-8.65-4.57a15.86,15.86,0,0,1-3-6,14.72,14.72,0,0,1-.25-6.29,16.72,16.72,0,0,1,2.46-6.14,21.84,21.84,0,0,1,5-5.48,22.12,22.12,0,0,1,6.48-3.59,17.12,17.12,0,0,1,6.52-1,14.78,14.78,0,0,1,5.92,1.58,14,14,0,0,1,4.79,3.94,11.43,11.43,0,0,1,2.29,9.65l.07.08,2.69-2.12Zm-26.23,2.92a7.31,7.31,0,0,0,5-1.75,7.22,7.22,0,0,0,2.86-4.46,5.93,5.93,0,0,0-5.41-6.92,8.22,8.22,0,0,0-7.94,6.23,5.74,5.74,0,0,0,1.23,4.68A5.62,5.62,0,0,0,152.3,198.41Z"/><path d="M207.28,214.46l13.66,31.81-11,4.74-8.49-19.79L192.69,235l6.95,16.19-11,4.71-6.95-16.19-15.55,6.68-5.17-12Z"/><path d="M178.35,274.3a16.51,16.51,0,0,1,4.39-8.2,19.64,19.64,0,0,1,18.17-5,16.61,16.61,0,0,1,8,4.82,21.1,21.1,0,0,1,4.81,8.94,20.83,20.83,0,0,1,.39,10.12,16.69,16.69,0,0,1-4.4,8.2,19.52,19.52,0,0,1-18.17,5,16.71,16.71,0,0,1-7.94-4.83,20.92,20.92,0,0,1-4.79-8.93A21.14,21.14,0,0,1,178.35,274.3Zm14.28,11a7.75,7.75,0,0,0,9.56-2.57,5.85,5.85,0,0,0,.66-4.88,6.14,6.14,0,0,0-1.16-2.31,6.27,6.27,0,0,0-1.9-1.56,6.45,6.45,0,0,0-2.45-.68,8.14,8.14,0,0,0-2.79.28,8.33,8.33,0,0,0-2.09.89,6.74,6.74,0,0,0-1.61,1.36,6.64,6.64,0,0,0-1,1.68,5.87,5.87,0,0,0-.47,1.93,6.24,6.24,0,0,0,.22,2A5.85,5.85,0,0,0,192.63,285.31Z"/><path d="M223.3,326.83a12.61,12.61,0,0,1-.56,3.06,8.13,8.13,0,0,1-1.42,2.7,10.74,10.74,0,0,1-2.41,2.21,14.62,14.62,0,0,1-3.59,1.7,27.07,27.07,0,0,1-4.86,1.06l-20.84,2.76L188,327.76l17.81-2.36a11.31,11.31,0,0,0,3.71-1,3.38,3.38,0,0,0,1.71-1.69,5.31,5.31,0,0,0,.2-2.63,4.54,4.54,0,0,0-2.15-3.45A8.1,8.1,0,0,0,204,316l-17.3,2.29L185,305.69l34.42-4.56,1.66,12.56-3.77.5v.07a12.71,12.71,0,0,1,3.94,4,13,13,0,0,1,1.86,5.2A18,18,0,0,1,223.3,326.83Z"/><path d="M189.65,352.57a9.1,9.1,0,0,1,2.06-3.33,9.47,9.47,0,0,1,3.62-2.25,15.22,15.22,0,0,1,5.14-.88l13.78-.22-.06-3.77,10-.16.06,3.77,10.91-.17,1.51,12.61-12.22.2.12,7.55-10,.15-.12-7.54-11,.17a11,11,0,0,0-1.27.09,4.61,4.61,0,0,0-1.08.3,1.69,1.69,0,0,0-.86.72,2.29,2.29,0,0,0-.29,1.23,6.12,6.12,0,0,0,.6,2.56l-8.78,3.22a20.65,20.65,0,0,1-2-4.44,21.07,21.07,0,0,1-.73-5.67A11.53,11.53,0,0,1,189.65,352.57Z"/><path d="M238.71,394l-5.08,34.25-11.88-1.77,3.16-21.3-9.39-1.39-2.58,17.43-11.82-1.75L203.71,402,187,399.54l1.92-12.94Z"/><path d="M207.91,465.78,174.31,457l3.05-11.63,3.15.83,0-.1q-3.06-4-1.59-9.65a15.89,15.89,0,0,1,3-6,15,15,0,0,1,4.86-4,17.06,17.06,0,0,1,6.38-1.75,23.32,23.32,0,0,1,14.19,3.71,17.06,17.06,0,0,1,4.74,4.59,14.84,14.84,0,0,1,2.33,5.68,14.3,14.3,0,0,1-.25,6.2,11.45,11.45,0,0,1-6.31,7.65l0,.1,3.31.87Zm-18.18-19.14a7.27,7.27,0,0,0,4.45,3,7.18,7.18,0,0,0,5.28-.42,5.57,5.57,0,0,0,3-3.71,5.7,5.7,0,0,0-.75-4.77,8.24,8.24,0,0,0-9.77-2.57,5.73,5.73,0,0,0-3,3.8A5.64,5.64,0,0,0,189.73,446.64Z"/><path d="M172.45,521.05l-19-7.16,4.45-11.83,16.33,6.16c.52.19,1,.36,1.47.5a11.76,11.76,0,0,0,1.4.32,7.66,7.66,0,0,0,1.3.12,4.59,4.59,0,0,0,1.18-.13,3,3,0,0,0,1-.43,3.57,3.57,0,0,0,.83-.78,4.15,4.15,0,0,0,.2-4.84,8.38,8.38,0,0,0-4.29-3L161,493.84,165.46,482l16.33,6.15a17.17,17.17,0,0,0,2.54.76,8.47,8.47,0,0,0,2.22.15,3.29,3.29,0,0,0,1.85-.69,3.87,3.87,0,0,0,1.21-1.75,4.18,4.18,0,0,0-.35-3.87,8.28,8.28,0,0,0-4.3-3l-16.33-6.15,4.47-11.86,32.49,12.24-4.47,11.86-3.69-1.39,0,.06a12,12,0,0,1,1.79,5.17,11.69,11.69,0,0,1-.7,5.2c-1.63,4.31-4.34,6.85-8.12,7.59l0,.1q3.15,5.55.63,12.26Q186.6,526.39,172.45,521.05Z"/><path d="M182.73,532.6l-4.93,11.63-32-13.56L150.76,519Zm5,3.33a6.47,6.47,0,0,1,5.31,0,6.57,6.57,0,0,1,2.78,2.17,6.67,6.67,0,0,1,1.23,3.35,7.8,7.8,0,0,1-.64,3.81,7.33,7.33,0,0,1-3.81,4.06,6.38,6.38,0,0,1-5.24,0,6.51,6.51,0,0,1-3.73-3.81,7.32,7.32,0,0,1,.25-5.57A7.22,7.22,0,0,1,187.74,535.93Z"/><path d="M191.09,557.55l-5,11.61-47.95-20.62,5-11.61Z"/><path d="M154.27,600,116,564.86l4.7-11.36,13.07,11.78h34.81l-5,12.07-17.45-.85,0,.13L159.2,588Z"/><path d="M114.31,640.29l3.79-15.72-7.31-4.36,3.31-13.74,44.69,29.59-3,12.52-53.26,6,3.3-13.7Zm11.84-.78,15.12-1,0-.14-13-7.76Z"/><path d="M138.07,697l-35-12.57L102.86,673l34.46-14,.26,13.12L118,678.37v.14l19.81,5.25Z"/><path d="M111.53,732.23l4.1-22.41a5.28,5.28,0,0,0-4.07,1.67,8.5,8.5,0,0,0-2.13,4.52q-.78,4.25,2.34,8.56l-8.26,5.14a17.07,17.07,0,0,1-3.55-7.25,22.77,22.77,0,0,1-.13-9.58,19.08,19.08,0,0,1,3.91-8.75,16.41,16.41,0,0,1,7.49-5.27,19.91,19.91,0,0,1,18.43,3.3,16.39,16.39,0,0,1,5.18,7.48,18.52,18.52,0,0,1,.62,9.54,18.25,18.25,0,0,1-2.57,6.61,16,16,0,0,1-10.81,7.36,19.11,19.11,0,0,1-7.31,0A14,14,0,0,1,111.53,732.23Zm13.88-18.63a5.61,5.61,0,0,0-3-2.51l-1.94,10.63a7.62,7.62,0,0,0,2-.35,5.57,5.57,0,0,0,1.65-.84,4.39,4.39,0,0,0,1.18-1.35,5.78,5.78,0,0,0,.65-1.8A5.52,5.52,0,0,0,125.41,713.6Z"/><path d="M121.26,765.83l-12.67-4.78c.29-.63.63-1.45,1-2.47a7.24,7.24,0,0,0,.16-5.67,6.74,6.74,0,0,0-4-3.47l-14.19-5.36,4.48-11.85,32.49,12.26-4.48,11.85-4.43-1.67,0,.09a13,13,0,0,1,2.27,5.51,10.83,10.83,0,0,1-.58,5.5Z"/><path d="M83.33,762.07a9.18,9.18,0,0,1,3.41-1.89A9.66,9.66,0,0,1,91,760a15.62,15.62,0,0,1,4.92,1.75l12.13,6.53,1.79-3.32,8.83,4.76L116.88,773l9.6,5.17-4.83,11.74-10.76-5.79-3.58,6.64L98.48,786l3.58-6.64-9.73-5.24a9.42,9.42,0,0,0-1.14-.54,4.7,4.7,0,0,0-1.09-.27,1.69,1.69,0,0,0-1.1.21,2.33,2.33,0,0,0-.86.94,6,6,0,0,0-.72,2.51l-9.24-1.47a20.82,20.82,0,0,1,.43-4.84,20.6,20.6,0,0,1,2.13-5.31A11.47,11.47,0,0,1,83.33,762.07Z"/><path d="M82.51,825.39,54.77,804.52l7.22-9.6,2.6,2,.06-.08q-1.31-4.87,2.19-9.53a15.81,15.81,0,0,1,5-4.41,15.05,15.05,0,0,1,6-1.87,16.91,16.91,0,0,1,6.57.81,22.06,22.06,0,0,1,6.6,3.46,22.31,22.31,0,0,1,5.13,5.34,17.2,17.2,0,0,1,2.64,6,14.73,14.73,0,0,1,0,6.13,14,14,0,0,1-2.57,5.64,11.46,11.46,0,0,1-8.74,4.7l-.06.08,2.74,2.06ZM72.94,800.8a8.14,8.14,0,0,0,8,6.05,5.93,5.93,0,0,0,5.29-7,8.21,8.21,0,0,0-8.07-6.06,5.71,5.71,0,0,0-4.2,2.38A5.63,5.63,0,0,0,72.94,800.8Z"/><path d="M71.93,858.2,44.79,879.68l-7.46-9.42L54.22,856.9l-5.89-7.44L34.51,860.4,27.1,851,40.92,840.1,30.41,826.82l10.26-8.12Z"/><path d="M6.93,845.43A16.35,16.35,0,0,1,15.86,848a18.32,18.32,0,0,1,6.48,7.25,18.36,18.36,0,0,1,2.2,9.46,16.68,16.68,0,0,1-3,8.8,21,21,0,0,1-7.73,6.58A20.69,20.69,0,0,1,4,882.59,16.72,16.72,0,0,1-5,880a18.31,18.31,0,0,1-6.49-7.24,18.3,18.3,0,0,1-2.18-9.48,16.57,16.57,0,0,1,3.05-8.78A21,21,0,0,1-2.89,848,21,21,0,0,1,6.93,845.43ZM-.83,861.7a7,7,0,0,0,.67,5.21A7,7,0,0,0,3.7,870.5a5.86,5.86,0,0,0,4.91-.38,6.11,6.11,0,0,0,2-1.62,6,6,0,0,0,1.13-2.19,6.25,6.25,0,0,0,.15-2.53A8.3,8.3,0,0,0,11,861.1a8,8,0,0,0-1.32-1.85A6.22,6.22,0,0,0,8.05,858a6.58,6.58,0,0,0-1.86-.67,5.72,5.72,0,0,0-2,0,6.29,6.29,0,0,0-1.95.64A5.84,5.84,0,0,0-.83,861.7Z"/><path class="cls-7" d="M-59.36,158.37c21.19,2,42.34,8.19,62,16.36,45.75,19,82.18,52.12,102.17,99,44.93,105.25-11.3,210.07-34.17,313C57,648.22,53.44,716.08,12.52,766.48-.3,782.27-14,802.64-32.14,812.31c-34,18.18-60.93-1.42-96.88,12.2-9.4,3.56-18.83,7-28.33,10.31"/><path class="cls-7" d="M-86.33,158.37c21.19,2,42.35,8.19,62,16.36,45.76,19,91.89,70.29,111.88,117.11,44.93,105.26-27.15,181.9-50,284.84-13.68,61.53-11.09,139.4-52,189.8C-27.26,782.27-41,802.64-59.11,812.31c-34,18.18-60.92-1.42-96.87,12.2-9.4,3.56-18.83,7-28.33,10.31"/><path class="cls-7" d="M-113.29,158.37c21.19,2,42.34,8.19,62,16.36C-5.51,193.72,50.33,263.18,70.32,310c44.93,105.25-43,153.72-65.88,256.66C-9.23,628.2-.49,716.08-41.41,766.48-54.23,782.27-68,802.64-86.07,812.31c-34,18.18-60.93-1.42-96.88,12.2-9.39,3.56-18.83,7-28.32,10.31"/><path class="cls-7" d="M-140.25,158.37c21.19,2,42.34,8.19,62,16.36,45.76,19,111.3,106.61,131.29,153.44C98,433.43-5.79,453.72-28.67,556.66c-13.67,61.53,1.22,159.42-39.7,209.82-12.82,15.79-26.56,36.16-44.67,45.83-34,18.18-60.92-1.42-96.87,12.2-9.4,3.56-18.83,7-28.33,10.31"/><path class="cls-7" d="M-167.22,158.37c21.19,2,42.35,8.19,62,16.36,45.75,19,121,124.78,141,171.61,44.93,105.25-74.71,97.37-97.58,200.31-13.67,61.53,7.36,169.43-33.55,219.83-12.83,15.79-26.56,36.16-44.67,45.83-34,18.18-60.92-1.42-96.87,12.2-9.4,3.56-18.83,7-28.33,10.31"/><path class="cls-7" d="M-194.18,158.37c21.19,2,42.34,8.19,62,16.36,45.75,19,130.7,142.94,150.69,189.77C63.47,469.75-72,433.7-94.89,536.64c-13.68,61.53,13.51,179.44-27.41,229.84-12.82,15.79-26.55,36.16-44.66,45.83-34,18.18-60.93-1.42-96.88,12.2-9.4,3.56-18.83,7-28.32,10.31"/><path class="cls-7" d="M-221.15,158.37c21.19,2,42.35,8.19,62,16.36,45.76,19,140.41,161.11,160.4,207.93,44.93,105.26-106.41,41-129.29,144-13.67,61.54,19.67,189.46-21.25,239.86-12.82,15.79-26.56,36.16-44.67,45.83-34,18.18-60.92-1.42-96.87,12.2-9.4,3.56-18.83,7-28.33,10.31"/></g><g class="cls-8"><image width="2500" height="2000" transform="translate(925.18 -0.18) scale(0.5)" xlink:href="../../../../easyspeak/examReportPaper/mockup.jpg"/></g></svg>