<svg id="Layer_1" data-name="Layer 1" xmlns="http://www.w3.org/2000/svg" xmlns:xlink="http://www.w3.org/1999/xlink" viewBox="0 0 512.47 155.65"><defs><style>.cls-1{fill:none;}.cls-2{fill:#388de7;}.cls-3{clip-path:url(#clip-path);}.cls-4{fill:#61a4ea;}.cls-5{fill:#80b7f0;}.cls-6{clip-path:url(#clip-path-2);}.cls-7{fill:#333b60;}.cls-8{fill:#3f4569;}.cls-9{fill:#4a5074;}</style><clipPath id="clip-path"><rect class="cls-1" width="512.47" height="155.65"/></clipPath><clipPath id="clip-path-2"><rect class="cls-1" y="186.35" width="512.47" height="155.65"/></clipPath></defs><rect class="cls-2" width="512.47" height="155.65"/><g class="cls-3"><path class="cls-4" d="M174.51-11.7c1.14,22,6,46.71,24.56,58.56,6.57,4.19,14.28,6.3,22,7.48,22,3.39,44.46-.26,66.74-1.08S333.87,55,351.44,68.72c11.95,9.33,20.3,23.29,33.88,30,20.57,10.18,44.76.47,67.18-4.47a158,158,0,0,1,102.63,12.29c13.77-18,18.66-40.11,16.33-62.62S559.8,0,547.23-18.79c-7.57-11.35-16.65-22.15-28.64-28.65C500.88-57,479.54-56,459.43-54.67L234-39.95c-11.11.72-24.36,2.86-28.85,13.05-1.3,2.94-1.64,6.22-2.79,9.23C198.34-7.08,183.41-4.68,174.51-11.7Z"/><path class="cls-5" d="M207-30.54C191.75-11.13,204.35,19.64,225.73,32S273.32,43.46,298,42.28L345.62,40c12.27-.6,25.58-.9,35.62,6.18,6.49,4.58,10.69,11.66,16,17.55,17.64,19.44,46,24.34,72.11,26.61a693.73,693.73,0,0,0,147.18-3c6-13.26-2.92-30.12-10.45-42.58C588.8,16.15,558.13-2.4,526-11.9s-65.93-11-99.37-12.35C354.9-27.23,278.76-27.56,207-30.54Z"/></g><g class="cls-6"><path class="cls-7" d="M192.07,174q3.57,11.9,8.08,23.47c3,7.74,6.54,15.62,12.74,21.16,7.55,6.74,18,9.07,28.06,10.31,50.62,6.24,104.41-8.46,151.68,10.68,12,4.87,23.29,11.84,35.88,15,22.86,5.7,47.57-1.84,70.26,4.52a91.13,91.13,0,0,1,19.31,8.41c10.15,5.63,20.86,14,21.11,25.62,14.8-6.64,22.7-20.16,26.19-36,3.85-17.46,4.49-36.38-3-52.61-9-19.52-28.73-32.41-49.38-38.39s-42.5-6-64-6.12q-128.55-.69-256.94-8.2c-4.27-.25-9.31-.16-11.82,3.31-2.26,3.11-1.2,7.7,1.35,10.58S188.52,172.57,192.07,174Z"/><path class="cls-8" d="M208,145.92c1.14,22,6,46.7,24.56,58.55,6.57,4.2,14.28,6.3,22,7.49,22,3.39,44.46-.27,66.74-1.09s46.07,1.75,63.65,15.47c11.94,9.32,20.29,23.29,33.87,30,20.57,10.19,44.76.48,67.18-4.47a157.89,157.89,0,0,1,102.63,12.3c13.77-18,18.66-40.11,16.33-62.63s-11.66-43.9-24.23-62.72c-7.57-11.35-16.65-22.15-28.64-28.65-17.71-9.6-39.05-8.54-59.16-7.23L267.56,117.66c-11.11.73-24.36,2.87-28.85,13.06-1.3,2.94-1.64,6.22-2.79,9.22C231.86,150.53,216.93,152.94,208,145.92Z"/><path class="cls-9" d="M247.23,145.24C232,164.65,244.59,195.42,266,207.75s47.59,11.49,72.24,10.31l47.64-2.29c12.28-.6,25.58-.9,35.62,6.18,6.5,4.58,10.69,11.66,16,17.54,17.65,19.45,46,24.35,72.12,26.62a693.64,693.64,0,0,0,147.17-2.95c6-13.26-2.91-30.12-10.44-42.58-17.31-28.65-48-47.2-80.08-56.7s-65.93-11-99.37-12.35C395.14,148.55,319,148.22,247.23,145.24Z"/></g></svg>