<svg id="Layer_1" data-name="Layer 1" xmlns="http://www.w3.org/2000/svg" xmlns:xlink="http://www.w3.org/1999/xlink" viewBox="0 0 512.47 155.65"><defs><style>.cls-1{fill:none;}.cls-2{fill:#2a3259;}.cls-3{clip-path:url(#clip-path);}.cls-4{fill:#edd78e;}.cls-5{fill:#3f4569;}.cls-6{fill:#4a5074;}</style><clipPath id="clip-path"><rect class="cls-1" width="512.47" height="155.65"/></clipPath></defs><rect class="cls-2" width="512.47" height="155.65"/><g class="cls-3"><path class="cls-4" d="M226.35,71.29a8.8,8.8,0,0,0-6.1,6.09,1,1,0,0,1-1.82,0,8.81,8.81,0,0,0-6.09-6.09,1,1,0,0,1,0-1.82,8.81,8.81,0,0,0,6.09-6.09,1,1,0,0,1,1.82,0,8.8,8.8,0,0,0,6.1,6.09A1,1,0,0,1,226.35,71.29Z"/><path class="cls-4" d="M286.16,105.42a6.16,6.16,0,0,0-4.25,4.26.68.68,0,0,1-1.27,0,6.17,6.17,0,0,0-4.26-4.26.68.68,0,0,1,0-1.27,6.14,6.14,0,0,0,4.26-4.25.68.68,0,0,1,1.27,0,6.13,6.13,0,0,0,4.25,4.25A.67.67,0,0,1,286.16,105.42Z"/><path class="cls-4" d="M329.11,78.31a4.66,4.66,0,0,0-3.24,3.24.52.52,0,0,1-1,0,4.66,4.66,0,0,0-3.24-3.24.52.52,0,0,1,0-1,4.68,4.68,0,0,0,3.24-3.24.52.52,0,0,1,1,0,4.68,4.68,0,0,0,3.24,3.24A.52.52,0,0,1,329.11,78.31Z"/><path class="cls-4" d="M224.31,119.47a2.85,2.85,0,0,0-2,2,.31.31,0,0,1-.58,0,2.85,2.85,0,0,0-2-2,.32.32,0,0,1,0-.59,2.85,2.85,0,0,0,2-2,.31.31,0,0,1,.58,0,2.85,2.85,0,0,0,2,2A.32.32,0,0,1,224.31,119.47Z"/><path class="cls-4" d="M298.6,156.36a6.94,6.94,0,0,0-4.79,4.79.76.76,0,0,1-1.42,0,6.94,6.94,0,0,0-4.79-4.79.76.76,0,0,1,0-1.43,6.92,6.92,0,0,0,4.79-4.78.75.75,0,0,1,1.42,0,6.92,6.92,0,0,0,4.79,4.78A.76.76,0,0,1,298.6,156.36Z"/><path class="cls-4" d="M366.07,137.86a7.71,7.71,0,0,0-5.35,5.35.85.85,0,0,1-1.59,0,7.71,7.71,0,0,0-5.36-5.35.85.85,0,0,1,0-1.6,7.74,7.74,0,0,0,5.36-5.35.85.85,0,0,1,1.59,0,7.75,7.75,0,0,0,5.35,5.35A.85.85,0,0,1,366.07,137.86Z"/><path class="cls-4" d="M493.46,93.66a4.69,4.69,0,0,0-3.23,3.23.52.52,0,0,1-1,0A4.67,4.67,0,0,0,486,93.66a.52.52,0,0,1,0-1,4.63,4.63,0,0,0,3.23-3.23.52.52,0,0,1,1,0,4.65,4.65,0,0,0,3.23,3.23A.52.52,0,0,1,493.46,93.66Z"/><path class="cls-4" d="M478.8,151.06a6,6,0,0,0-4.15,4.15.65.65,0,0,1-1.23,0,6,6,0,0,0-4.16-4.15.66.66,0,0,1,0-1.23,6,6,0,0,0,4.16-4.15.65.65,0,0,1,1.23,0,6,6,0,0,0,4.15,4.15A.65.65,0,0,1,478.8,151.06Z"/><path class="cls-5" d="M174.51-11.7c1.14,22,6,46.71,24.56,58.56,6.57,4.19,14.28,6.3,22,7.48,22,3.39,44.46-.26,66.74-1.08S333.87,55,351.44,68.72c11.95,9.33,20.3,23.29,33.88,30,20.57,10.18,44.76.47,67.18-4.47a158,158,0,0,1,102.63,12.29c13.77-18,18.66-40.11,16.33-62.62S559.8,0,547.23-18.79c-7.57-11.35-16.65-22.15-28.64-28.65C500.88-57,479.54-56,459.43-54.67L234-39.95c-11.11.72-24.36,2.86-28.85,13.05-1.3,2.94-1.64,6.22-2.79,9.23C198.34-7.08,183.41-4.68,174.51-11.7Z"/><path class="cls-6" d="M207-30.54C191.75-11.13,204.35,19.64,225.73,32S273.32,43.46,298,42.28L345.62,40c12.27-.6,25.58-.9,35.62,6.18,6.49,4.58,10.69,11.66,16,17.55,17.64,19.44,46,24.34,72.11,26.61a693.73,693.73,0,0,0,147.18-3c6-13.26-2.92-30.12-10.45-42.58C588.8,16.15,558.13-2.4,526-11.9s-65.93-11-99.37-12.35C354.9-27.23,278.76-27.56,207-30.54Z"/></g></svg>