<svg id="eHYiWbZB7st1" xmlns="http://www.w3.org/2000/svg" xmlns:xlink="http://www.w3.org/1999/xlink" viewBox="0 0 512.47 155.65" shape-rendering="geometricPrecision" text-rendering="geometricPrecision">
<style><![CDATA[
#eHYiWbZB7st5_to {animation: eHYiWbZB7st5_to__to 3000ms linear infinite normal forwards}@keyframes eHYiWbZB7st5_to__to { 0% {transform: translate(373.26px,25.514374px);animation-timing-function: cubic-bezier(0.42,0,0.58,1)} 50% {transform: translate(369.425735px,27.783615px);animation-timing-function: cubic-bezier(0.42,0,0.58,1)} 100% {transform: translate(373.26px,25.51px)}} #eHYiWbZB7st6_to {animation: eHYiWbZB7st6_to__to 3000ms linear infinite normal forwards}@keyframes eHYiWbZB7st6_to__to { 0% {transform: translate(409.388992px,31.17955px);animation-timing-function: cubic-bezier(0.42,0,0.58,1)} 50% {transform: translate(419px,32.314174px);animation-timing-function: cubic-bezier(0.42,0,0.58,1)} 100% {transform: translate(409.38px,31.18px)}}
]]></style>
<rect width="512.47" height="155.65" rx="0" ry="0" fill="#388de7"/><g clip-path="url(#eHYiWbZB7st7)"><g><g id="eHYiWbZB7st5_to" transform="translate(373.26,25.514374)"><path d="M174.51,-11.7c1.14,22,6,46.71,24.56,58.56c6.57,4.19,14.28,6.3,22,7.48c22,3.39,44.46-.26,66.74-1.08s46.06,1.74,63.63,15.46c11.95,9.33,20.3,23.29,33.88,30c20.57,10.18,44.76.47,67.18-4.47c34.620358-7.525738,70.765471-3.197341,102.63,12.29c13.77-18,18.66-40.11,16.33-62.62s-11.66-43.92-24.23-62.71c-7.57-11.35-16.65-22.15-28.64-28.65-17.71-9.56-39.05-8.56-59.16-7.23L234,-39.95c-11.11.72-24.36,2.86-28.85,13.05-1.3,2.94-1.64,6.22-2.79,9.23-4.02,10.59-18.95,12.99-27.85,5.97Z" transform="translate(-373.263565,-25.514374)" fill="#61a4ea"/></g><g id="eHYiWbZB7st6_to" transform="translate(409.388992,31.17955)"><path d="M207,-30.54c-15.25,19.41-2.65,50.18,18.73,62.54s47.59,11.46,72.27,10.28L345.62,40c12.27-.6,25.58-.9,35.62,6.18c6.49,4.58,10.69,11.66,16,17.55c17.64,19.44,46,24.34,72.11,26.61c49.027547,4.222867,98.365255,3.217206,147.18-3c6-13.26-2.92-30.12-10.45-42.58C588.8,16.15,558.13,-2.4,526,-11.9s-65.93-11-99.37-12.35c-71.73-2.98-147.87-3.31-219.63-6.29Z" transform="translate(-409.388992,-31.17955)" fill="#80b7f0"/></g></g><clipPath id="eHYiWbZB7st7"><rect width="512.47" height="155.65" rx="0" ry="0" fill="none"/></clipPath></g><g clip-path="url(#eHYiWbZB7st14)"><g><path d="M192.07,174q3.57,11.9,8.08,23.47c3,7.74,6.54,15.62,12.74,21.16c7.55,6.74,18,9.07,28.06,10.31c50.62,6.24,104.41-8.46,151.68,10.68c12,4.87,23.29,11.84,35.88,15c22.86,5.7,47.57-1.84,70.26,4.52c6.740074,2.047592,13.220008,4.869769,19.31,8.41c10.15,5.63,20.86,14,21.11,25.62c14.8-6.64,22.7-20.16,26.19-36c3.85-17.46,4.49-36.38-3-52.61-9-19.52-28.73-32.41-49.38-38.39s-42.5-6-64-6.12q-128.55-.69-256.94-8.2c-4.27-.25-9.31-.16-11.82,3.31-2.26,3.11-1.2,7.7,1.35,10.58s6.93,6.83,10.48,8.26Z" fill="#333b60"/><path d="M208,145.92c1.14,22,6,46.7,24.56,58.55c6.57,4.2,14.28,6.3,22,7.49c22,3.39,44.46-.27,66.74-1.09s46.07,1.75,63.65,15.47c11.94,9.32,20.29,23.29,33.87,30c20.57,10.19,44.76.48,67.18-4.47c34.621062-7.531297,70.769077-3.19903,102.63,12.3c13.77-18,18.66-40.11,16.33-62.63s-11.66-43.9-24.23-62.72c-7.57-11.35-16.65-22.15-28.64-28.65-17.71-9.6-39.05-8.54-59.16-7.23L267.56,117.66c-11.11.73-24.36,2.87-28.85,13.06-1.3,2.94-1.64,6.22-2.79,9.22-4.06,10.59-18.99,13-27.92,5.98Z" fill="#3f4569"/><path d="M247.23,145.24C232,164.65,244.59,195.42,266,207.75s47.59,11.49,72.24,10.31l47.64-2.29c12.28-.6,25.58-.9,35.62,6.18c6.5,4.58,10.69,11.66,16,17.54c17.65,19.45,46,24.35,72.12,26.62c49.02244,4.23942,98.356827,3.25052,147.17-2.95c6-13.26-2.91-30.12-10.44-42.58-17.31-28.65-48-47.2-80.08-56.7s-65.93-11-99.37-12.35c-71.76-2.98-147.9-3.31-219.67-6.29Z" fill="#4a5074"/></g><clipPath id="eHYiWbZB7st14"><rect width="512.47" height="155.65" rx="0" ry="0" transform="translate(0 186.35)" fill="none"/></clipPath></g></svg>
