<svg id="eCYNqWhHPaj1" xmlns="http://www.w3.org/2000/svg" xmlns:xlink="http://www.w3.org/1999/xlink" viewBox="0 0 512.47 155.65" shape-rendering="geometricPrecision" text-rendering="geometricPrecision">
<style><![CDATA[
#eCYNqWhHPaj5 {animation: eCYNqWhHPaj5_c_o 3000ms linear infinite normal forwards}@keyframes eCYNqWhHPaj5_c_o { 0% {opacity: 0.2} 40% {opacity: 1} 100% {opacity: 0.2}} #eCYNqWhHPaj7 {animation: eCYNqWhHPaj7_c_o 3000ms linear infinite normal forwards}@keyframes eCYNqWhHPaj7_c_o { 0% {opacity: 0.2} 50% {opacity: 1} 100% {opacity: 0.2}} #eCYNqWhHPaj9 {animation: eCYNqWhHPaj9_c_o 3000ms linear infinite normal forwards}@keyframes eCYNqWhHPaj9_c_o { 0% {opacity: 0.2} 63.333333% {opacity: 1} 100% {opacity: 0.2}} #eCYNqWhHPaj11 {animation: eCYNqWhHPaj11_c_o 3000ms linear infinite normal forwards}@keyframes eCYNqWhHPaj11_c_o { 0% {opacity: 0.2} 30% {opacity: 1} 100% {opacity: 0.2}} #eCYNqWhHPaj13 {animation: eCYNqWhHPaj13_c_o 3000ms linear infinite normal forwards}@keyframes eCYNqWhHPaj13_c_o { 0% {opacity: 0.2} 43.333333% {opacity: 1} 100% {opacity: 0.2}} #eCYNqWhHPaj15 {animation: eCYNqWhHPaj15_c_o 3000ms linear infinite normal forwards}@keyframes eCYNqWhHPaj15_c_o { 0% {opacity: 0.2} 50% {opacity: 1} 100% {opacity: 0.2}} #eCYNqWhHPaj17 {animation: eCYNqWhHPaj17_c_o 3000ms linear infinite normal forwards}@keyframes eCYNqWhHPaj17_c_o { 0% {opacity: 0.2} 76.666667% {opacity: 1} 100% {opacity: 0.2}} #eCYNqWhHPaj19 {animation: eCYNqWhHPaj19_c_o 3000ms linear infinite normal forwards}@keyframes eCYNqWhHPaj19_c_o { 0% {opacity: 0.2} 23.333333% {opacity: 1} 100% {opacity: 0.2}} #eCYNqWhHPaj21_to {animation: eCYNqWhHPaj21_to__to 3000ms linear infinite normal forwards}@keyframes eCYNqWhHPaj21_to__to { 0% {transform: translate(373.263565px,25.514374px);animation-timing-function: cubic-bezier(0.42,0,0.58,1)} 50% {transform: translate(368px,29.091115px);animation-timing-function: cubic-bezier(0.42,0,0.58,1)} 100% {transform: translate(373.263565px,25.514374px)}} #eCYNqWhHPaj22_to {animation: eCYNqWhHPaj22_to__to 3000ms linear infinite normal forwards}@keyframes eCYNqWhHPaj22_to__to { 0% {transform: translate(409.388992px,31.17955px);animation-timing-function: cubic-bezier(0.42,0,0.58,1)} 50% {transform: translate(415.062091px,35.547681px);animation-timing-function: cubic-bezier(0.42,0,0.58,1)} 100% {transform: translate(409.388992px,31.17955px)}}
]]></style>
<defs><filter id="eCYNqWhHPaj5-filter" x="-150%" width="400%" y="-150%" height="400%"><feGaussianBlur id="eCYNqWhHPaj5-filter-blur-0" stdDeviation="7,7" result="result"/></filter><filter id="eCYNqWhHPaj7-filter" x="-150%" width="400%" y="-150%" height="400%"><feGaussianBlur id="eCYNqWhHPaj7-filter-blur-0" stdDeviation="7,7" result="result"/></filter><filter id="eCYNqWhHPaj9-filter" x="-150%" width="400%" y="-150%" height="400%"><feGaussianBlur id="eCYNqWhHPaj9-filter-blur-0" stdDeviation="7,7" result="result"/></filter><filter id="eCYNqWhHPaj11-filter" x="-150%" width="400%" y="-150%" height="400%"><feGaussianBlur id="eCYNqWhHPaj11-filter-blur-0" stdDeviation="5,5" result="result"/></filter><filter id="eCYNqWhHPaj13-filter" x="-150%" width="400%" y="-150%" height="400%"><feGaussianBlur id="eCYNqWhHPaj13-filter-blur-0" stdDeviation="7,7" result="result"/></filter><filter id="eCYNqWhHPaj15-filter" x="-150%" width="400%" y="-150%" height="400%"><feGaussianBlur id="eCYNqWhHPaj15-filter-blur-0" stdDeviation="7,7" result="result"/></filter><filter id="eCYNqWhHPaj17-filter" x="-150%" width="400%" y="-150%" height="400%"><feGaussianBlur id="eCYNqWhHPaj17-filter-blur-0" stdDeviation="7,7" result="result"/></filter><filter id="eCYNqWhHPaj19-filter" x="-150%" width="400%" y="-150%" height="400%"><feGaussianBlur id="eCYNqWhHPaj19-filter-blur-0" stdDeviation="7,7" result="result"/></filter></defs><rect width="512.47" height="155.65" rx="0" ry="0" fill="#2a3259"/><g clip-path="url(#eCYNqWhHPaj23)"><g><path id="eCYNqWhHPaj5" d="M226.35,71.29c-2.956396.827038-5.268113,3.134965-6.1,6.09-.162453.356559-.518177.585392-.91.585392s-.747547-.228833-.91-.585392c-.831785-2.951532-3.138468-5.258215-6.09-6.09-.356559-.162453-.585392-.518177-.585392-.91s.228833-.747547.585392-.91c2.951532-.831785,5.258215-3.138468,6.09-6.09.162453-.356559.518177-.585392.91-.585392s.747547.228833.91.585392c.831887,2.955035,3.143604,5.262962,6.1,6.09.356559.162453.585392.518177.585392.91s-.228833.747547-.585392.91Z" opacity="0.2" filter="url(#eCYNqWhHPaj5-filter)" fill="#edd78e"/><path d="M226.35,71.29c-2.956396.827038-5.268113,3.134965-6.1,6.09-.162453.356559-.518177.585392-.91.585392s-.747547-.228833-.91-.585392c-.831785-2.951532-3.138468-5.258215-6.09-6.09-.356559-.162453-.585392-.518177-.585392-.91s.228833-.747547.585392-.91c2.951532-.831785,5.258215-3.138468,6.09-6.09.162453-.356559.518177-.585392.91-.585392s.747547.228833.91.585392c.831887,2.955035,3.143604,5.262962,6.1,6.09.356559.162453.585392.518177.585392.91s-.228833.747547-.585392.91Z" fill="#edd78e"/><path id="eCYNqWhHPaj7" d="M286.16,105.42c-2.061046.584373-3.670472,2.197586-4.25,4.26-.100772.263055-.353304.436741-.635.436741s-.534228-.173686-.635-.436741c-.583114-2.063872-2.196128-3.676886-4.26-4.26-.263055-.100772-.436741-.353304-.436741-.635s.173686-.534228.436741-.635c2.064452-.576039,3.679111-2.186908,4.26-4.25.100772-.263055.353304-.436741.635-.436741s.534228.173686.635.436741c.577297,2.061632,2.188368,3.672703,4.25,4.25.272645.091762.456283.347327.456283.635s-.183638.543238-.456283.635Z" opacity="0.2" filter="url(#eCYNqWhHPaj7-filter)" fill="#edd78e"/><path d="M286.16,105.42c-2.061046.584373-3.670472,2.197586-4.25,4.26-.100772.263055-.353304.436741-.635.436741s-.534228-.173686-.635-.436741c-.583114-2.063872-2.196128-3.676886-4.26-4.26-.263055-.100772-.436741-.353304-.436741-.635s.173686-.534228.436741-.635c2.064452-.576039,3.679111-2.186908,4.26-4.25.100772-.263055.353304-.436741.635-.436741s.534228.173686.635.436741c.577297,2.061632,2.188368,3.672703,4.25,4.25.272645.091762.456283.347327.456283.635s-.183638.543238-.456283.635Z" fill="#edd78e"/><path id="eCYNqWhHPaj9" d="M329.11,78.31c-1.573051.437777-2.802223,1.666949-3.24,3.24-.063773.22325-.26782.377171-.5.377171s-.436227-.153921-.5-.377171c-.437777-1.573051-1.666949-2.802223-3.24-3.24-.22325-.063773-.377171-.26782-.377171-.5s.153921-.436227.377171-.5c1.570997-.44129,2.79871-1.669003,3.24-3.24.063773-.22325.26782-.377171.5-.377171s.436227.153921.5.377171c.44129,1.570997,1.669003,2.79871,3.24,3.24.22325.063773.377171.26782.377171.5s-.153921.436227-.377171.5Z" opacity="0.2" filter="url(#eCYNqWhHPaj9-filter)" fill="#edd78e"/><path d="M329.11,78.31c-1.573051.437777-2.802223,1.666949-3.24,3.24-.063773.22325-.26782.377171-.5.377171s-.436227-.153921-.5-.377171c-.437777-1.573051-1.666949-2.802223-3.24-3.24-.22325-.063773-.377171-.26782-.377171-.5s.153921-.436227.377171-.5c1.570997-.44129,2.79871-1.669003,3.24-3.24.063773-.22325.26782-.377171.5-.377171s.436227.153921.5.377171c.44129,1.570997,1.669003,2.79871,3.24,3.24.22325.063773.377171.26782.377171.5s-.153921.436227-.377171.5Z" fill="#edd78e"/><path id="eCYNqWhHPaj11" d="M224.31,119.47c-.973782.265485-1.734515,1.026218-2,2-.045567.12063-.16105.200455-.29.200455s-.244433-.079825-.29-.200455c-.265485-.973782-1.026218-1.734515-2-2-.118758-.049917-.196004-.166178-.196004-.295s.077246-.245083.196004-.295c.973782-.265485,1.734515-1.026218,2-2c.045567-.12063.16105-.200455.29-.200455s.244433.079825.29.200455c.265485.973782,1.026218,1.734515,2,2c.118758.049917.196004.166178.196004.295s-.077246.245083-.196004.295Z" opacity="0.2" filter="url(#eCYNqWhHPaj11-filter)" fill="#edd78e"/><path d="M224.31,119.47c-.973782.265485-1.734515,1.026218-2,2-.045567.12063-.16105.200455-.29.200455s-.244433-.079825-.29-.200455c-.265485-.973782-1.026218-1.734515-2-2-.118758-.049917-.196004-.166178-.196004-.295s.077246-.245083.196004-.295c.973782-.265485,1.734515-1.026218,2-2c.045567-.12063.16105-.200455.29-.200455s.244433.079825.29.200455c.265485.973782,1.026218,1.734515,2,2c.118758.049917.196004.166178.196004.295s-.077246.245083-.196004.295Z" fill="#edd78e"/><path id="eCYNqWhHPaj13" d="M298.6,156.36c-2.320403.656072-4.133928,2.469597-4.79,4.79-.112417.294405-.394862.488891-.71.488891s-.597583-.194486-.71-.488891c-.656072-2.320403-2.469597-4.133928-4.79-4.79-.301429-.108613-.502367-.3946-.502367-.715s.200938-.606387.502367-.715c2.319962-.650749,4.134405-2.461403,4.79-4.78.103457-.303956.38892-.508339.71-.508339s.606543.204383.71.508339c.655595,2.318597,2.470038,4.129251,4.79,4.78.301429.108613.502367.3946.502367.715s-.200938.606387-.502367.715Z" opacity="0.2" filter="url(#eCYNqWhHPaj13-filter)" fill="#edd78e"/><path d="M298.6,156.36c-2.320403.656072-4.133928,2.469597-4.79,4.79-.112417.294405-.394862.488891-.71.488891s-.597583-.194486-.71-.488891c-.656072-2.320403-2.469597-4.133928-4.79-4.79-.301429-.108613-.502367-.3946-.502367-.715s.200938-.606387.502367-.715c2.319962-.650749,4.134405-2.461403,4.79-4.78.103457-.303956.38892-.508339.71-.508339s.606543.204383.71.508339c.655595,2.318597,2.470038,4.129251,4.79,4.78.301429.108613.502367.3946.502367.715s-.200938.606387-.502367.715Z" fill="#edd78e"/><path id="eCYNqWhHPaj15" d="M366.07,137.86c-2.595906.725559-4.624441,2.754094-5.35,5.35-.12506.330537-.441595.549209-.795.549209s-.66994-.218672-.795-.549209c-.727396-2.598397-2.760249-4.627457-5.36-5.35-.337599-.12121-.562772-.441301-.562772-.8s.225173-.67879.562772-.8c2.596681-.727802,4.62735-2.754683,5.36-5.35.12506-.330537.441595-.549209.795-.549209s.66994.218672.795.549209c.732539,2.59182,2.75818,4.617461,5.35,5.35.337599.12121.562772.441301.562772.8s-.225173.67879-.562772.8Z" opacity="0.2" filter="url(#eCYNqWhHPaj15-filter)" fill="#edd78e"/><path d="M366.07,137.86c-2.595906.725559-4.624441,2.754094-5.35,5.35-.12506.330537-.441595.549209-.795.549209s-.66994-.218672-.795-.549209c-.727396-2.598397-2.760249-4.627457-5.36-5.35-.337599-.12121-.562772-.441301-.562772-.8s.225173-.67879.562772-.8c2.596681-.727802,4.62735-2.754683,5.36-5.35.12506-.330537.441595-.549209.795-.549209s.66994.218672.795.549209c.732539,2.59182,2.75818,4.617461,5.35,5.35.337599.12121.562772.441301.562772.8s-.225173.67879-.562772.8Z" fill="#edd78e"/><path id="eCYNqWhHPaj17" d="M493.46,93.66c-1.563663.444166-2.785834,1.666337-3.23,3.23-.063773.22325-.26782.377171-.5.377171s-.436227-.153921-.5-.377171c-.440703-1.565695-1.664305-2.789297-3.23-3.23-.22325-.063773-.377171-.26782-.377171-.5s.153921-.436227.377171-.5c1.569812-.433655,2.796345-1.660188,3.23-3.23.063773-.22325.26782-.377171.5-.377171s.436227.153921.5.377171c.4372,1.567744,1.662256,2.7928,3.23,3.23.22325.063773.377171.26782.377171.5s-.153921.436227-.377171.5Z" transform="translate(-.019295-.019296)" opacity="0.2" filter="url(#eCYNqWhHPaj17-filter)" fill="#edd78e"/><path d="M493.46,93.66c-1.563663.444166-2.785834,1.666337-3.23,3.23-.063773.22325-.26782.377171-.5.377171s-.436227-.153921-.5-.377171c-.440703-1.565695-1.664305-2.789297-3.23-3.23-.22325-.063773-.377171-.26782-.377171-.5s.153921-.436227.377171-.5c1.569812-.433655,2.796345-1.660188,3.23-3.23.063773-.22325.26782-.377171.5-.377171s.436227.153921.5.377171c.4372,1.567744,1.662256,2.7928,3.23,3.23.22325.063773.377171.26782.377171.5s-.153921.436227-.377171.5Z" transform="translate(-.019295-.019296)" fill="#edd78e"/><path id="eCYNqWhHPaj19" d="M478.8,151.06c-2.011667.566201-3.583799,2.138333-4.15,4.15-.089958.262926-.33711.439584-.615.439584s-.525042-.176658-.615-.439584c-.568046-2.014149-2.14449-3.586803-4.16-4.15-.253519-.098741-.420469-.342931-.420469-.615s.16695-.516259.420469-.615c2.01551-.563197,3.591954-2.135851,4.16-4.15.089958-.262926.33711-.439584.615-.439584s.525042.176658.615.439584c.566201,2.011667,2.138333,3.583799,4.15,4.15.262926.089958.439584.33711.439584.615s-.176658.525042-.439584.615Z" transform="translate(-.085798-.070293)" opacity="0.2" filter="url(#eCYNqWhHPaj19-filter)" fill="#edd78e"/><path d="M478.8,151.06c-2.011667.566201-3.583799,2.138333-4.15,4.15-.089958.262926-.33711.439584-.615.439584s-.525042-.176658-.615-.439584c-.568046-2.014149-2.14449-3.586803-4.16-4.15-.253519-.098741-.420469-.342931-.420469-.615s.16695-.516259.420469-.615c2.01551-.563197,3.591954-2.135851,4.16-4.15.089958-.262926.33711-.439584.615-.439584s.525042.176658.615.439584c.566201,2.011667,2.138333,3.583799,4.15,4.15.262926.089958.439584.33711.439584.615s-.176658.525042-.439584.615Z" transform="translate(-.085798-.070293)" opacity="0.989347" fill="#edd78e"/><g id="eCYNqWhHPaj21_to" transform="translate(373.263565,25.514374)"><path d="M174.51,-11.7c1.14,22,6,46.71,24.56,58.56c6.57,4.19,14.28,6.3,22,7.48c22,3.39,44.46-.26,66.74-1.08s46.06,1.74,63.63,15.46c11.95,9.33,20.3,23.29,33.88,30c20.57,10.18,44.76.47,67.18-4.47c34.620358-7.525738,70.765471-3.197341,102.63,12.29c13.77-18,18.66-40.11,16.33-62.62s-11.66-43.92-24.23-62.71c-7.57-11.35-16.65-22.15-28.64-28.65-17.71-9.56-39.05-8.56-59.16-7.23L234,-39.95c-11.11.72-24.36,2.86-28.85,13.05-1.3,2.94-1.64,6.22-2.79,9.23-4.02,10.59-18.95,12.99-27.85,5.97Z" transform="translate(-373.263565,-25.514374)" fill="#3f4569"/></g><g id="eCYNqWhHPaj22_to" transform="translate(409.388992,31.17955)"><path d="M207,-30.54c-15.25,19.41-2.65,50.18,18.73,62.54s47.59,11.46,72.27,10.28L345.62,40c12.27-.6,25.58-.9,35.62,6.18c6.49,4.58,10.69,11.66,16,17.55c17.64,19.44,46,24.34,72.11,26.61c49.027547,4.222867,98.365255,3.217206,147.18-3c6-13.26-2.92-30.12-10.45-42.58C588.8,16.15,558.13,-2.4,526,-11.9s-65.93-11-99.37-12.35c-71.73-2.98-147.87-3.31-219.63-6.29Z" transform="translate(-409.388992,-31.17955)" fill="#4a5074"/></g></g><clipPath id="eCYNqWhHPaj23"><rect width="512.47" height="155.65" rx="0" ry="0" fill="none"/></clipPath></g></svg>
