<svg id="Layer_1" data-name="Layer 1" xmlns="http://www.w3.org/2000/svg" xmlns:xlink="http://www.w3.org/1999/xlink" viewBox="0 0 512.47 155.65"><defs><style>.cls-1{fill:none;}.cls-2{clip-path:url(#clip-path);}.cls-3{fill:#ee895b;}.cls-4{fill:#ee9b55;}.cls-5{clip-path:url(#clip-path-3);}.cls-6{fill:#61a4ea;}.cls-7{fill:#213d7c;}.cls-8{clip-path:url(#clip-path-4);}.cls-9{fill:#2d4c8f;}.cls-10{fill:#415f9d;}.cls-11{fill:#edd78e;}</style><clipPath id="clip-path"><rect class="cls-1" y="-197.65" width="512.47" height="155.65"/></clipPath><clipPath id="clip-path-3"><rect class="cls-1" y="192" width="512.47" height="155.65"/></clipPath><clipPath id="clip-path-4"><rect class="cls-1" width="512.47" height="155.65"/></clipPath></defs><g class="cls-2"><circle class="cls-3" cx="536.82" cy="-107.86" r="294.35"/></g><g class="cls-2"><circle class="cls-4" cx="473.65" cy="-135.04" r="165.39"/></g><g class="cls-5"><path class="cls-6" d="M174.51,180.3c1.14,22,6,46.71,24.56,58.56,6.57,4.19,14.28,6.3,22,7.48,22,3.39,44.46-.26,66.74-1.08s46.07,1.74,63.64,15.46c11.95,9.33,20.3,23.29,33.88,30,20.57,10.18,44.76.47,67.18-4.47a158,158,0,0,1,102.63,12.29c13.77-18,18.66-40.11,16.33-62.62S559.8,192,547.23,173.21c-7.57-11.35-16.65-22.15-28.64-28.65-17.71-9.6-39.05-8.54-59.16-7.23L234,152.05c-11.11.72-24.36,2.86-28.85,13-1.3,2.94-1.64,6.22-2.79,9.23C198.34,184.92,183.41,187.32,174.51,180.3Z"/></g><rect class="cls-7" width="512.47" height="155.65"/><g class="cls-8"><circle class="cls-9" cx="361.06" cy="-14.54" r="134.83"/><circle class="cls-10" cx="361.06" cy="-13.68" r="101.08"/><circle class="cls-11" cx="360.12" cy="-12.16" r="72.32"/><path class="cls-11" d="M227.76,67.76a8.8,8.8,0,0,0-6.1,6.1,1,1,0,0,1-1.81,0,8.82,8.82,0,0,0-6.1-6.1,1,1,0,0,1,0-1.82,8.82,8.82,0,0,0,6.1-6.09,1,1,0,0,1,1.81,0,8.8,8.8,0,0,0,6.1,6.09A1,1,0,0,1,227.76,67.76Z"/><path class="cls-11" d="M271.48,117.15a6.17,6.17,0,0,0-4.26,4.26.68.68,0,0,1-1.27,0,6.14,6.14,0,0,0-4.25-4.26.68.68,0,0,1,0-1.27,6.13,6.13,0,0,0,4.25-4.25.67.67,0,0,1,1.27,0,6.16,6.16,0,0,0,4.26,4.25A.68.68,0,0,1,271.48,117.15Z"/><path class="cls-11" d="M225.33,110.42a2.85,2.85,0,0,0-2,2,.31.31,0,0,1-.58,0,2.87,2.87,0,0,0-2-2,.32.32,0,0,1,0-.59,2.87,2.87,0,0,0,2-2,.31.31,0,0,1,.58,0,2.85,2.85,0,0,0,2,2A.31.31,0,0,1,225.33,110.42Z"/><path class="cls-11" d="M307.66,153.89a6.94,6.94,0,0,0-4.79,4.79.76.76,0,0,1-1.43,0,6.91,6.91,0,0,0-4.78-4.79.76.76,0,0,1,0-1.43,6.89,6.89,0,0,0,4.78-4.78.76.76,0,0,1,1.43,0,6.92,6.92,0,0,0,4.79,4.78A.76.76,0,0,1,307.66,153.89Z"/><path class="cls-11" d="M384.89,136.68a7.75,7.75,0,0,0-5.35,5.35.85.85,0,0,1-1.59,0,7.75,7.75,0,0,0-5.35-5.35.84.84,0,0,1,0-1.59,7.74,7.74,0,0,0,5.35-5.36.85.85,0,0,1,1.59,0,7.74,7.74,0,0,0,5.35,5.36A.84.84,0,0,1,384.89,136.68Z"/><path class="cls-11" d="M493.29,90.13a4.68,4.68,0,0,0-3.24,3.23.51.51,0,0,1-1,0,4.68,4.68,0,0,0-3.24-3.23.51.51,0,0,1,0-1,4.68,4.68,0,0,0,3.24-3.24.51.51,0,0,1,1,0,4.68,4.68,0,0,0,3.24,3.24A.51.51,0,0,1,493.29,90.13Z"/><path class="cls-11" d="M482.78,144.62a6,6,0,0,0-4.15,4.15.65.65,0,0,1-1.23,0,6,6,0,0,0-4.16-4.15.66.66,0,0,1,0-1.24,6,6,0,0,0,4.16-4.15.65.65,0,0,1,1.23,0,6,6,0,0,0,4.15,4.15A.66.66,0,0,1,482.78,144.62Z"/></g></svg>