<svg id="eHmzLg5P84a1" xmlns="http://www.w3.org/2000/svg" xmlns:xlink="http://www.w3.org/1999/xlink" viewBox="0 0 512.47 155.65" shape-rendering="geometricPrecision" text-rendering="geometricPrecision">
<style><![CDATA[
#eHmzLg5P84a7 {animation: eHmzLg5P84a7_c_o 3000ms linear infinite normal forwards}@keyframes eHmzLg5P84a7_c_o { 0% {opacity: 0.2;animation-timing-function: cubic-bezier(0.42,0,0.58,1)} 50% {opacity: 1;animation-timing-function: cubic-bezier(0.42,0,0.58,1)} 100% {opacity: 0.2}} #eHmzLg5P84a9 {animation: eHmzLg5P84a9_c_o 3000ms linear infinite normal forwards}@keyframes eHmzLg5P84a9_c_o { 0% {opacity: 0.2;animation-timing-function: cubic-bezier(0.42,0,0.58,1)} 50% {opacity: 1;animation-timing-function: cubic-bezier(0.42,0,0.58,1)} 100% {opacity: 0.2}} #eHmzLg5P84a11 {animation: eHmzLg5P84a11_c_o 3000ms linear infinite normal forwards}@keyframes eHmzLg5P84a11_c_o { 0% {opacity: 0.2;animation-timing-function: cubic-bezier(0.42,0,0.58,1)} 43.333333% {opacity: 1;animation-timing-function: cubic-bezier(0.42,0,0.58,1)} 100% {opacity: 0.2}} #eHmzLg5P84a13 {animation: eHmzLg5P84a13_c_o 3000ms linear infinite normal forwards}@keyframes eHmzLg5P84a13_c_o { 0% {opacity: 0.2;animation-timing-function: cubic-bezier(0.42,0,0.58,1)} 36.666667% {opacity: 1;animation-timing-function: cubic-bezier(0.42,0,0.58,1)} 100% {opacity: 0.2}} #eHmzLg5P84a15 {animation: eHmzLg5P84a15_c_o 3000ms linear infinite normal forwards}@keyframes eHmzLg5P84a15_c_o { 0% {opacity: 0.2;animation-timing-function: cubic-bezier(0.42,0,0.58,1)} 50% {opacity: 1;animation-timing-function: cubic-bezier(0.42,0,0.58,1)} 100% {opacity: 0.2}} #eHmzLg5P84a17 {animation: eHmzLg5P84a17_c_o 3000ms linear infinite normal forwards}@keyframes eHmzLg5P84a17_c_o { 0% {opacity: 0.2;animation-timing-function: cubic-bezier(0.42,0,0.58,1)} 23.333333% {opacity: 1;animation-timing-function: cubic-bezier(0.42,0,0.58,1)} 100% {opacity: 0.2}} #eHmzLg5P84a19 {animation: eHmzLg5P84a19_c_o 3000ms linear infinite normal forwards}@keyframes eHmzLg5P84a19_c_o { 0% {opacity: 0.2;animation-timing-function: cubic-bezier(0.42,0,0.58,1)} 60% {opacity: 1;animation-timing-function: cubic-bezier(0.42,0,0.58,1)} 100% {opacity: 0.2}} #eHmzLg5P84a21 {animation: eHmzLg5P84a21_c_o 3000ms linear infinite normal forwards}@keyframes eHmzLg5P84a21_c_o { 0% {opacity: 0.2;animation-timing-function: cubic-bezier(0.42,0,0.58,1)} 36.666667% {opacity: 1;animation-timing-function: cubic-bezier(0.42,0,0.58,1)} 100% {opacity: 0.2}}
]]></style>
<defs><filter id="eHmzLg5P84a7-filter" x="-150%" width="400%" y="-150%" height="400%"><feGaussianBlur id="eHmzLg5P84a7-filter-blur-0" stdDeviation="10,10" result="result"/></filter><filter id="eHmzLg5P84a9-filter" x="-150%" width="400%" y="-150%" height="400%"><feGaussianBlur id="eHmzLg5P84a9-filter-blur-0" stdDeviation="7,7" result="result"/></filter><filter id="eHmzLg5P84a11-filter" x="-150%" width="400%" y="-150%" height="400%"><feGaussianBlur id="eHmzLg5P84a11-filter-blur-0" stdDeviation="7,7" result="result"/></filter><filter id="eHmzLg5P84a13-filter" x="-150%" width="400%" y="-150%" height="400%"><feGaussianBlur id="eHmzLg5P84a13-filter-blur-0" stdDeviation="7,7" result="result"/></filter><filter id="eHmzLg5P84a15-filter" x="-150%" width="400%" y="-150%" height="400%"><feGaussianBlur id="eHmzLg5P84a15-filter-blur-0" stdDeviation="7,7" result="result"/></filter><filter id="eHmzLg5P84a17-filter" x="-150%" width="400%" y="-150%" height="400%"><feGaussianBlur id="eHmzLg5P84a17-filter-blur-0" stdDeviation="7,7" result="result"/></filter><filter id="eHmzLg5P84a19-filter" x="-150%" width="400%" y="-150%" height="400%"><feGaussianBlur id="eHmzLg5P84a19-filter-blur-0" stdDeviation="7,7" result="result"/></filter><filter id="eHmzLg5P84a21-filter" x="-150%" width="400%" y="-150%" height="400%"><feGaussianBlur id="eHmzLg5P84a21-filter-blur-0" stdDeviation="5,5" result="result"/></filter></defs><rect width="512.47" height="155.65" rx="0" ry="0" fill="#213d7c"/><g clip-path="url(#eHmzLg5P84a23)"><g><circle r="134.83" transform="translate(361.06-14.54)" fill="#2d4c8f"/><circle r="101.08" transform="translate(361.06-13.68)" fill="#415f9d"/><circle id="eHmzLg5P84a7" r="72.32" transform="translate(360.12-12.16)" opacity="0.2" filter="url(#eHmzLg5P84a7-filter)" fill="#edd78e"/><circle r="72.32" transform="translate(360.12-12.16)" fill="#edd78e"/><path id="eHmzLg5P84a9" d="M227.76,67.76c-2.958879.82888-5.27112,3.141121-6.1,6.1-.164854.350702-.517484.574588-.905.574588s-.740146-.223886-.905-.574588c-.832374-2.956834-3.143166-5.267626-6.1-6.1-.356559-.162453-.585392-.518177-.585392-.91s.228833-.747547.585392-.91c2.954357-.830525,5.264629-3.137009,6.1-6.09.164854-.350702.517484-.574588.905-.574588s.740146.223886.905.574588c.831887,2.955035,3.143604,5.262962,6.1,6.09.356559.162453.585392.518177.585392.91s-.228833.747547-.585392.91Z" opacity="0.2" filter="url(#eHmzLg5P84a9-filter)" fill="#edd78e"/><path d="M227.76,67.76c-2.958879.82888-5.27112,3.141121-6.1,6.1-.164854.350702-.517484.574588-.905.574588s-.740146-.223886-.905-.574588c-.832374-2.956834-3.143166-5.267626-6.1-6.1-.356559-.162453-.585392-.518177-.585392-.91s.228833-.747547.585392-.91c2.954357-.830525,5.264629-3.137009,6.1-6.09.164854-.350702.517484-.574588.905-.574588s.740146.223886.905.574588c.831887,2.955035,3.143604,5.262962,6.1,6.09.356559.162453.585392.518177.585392.91s-.228833.747547-.585392.91Z" fill="#edd78e"/><path id="eHmzLg5P84a11" d="M271.48,117.15c-2.063872.583114-3.676886,2.196128-4.26,4.26-.100772.263055-.353304.436741-.635.436741s-.534228-.173686-.635-.436741c-.576039-2.064452-2.186908-3.679111-4.25-4.26-.263055-.100772-.436741-.353304-.436741-.635s.173686-.534228.436741-.635c2.061632-.577297,3.672703-2.188368,4.25-4.25.091762-.272645.347327-.456283.635-.456283s.543238.183638.635.456283c.584373,2.061046,2.197586,3.670472,4.26,4.25.263055.100772.436741.353304.436741.635s-.173686.534228-.436741.635Z" opacity="0.2" filter="url(#eHmzLg5P84a11-filter)" fill="#edd78e"/><path d="M271.48,117.15c-2.063872.583114-3.676886,2.196128-4.26,4.26-.100772.263055-.353304.436741-.635.436741s-.534228-.173686-.635-.436741c-.576039-2.064452-2.186908-3.679111-4.25-4.26-.263055-.100772-.436741-.353304-.436741-.635s.173686-.534228.436741-.635c2.061632-.577297,3.672703-2.188368,4.25-4.25.091762-.272645.347327-.456283.635-.456283s.543238.183638.635.456283c.584373,2.061046,2.197586,3.670472,4.26,4.25.263055.100772.436741.353304.436741.635s-.173686.534228-.436741.635Z" fill="#edd78e"/><path id="eHmzLg5P84a13" d="M225.33,110.42c-.973782.265485-1.734515,1.026218-2,2-.045567.12063-.16105.200455-.29.200455s-.244433-.079825-.29-.200455c-.269074-.971695-1.028305-1.730926-2-2-.118758-.049917-.196004-.166178-.196004-.295s.077246-.245083.196004-.295c.971695-.269074,1.730926-1.028305,2-2c.045567-.12063.16105-.200455.29-.200455s.244433.079825.29.200455c.265485.973782,1.026218,1.734515,2,2c.127998.041334.214737.160494.214737.295s-.086739.253666-.214737.295Z" opacity="0.2" filter="url(#eHmzLg5P84a13-filter)" fill="#edd78e"/><path d="M225.33,110.42c-.973782.265485-1.734515,1.026218-2,2-.045567.12063-.16105.200455-.29.200455s-.244433-.079825-.29-.200455c-.269074-.971695-1.028305-1.730926-2-2-.118758-.049917-.196004-.166178-.196004-.295s.077246-.245083.196004-.295c.971695-.269074,1.730926-1.028305,2-2c.045567-.12063.16105-.200455.29-.200455s.244433.079825.29.200455c.265485.973782,1.026218,1.734515,2,2c.127998.041334.214737.160494.214737.295s-.086739.253666-.214737.295Z" fill="#edd78e"/><path id="eHmzLg5P84a15" d="M307.66,153.89c-2.320403.656072-4.133928,2.469597-4.79,4.79-.108613.301429-.3946.502367-.715.502367s-.606387-.200938-.715-.502367c-.649004-2.320982-2.46038-4.136147-4.78-4.79-.301429-.108613-.502367-.3946-.502367-.715s.200938-.606387.502367-.715c2.319185-.64851,4.13149-2.460815,4.78-4.78.108613-.301429.3946-.502367.715-.502367s.606387.200938.715.502367c.655595,2.318597,2.470038,4.129251,4.79,4.78.301429.108613.502367.3946.502367.715s-.200938.606387-.502367.715Z" opacity="0.2" filter="url(#eHmzLg5P84a15-filter)" fill="#edd78e"/><path d="M307.66,153.89c-2.320403.656072-4.133928,2.469597-4.79,4.79-.108613.301429-.3946.502367-.715.502367s-.606387-.200938-.715-.502367c-.649004-2.320982-2.46038-4.136147-4.78-4.79-.301429-.108613-.502367-.3946-.502367-.715s.200938-.606387.502367-.715c2.319185-.64851,4.13149-2.460815,4.78-4.78.108613-.301429.3946-.502367.715-.502367s.606387.200938.715.502367c.655595,2.318597,2.470038,4.129251,4.79,4.78.301429.108613.502367.3946.502367.715s-.200938.606387-.502367.715Z" fill="#edd78e"/><path id="eHmzLg5P84a17" d="M384.89,136.68c-2.59182.732539-4.617461,2.75818-5.35,5.35-.12506.330537-.441595.549209-.795.549209s-.66994-.218672-.795-.549209c-.732539-2.59182-2.75818-4.617461-5.35-5.35-.340129-.116049-.568753-.435619-.568753-.795s.228624-.678951.568753-.795c2.595317-.73265,4.622198-2.763319,5.35-5.36.12506-.330537.441595-.549209.795-.549209s.66994.218672.795.549209c.727802,2.596681,2.754683,4.62735,5.35,5.36.340129.116049.568753.435619.568753.795s-.228624.678951-.568753.795Z" opacity="0.2" filter="url(#eHmzLg5P84a17-filter)" fill="#edd78e"/><path d="M384.89,136.68c-2.59182.732539-4.617461,2.75818-5.35,5.35-.12506.330537-.441595.549209-.795.549209s-.66994-.218672-.795-.549209c-.732539-2.59182-2.75818-4.617461-5.35-5.35-.340129-.116049-.568753-.435619-.568753-.795s.228624-.678951.568753-.795c2.595317-.73265,4.622198-2.763319,5.35-5.36.12506-.330537.441595-.549209.795-.549209s.66994.218672.795.549209c.727802,2.596681,2.754683,4.62735,5.35,5.36.340129.116049.568753.435619.568753.795s-.228624.678951-.568753.795Z" fill="#edd78e"/><path id="eHmzLg5P84a19" d="M493.29,90.13c-1.568519.439443-2.79571,1.662847-3.24,3.23-.04787.23816-.257077.409501-.5.409501s-.45213-.171341-.5-.409501c-.44429-1.567153-1.671481-2.790557-3.24-3.23-.23816-.04787-.409501-.257077-.409501-.5s.171341-.45213.409501-.5c1.570997-.44129,2.79871-1.669003,3.24-3.24.04787-.23816.257077-.409501.5-.409501s.45213.171341.5.409501c.44129,1.570997,1.669003,2.79871,3.24,3.24.23816.04787.409501.257077.409501.5s-.171341.45213-.409501.5Z" opacity="0.2" filter="url(#eHmzLg5P84a19-filter)" fill="#edd78e"/><path d="M493.29,90.13c-1.568519.439443-2.79571,1.662847-3.24,3.23-.04787.23816-.257077.409501-.5.409501s-.45213-.171341-.5-.409501c-.44429-1.567153-1.671481-2.790557-3.24-3.23-.23816-.04787-.409501-.257077-.409501-.5s.171341-.45213.409501-.5c1.570997-.44129,2.79871-1.669003,3.24-3.24.04787-.23816.257077-.409501.5-.409501s.45213.171341.5.409501c.44129,1.570997,1.669003,2.79871,3.24,3.24.23816.04787.409501.257077.409501.5s-.171341.45213-.409501.5Z" fill="#edd78e"/><path id="eHmzLg5P84a21" d="M482.78,144.62c-2.011667.566201-3.583799,2.138333-4.15,4.15-.089958.262926-.33711.439584-.615.439584s-.525042-.176658-.615-.439584c-.568046-2.014149-2.14449-3.586803-4.16-4.15-.260449-.095053-.433726-.342748-.433726-.62s.173277-.524947.433726-.62c2.01551-.563197,3.591954-2.135851,4.16-4.15.089958-.262926.33711-.439584.615-.439584s.525042.176658.615.439584c.566201,2.011667,2.138333,3.583799,4.15,4.15.260449.095053.433726.342748.433726.62s-.173277.524947-.433726.62Z" opacity="0.2" filter="url(#eHmzLg5P84a21-filter)" fill="#edd78e"/><path d="M482.78,144.62c-2.011667.566201-3.583799,2.138333-4.15,4.15-.089958.262926-.33711.439584-.615.439584s-.525042-.176658-.615-.439584c-.568046-2.014149-2.14449-3.586803-4.16-4.15-.260449-.095053-.433726-.342748-.433726-.62s.173277-.524947.433726-.62c2.01551-.563197,3.591954-2.135851,4.16-4.15.089958-.262926.33711-.439584.615-.439584s.525042.176658.615.439584c.566201,2.011667,2.138333,3.583799,4.15,4.15.260449.095053.433726.342748.433726.62s-.173277.524947-.433726.62Z" fill="#edd78e"/></g><clipPath id="eHmzLg5P84a23"><rect width="512.47" height="155.65" rx="0" ry="0" fill="none"/></clipPath></g></svg>
