<svg id="Layer_1" data-name="Layer 1" xmlns="http://www.w3.org/2000/svg" xmlns:xlink="http://www.w3.org/1999/xlink" viewBox="0 0 512.47 155.65"><defs><style>.cls-1,.cls-4,.cls-5,.cls-6{fill:none;}.cls-2{fill:#2a3259;}.cls-3{clip-path:url(#clip-path);}.cls-4{stroke:#333b60;}.cls-4,.cls-5,.cls-6{stroke-miterlimit:10;stroke-width:2px;}.cls-5{stroke:#3f4569;}.cls-6{stroke:#4a5074;}.cls-7{fill:#333b60;}.cls-8{fill:#3f4569;}.cls-9{fill:#4a5074;}</style><clipPath id="clip-path"><rect class="cls-1" width="512.47" height="155.65"/></clipPath></defs><rect class="cls-2" width="512.47" height="155.65"/><g class="cls-3"><line class="cls-4" x1="219.05" y1="31.08" x2="203.93" y2="82.94"/><line class="cls-4" x1="226.58" y1="67.92" x2="211.46" y2="119.78"/><line class="cls-4" x1="277.16" y1="88.28" x2="262.04" y2="140.15"/><line class="cls-4" x1="214.7" y1="83.12" x2="191.53" y2="162.63"/><line class="cls-4" x1="285.8" y1="33.73" x2="262.63" y2="113.24"/><line class="cls-4" x1="459.16" y1="138.51" x2="444.05" y2="190.37"/><line class="cls-4" x1="463.22" y1="98.75" x2="440.05" y2="178.26"/><line class="cls-4" x1="336.74" y1="127.48" x2="321.62" y2="179.35"/><line class="cls-4" x1="340.33" y1="88.89" x2="317.15" y2="168.4"/><line class="cls-4" x1="433.45" y1="88.28" x2="418.33" y2="140.15"/><line class="cls-4" x1="444.8" y1="26.78" x2="421.63" y2="106.29"/><line class="cls-5" x1="333.96" y1="54.44" x2="318.84" y2="106.31"/><line class="cls-5" x1="321.6" y1="75.62" x2="306.49" y2="127.48"/><line class="cls-5" x1="385.18" y1="99.19" x2="370.06" y2="151.06"/><line class="cls-5" x1="387.95" y1="67.92" x2="372.83" y2="119.78"/><line class="cls-5" x1="297.17" y1="108.87" x2="282.05" y2="160.74"/><line class="cls-5" x1="400.23" y1="112.05" x2="385.11" y2="163.91"/><line class="cls-5" x1="373.76" y1="36.14" x2="358.64" y2="88.01"/><line class="cls-6" x1="237.51" y1="114.21" x2="222.39" y2="166.08"/><line class="cls-6" x1="245.76" y1="107.12" x2="237.51" y2="135.42"/><line class="cls-6" x1="249.02" y1="25.74" x2="233.9" y2="77.6"/><line class="cls-6" x1="243.33" y1="66.02" x2="235.08" y2="94.31"/><line class="cls-6" x1="300.41" y1="49.53" x2="292.16" y2="77.82"/><line class="cls-6" x1="497.05" y1="63.31" x2="481.94" y2="115.18"/><line class="cls-6" x1="494.18" y1="93.13" x2="485.94" y2="121.42"/><line class="cls-5" x1="295.33" y1="93.09" x2="272.16" y2="172.6"/><path class="cls-7" d="M192.07-12.31q3.57,11.9,8.08,23.47c3,7.74,6.54,15.62,12.74,21.15,7.55,6.75,18,9.07,28.06,10.31,50.62,6.25,104.41-8.45,151.68,10.69,12,4.87,23.29,11.84,35.88,15,22.86,5.7,47.57-1.84,70.26,4.52a90.63,90.63,0,0,1,19.31,8.41c10.15,5.63,20.86,14,21.11,25.62,14.8-6.64,22.7-20.16,26.19-36,3.85-17.47,4.49-36.38-3-52.61-9-19.52-28.73-32.41-49.38-38.39s-42.5-6-64-6.12Q320.42-27,192-34.47c-4.27-.25-9.31-.16-11.82,3.31C178-28,179-23.46,181.56-20.59S188.52-13.79,192.07-12.31Z"/><path class="cls-8" d="M208-40.44c1.14,22,6,46.71,24.56,58.56,6.57,4.2,14.28,6.3,22,7.48,22,3.39,44.46-.26,66.74-1.08S367.39,26.26,385,40c11.94,9.32,20.29,23.28,33.87,30,20.57,10.18,44.76.48,67.18-4.47A158,158,0,0,1,588.65,77.82c13.77-18,18.66-40.1,16.33-62.62s-11.66-43.9-24.23-62.73c-7.57-11.34-16.65-22.15-28.64-28.64-17.71-9.6-39.05-8.55-59.16-7.23L267.56-68.69c-11.11.73-24.36,2.87-28.85,13-1.3,3-1.64,6.23-2.79,9.23C231.86-35.82,216.93-33.41,208-40.44Z"/><path class="cls-9" d="M247.23-41.11C232-21.7,244.59,9.07,266,21.4s47.59,11.49,72.24,10.31l47.64-2.3c12.28-.59,25.58-.9,35.62,6.19,6.5,4.58,10.69,11.66,16,17.54,17.65,19.45,46,24.35,72.12,26.61a693,693,0,0,0,147.17-2.94c6-13.26-2.91-30.13-10.44-42.59C629,5.58,598.36-13,566.27-22.48S500.34-33.43,466.9-34.82C395.14-37.8,319-38.14,247.23-41.11Z"/></g></svg>