<svg id="eKoH067GOCh1" xmlns="http://www.w3.org/2000/svg" xmlns:xlink="http://www.w3.org/1999/xlink" viewBox="0 0 512.47 155.65" shape-rendering="geometricPrecision" text-rendering="geometricPrecision">
<style><![CDATA[
#eKoH067GOCh5_tr {animation: eKoH067GOCh5_tr__tr 3000ms linear infinite normal forwards}@keyframes eKoH067GOCh5_tr__tr { 0% {transform: translate(279.59346px,85.29855px) rotate(0deg);animation-timing-function: cubic-bezier(0.42,0,0.58,1)} 56.666667% {transform: translate(279.59346px,85.29855px) rotate(30deg);animation-timing-function: cubic-bezier(0.42,0,0.58,1)} 100% {transform: translate(279.59346px,85.29855px) rotate(0deg)}} #eKoH067GOCh6_tr {animation: eKoH067GOCh6_tr__tr 3000ms linear infinite normal forwards}@keyframes eKoH067GOCh6_tr__tr { 0% {transform: translate(309.437927px,46.099804px) rotate(0deg);animation-timing-function: cubic-bezier(0.42,0,0.58,1)} 46.666667% {transform: translate(309.437927px,46.099804px) rotate(27deg);animation-timing-function: cubic-bezier(0.42,0,0.58,1)} 100% {transform: translate(309.437927px,46.099804px) rotate(0deg)}} #eKoH067GOCh7_tr {animation: eKoH067GOCh7_tr__tr 3000ms linear infinite normal forwards}@keyframes eKoH067GOCh7_tr__tr { 0% {transform: translate(289.817001px,134.978867px) rotate(0deg);animation-timing-function: cubic-bezier(0.42,0,0.58,1)} 53.333333% {transform: translate(289.817001px,134.978867px) rotate(29deg);animation-timing-function: cubic-bezier(0.42,0,0.58,1)} 100% {transform: translate(289.817001px,134.978867px) rotate(0deg)}} #eKoH067GOCh8_tr {animation: eKoH067GOCh8_tr__tr 3000ms linear infinite normal forwards}@keyframes eKoH067GOCh8_tr__tr { 0% {transform: translate(376.673859px,37.047297px) rotate(0deg);animation-timing-function: cubic-bezier(0.42,0,0.58,1)} 56.666667% {transform: translate(376.673859px,37.047297px) rotate(24deg);animation-timing-function: cubic-bezier(0.42,0,0.58,1)} 100% {transform: translate(376.673859px,37.047297px) rotate(0deg)}} #eKoH067GOCh9_tr {animation: eKoH067GOCh9_tr__tr 3000ms linear infinite normal forwards}@keyframes eKoH067GOCh9_tr__tr { 0% {transform: translate(426.685013px,29.001634px) rotate(0deg);animation-timing-function: cubic-bezier(0.42,0,0.58,1)} 46.666667% {transform: translate(426.685013px,29.001634px) rotate(29deg);animation-timing-function: cubic-bezier(0.42,0,0.58,1)} 100% {transform: translate(426.685013px,29.001634px) rotate(0deg)}} #eKoH067GOCh10_tr {animation: eKoH067GOCh10_tr__tr 3000ms linear infinite normal forwards}@keyframes eKoH067GOCh10_tr__tr { 0% {transform: translate(430.156326px,110.048927px) rotate(0deg);animation-timing-function: cubic-bezier(0.42,0,0.58,1)} 50% {transform: translate(430.156326px,110.048927px) rotate(24deg);animation-timing-function: cubic-bezier(0.42,0,0.58,1)} 100% {transform: translate(430.156326px,110.048927px) rotate(0deg)}} #eKoH067GOCh11_tr {animation: eKoH067GOCh11_tr__tr 3000ms linear infinite normal forwards}@keyframes eKoH067GOCh11_tr__tr { 0% {transform: translate(439.491974px,82.113049px) rotate(0deg);animation-timing-function: cubic-bezier(0.42,0,0.58,1)} 56.666667% {transform: translate(439.491974px,82.113049px) rotate(27deg);animation-timing-function: cubic-bezier(0.42,0,0.58,1)} 100% {transform: translate(439.491974px,82.113049px) rotate(0deg)}} #eKoH067GOCh12_tr {animation: eKoH067GOCh12_tr__tr 3000ms linear infinite normal forwards}@keyframes eKoH067GOCh12_tr__tr { 0% {transform: translate(396.97551px,65.112585px) rotate(0deg);animation-timing-function: cubic-bezier(0.42,0,0.58,1)} 46.666667% {transform: translate(396.97551px,65.112585px) rotate(38deg);animation-timing-function: cubic-bezier(0.42,0,0.58,1)} 100% {transform: translate(396.97551px,65.112585px) rotate(0deg)}} #eKoH067GOCh13_tr {animation: eKoH067GOCh13_tr__tr 3000ms linear infinite normal forwards}@keyframes eKoH067GOCh13_tr__tr { 0% {transform: translate(486.334686px,9.711639px) rotate(0deg);animation-timing-function: cubic-bezier(0.42,0,0.58,1)} 56.666667% {transform: translate(486.334686px,9.711639px) rotate(29deg);animation-timing-function: cubic-bezier(0.42,0,0.58,1)} 100% {transform: translate(486.334686px,9.711639px) rotate(0deg)}} #eKoH067GOCh14_tr {animation: eKoH067GOCh14_tr__tr 3000ms linear infinite normal forwards}@keyframes eKoH067GOCh14_tr__tr { 0% {transform: translate(372.899963px,12.829798px) rotate(0deg);animation-timing-function: cubic-bezier(0.42,0,0.58,1)} 43.333333% {transform: translate(372.899963px,12.829798px) rotate(35deg);animation-timing-function: cubic-bezier(0.42,0,0.58,1)} 100% {transform: translate(372.899963px,12.829798px) rotate(0deg)}} #eKoH067GOCh15_tr {animation: eKoH067GOCh15_tr__tr 3000ms linear infinite normal forwards}@keyframes eKoH067GOCh15_tr__tr { 0% {transform: translate(347.504684px,52.75243px) rotate(0deg);animation-timing-function: cubic-bezier(0.42,0,0.58,1)} 56.666667% {transform: translate(347.504684px,52.75243px) rotate(27deg);animation-timing-function: cubic-bezier(0.42,0,0.58,1)} 100% {transform: translate(347.504684px,52.75243px) rotate(0deg)}} #eKoH067GOCh16_tr {animation: eKoH067GOCh16_tr__tr 3000ms linear infinite normal forwards}@keyframes eKoH067GOCh16_tr__tr { 0% {transform: translate(450.76825px,7.293032px) rotate(0deg);animation-timing-function: cubic-bezier(0.42,0,0.58,1)} 50% {transform: translate(450.76825px,7.293032px) rotate(23deg);animation-timing-function: cubic-bezier(0.42,0,0.58,1)} 100% {transform: translate(450.76825px,7.293032px) rotate(0deg)}} #eKoH067GOCh17_tr {animation: eKoH067GOCh17_tr__tr 3000ms linear infinite normal forwards}@keyframes eKoH067GOCh17_tr__tr { 0% {transform: translate(473.408417px,106.604885px) rotate(0deg);animation-timing-function: cubic-bezier(0.42,0,0.58,1)} 46.666667% {transform: translate(473.408417px,106.604885px) rotate(28deg);animation-timing-function: cubic-bezier(0.42,0,0.58,1)} 100% {transform: translate(473.408417px,106.604885px) rotate(0deg)}} #eKoH067GOCh18_tr {animation: eKoH067GOCh18_tr__tr 3000ms linear infinite normal forwards}@keyframes eKoH067GOCh18_tr__tr { 0% {transform: translate(387.168396px,140.485992px) rotate(0deg);animation-timing-function: cubic-bezier(0.42,0,0.58,1)} 53.333333% {transform: translate(387.168396px,140.485992px) rotate(29deg);animation-timing-function: cubic-bezier(0.42,0,0.58,1)} 100% {transform: translate(387.168396px,140.485992px) rotate(0deg)}} #eKoH067GOCh19_tr {animation: eKoH067GOCh19_tr__tr 3000ms linear infinite normal forwards}@keyframes eKoH067GOCh19_tr__tr { 0% {transform: translate(482.550751px,149.084137px) rotate(0deg);animation-timing-function: cubic-bezier(0.42,0,0.58,1)} 36.666667% {transform: translate(482.550751px,149.084137px) rotate(30deg);animation-timing-function: cubic-bezier(0.42,0,0.58,1)} 100% {transform: translate(482.550751px,149.084137px) rotate(0deg)}} #eKoH067GOCh20_tr {animation: eKoH067GOCh20_tr__tr 3000ms linear infinite normal forwards}@keyframes eKoH067GOCh20_tr__tr { 0% {transform: translate(509.585953px,90.438702px) rotate(0deg);animation-timing-function: cubic-bezier(0.42,0,0.58,1)} 70% {transform: translate(509.585953px,90.438702px) rotate(22deg);animation-timing-function: cubic-bezier(0.42,0,0.58,1)} 100% {transform: translate(509.585953px,90.438702px) rotate(0deg)}} #eKoH067GOCh21_tr {animation: eKoH067GOCh21_tr__tr 3000ms linear infinite normal forwards}@keyframes eKoH067GOCh21_tr__tr { 0% {transform: translate(404.980545px,4.464305px) rotate(0deg);animation-timing-function: cubic-bezier(0.42,0,0.58,1)} 46.666667% {transform: translate(404.980545px,4.464305px) rotate(32deg);animation-timing-function: cubic-bezier(0.42,0,0.58,1)} 100% {transform: translate(404.980545px,4.464305px) rotate(0deg)}} #eKoH067GOCh22_tr {animation: eKoH067GOCh22_tr__tr 3000ms linear infinite normal forwards}@keyframes eKoH067GOCh22_tr__tr { 0% {transform: translate(434.045502px,153.045097px) rotate(0deg);animation-timing-function: cubic-bezier(0.42,0,0.58,1)} 56.666667% {transform: translate(434.045502px,153.045097px) rotate(27deg);animation-timing-function: cubic-bezier(0.42,0,0.58,1)} 100% {transform: translate(434.045502px,153.045097px) rotate(0deg)}} #eKoH067GOCh23_tr {animation: eKoH067GOCh23_tr__tr 3000ms linear infinite normal forwards}@keyframes eKoH067GOCh23_tr__tr { 0% {transform: translate(332.471085px,87.149078px) rotate(0deg);animation-timing-function: cubic-bezier(0.42,0,0.58,1)} 43.333333% {transform: translate(332.471085px,87.149078px) rotate(32deg);animation-timing-function: cubic-bezier(0.42,0,0.58,1)} 100% {transform: translate(332.471085px,87.149078px) rotate(0deg)}} #eKoH067GOCh24_tr {animation: eKoH067GOCh24_tr__tr 3000ms linear infinite normal forwards}@keyframes eKoH067GOCh24_tr__tr { 0% {transform: translate(478.106064px,75.025955px) rotate(0deg);animation-timing-function: cubic-bezier(0.42,0,0.58,1)} 53.333333% {transform: translate(478.106064px,75.025955px) rotate(24deg);animation-timing-function: cubic-bezier(0.42,0,0.58,1)} 100% {transform: translate(478.106064px,75.025955px) rotate(0deg)}} #eKoH067GOCh25_tr {animation: eKoH067GOCh25_tr__tr 3000ms linear infinite normal forwards}@keyframes eKoH067GOCh25_tr__tr { 0% {transform: translate(342.101685px,25.94446px) rotate(0deg);animation-timing-function: cubic-bezier(0.42,0,0.58,1)} 46.666667% {transform: translate(342.101685px,25.94446px) rotate(31deg);animation-timing-function: cubic-bezier(0.42,0,0.58,1)} 100% {transform: translate(342.101685px,25.94446px) rotate(0deg)}} #eKoH067GOCh26_tr {animation: eKoH067GOCh26_tr__tr 3000ms linear infinite normal forwards}@keyframes eKoH067GOCh26_tr__tr { 0% {transform: translate(393.041046px,102.484356px) rotate(0deg);animation-timing-function: cubic-bezier(0.42,0,0.58,1)} 63.333333% {transform: translate(393.041046px,102.484356px) rotate(39deg);animation-timing-function: cubic-bezier(0.42,0,0.58,1)} 100% {transform: translate(393.041046px,102.484356px) rotate(0deg)}} #eKoH067GOCh27_tr {animation: eKoH067GOCh27_tr__tr 3000ms linear infinite normal forwards}@keyframes eKoH067GOCh27_tr__tr { 0% {transform: translate(338.05574px,124.050449px) rotate(0deg);animation-timing-function: cubic-bezier(0.42,0,0.58,1)} 36.666667% {transform: translate(338.05574px,124.050449px) rotate(27deg);animation-timing-function: cubic-bezier(0.42,0,0.58,1)} 100% {transform: translate(338.05574px,124.050449px) rotate(0deg)}} #eKoH067GOCh28_tr {animation: eKoH067GOCh28_tr__tr 3000ms linear infinite normal forwards}@keyframes eKoH067GOCh28_tr__tr { 0% {transform: translate(494.321732px,40.966991px) rotate(0deg);animation-timing-function: cubic-bezier(0.42,0,0.58,1)} 50% {transform: translate(494.321732px,40.966991px) rotate(40deg);animation-timing-function: cubic-bezier(0.42,0,0.58,1)} 100% {transform: translate(494.321732px,40.966991px) rotate(0deg)}}
]]></style>
<rect width="512.47" height="155.65" rx="0" ry="0" fill="#2a3259"/><g clip-path="url(#eKoH067GOCh29)"><g><g id="eKoH067GOCh5_tr" transform="translate(279.59346,85.29855) rotate(0)"><path d="M275.45,73.11l-7.94,12c-.237316.359994-.217163.831564.05,1.17l9,11.28c.270339.336302.7259.461279,1.13.31l13.5-5.06c.41349-.15351.677576-.559796.65-1l-.64-14.4c-.019988-.435098-.319299-.807214-.74-.92L276.55,72.7c-.416748-.115574-.860567.049849-1.1.41Z" transform="translate(-279.59346,-85.29855)" fill="#3f476c"/></g><g id="eKoH067GOCh6_tr" transform="translate(309.437927,46.099804) rotate(0)"><path d="M301.08,45l3.21,8.59c.156924.409539.562388.669035,1,.64l9.16-.4c.432307-.018659.803571-.313248.92-.73l2.45-8.84c.113586-.418961-.056092-.863355-.42-1.1l-7.64-5c-.35142-.256796-.82858-.256796-1.18,0l-7.17,5.71c-.34354.26516-.476845.721631-.33,1.13Z" transform="translate(-309.437927,-46.099804)" fill="#717990"/></g><g id="eKoH067GOCh7_tr" transform="translate(289.817001,134.978867) rotate(0)"><path d="M284.38,130.37l-1.09,6.84c-.045313.413164.169671.811282.54,1L290,141.4c.384911.197137.852931.124514,1.16-.18l4.9-4.9c.304514-.307069.377137-.775089.18-1.16L293.1,129c-.195042-.389468-.619747-.607887-1.05-.54l-6.84,1.09c-.423976.066882-.757984.396866-.83.82Z" transform="translate(-289.817001,-134.978867)" fill="#717990"/></g><g id="eKoH067GOCh8_tr" transform="translate(376.673859,37.047297) rotate(0)"><path d="M371.26,32.45l-1.09,6.84c-.067887.430253.150532.854958.54,1.05l6.17,3.14c.374541.178038.820105.106429,1.12-.18l4.9-4.9c.304514-.307069.377137-.775089.18-1.16L380,31.07c-.195042-.389468-.619747-.607887-1.05-.54l-6.84,1.09c-.434782.060143-.779523.396773-.85.83Z" transform="translate(-376.673859,-37.047297)" fill="#717990"/></g><g id="eKoH067GOCh9_tr" transform="translate(426.685013,29.001634) rotate(0)"><path d="M418.87,28l3,8c.15351.41349.559796.677576,1,.65l8.48-.38c.432307-.018659.803571-.313248.92-.73l2.26-8.18c.115574-.416748-.049849-.860567-.41-1.1L427,21.52c-.36222-.242194-.839567-.221968-1.18.05l-6.64,5.29c-.340745.271826-.466165.733049-.31,1.14Z" transform="translate(-426.685013,-29.001634)" fill="#717990"/></g><g id="eKoH067GOCh10_tr" transform="translate(430.156326,110.048927) rotate(0)"><path d="M427.23,104l-3.43,6c-.215129.376893-.162615.849523.13,1.17l4.67,5.11c.290988.320465.755125.417329,1.15.24l6.31-2.86c.385938-.176495.618442-.577365.58-1l-.77-6.88c-.047185-.430461-.366071-.78164-.79-.87l-6.78-1.4c-.425195-.086048-.857374.111867-1.07.49Z" transform="translate(-430.156326,-110.048927)" fill="#717990"/></g><g id="eKoH067GOCh11_tr" transform="translate(439.491974,82.113049) rotate(0)"><path d="M439.81,74.63l-7.39,3.74c-.370329.188718-.585313.586836-.54,1l1.28,8.19c.068113.427021.402979.761887.83.83l8.18,1.31c.427881.069598.851876-.144419,1.05-.53L447,81.85c.197137-.384911.124514-.852931-.18-1.16L441,74.82c-.309679-.322066-.79543-.399623-1.19-.19Z" transform="translate(-439.491974,-82.113049)" fill="#a4a5b9"/></g><g id="eKoH067GOCh12_tr" transform="translate(396.97551,65.112585) rotate(0)"><path d="M392,62.85l.22,5.08c.019988.435098.319299.807214.74.92l4.9,1.35c.416748.115574.860567-.049849,1.1-.41l2.8-4.24c.256796-.35142.256796-.82858,0-1.18l-3.17-4c-.267762-.339913-.723771-.469049-1.13-.32l-4.76,1.79c-.437069.136674-.725451.552768-.7,1.01Z" transform="translate(-396.97551,-65.112585)" fill="#a4a5b9"/></g><g id="eKoH067GOCh13_tr" transform="translate(486.334686,9.711639) rotate(0)"><path d="M485.17,4.91l-3.59,3.6c-.30789.304703-.384593.772994-.19,1.16l2.31,4.53c.195042.389468.619747.607887,1.05.54l5-.8c.427021-.068113.761887-.402979.83-.83l.8-5c.045313-.413164-.169671-.811282-.54-1L486.31,4.8c-.365448-.206118-.820704-.162189-1.14.11Z" transform="translate(-486.334686,-9.711639)" fill="#a4a5b9"/></g><g id="eKoH067GOCh14_tr" transform="translate(372.899963,12.829798) rotate(0)"><path d="M371.92,9.71l-2.13,2.13c-.30789.304703-.384593.772994-.19,1.16l1.4,2.69c.191676.366445.589143.577103,1,.53l3-.47c.427021-.068113.761887-.402979.83-.83l.47-3c.047103-.410857-.163555-.808324-.53-1l-2.69-1.37c-.380729-.202304-.848254-.137818-1.16.16Z" transform="translate(-372.899963,-12.829798)" fill="#a4a5b9"/></g><g id="eKoH067GOCh15_tr" transform="translate(347.504684,52.75243) rotate(0)"><path d="M346.51,49.63l-2.13,2.14c-.30789.304703-.384593.772994-.19,1.16l1.37,2.68c.195042.389468.619747.607887,1.05.54l3-.48c.430904-.064156.770689-.399896.84-.83l.47-3c.045313-.413164-.169671-.811282-.54-1l-2.68-1.37c-.388109-.217241-.873054-.152038-1.19.16Z" transform="translate(-347.504684,-52.75243)" fill="#9ca7bb"/></g><g id="eKoH067GOCh16_tr" transform="translate(450.76825,7.293032) rotate(0)"><path d="M449.8,4.19l-2.13,2.13c-.304514.307069-.377137.775089-.18,1.16l1.36,2.69c.191676.366445.589143.577103,1,.53l3-.47c.427021-.068113.761887-.402979.83-.83l.47-3c.047103-.410857-.163555-.808324-.53-1L451,4c-.397037-.214766-.88873-.136915-1.2.19Z" transform="translate(-450.76825,-7.293032)" fill="#9ca7bb"/></g><g id="eKoH067GOCh17_tr" transform="translate(473.408417,106.604885) rotate(0)"><path d="M475.54,101.06l-5.7.63c-.433421.048426-.785473.372152-.87.8l-1.16,5.62c-.087876.422901.105706.854428.48,1.07l5,2.85c.374468.210244.841361.15792,1.16-.13l4.25-3.9c.320465-.290988.417329-.755125.24-1.15l-2.37-5.23c-.18643-.389458-.601773-.615275-1.03-.56Z" transform="translate(-473.408417,-106.604885)" fill="#9ca7bb"/></g><g id="eKoH067GOCh18_tr" transform="translate(387.168396,140.485992) rotate(0)"><path d="M389.31,134.94l-5.71.64c-.430461.047185-.78164.366071-.87.79L381.57,142c-.087876.422901.105706.854428.48,1.07l5,2.84c.374468.210244.841361.15792,1.16-.13l4.25-3.87c.320465-.290988.417329-.755125.24-1.15l-2.37-5.24c-.178926-.393452-.590384-.627418-1.02-.58Z" transform="translate(-387.168396,-140.485992)" fill="#9ca7bb"/></g><g id="eKoH067GOCh19_tr" transform="translate(482.550751,149.084137) rotate(0)"><path d="M482.19,144.94l-3.56,2.24c-.367267.229686-.544894.669717-.44,1.09l1,4.09c.107975.421281.475851.724476.91.75l4.2.28c.435048.030526.839706-.224408,1-.63l1.57-3.91c.160685-.402687.043576-.863046-.29-1.14L483.37,145c-.338207-.275069-.815636-.299345-1.18-.06Z" transform="translate(-482.550751,-149.084137)" fill="#717990"/></g><g id="eKoH067GOCh20_tr" transform="translate(509.585953,90.438702) rotate(0)"><path d="M509,86.4l-3.38,2.46c-.353823.253109-.503415.705929-.37,1.12l1.3,4c.134098.411264.517426.689681.95.69h4.18c.432574-.000319.815902-.278736.95-.69l1.29-4c.135519-.411899-.009864-.864204-.36-1.12l-3.38-2.46c-.35142-.256796-.82858-.256796-1.18,0Z" transform="translate(-509.585953,-90.438702)" fill="#3f476c"/></g><g id="eKoH067GOCh21_tr" transform="translate(404.980545,4.464305) rotate(0)"><path d="M404.41,0.43L401,2.89c-.338483.25961-.475017.705354-.34,1.11L402,8c.139395.429338.549139.712062,1,.69h4.18c.383907-.051759.703385-.320588.82-.69l1.29-4c.146293-.394173.030402-.837756-.29-1.11l-3.41-2.46c-.35142-.256796-.82858-.256796-1.18,0Z" transform="translate(-404.980545,-4.464305)" fill="#3f476c"/></g><g id="eKoH067GOCh22_tr" transform="translate(434.045502,153.045097) rotate(0)"><path d="M432.66,149L430,152.24c-.27655.331794-.308813.803651-.08,1.17l2.22,3.55c.232512.363484.671948.536839,1.09.43l4.06-1c.417956-.106824.720296-.469632.75-.9l.28-4.17c.032048-.432512-.21835-.836381-.62-1l-3.88-1.56c-.397547-.182262-.867413-.085048-1.16.24Z" transform="translate(-434.045502,-153.045097)" fill="#a4a5b9"/></g><g id="eKoH067GOCh23_tr" transform="translate(332.471085,87.149078) rotate(0)"><path d="M334.1,76.1l-11.7,4.38c-.41349.15351-.677576.559796-.65,1l.56,12.48c.018659.432307.313248.803571.73.92l12,3.33c.416748.115574.860567-.049849,1.1-.41l6.89-10.42c.239345-.364364.215069-.841793-.06-1.18l-7.78-9.77c-.259091-.326356-.693399-.457844-1.09-.33Z" transform="translate(-332.471085,-87.149078)" fill="#a4a5b9"/></g><g id="eKoH067GOCh24_tr" transform="translate(478.106064,75.025955) rotate(0)"><path d="M480.19,72.94L478,72.23c-.414071-.133415-.866891.016177-1.12.37l-1.34,1.84c-.251956.349307-.251956.820693,0,1.17l1.34,1.85c.255796.350136.708101.495519,1.12.36l2.16-.7c.433309-.135747.720766-.5464.7-1v-2.23c.002569-.427288-.266638-.809-.67-.95Z" transform="translate(-478.106064,-75.025955)" fill="#717990"/></g><g id="eKoH067GOCh25_tr" transform="translate(342.101685,25.94446) rotate(0)"><path d="M342.47,18.22l-7.66,3.88c-.366445.191676-.577103.589143-.53,1l1.32,8.48c.068113.427021.402979.761887.83.83l8.48,1.36c.410857.047103.808324-.163555,1-.53l3.91-7.64c.197137-.384911.124514-.852931-.18-1.16l-6.06-6.08c-.306838-.268641-.746067-.324039-1.11-.14Z" transform="translate(-342.101685,-25.94446)" fill="#3f476c"/></g><g id="eKoH067GOCh26_tr" transform="translate(393.041046,102.484356) rotate(0)"><path d="M390.06,92.27l-7,9.65c-.251956.349307-.251956.820693,0,1.17l7,9.65c.25437.34582.701083.490699,1.11.36l11.34-3.68c.433309-.135747.720766-.5464.7-1v-11.88c.020766-.4536-.266691-.864253-.7-1l-11.34-3.68c-.419834-.120397-.869236.045598-1.11.41Z" transform="translate(-393.041046,-102.484356)" fill="#3f476c"/></g><g id="eKoH067GOCh27_tr" transform="translate(338.05574,124.050449) rotate(0)"><path d="M337.88,116l-7.77,4.89c-.367267.229686-.544894.669717-.44,1.09l2.25,8.91c.106824.417956.469632.720296.9.75l9.17.61c.432512.032048.836381-.21835,1-.62l3.41-8.53c.160685-.402687.043576-.863046-.29-1.14l-7.06-5.88c-.331794-.27655-.803651-.308813-1.17-.08Z" transform="translate(-338.05574,-124.050449)" fill="#3f476c"/></g><g id="eKoH067GOCh28_tr" transform="translate(494.321732,40.966991) rotate(0)"><path d="M491.17,38.69L490.64,42c-.047103.410857.163555.808324.53,1l3,1.53c.384911.197137.852931.124514,1.16-.18L497.72,42c.304514-.307069.377137-.775089.18-1.16l-1.53-3c-.188718-.370329-.586836-.585313-1-.54l-3.33.53c-.451971.05517-.809609.408697-.87.86Z" transform="translate(-494.321732,-40.966991)" fill="#3f476c"/></g></g><clipPath id="eKoH067GOCh29"><rect width="512.47" height="155.65" rx="0" ry="0" fill="none"/></clipPath></g></svg>
