<svg id="Layer_1" data-name="Layer 1" xmlns="http://www.w3.org/2000/svg" xmlns:xlink="http://www.w3.org/1999/xlink" viewBox="0 0 512.47 155.65"><defs><style>.cls-1{fill:none;}.cls-2{fill:#2a3259;}.cls-3{clip-path:url(#clip-path);}.cls-4{fill:#3f476c;}.cls-5{fill:#717990;}.cls-6{fill:#a4a5b9;}.cls-7{fill:#9ca7bb;}</style><clipPath id="clip-path"><rect class="cls-1" width="512.47" height="155.65"/></clipPath></defs><rect class="cls-2" width="512.47" height="155.65"/><g class="cls-3"><path class="cls-4" d="M275.45,73.11l-7.94,12a1,1,0,0,0,.05,1.17l9,11.28a1,1,0,0,0,1.13.31l13.5-5.06a1,1,0,0,0,.65-1l-.64-14.4a1,1,0,0,0-.74-.92L276.55,72.7A1,1,0,0,0,275.45,73.11Z"/><path class="cls-5" d="M301.08,45l3.21,8.59a1,1,0,0,0,1,.64l9.16-.4a1,1,0,0,0,.92-.73l2.45-8.84a1,1,0,0,0-.42-1.1l-7.64-5a1,1,0,0,0-1.18,0l-7.17,5.71A1,1,0,0,0,301.08,45Z"/><path class="cls-5" d="M284.38,130.37l-1.09,6.84a1,1,0,0,0,.54,1L290,141.4a1,1,0,0,0,1.16-.18l4.9-4.9a1,1,0,0,0,.18-1.16L293.1,129a1,1,0,0,0-1.05-.54l-6.84,1.09A1,1,0,0,0,284.38,130.37Z"/><path class="cls-5" d="M371.26,32.45l-1.09,6.84a1,1,0,0,0,.54,1.05l6.17,3.14A1,1,0,0,0,378,43.3l4.9-4.9a1,1,0,0,0,.18-1.16L380,31.07a1,1,0,0,0-1.05-.54l-6.84,1.09A1,1,0,0,0,371.26,32.45Z"/><path class="cls-5" d="M418.87,28l3,8a1,1,0,0,0,1,.65l8.48-.38a1,1,0,0,0,.92-.73l2.26-8.18a1,1,0,0,0-.41-1.1L427,21.52a1,1,0,0,0-1.18.05l-6.64,5.29A1,1,0,0,0,418.87,28Z"/><path class="cls-5" d="M427.23,104l-3.43,6a1,1,0,0,0,.13,1.17l4.67,5.11a1,1,0,0,0,1.15.24l6.31-2.86a1,1,0,0,0,.58-1l-.77-6.88a1,1,0,0,0-.79-.87l-6.78-1.4A1,1,0,0,0,427.23,104Z"/><path class="cls-6" d="M439.81,74.63l-7.39,3.74a1,1,0,0,0-.54,1l1.28,8.19a1,1,0,0,0,.83.83l8.18,1.31a1,1,0,0,0,1.05-.53L447,81.85a1,1,0,0,0-.18-1.16L441,74.82A1,1,0,0,0,439.81,74.63Z"/><path class="cls-6" d="M392,62.85l.22,5.08a1,1,0,0,0,.74.92l4.9,1.35a1,1,0,0,0,1.1-.41l2.8-4.24a1,1,0,0,0,0-1.18l-3.17-4a1,1,0,0,0-1.13-.32l-4.76,1.79A1,1,0,0,0,392,62.85Z"/><path class="cls-6" d="M485.17,4.91l-3.59,3.6a1,1,0,0,0-.19,1.16l2.31,4.53a1,1,0,0,0,1.05.54l5-.8a1,1,0,0,0,.83-.83l.8-5a1,1,0,0,0-.54-1l-4.53-2.31A1,1,0,0,0,485.17,4.91Z"/><path class="cls-6" d="M371.92,9.71l-2.13,2.13A1,1,0,0,0,369.6,13L371,15.69a1,1,0,0,0,1,.53l3-.47a1,1,0,0,0,.83-.83l.47-3a1,1,0,0,0-.53-1l-2.69-1.37A1,1,0,0,0,371.92,9.71Z"/><path class="cls-7" d="M346.51,49.63l-2.13,2.14a1,1,0,0,0-.19,1.16l1.37,2.68a1,1,0,0,0,1.05.54l3-.48a1,1,0,0,0,.84-.83l.47-3a1,1,0,0,0-.54-1l-2.68-1.37A1,1,0,0,0,346.51,49.63Z"/><path class="cls-7" d="M449.8,4.19l-2.13,2.13a1,1,0,0,0-.18,1.16l1.36,2.69a1,1,0,0,0,1,.53l3-.47a1,1,0,0,0,.83-.83l.47-3a1,1,0,0,0-.53-1L451,4A1,1,0,0,0,449.8,4.19Z"/><path class="cls-7" d="M475.54,101.06l-5.7.63a1,1,0,0,0-.87.8l-1.16,5.62a1,1,0,0,0,.48,1.07l5,2.85a1,1,0,0,0,1.16-.13L478.7,108a1,1,0,0,0,.24-1.15l-2.37-5.23A1,1,0,0,0,475.54,101.06Z"/><path class="cls-7" d="M389.31,134.94l-5.71.64a1,1,0,0,0-.87.79L381.57,142a1,1,0,0,0,.48,1.07l5,2.84a1,1,0,0,0,1.16-.13l4.25-3.87a1,1,0,0,0,.24-1.15l-2.37-5.24A1,1,0,0,0,389.31,134.94Z"/><path class="cls-5" d="M482.19,144.94l-3.56,2.24a1,1,0,0,0-.44,1.09l1,4.09a1,1,0,0,0,.91.75l4.2.28a1,1,0,0,0,1-.63l1.57-3.91a1,1,0,0,0-.29-1.14L483.37,145A1,1,0,0,0,482.19,144.94Z"/><path class="cls-4" d="M509,86.4l-3.38,2.46a1,1,0,0,0-.37,1.12l1.3,4a1,1,0,0,0,.95.69h4.18a1,1,0,0,0,.95-.69l1.29-4a1,1,0,0,0-.36-1.12l-3.38-2.46A1,1,0,0,0,509,86.4Z"/><path class="cls-4" d="M404.41.43,401,2.89A1,1,0,0,0,400.66,4L402,8a1,1,0,0,0,1,.69h4.18A1,1,0,0,0,408,8l1.29-4A1,1,0,0,0,409,2.89L405.59.43A1,1,0,0,0,404.41.43Z"/><path class="cls-6" d="M432.66,149,430,152.24a1,1,0,0,0-.08,1.17l2.22,3.55a1,1,0,0,0,1.09.43l4.06-1a1,1,0,0,0,.75-.9l.28-4.17a1,1,0,0,0-.62-1l-3.88-1.56A1,1,0,0,0,432.66,149Z"/><path class="cls-6" d="M334.1,76.1l-11.7,4.38a1,1,0,0,0-.65,1l.56,12.48a1,1,0,0,0,.73.92l12,3.33a1,1,0,0,0,1.1-.41l6.89-10.42a1,1,0,0,0-.06-1.18l-7.78-9.77A1,1,0,0,0,334.1,76.1Z"/><path class="cls-5" d="M480.19,72.94,478,72.23a1,1,0,0,0-1.12.37l-1.34,1.84a1,1,0,0,0,0,1.17l1.34,1.85a1,1,0,0,0,1.12.36l2.16-.7a1,1,0,0,0,.7-1V73.89A1,1,0,0,0,480.19,72.94Z"/><path class="cls-4" d="M342.47,18.22l-7.66,3.88a1,1,0,0,0-.53,1l1.32,8.48a1,1,0,0,0,.83.83l8.48,1.36a1,1,0,0,0,1-.53l3.91-7.64a1,1,0,0,0-.18-1.16l-6.06-6.08A1,1,0,0,0,342.47,18.22Z"/><path class="cls-4" d="M390.06,92.27l-7,9.65a1,1,0,0,0,0,1.17l7,9.65a1,1,0,0,0,1.11.36l11.34-3.68a1,1,0,0,0,.7-1V96.54a1,1,0,0,0-.7-1l-11.34-3.68A1,1,0,0,0,390.06,92.27Z"/><path class="cls-4" d="M337.88,116l-7.77,4.89a1,1,0,0,0-.44,1.09l2.25,8.91a1,1,0,0,0,.9.75l9.17.61a1,1,0,0,0,1-.62l3.41-8.53a1,1,0,0,0-.29-1.14l-7.06-5.88A1,1,0,0,0,337.88,116Z"/><path class="cls-4" d="M491.17,38.69,490.64,42a1,1,0,0,0,.53,1l3,1.53a1,1,0,0,0,1.16-.18L497.72,42a1,1,0,0,0,.18-1.16l-1.53-3a1,1,0,0,0-1-.54l-3.33.53A1,1,0,0,0,491.17,38.69Z"/></g></svg>