<svg id="eRDOTy4Kk2B1" xmlns="http://www.w3.org/2000/svg" xmlns:xlink="http://www.w3.org/1999/xlink" viewBox="0 0 512.47 155.65" shape-rendering="geometricPrecision" text-rendering="geometricPrecision">
<style><![CDATA[
#eRDOTy4Kk2B5_to {animation: eRDOTy4Kk2B5_to__to 3000ms linear infinite normal forwards}@keyframes eRDOTy4Kk2B5_to__to { 0% {transform: translate(369.830002px,83.239992px)} 36.666667% {transform: translate(369.99px,83.239992px)} 40% {transform: translate(371px,82px)} 43.333333% {transform: translate(370.745px,85px)} 46.666667% {transform: translate(369.99px,83.239992px)} 100% {transform: translate(370px,83.239992px)}} #eRDOTy4Kk2B5 {animation: eRDOTy4Kk2B5_c_o 3000ms linear infinite normal forwards}@keyframes eRDOTy4Kk2B5_c_o { 0% {opacity: 0} 33.333333% {opacity: 0} 36.666667% {opacity: 1} 40% {opacity: 0.25} 43.333333% {opacity: 0} 46.666667% {opacity: 1} 93.333333% {opacity: 0} 100% {opacity: 0}} #eRDOTy4Kk2B8_to {animation: eRDOTy4Kk2B8_to__to 3000ms linear infinite normal forwards}@keyframes eRDOTy4Kk2B8_to__to { 0% {transform: translate(211.489998px,57.01px)} 40% {transform: translate(169.234079px,190.365px)} 43.333333% {transform: translate(531.544622px,190.365px)} 46.666667% {transform: translate(531.544622px,-33.313877px)} 50% {transform: translate(235.08px,-34.554859px)} 100% {transform: translate(211.489998px,57.01px)}} #eRDOTy4Kk2B9_to {animation: eRDOTy4Kk2B9_to__to 3000ms linear infinite normal forwards}@keyframes eRDOTy4Kk2B9_to__to { 0% {transform: translate(219.020004px,93.849998px)} 36.666667% {transform: translate(188.243685px,190.364998px)} 40% {transform: translate(525.024062px,190.364998px)} 43.333333% {transform: translate(525.024062px,-33.313879px)} 46.666667% {transform: translate(259.095003px,-33.313879px)} 100% {transform: translate(219.020004px,93.849998px)}} #eRDOTy4Kk2B10_to {animation: eRDOTy4Kk2B10_to__to 3000ms linear infinite normal forwards}@keyframes eRDOTy4Kk2B10_to__to { 0% {transform: translate(269.600006px,114.214996px)} 53.333333% {transform: translate(248.675006px,192.014996px)} 56.666667% {transform: translate(526.163062px,192.014996px)} 60% {transform: translate(526.163062px,-31.782696px)} 63.333333% {transform: translate(310.946873px,-31.782696px)} 100% {transform: translate(269.600006px,114.214996px)}} #eRDOTy4Kk2B11_to {animation: eRDOTy4Kk2B11_to__to 3000ms linear infinite normal forwards}@keyframes eRDOTy4Kk2B11_to__to { 0% {transform: translate(203.114998px,122.875004px)} 43.333333% {transform: translate(176.605257px,203.434545px)} 46.666667% {transform: translate(532.449411px,204.190004px)} 50% {transform: translate(532.449411px,-46.782808px)} 53.333333% {transform: translate(252.911293px,-48.667822px)} 100% {transform: translate(203.114998px,122.875004px)}} #eRDOTy4Kk2B12_to {animation: eRDOTy4Kk2B12_to__to 3000ms linear infinite normal forwards}@keyframes eRDOTy4Kk2B12_to__to { 0% {transform: translate(274.214996px,73.484997px)} 50% {transform: translate(236.917802px,205.835px)} 53.333333% {transform: translate(530.188052px,205.834997px)} 56.666667% {transform: translate(530.188052px,-47.045127px)} 60% {transform: translate(308.769929px,-47.045127px)} 100% {transform: translate(274.214996px,73.484997px)}} #eRDOTy4Kk2B13_to {animation: eRDOTy4Kk2B13_to__to 3000ms linear infinite normal forwards}@keyframes eRDOTy4Kk2B13_to__to { 0% {transform: translate(451.604996px,164.439995px)} 13.333333% {transform: translate(444.664087px,190.124086px)} 16.666667% {transform: translate(528.211184px,190.124086px)} 20% {transform: translate(528.211184px,-29.142693px)} 23.333333% {transform: translate(491.725428px,-29.142695px)} 100% {transform: translate(451.604996px,164.439995px)}} #eRDOTy4Kk2B14_to {animation: eRDOTy4Kk2B14_to__to 3000ms linear infinite normal forwards}@keyframes eRDOTy4Kk2B14_to__to { 0% {transform: translate(451.634995px,138.504997px)} 36.666667% {transform: translate(432.464995px,209.149997px)} 40% {transform: translate(532.579053px,209.149997px)} 43.333333% {transform: translate(532.579053px,-47.13888px)} 46.666667% {transform: translate(495.769024px,-47.13888px)} 100% {transform: translate(451.634995px,138.504997px)}} #eRDOTy4Kk2B15_to {animation: eRDOTy4Kk2B15_to__to 3000ms linear infinite normal forwards}@keyframes eRDOTy4Kk2B15_to__to { 0% {transform: translate(425.889999px,114.214996px)} 56.666667% {transform: translate(406.439999px,188.564996px)} 60% {transform: translate(525.682431px,188.564996px)} 63.333333% {transform: translate(525.682431px,-29.147692px)} 66.666667% {transform: translate(463.22px,-29.147692px)} 100% {transform: translate(425.889999px,114.214996px)}} #eRDOTy4Kk2B16_to {animation: eRDOTy4Kk2B16_to__to 3000ms linear infinite normal forwards}@keyframes eRDOTy4Kk2B16_to__to { 0% {transform: translate(433.214996px,66.535002px)} 40% {transform: translate(392.465192px,204.190002px)} 43.333333% {transform: translate(536.609054px,204.190002px)} 46.666667% {transform: translate(536.609054px,-53.593012px)} 50% {transform: translate(468.631677px,-54.697789px)} 100% {transform: translate(433.214996px,66.535002px)}} #eRDOTy4Kk2B17_to {animation: eRDOTy4Kk2B17_to__to 3000ms linear infinite normal forwards}@keyframes eRDOTy4Kk2B17_to__to { 0% {transform: translate(289.610001px,134.805004px)} 46.666667% {transform: translate(274.215px,187.005004px)} 50% {transform: translate(525.714059px,187.005004px)} 53.333333% {transform: translate(525.714059px,-32.199855px)} 56.666667% {transform: translate(336.472816px,-34.554859px)} 100% {transform: translate(289.610001px,134.805004px)}} #eRDOTy4Kk2B18_to {animation: eRDOTy4Kk2B18_to__to 3000ms linear infinite normal forwards}@keyframes eRDOTy4Kk2B18_to__to { 0% {transform: translate(229.949997px,140.145px)} 30% {transform: translate(215.720997px,190.37px)} 33.333333% {transform: translate(525.024055px,190.37px)} 36.666667% {transform: translate(525.024055px,-32.199859px)} 40% {transform: translate(277.159995px,-32.199859px)} 100% {transform: translate(229.949997px,140.145px)}} #eRDOTy4Kk2B19_to {animation: eRDOTy4Kk2B19_to__to 3000ms linear infinite normal forwards}@keyframes eRDOTy4Kk2B19_to__to { 0% {transform: translate(241.634995px,121.27px)} 36.666667% {transform: translate(225.824995px,177.760909px)} 40% {transform: translate(528.454053px,177.760909px)} 43.333333% {transform: translate(528.454053px,-21.533877px)} 46.666667% {transform: translate(285.8px,-21.533877px)} 100% {transform: translate(241.634995px,121.27px)}} #eRDOTy4Kk2B20_to {animation: eRDOTy4Kk2B20_to__to 3000ms linear infinite normal forwards}@keyframes eRDOTy4Kk2B20_to__to { 0% {transform: translate(241.459999px,51.67px)} 43.333333% {transform: translate(202.049409px,190.37px)} 46.666667% {transform: translate(530.975515px,190.375px)} 50% {transform: translate(530.975515px,-34.554859px)} 53.333333% {transform: translate(266.222775px,-34.554859px)} 100% {transform: translate(241.459999px,51.67px)}} #eRDOTy4Kk2B21_to {animation: eRDOTy4Kk2B21_to__to 3000ms linear infinite normal forwards}@keyframes eRDOTy4Kk2B21_to__to { 0% {transform: translate(239.205002px,80.164997px)} 30% {transform: translate(211.490002px,176.774997px)} 33.333333% {transform: translate(529.14906px,176.774997px)} 36.666667% {transform: translate(529.14906px,-20.409862px)} 40% {transform: translate(269.6px,-21.341328px)} 100% {transform: translate(239.205002px,80.164997px)}} #eRDOTy4Kk2B22_to {animation: eRDOTy4Kk2B22_to__to 3000ms linear infinite normal forwards}@keyframes eRDOTy4Kk2B22_to__to { 0% {transform: translate(296.285004px,63.674999px)} 46.666667% {transform: translate(260.360004px,180.224999px)} 50% {transform: translate(526.06306px,180.224999px)} 53.333333% {transform: translate(526.06306px,-26.965001px)} 56.666667% {transform: translate(322.360765px,-26.965001px)} 100% {transform: translate(296.285004px,63.674999px)}} #eRDOTy4Kk2B23_to {animation: eRDOTy4Kk2B23_to__to 3000ms linear infinite normal forwards}@keyframes eRDOTy4Kk2B23_to__to { 0% {transform: translate(489.494995px,89.245001px)} 36.666667% {transform: translate(461.313512px,190.370001px)} 40% {transform: translate(532.579053px,190.370001px)} 43.333333% {transform: translate(532.579053px,-41.109999px)} 46.666667% {transform: translate(522.376459px,-41.109999px)} 100% {transform: translate(489.494995px,89.245001px)}} #eRDOTy4Kk2B24_to {animation: eRDOTy4Kk2B24_to__to 3000ms linear infinite normal forwards}@keyframes eRDOTy4Kk2B24_to__to { 0% {transform: translate(490.059998px,107.274998px)} 24.333333% {transform: translate(472.934821px,177.482386px)} 26.666667% {transform: translate(529.144056px,178.584998px)} 30% {transform: translate(529.144056px,-20.409861px)} 33.333333% {transform: translate(523.415514px,-21.528879px)} 100% {transform: translate(490.059998px,107.274998px)}} #eRDOTy4Kk2B25_to {animation: eRDOTy4Kk2B25_to__to 3000ms linear infinite normal forwards}@keyframes eRDOTy4Kk2B25_to__to { 0% {transform: translate(283.744995px,132.845001px)} 40% {transform: translate(262.04px,206.221525px)} 43.333333% {transform: translate(539.104624px,205.835px)} 46.666667% {transform: translate(539.104624px,-47.717738px)} 50% {transform: translate(336.90934px,-49.760891px)} 100% {transform: translate(283.744995px,132.845001px)}} #eRDOTy4Kk2B26_to {animation: eRDOTy4Kk2B26_to__to 3000ms linear infinite normal forwards}@keyframes eRDOTy4Kk2B26_to__to { 0% {transform: translate(373.581375px,36.152531px);animation-timing-function: cubic-bezier(0.42,0,0.58,1)} 50% {transform: translate(377.62px,36.152531px);animation-timing-function: cubic-bezier(0.42,0,0.58,1)} 100% {transform: translate(373.58px,36.152531px)}} #eRDOTy4Kk2B27_to {animation: eRDOTy4Kk2B27_to__to 3000ms linear infinite normal forwards}@keyframes eRDOTy4Kk2B27_to__to { 0% {transform: translate(406.768555px,-3.212799px);animation-timing-function: cubic-bezier(0.42,0,0.58,1)} 50% {transform: translate(402.7px,-3.212799px);animation-timing-function: cubic-bezier(0.42,0,0.58,1)} 100% {transform: translate(406.77px,-3.212799px)}} #eRDOTy4Kk2B28_to {animation: eRDOTy4Kk2B28_to__to 3000ms linear infinite normal forwards}@keyframes eRDOTy4Kk2B28_to__to { 0% {transform: translate(449.64px,20.613426px);animation-timing-function: cubic-bezier(0.42,0,0.58,1)} 50% {transform: translate(455px,20.613426px);animation-timing-function: cubic-bezier(0.42,0,0.58,1)} 100% {transform: translate(449.64px,20.613426px)}}
]]></style>
<defs><filter id="eRDOTy4Kk2B5-filter" x="-150%" width="400%" y="-150%" height="400%"><feGaussianBlur id="eRDOTy4Kk2B5-filter-blur-0" stdDeviation="3.5,3.5" result="result"/></filter></defs><rect width="512.47" height="155.65" rx="0" ry="0" fill="#2a3259"/><g clip-path="url(#eRDOTy4Kk2B29)"><g><g id="eRDOTy4Kk2B5_to" transform="translate(369.830002,83.239992)"><path id="eRDOTy4Kk2B5" d="M414,0.24L376.68,84.13c-.17542.39756-.1242.85865.13421,1.20801s.6843.53333,1.11579.48199l21.63-2.66c.49244-.04538.96228.21596,1.18344.65828s.14833.975-.18344,1.34172l-74.9,81.08l30-67.24c.20369-.40086.16619-.88194-.09714-1.2464s-.70832-.55112-1.15286-.4836l-26.82,3.28c-.43176.05395-.85889-.13004-1.11629-.48085s-.30474-.81348-.12371-1.20915L368,5.86l46-5.62Z" transform="translate(-369.830002,-83.239992)" opacity="0" filter="url(#eRDOTy4Kk2B5-filter)" fill="#efc744"/></g><path d="M368,5.86l-41.65,93c-.18103.395668-.133695.858332.123706,1.209145s.684536.534806,1.116294.480855l26.82-3.28c.444539-.067517.889522.119145,1.152857.4836s.300831.845545.097143,1.2464l-30,67.24l74.9-81.08c.331768-.366718.404598-.899406.183441-1.34172s-.691006-.703664-1.183441-.65828l-21.63,2.66c-.431496.051348-.857392-.132624-1.115795-.481986s-.309629-.810457-.134205-1.208014L414,0.24L368,5.86Z" fill="#efc744"/></g><g><g id="eRDOTy4Kk2B8_to" transform="translate(211.489998,57.01)"><line x1="219.05" y1="31.08" x2="203.93" y2="82.94" transform="translate(-211.489998,-57.01)" fill="none" stroke="#333b60" stroke-width="2" stroke-miterlimit="10"/></g><g id="eRDOTy4Kk2B9_to" transform="translate(219.020004,93.849998)"><line x1="226.58" y1="67.92" x2="211.46" y2="119.78" transform="translate(-219.020004,-93.849998)" fill="none" stroke="#333b60" stroke-width="2" stroke-miterlimit="10"/></g><g id="eRDOTy4Kk2B10_to" transform="translate(269.600006,114.214996)"><line x1="277.16" y1="88.28" x2="262.04" y2="140.15" transform="translate(-269.600006,-114.214996)" fill="none" stroke="#333b60" stroke-width="2" stroke-miterlimit="10"/></g><g id="eRDOTy4Kk2B11_to" transform="translate(203.114998,122.875004)"><line x1="214.7" y1="83.12" x2="191.53" y2="162.63" transform="translate(-203.114998,-122.875004)" fill="none" stroke="#333b60" stroke-width="2" stroke-miterlimit="10"/></g><g id="eRDOTy4Kk2B12_to" transform="translate(274.214996,73.484997)"><line x1="285.8" y1="33.73" x2="262.63" y2="113.24" transform="translate(-274.214996,-73.484997)" fill="none" stroke="#333b60" stroke-width="2" stroke-miterlimit="10"/></g><g id="eRDOTy4Kk2B13_to" transform="translate(451.604996,164.439995)"><line x1="459.16" y1="138.51" x2="444.05" y2="190.37" transform="translate(-451.604996,-164.439995)" fill="none" stroke="#333b60" stroke-width="2" stroke-miterlimit="10"/></g><g id="eRDOTy4Kk2B14_to" transform="translate(451.634995,138.504997)"><line x1="463.22" y1="98.75" x2="440.05" y2="178.26" transform="translate(-451.634995,-138.504997)" fill="none" stroke="#333b60" stroke-width="2" stroke-miterlimit="10"/></g><g id="eRDOTy4Kk2B15_to" transform="translate(425.889999,114.214996)"><line x1="433.45" y1="88.28" x2="418.33" y2="140.15" transform="translate(-425.889999,-114.214996)" fill="none" stroke="#333b60" stroke-width="2" stroke-miterlimit="10"/></g><g id="eRDOTy4Kk2B16_to" transform="translate(433.214996,66.535002)"><line x1="444.8" y1="26.78" x2="421.63" y2="106.29" transform="translate(-433.214996,-66.535002)" fill="none" stroke="#333b60" stroke-width="2" stroke-miterlimit="10"/></g><g id="eRDOTy4Kk2B17_to" transform="translate(289.610001,134.805004)"><line x1="297.17" y1="108.87" x2="282.05" y2="160.74" transform="translate(-289.610001,-134.805004)" fill="none" stroke="#3f4569" stroke-width="2" stroke-miterlimit="10"/></g><g id="eRDOTy4Kk2B18_to" transform="translate(229.949997,140.145)"><line x1="237.51" y1="114.21" x2="222.39" y2="166.08" transform="translate(-229.949997,-140.145)" fill="none" stroke="#4a5074" stroke-width="2" stroke-miterlimit="10"/></g><g id="eRDOTy4Kk2B19_to" transform="translate(241.634995,121.27)"><line x1="245.76" y1="107.12" x2="237.51" y2="135.42" transform="translate(-241.634995,-121.27)" fill="none" stroke="#4a5074" stroke-width="2" stroke-miterlimit="10"/></g><g id="eRDOTy4Kk2B20_to" transform="translate(241.459999,51.67)"><line x1="249.02" y1="25.74" x2="233.9" y2="77.6" transform="translate(-241.459999,-51.67)" fill="none" stroke="#4a5074" stroke-width="2" stroke-miterlimit="10"/></g><g id="eRDOTy4Kk2B21_to" transform="translate(239.205002,80.164997)"><line x1="243.33" y1="66.02" x2="235.08" y2="94.31" transform="translate(-239.205002,-80.164997)" fill="none" stroke="#4a5074" stroke-width="2" stroke-miterlimit="10"/></g><g id="eRDOTy4Kk2B22_to" transform="translate(296.285004,63.674999)"><line x1="300.41" y1="49.53" x2="292.16" y2="77.82" transform="translate(-296.285004,-63.674999)" fill="none" stroke="#4a5074" stroke-width="2" stroke-miterlimit="10"/></g><g id="eRDOTy4Kk2B23_to" transform="translate(489.494995,89.245001)"><line x1="497.05" y1="63.31" x2="481.94" y2="115.18" transform="translate(-489.494995,-89.245001)" fill="none" stroke="#4a5074" stroke-width="2" stroke-miterlimit="10"/></g><g id="eRDOTy4Kk2B24_to" transform="translate(490.059998,107.274998)"><line x1="494.18" y1="93.13" x2="485.94" y2="121.42" transform="translate(-490.059998,-107.274998)" fill="none" stroke="#4a5074" stroke-width="2" stroke-miterlimit="10"/></g><g id="eRDOTy4Kk2B25_to" transform="translate(283.744995,132.845001)"><line x1="295.33" y1="93.09" x2="272.16" y2="172.6" transform="translate(-283.745,-132.845)" fill="none" stroke="#3f4569" stroke-width="2" stroke-miterlimit="10"/></g><g id="eRDOTy4Kk2B26_to" transform="translate(373.581375,36.152531)"><path d="M192.07,-12.31q3.57,11.9,8.08,23.47c3,7.74,6.54,15.62,12.74,21.15c7.55,6.75,18,9.07,28.06,10.31c50.62,6.25,104.41-8.45,151.68,10.69c12,4.87,23.29,11.84,35.88,15c22.86,5.7,47.57-1.84,70.26,4.52c6.741639,2.043342,13.222055,4.865729,19.31,8.41c10.15,5.63,20.86,14,21.11,25.62c14.8-6.64,22.7-20.16,26.19-36c3.85-17.47,4.49-36.38-3-52.61-9-19.52-28.73-32.41-49.38-38.39s-42.5-6-64-6.12q-128.58-.74-257-8.21c-4.27-.25-9.31-.16-11.82,3.31-2.18,3.16-1.18,7.7,1.38,10.57s6.96,6.8,10.51,8.28Z" transform="translate(-373.581375,-36.152531)" fill="#333b60"/></g><g id="eRDOTy4Kk2B27_to" transform="translate(406.768555,-3.212799)"><path d="M208,-40.44c1.14,22,6,46.71,24.56,58.56c6.57,4.2,14.28,6.3,22,7.48c22,3.39,44.46-.26,66.74-1.08s46.09,1.74,63.7,15.48c11.94,9.32,20.29,23.28,33.87,30c20.57,10.18,44.76.48,67.18-4.47c34.61081-7.518796,70.744178-3.19054,102.6,12.29c13.77-18,18.66-40.1,16.33-62.62s-11.66-43.9-24.23-62.73c-7.57-11.34-16.65-22.15-28.64-28.64-17.71-9.6-39.05-8.55-59.16-7.23L267.56,-68.69c-11.11.73-24.36,2.87-28.85,13-1.3,3-1.64,6.23-2.79,9.23-4.06,10.64-18.99,13.05-27.92,6.02Z" transform="translate(-406.768555,3.212799)" fill="#3f4569"/></g><g id="eRDOTy4Kk2B28_to" transform="translate(449.64,20.613426)"><path d="M247.23,-41.11C232,-21.7,244.59,9.07,266,21.4s47.59,11.49,72.24,10.31l47.64-2.3c12.28-.59,25.58-.9,35.62,6.19c6.5,4.58,10.69,11.66,16,17.54c17.65,19.45,46,24.35,72.12,26.61c49.021924,4.24759,98.356827,3.262032,147.17-2.94c6-13.26-2.91-30.13-10.44-42.59C629,5.58,598.36,-13,566.27,-22.48s-65.93-10.95-99.37-12.34c-71.76-2.98-147.9-3.32-219.67-6.29Z" transform="translate(-449.64064,-20.613426)" fill="#4a5074"/></g></g><clipPath id="eRDOTy4Kk2B29"><rect width="512.47" height="155.65" rx="0" ry="0" fill="none"/></clipPath></g></svg>
