<svg id="Layer_1" data-name="Layer 1" xmlns="http://www.w3.org/2000/svg" viewBox="0 0 600 300"><defs><style>.cls-1{fill:#e18439;}.cls-2,.cls-3{fill:#fffde9;}.cls-3{font-size:29.28px;font-family:AkiraExpanded-SuperBold, Akira Expanded;font-weight:700;}.cls-4{letter-spacing:0.04em;}.cls-5{letter-spacing:0.05em;}.cls-6{letter-spacing:0.06em;}.cls-7{letter-spacing:-0.19em;}.cls-8{letter-spacing:0.07em;}</style></defs><rect class="cls-1" width="600" height="300"/><path class="cls-2" d="M215.77,121.58a36.85,36.85,0,0,0-17.45-13c-1-.34-1.61-.71-1.86-1.76a9,9,0,0,0-4.81-5.85,10.9,10.9,0,0,0-9.54.64,12.31,12.31,0,0,0-2.89,2.09,26.8,26.8,0,0,0-3.76,5c-3.44,5.58-6.22,11.85-7.05,18.4A26.93,26.93,0,0,1,161,143c-4,4.28-8.73,7.84-12.62,12.18-2.86,3.19-6.66,9-4.32,13.37,1,1.91,3,2.93,4.55,4.38a51.91,51.91,0,0,1,4.62,5.41c2.44,3.06,4,6.76,6.65,9.79,5.35,6.14,12.8,11.07,21.09,11.73s15.62-4.57,20.3-11a3.15,3.15,0,0,1,.67-.74c1.33-1,3.64-1.3,5.16-2.17a26,26,0,0,0,5-3.69,36.66,36.66,0,0,0,7.14-9.68C227.59,156.71,226.47,136.08,215.77,121.58ZM167.35,180.9c-8.2-3.8-8.25-14.37-7-22.15,8.26,11.94,33.53,6.28,39,16.91C188.33,172.85,178.33,185.18,167.35,180.9ZM206,183.63c.34-.6,18.45-32.77-5.8-60.7,0,0,2.77-4.54,10.07-4.06C210.3,118.87,236.11,153.89,206,183.63Z"/><path class="cls-2" d="M192.64,166.05h0a0,0,0,0,1,0,0Z"/><text class="cls-3" transform="translate(238.23 147.17)"><tspan class="cls-4">C</tspan><tspan class="cls-5" x="28.05" y="0">O</tspan><tspan class="cls-6" x="56.28" y="0">C</tspan><tspan x="84.72" y="0">K</tspan><tspan class="cls-7" x="112.94" y="0">A</tspan><tspan x="137.48" y="0">T</tspan><tspan class="cls-5" x="163.36" y="0">O</tspan><tspan x="191.59" y="0">O</tspan></text><text class="cls-3" transform="translate(238.23 172.1)">GA<tspan class="cls-8" x="56.78" y="0">N</tspan><tspan x="85.69" y="0">G</tspan></text></svg>