<svg id="Layer_1" data-name="Layer 1" xmlns="http://www.w3.org/2000/svg" xmlns:xlink="http://www.w3.org/1999/xlink" viewBox="0 0 600 300"><defs><style>.cls-1{fill:none;}.cls-2{clip-path:url(#clip-path);}.cls-3{fill:#eb5a2e;}.cls-4{fill:#eee;}</style><clipPath id="clip-path"><rect class="cls-1" x="634.65" width="1000" height="1000"/></clipPath></defs><g class="cls-2"><image width="2300" height="2100" transform="translate(587.03) scale(0.48)" xlink:href="../busCardMockup.jpg"/></g><rect class="cls-3" width="600" height="300"/><path class="cls-4" d="M219.08,113H191.8a6.35,6.35,0,0,0,2.84,4.44,10.35,10.35,0,0,0,5.78,1.53q5.19,0,9.58-4.6l7.84,8.62a20.38,20.38,0,0,1-7.78,5.75,27.22,27.22,0,0,1-11.25,2.22,22.93,22.93,0,0,1-11.16-2.72,19.74,19.74,0,0,1-7.82-7.69,23.88,23.88,0,0,1-.08-22.44,19.73,19.73,0,0,1,7.69-7.71,22.3,22.3,0,0,1,11.12-2.78,21.68,21.68,0,0,1,8.33,1.6,19.23,19.23,0,0,1,11,11.15,22.93,22.93,0,0,1,1.6,8.61A16.65,16.65,0,0,1,219.08,113Zm-24.94-12.34a6.69,6.69,0,0,0-2.3,4.09h12.94a9.36,9.36,0,0,0-.85-2.32,7,7,0,0,0-1.35-1.77,5.38,5.38,0,0,0-1.85-1.1,7,7,0,0,0-2.26-.37A6.64,6.64,0,0,0,194.14,100.64Z"/><path class="cls-4" d="M267.69,88.47v41.6H253.3v-3.9h-.12q-3.74,4.77-10.7,4.77a19.09,19.09,0,0,1-7.82-1.6,17.88,17.88,0,0,1-6.12-4.42,20.41,20.41,0,0,1-4-6.86,27.85,27.85,0,0,1,0-17.56,20.48,20.48,0,0,1,3.88-6.89,17.57,17.57,0,0,1,5.87-4.41,16.74,16.74,0,0,1,7.25-1.6,13.69,13.69,0,0,1,10.79,5h.12V88.47ZM251,115.34a9.71,9.71,0,0,0,0-12,6.71,6.71,0,0,0-5.2-2.35,6.79,6.79,0,0,0-5.31,2.33,9.81,9.81,0,0,0,0,12.08,6.81,6.81,0,0,0,5.31,2.31A6.73,6.73,0,0,0,251,115.34Z"/><path class="cls-4" d="M271.92,124.72l6.89-9.38q5.43,4.74,10.41,4.73c2,0,3.07-.56,3.07-1.7a1.45,1.45,0,0,0-.34-1,5,5,0,0,0-1.59-1,29.27,29.27,0,0,0-3.76-1.28c-1.49-.45-2.85-.92-4.08-1.43a21.9,21.9,0,0,1-3.59-1.93,13.89,13.89,0,0,1-2.92-2.57,11,11,0,0,1-1.89-3.36,12.5,12.5,0,0,1-.7-4.27,14,14,0,0,1,1.26-6,11.94,11.94,0,0,1,3.46-4.41,16,16,0,0,1,5.08-2.64,20.31,20.31,0,0,1,6.16-.91,29.09,29.09,0,0,1,6.16.62,25,25,0,0,1,5.18,1.72,32.55,32.55,0,0,1,4.92,2.93l-7,10.07a16.2,16.2,0,0,0-4.35-3.13,10.24,10.24,0,0,0-4.4-1.14,3.72,3.72,0,0,0-1.85.44,1.37,1.37,0,0,0-.76,1.26c0,.45.36.88,1.08,1.31a22.13,22.13,0,0,0,4.06,1.6c2,.66,3.75,1.28,5.12,1.84a25.86,25.86,0,0,1,3.88,2,10.88,10.88,0,0,1,2.86,2.53,10.58,10.58,0,0,1,1.62,3.24,14.6,14.6,0,0,1,.58,4.27,13.86,13.86,0,0,1-1.1,5.58,12.05,12.05,0,0,1-3.24,4.35,14.56,14.56,0,0,1-5.51,2.84,27,27,0,0,1-7.69,1A24.77,24.77,0,0,1,271.92,124.72Z"/><path class="cls-4" d="M352.34,88.47,331,146.86H316.26L323.31,127,307.38,88.47H323l7.05,19.7h.16l6.64-19.7Z"/><path class="cls-4" d="M175.71,190.25l6.88-9.37q5.43,4.73,10.41,4.73c2,0,3.07-.57,3.07-1.7a1.49,1.49,0,0,0-.33-1,5.28,5.28,0,0,0-1.6-1,26.84,26.84,0,0,0-3.75-1.29,38,38,0,0,1-4.09-1.43,21.49,21.49,0,0,1-3.59-1.92,13.92,13.92,0,0,1-2.92-2.58,11,11,0,0,1-1.89-3.35,12.52,12.52,0,0,1-.7-4.28,14,14,0,0,1,1.26-6,12,12,0,0,1,3.47-4.42,16.11,16.11,0,0,1,5.08-2.63,20.21,20.21,0,0,1,6.16-.91,29,29,0,0,1,6.15.62,24.32,24.32,0,0,1,5.19,1.72,32.37,32.37,0,0,1,4.91,2.92l-7,10.08a16,16,0,0,0-4.35-3.13,10.2,10.2,0,0,0-4.4-1.14,3.66,3.66,0,0,0-1.84.44,1.38,1.38,0,0,0-.77,1.26c0,.44.36.88,1.08,1.31a21.88,21.88,0,0,0,4.06,1.59c2.05.67,3.76,1.28,5.12,1.85a25.38,25.38,0,0,1,3.88,2,10.71,10.71,0,0,1,2.86,2.53,10.47,10.47,0,0,1,1.62,3.24,14.23,14.23,0,0,1,.58,4.27,13.77,13.77,0,0,1-1.1,5.57,12.09,12.09,0,0,1-3.23,4.36,14.68,14.68,0,0,1-5.52,2.84,27.38,27.38,0,0,1-7.69,1A24.69,24.69,0,0,1,175.71,190.25Z"/><path class="cls-4" d="M247.2,153.86a17.11,17.11,0,0,1,8.13,5.31,20.89,20.89,0,0,1,2.84,4.31,23.21,23.21,0,0,1,1.83,5.27,27.55,27.55,0,0,1,.64,6,25.23,25.23,0,0,1-2.45,11.3,18.31,18.31,0,0,1-6.84,7.67,18.72,18.72,0,0,1-10,2.71A13.09,13.09,0,0,1,231,192h-.13v20.4H215.73V154H231v4.19h.12a14,14,0,0,1,11.16-5.06A17.22,17.22,0,0,1,247.2,153.86Zm-3.94,27a9.82,9.82,0,0,0,0-12.09,6.81,6.81,0,0,0-5.3-2.32,7.23,7.23,0,0,0-5.52,2.32,9.54,9.54,0,0,0,0,12.09,7.22,7.22,0,0,0,5.52,2.3A6.79,6.79,0,0,0,243.26,180.9Z"/><path class="cls-4" d="M306.63,178.52H279.35a6.34,6.34,0,0,0,2.84,4.44,10.35,10.35,0,0,0,5.78,1.53q5.19,0,9.58-4.6l7.84,8.62a20.38,20.38,0,0,1-7.78,5.75,27.23,27.23,0,0,1-11.26,2.21,22.91,22.91,0,0,1-11.15-2.71,19.8,19.8,0,0,1-7.82-7.69,23.88,23.88,0,0,1-.08-22.44,19.73,19.73,0,0,1,7.69-7.71,22.2,22.2,0,0,1,11.12-2.78,21.86,21.86,0,0,1,8.33,1.59,19.28,19.28,0,0,1,11,11.16,22.93,22.93,0,0,1,1.6,8.61A16.65,16.65,0,0,1,306.63,178.52Zm-24.94-12.34a6.67,6.67,0,0,0-2.3,4.09h12.94a9.44,9.44,0,0,0-.85-2.33,6.9,6.9,0,0,0-1.35-1.76,5.38,5.38,0,0,0-1.85-1.1,7.1,7.1,0,0,0-6.59,1.1Z"/><path class="cls-4" d="M355.24,154V195.6H340.85v-3.89h-.12q-3.74,4.77-10.7,4.76a19.08,19.08,0,0,1-7.82-1.59,18,18,0,0,1-6.12-4.42,20.34,20.34,0,0,1-4-6.86,27.85,27.85,0,0,1,0-17.56,20.48,20.48,0,0,1,3.88-6.89,17.73,17.73,0,0,1,5.87-4.42,16.87,16.87,0,0,1,7.25-1.59,13.71,13.71,0,0,1,10.79,5H340V154Zm-16.65,26.87a9.73,9.73,0,0,0,0-12,6.71,6.71,0,0,0-5.21-2.34,6.81,6.81,0,0,0-5.3,2.32,9.82,9.82,0,0,0,0,12.09,6.79,6.79,0,0,0,5.3,2.3A6.72,6.72,0,0,0,338.59,180.88Z"/><path class="cls-4" d="M380.87,181.46l-3.15,3.61V195.6H362.54V133.07h15.18v32.18h.12L387.47,154h17.41L391,169.93l14.39,25.67H388.63L381,181.46Z"/><path class="cls-4" d="M410.17,194.09a7.83,7.83,0,0,1-2.42-5.78,7.69,7.69,0,0,1,2.44-5.71,8.36,8.36,0,0,1,11.68,0,7.7,7.7,0,0,1,2.42,5.71,7.79,7.79,0,0,1-2.42,5.78,8.38,8.38,0,0,1-11.7,0Z"/></svg>