<svg id="Layer_1" data-name="Layer 1" xmlns="http://www.w3.org/2000/svg" viewBox="0 0 600 300"><defs><style>.cls-1{fill:#203c3c;}.cls-2{fill:#f4f0df;}</style></defs><rect class="cls-1" width="600" height="300"/><path class="cls-2" d="M116.17,131.71V121.66l-5.24-4.79-20,1.82-5.2,5.69v18.55l5.2,4.73L103,146.57l1.78,1.28v5.78L103,155.22l-4.2.38-1.74-1.28v-3.71l-11.37,1v10.05L91,166.47l20-1.81,5.2-5.68V140.41l-5.2-4.73-12.09,1.1-1.78-1.27v-5.79l1.76-1.58,4.2-.38L104.8,129v3.72Z"/><path class="cls-2" d="M155.05,150.51l-5.61-27,2.85-.26V113.11l-25.78,2.34v10.18l2.84-.26-5.6,28-2.84.26v10.17L138,162.22V152.05l-2.83.26.74-4.39,7-.64.76,4.26-2.85.25V162l17.08-1.54V150.25Zm-18-9.18,2.39-14,2.39,13.59Z"/><path class="cls-2" d="M202.43,118.74V108.55l-17.08,1.56v10.18l.79-.07-4.34,9-4.24.38V121l2.85-.26V110.56l-17.07,1.55v10.18l2.83-.26V149.5l-2.84.26v10.17l17.07-1.55V148.21l-2.84.26v-8.66l4.24-.38,4.34,8.26-.79.07v10.18l17.08-1.55V146.22l-4.94.44-6.88-13.11,6.88-14.36Z"/><path class="cls-2" d="M242.08,142.63l-5.62-27,2.84-.26V105.2l-25.81,2.35v10.18l2.84-.25-5.6,28-2.85.26V155.9L225,154.35V144.17l-2.84.26.75-4.39,7-.64.76,4.26-2.86.26v10.17l17.1-1.54V142.37ZM224,133.45l2.39-14L228.8,133Z"/><path class="cls-2" d="M284.58,138.78V127.63l-2.6-2.36,2.61-2.85V106.36l-5.27-4.79-29,2.63v10.19l2.84-.26v27.49l-2.85.26v10.18l14.26-1.29V131.92l6.8-.61,1.76,1.28V150l14.25-1.29V138.52Zm-11.4-19.24-1.76,1.59-6.8.61v-8.65l6.81-.62,1.75,1.27Z"/><path class="cls-2" d="M329.85,107.13l0-10.18-17.12,1.57,0,10.19,1.48-.14-4.31,9-4.32-8.22,1.48-.13V99l-17.11,1.58V110.8l4.26-.39,10,19V137l-2.84.26v10.18l17.12-1.57V135.69l-2.85.26v-7.58l10-20.85Z"/><path class="cls-2" d="M365.11,131.49l-5.64-27,2.86-.26V94l-25.87,2.35v10.2l2.84-.26-5.61,28-2.85.26v10.19L348,143.23V133l-2.85.26.76-4.4,7.05-.64.76,4.26-2.86.26V143L368,141.42V131.23ZM347,122.3l2.4-14,2.39,13.61Z"/><path class="cls-2" d="M106.43,170.94v10.17l2.84-.26,0,26-1.74,1.59-5,.45-1.75-1.27,0-26,2.85-.26V171.2l-17,1.54v10.17l2.85-.26v32.42l5.18,4.74,20.88-1.88,5.19-5.67V179.83l2.84-.26V169.4Z"/><path class="cls-2" d="M165.9,175.74V165.57l-14.24,1.29v21.86l-9.11-21-13.64,1.23v10.17l2.84-.26v27.47l-2.84.26v10.17l14.23-1.28V195l8.53,19.7,14.23-1.28V203.22l-2.84.25V176Z"/><path class="cls-2" d="M188.48,163.53l-17.09,1.54v10.17l2.85-.25v27.48l-2.85.25V212.9l17.09-1.54V201.18l-2.84.26V174l2.85-.26Z"/><path class="cls-2" d="M216.69,161v10.17l1.44-.13-4.26,25-4.28-24.25,1.45-.13V161.49L194,163v10.18l4.24-.39,5.62,27-2.85.26v10.18l25.81-2.33V197.74l-2.84.25,5.6-28,4.25-.38V159.43Z"/><path class="cls-2" d="M272.65,171.25V155.92l-33.37,3v10.18l2.84-.25v27.49l-2.85.26v10.18l33.37-3V188.45l-11.39,1v5.15l-7.72.69v-8.66l7.72-.69V175.79l-7.72.69v-8.66l7.72-.69v5.15Z"/><path class="cls-2" d="M312.33,190V178.87l-2.6-2.37,2.61-2.84V157.6l-5.27-4.79-29,2.61v10.19l2.84-.26v27.51l-2.85.25v10.18L292.37,202V183.16l6.79-.61,1.78,1.28v17.41L315.18,200V189.77Zm-11.39-19.26-1.78,1.6-6.79.61v-8.66l6.81-.62,1.76,1.28Z"/><path class="cls-2" d="M351.25,164.15V154.09l-5.26-4.8-20.07,1.81-5.23,5.7v18.6l5.23,4.74,12.13-1.09,1.79,1.27v5.8l-1.76,1.59-4.22.38-1.75-1.28V183.1l-11.42,1v10.07L326,199,346,197.18l5.21-5.69V172.88L346,168.14l-12.14,1.09L332.11,168v-5.8l1.76-1.59,4.22-.38,1.75,1.27v3.72Z"/><path class="cls-2" d="M373.91,146.76l-17.15,1.55V158.5l2.85-.26v27.53l-2.85.26v10.18l17.15-1.54V184.48l-2.86.26V157.21l2.87-.26Z"/><path class="cls-2" d="M379.39,146.27v15.34l10-.9v-5.15l2.86-.26v27.53l-2.86.26v10.19l17.16-1.54v-10.2l-2.86.26V154.26l2.86-.25v5.15l10-.9V142.91Z"/><path class="cls-2" d="M455.47,154.74V139.39l-33.48,3v10.19l2.86-.26v27.54l-2.87.26v10.2l33.48-3V172L444,173v5.15l-7.74.7v-8.67l7.74-.7v-10.2l-7.74.7v-8.67l7.74-.7v5.16Z"/><path class="cls-2" d="M491.57,151.49V141.41l-5.28-4.81-20.13,1.82-5.22,5.7v18.63l5.22,4.75,12.16-1.1,1.81,1.27v5.81l-1.78,1.59-4.22.38-1.76-1.27v-3.73l-11.43,1v10.07l5.27,4.81,20.13-1.82,5.23-5.7V160.23l-5.23-4.75-12.16,1.09-1.81-1.27v-5.8l1.78-1.6,4.22-.38,1.76,1.27v3.73Z"/><path class="cls-2" d="M514.27,134.07l-17.18,1.56v10.2l2.85-.26v27.56l-2.85.26v10.2L514.27,182v-10.2l-2.85.25V144.54l2.86-.26Z"/><path class="cls-2" d="M428.25,105.11l-2.1.19-.88.79V109l.88.63,3-.27v-3.62Zm0,0-2.1.19-.88.79V109l.88.63,3-.27v-3.62ZM373.82,93v47.94l140.45-12.71v-48Zm34.12,32.84-8.55.78v-5.1l1.42-.12V107.6l-1.42.13v-5.09l7.13-.65v18.84l1.42-.13Zm26.91-5-2.61,2.84-10,.91-2.63-2.4v-5l5.7-.51v1.86l.88.63,2.1-.19.89-.79v-3.62l-6.94.63-2.63-2.4v-9.24l2.63-2.87,10-.91,2.61,2.37Zm26.9-18.68-5.29,14.23,1.77-.16v5.1l-10,.9v-5.09l2.5-.23,5.3-14.23-3.86.35v2.58l-5.72.51V98.37L461.75,97Zm26.9,13.78L486,118.72l-10.06.91-2.6-2.37V98.53l2.6-2.84L486,94.77l2.63,2.4Zm-9.58-1.6,3.87-.35V100.15l-3.87.35Zm-52.92-9-.88.79V109l.88.63,3-.27v-3.62l-.89-.63Zm2.1-.19-2.1.19-.88.79V109l.88.63,3-.27v-3.62Zm0,0-2.1.19-.88.79V109l.88.63,3-.27v-3.62Z"/></svg>