<svg id="Layer_1" data-name="Layer 1" xmlns="http://www.w3.org/2000/svg" xmlns:xlink="http://www.w3.org/1999/xlink" viewBox="0 0 600 300"><defs><style>.cls-1{fill:none;}.cls-2{clip-path:url(#clip-path);}.cls-3{fill:#557571;}.cls-4{fill:#d49a89;}</style><clipPath id="clip-path"><rect class="cls-1" x="634.65" width="1000" height="1000"/></clipPath></defs><g class="cls-2"><image width="4000" height="3200" transform="translate(509.65) scale(0.31)" xlink:href="../../../../portfolio/PaperPack/buscard.jpg"/></g><rect class="cls-3" width="600" height="300"/><path class="cls-4" d="M303.92,114.72,287.38,78.94H194.13l-75.6,130.88h36l20.58-35.62h57.25L249,209.82h35.94l34.71-60Zm-34.3,59.33-16.54-35.79H195.83l13.49-23.38h57.32l16.59,35.62Z"/><path class="cls-4" d="M349.44,125.33a12.73,12.73,0,0,1,9.28,3.71,12.92,12.92,0,0,1,0,18.22,12.69,12.69,0,0,1-9.28,3.71h-6.71v12.55H335.2V125.33Zm0,18.61a5.25,5.25,0,0,0,4-1.67,6.16,6.16,0,0,0,0-8.26,5.26,5.26,0,0,0-4-1.64h-6.71v11.57Z"/><path class="cls-4" d="M386,136.24h7v27.28h-7V160.3a10.72,10.72,0,0,1-8.9,4,12.37,12.37,0,0,1-9.35-4.18,15.37,15.37,0,0,1,0-20.46,12.36,12.36,0,0,1,9.35-4.17,10.74,10.74,0,0,1,8.9,4Zm-13,19.18a7.26,7.26,0,0,0,5.4,2.15,7.36,7.36,0,0,0,5.43-2.15,8.18,8.18,0,0,0,0-11.08,7.39,7.39,0,0,0-5.43-2.15,7.29,7.29,0,0,0-5.4,2.15,8.27,8.27,0,0,0,0,11.08Z"/><path class="cls-4" d="M415.29,135.48a12.45,12.45,0,0,1,9.42,4.17,15.37,15.37,0,0,1,0,20.46,12.46,12.46,0,0,1-9.42,4.18,10.53,10.53,0,0,1-8.83-4v14.13h-7V136.24h7v3.22A10.55,10.55,0,0,1,415.29,135.48Zm-6.71,19.94a7.89,7.89,0,0,0,10.83,0,8.18,8.18,0,0,0,0-11.08,7.89,7.89,0,0,0-10.83,0,8.3,8.3,0,0,0,0,11.08Z"/><path class="cls-4" d="M439.52,152.77q1.41,5.13,7.69,5.13a7.19,7.19,0,0,0,6.11-2.73l5.68,3.28q-4,5.84-11.9,5.84-6.77,0-10.86-4.1a14.39,14.39,0,0,1,10.32-24.71,13,13,0,0,1,9.9,4.14,14.42,14.42,0,0,1,3.9,10.26,16.54,16.54,0,0,1-.27,2.89Zm-.11-5.45h13.91a6.61,6.61,0,0,0-2.48-4.15,7.11,7.11,0,0,0-4.28-1.36,7.44,7.44,0,0,0-4.7,1.44A7,7,0,0,0,439.41,147.32Z"/><path class="cls-4" d="M472.31,140.93a7.31,7.31,0,0,1,3.24-3.92,9.85,9.85,0,0,1,5.05-1.31v7.85a8.37,8.37,0,0,0-5.76,1.31q-2.54,1.69-2.53,5.62v13h-7V136.24h7Z"/><path class="cls-4" d="M349.44,168.52a12.73,12.73,0,0,1,9.28,3.71,12.93,12.93,0,0,1,0,18.23,12.73,12.73,0,0,1-9.28,3.71h-6.71v12.54H335.2V168.52Zm0,18.61a5.25,5.25,0,0,0,4-1.67,6.16,6.16,0,0,0,0-8.26,5.3,5.3,0,0,0-4-1.64h-6.71v11.57Z"/><path class="cls-4" d="M386,179.43h7v27.28h-7V203.5a10.74,10.74,0,0,1-8.9,4,12.34,12.34,0,0,1-9.35-4.18,15.37,15.37,0,0,1,0-20.46,12.36,12.36,0,0,1,9.35-4.17,10.74,10.74,0,0,1,8.9,4Zm-13,19.18a7.26,7.26,0,0,0,5.4,2.16,7.36,7.36,0,0,0,5.43-2.16,8.17,8.17,0,0,0,0-11.07,7.36,7.36,0,0,0-5.43-2.16,7.26,7.26,0,0,0-5.4,2.16,8.26,8.26,0,0,0,0,11.07Z"/><path class="cls-4" d="M412.4,207.48a14.41,14.41,0,1,1,0-28.81,14.16,14.16,0,0,1,7.26,1.91,12.61,12.61,0,0,1,5,5.13l-6.05,3.54a6.28,6.28,0,0,0-2.49-2.67,7.24,7.24,0,0,0-3.73-1,7.05,7.05,0,0,0-5.24,2.1,7.94,7.94,0,0,0,0,10.69,7.05,7.05,0,0,0,5.24,2.1,7.43,7.43,0,0,0,3.79-1,6,6,0,0,0,2.48-2.65l6.11,3.49a13.64,13.64,0,0,1-5.07,5.16A14,14,0,0,1,412.4,207.48Z"/><path class="cls-4" d="M453.59,206.71h-8.18l-9.93-12.39v12.39h-7V168.52h7v23l9.38-12h8.41l-11,13.48Z"/></svg>