<svg id="Layer_1" data-name="Layer 1" xmlns="http://www.w3.org/2000/svg" viewBox="0 0 600 300"><defs><style>.cls-1{fill:#0e5135;}.cls-2{fill:#d4ce46;}</style></defs><rect class="cls-1" width="600" height="300"/><polygon class="cls-2" points="196.58 154.13 196.58 187.72 213.74 187.72 213.74 177.74 206.83 177.74 206.83 165.1 226.38 165.1 226.38 200.35 183.94 200.35 183.94 141.5 226.38 141.5 226.38 154.13 196.58 154.13"/><polygon class="cls-2" points="276.08 141.5 276.08 200.35 233.65 200.35 233.65 141.5 246.28 141.5 246.28 187.72 263.45 187.72 263.45 141.5 276.08 141.5"/><polygon class="cls-2" points="226.38 79.28 200.04 112.66 226.38 112.66 226.38 125.29 183.94 125.29 183.94 112.66 210.28 79.28 183.94 79.28 183.94 66.65 226.38 66.65 226.38 79.28"/><polygon class="cls-2" points="246.28 79.28 246.28 88.01 272.27 88.01 272.27 100.64 246.28 100.64 246.28 112.66 276.08 112.66 276.08 125.29 233.65 125.29 233.65 66.65 276.08 66.65 276.08 79.28 246.28 79.28"/><path class="cls-2" d="M355.13,66.65H327v58.64h28.15l14.27-15.15h0V81.79Zm-14.8,12.63h9l6.74,7.13v19.1l-6.82,7.21h-8.91Z"/><path class="cls-2" d="M331.53,141.5H303.38v58.65h28.15L345.81,185h0V156.65Zm.93,38.86-7,7.46h-8.68v-34h8.69l7,7.45Z"/><path class="cls-2" d="M296.11,207.77V79.28l-6.32-12.63-6.32,12.63V207.77h-7.39v7.3h7.39v18.28h12.64V215.07h7.27v-7.3Zm-1.75,23.84h-9.14v-3h9.14Zm0-4.73h-9.14V224h9.14Zm0-4.68h-9.14v-2.69h9.14Zm0-4.44h-9.14v-2.69h9.14Zm7.27-4.44h-23.8v-3.8h5.64l6.29-3,6.35,3h5.52Z"/><rect class="cls-2" x="298.49" y="112.65" width="21.22" height="12.63"/><polygon class="cls-2" points="365.71 154.13 365.71 162.86 391.7 162.86 391.7 175.5 365.71 175.5 365.71 187.51 395.51 187.51 395.51 200.15 353.08 200.15 353.08 141.5 395.51 141.5 395.51 154.13 365.71 154.13"/><rect class="cls-2" x="389.12" y="155.78" width="41.21" height="12.63" transform="translate(571.83 -247.63) rotate(90)"/><rect class="cls-2" x="403.42" y="187.72" width="12.63" height="12.63" transform="translate(603.78 -215.7) rotate(90)"/><path class="cls-2" d="M408.19,66.65h-26.7l-7.87,58.64H387l2.08-15.56h11.56l2.09,15.56h13.34ZM390.76,97.1l2.39-17.82h3.39l2.38,17.82Z"/></svg>