<svg id="Layer_1" data-name="Layer 1" xmlns="http://www.w3.org/2000/svg" xmlns:xlink="http://www.w3.org/1999/xlink" viewBox="0 0 1000 1000"><defs><style>.cls-1{fill:none;}.cls-2{fill:#fffde9;}.cls-3{clip-path:url(#clip-path);}.cls-4{fill:#e18439;}.cls-5{fill:#fff;}</style><clipPath id="clip-path"><rect class="cls-1" x="1050.35" width="1000" height="1000"/></clipPath></defs><rect class="cls-2" width="1000" height="1000"/><g class="cls-3"><image width="4000" height="3500" transform="translate(978.92) scale(0.29)" xlink:href="../../../../Cockatoo%20Gang/Logo/hoodieMockup.jpg"/></g><path class="cls-4" d="M615.81,396.18c-15.87-21.45-38.29-39.09-63.72-47.63-3.68-1.24-5.91-2.61-6.82-6.45a33,33,0,0,0-17.56-21.37c-11.09-5.13-24.44-3.22-34.85,2.34a44.6,44.6,0,0,0-10.56,7.65,99.24,99.24,0,0,0-13.74,18.18c-12.57,20.4-22.72,43.28-25.75,67.23-2.9,23.09-10.93,41-26.94,58.22C401.32,490,384,503,369.77,518.86c-10.44,11.63-24.33,32.82-15.76,48.82,3.76,7,11,10.71,16.62,16,6.2,5.88,11.55,13.08,16.86,19.77,8.92,11.19,14.66,24.7,24.3,35.76,19.55,22.42,46.78,40.44,77,42.86S545.91,665.36,563,642a12,12,0,0,1,2.44-2.72c4.86-3.65,13.32-4.75,18.88-7.92a95.82,95.82,0,0,0,18.18-13.5c10.71-10.07,19.39-22.58,26.1-35.37C659,524.5,654.93,449.16,615.81,396.18ZM438.94,612.87C409,599,408.81,560.38,413.27,532c30.15,43.6,122.47,22.93,142.39,61.78C515.57,583.47,479.05,628.52,438.94,612.87Zm141.32,10c1.23-2.2,67.37-119.73-21.22-221.74,0,0,10.13-16.59,36.82-14.85C595.86,386.27,690.13,514.19,580.26,622.86Z"/><path class="cls-5" d="M435,452.91l-.09,0a.07.07,0,0,1,0-.06Z"/><path d="M203.59,327.92c24.07,11.38,23.09,36,12.87,62.37-10.69,27.47-27.43,47.08-55.15,36.23L156,424.45c-27.75-10.61-26.94-36.38-16.41-63.92,10.27-26.38,26.09-45.22,51.49-37.46l-11.33,29.29c-8.23-.11-13.07,7.36-16.87,17.18-4.35,11.74-6.12,22.47,6,27l1.8.7c11.88,4.78,17.91-4.3,22.59-15.91,3.79-9.82,5.21-18.68-1-24.08Z"/><path d="M274,229.94l4.3,3.79c22.4,19.53,12.86,43.4-6.61,65.62s-42,34.7-64.28,15l-4.31-3.79c-22.44-19.58-12.85-43.4,6.65-65.67S251.69,210.31,274,229.94ZM255.17,254.2c-9.51-8.6-18.29-2.15-26.69,7.14-8.18,9.56-13.45,19.1-3.72,27.43l1.45,1.27c9.55,8.63,18.34,2.18,26.78-7.14,8.13-9.52,13.41-19.06,3.63-27.43Z"/><path d="M386,176.73c11,24.27-5.71,42.36-30.6,55.85-25.95,14-51.41,18.09-65.5-8.14l-2.73-5c-14.26-26.07,3.06-45.17,28.92-59.32,24.92-13.45,49.17-17.55,63.5,4.83l-27.61,15c-6.2-5.43-14.73-2.87-24,2.15-10.92,6.12-19.22,13.15-12.9,24.43l.92,1.7c5.95,11.34,16.42,8.33,27.51,2.51,9.26-5,16.08-10.84,14.87-19Z"/><path d="M431.08,173.4,434.54,200,404.14,204,394,126l30.4-4,3.46,26.63L441.15,147l25.15-30.35,39.91-5.19-35.37,44.24,45.5,33.74-39.91,5.18-32.06-22.91Z"/><path d="M571.91,121.9l35.45,8.47,22.75,86.28-33.57-8-2.9-14.53L555.35,185l-9.16,11.65-33.57-8Zm-3.46,46.45,21,5-5.07-25.09Z"/><path d="M637.77,226.54l26.57-46.66-31.67-18L645,140.19l90,51.24-12.33,21.65-31.67-18L664.4,241.71Z"/><path d="M796.38,309.77l-4.29,3.8c-22.19,19.77-44.67,7.32-64.28-14.77s-29.15-46.05-6.81-65.65l4.29-3.8c22.23-19.8,44.67-7.32,64.32,14.82S818.65,290.09,796.38,309.77Zm-21.7-21.72c9.71-8.36,4.42-17.88-3.74-27.38-8.46-9.3-17.27-15.73-26.75-7.11l-1.45,1.28c-9.75,8.39-4.45,17.91,3.74,27.45,8.43,9.26,17.23,15.69,26.75,7Z"/><path d="M844,424.35l-5.34,2.07c-27.67,10.84-44.44-8.63-55.17-36.16s-11.37-53.32,16.39-63.94l5.34-2.07c27.73-10.87,44.44,8.63,55.19,36.21S871.74,413.61,844,424.35Zm-12.82-27.91c12-4.47,10.35-15.24,6-27-4.71-11.66-10.74-20.74-22.62-15.95l-1.8.7c-12.06,4.48-10.4,15.25-6,27.05,4.69,11.61,10.72,20.69,22.65,15.88Z"/><path d="M327.91,797.67l46.21,26.79-22.62,39-13.26-7.69,4.81-11.34c-12.41,3.22-26-1-37.56-7.64-25.55-14.95-42.22-34.49-27.21-60.14l2.87-5c14.84-25.82,40.07-21.06,65.71-6.27,23.59,13.68,39.3,31.37,30.14,54.06l-28.19-16.35a14.48,14.48,0,0,0-4.57-8.8,48.71,48.71,0,0,0-9.88-7.34c-11-6.16-21.35-9.48-27.63,1.7l-1,1.67c-6.64,11.09,1.46,18.36,12.25,24.82,10.48,6.07,17.51,9.34,24.5,6.49l-21.36-12.38Z"/><path d="M427.58,800.48l35.88,6.38,27.74,84.79-34-6-3.75-14.33-38.75-6.9-8.46,12.16-34-6ZM426.83,847l21.25,3.79-6.52-24.75Z"/><path d="M575,800l30.27-5.16,13.23,77.5-34,5.8L534.75,838l8.08,47.34-30.21,5.15L499.39,813l41.58-7.1,41,35.25Z"/><path d="M671.7,797.89,718,771.17l22.57,39.05-13.28,7.67-7.43-9.82c-3.4,12.36-13.79,22.08-25.34,28.76-25.7,14.71-50.94,19.42-65.71-6.37l-2.87-5c-15-25.73,1.71-45.24,27.31-60.1,23.61-13.64,46.78-18.44,61.88.8l-28.21,16.3a14.41,14.41,0,0,0-9.91-.42,49.05,49.05,0,0,0-11.29,4.9c-10.81,6.44-18.85,13.8-12.29,24.8l1,1.67c6.32,11.29,16.65,7.89,27.63,1.75,10.49-6.06,16.82-10.53,17.84-18l-21.38,12.35Z"/></svg>