<svg id="Layer_1" data-name="Layer 1" xmlns="http://www.w3.org/2000/svg" xmlns:xlink="http://www.w3.org/1999/xlink" viewBox="0 0 1000 1000"><defs><style>.cls-1{fill:none;}.cls-2{clip-path:url(#clip-path);}.cls-3,.cls-4{fill:#fffde9;}.cls-4{font-size:62.04px;font-family:AkiraExpanded-SuperBold, Akira Expanded;font-weight:700;}.cls-5{letter-spacing:0.04em;}.cls-6{letter-spacing:0.05em;}.cls-7{letter-spacing:0.06em;}.cls-8{letter-spacing:-0.19em;}.cls-9{letter-spacing:0em;}.cls-10{letter-spacing:0.07em;}.cls-11{font-size:41.36px;font-family:Trenda-BlackIt, Trenda;font-weight:800;font-style:italic;}.cls-12{letter-spacing:-0.03em;}.cls-13{letter-spacing:-0.01em;}.cls-14{letter-spacing:-0.01em;}.cls-15{letter-spacing:-0.02em;}.cls-16{letter-spacing:0em;}.cls-17{letter-spacing:-0.01em;}.cls-18{letter-spacing:-0.01em;}.cls-19{letter-spacing:-0.02em;}.cls-20{letter-spacing:-0.01em;}</style><clipPath id="clip-path"><rect class="cls-1" x="-1050.35" width="1000" height="1000"/></clipPath></defs><g class="cls-2"><image width="4000" height="3200" transform="translate(-1175.35) scale(0.31)" xlink:href="../../../../portfolio/Cockatoo%20Gang/yuvStickerMockup.jpg"/></g><rect class="cls-3" width="1000" height="1000"/><path d="M734.35,802.94H275.44v7.57h-9.79v92h462V891.91h6.74Zm-41.74,57.31H682L677.17,854h-8.91v6.23h-10V834.67h24.65a9.66,9.66,0,0,1,9.68,9.67,9.41,9.41,0,0,1-1.54,5.24,9.59,9.59,0,0,1-4,3.5ZM653,844.51v5.92H633v3.27h20v6.58H623V834.69h30v6.55H633v3.27Zm-32.65-.15a9.66,9.66,0,0,1-9.67,9.67H596v6.25H586V834.69h24.65A9.65,9.65,0,0,1,620.34,844.36Zm-60.67-9.67h11.86l13.73,25.59H574l-2-4.39H559.19l-2,4.39H545.94Zm-19,19.34H526v6.25H516V834.69h24.67a9.67,9.67,0,0,1,0,19.34Zm-44.46-9.52v5.92h-20v3.27h20v6.58H466.25V834.69H496.2v6.55h-20v3.27Zm-67-1.71v-8.11h33.69v8.11H451.06v17.48h-10V842.8Zm-3.13-8.15v25.59h-10V834.65ZM385.34,851.5v8.74h-10V834.65h10v8.74h15v-8.74h10v25.59h-10V851.5Zm-10.73-16.81-11.24,25.59H351.52l-5.62-12.8-5.62,12.8H328.42l-11.23-25.59h11.23l5.92,16.2,5.94-16.2h11.24l5.92,16.2,5.93-16.2Zm349.95,64.79H268.71V813.56h6.73v78.35H724.56Z"/><path d="M680.43,842.15H668.26v4.36h12.17a2.19,2.19,0,0,0,2.19-2.17A2.18,2.18,0,0,0,680.43,842.15Z"/><path d="M538.16,842.17H526v4.36h12.19a2.17,2.17,0,0,0,1.52-3.72A2,2,0,0,0,538.16,842.17Z"/><path d="M608.18,842.17H596v4.36h12.18a2.17,2.17,0,0,0,1.52-3.72A2,2,0,0,0,608.18,842.17Z"/><polygon points="565.61 842.09 562.09 849.65 569.11 849.65 565.61 842.09"/><rect width="1000" height="464.67"/><path class="cls-3" d="M322.15,171.36c-9.32-12.6-22.48-23-37.42-28-2.16-.72-3.47-1.53-4-3.78A19.39,19.39,0,0,0,270.41,127c-6.51-3-14.35-1.89-20.47,1.38a26.24,26.24,0,0,0-6.2,4.49,58.29,58.29,0,0,0-8.07,10.68c-7.38,12-13.34,25.42-15.13,39.49-1.7,13.56-6.41,24.09-15.81,34.19-8.55,9.19-18.72,16.82-27.08,26.14-6.14,6.83-14.29,19.28-9.26,28.68,2.21,4.1,6.48,6.29,9.76,9.39,3.65,3.46,6.79,7.68,9.91,11.61,5.23,6.58,8.61,14.51,14.27,21,11.48,13.17,27.47,23.75,45.25,25.17s33.52-9.81,43.55-23.55a7.28,7.28,0,0,1,1.44-1.59c2.85-2.15,7.82-2.79,11.09-4.65a56.14,56.14,0,0,0,10.67-7.94,78.72,78.72,0,0,0,15.33-20.77C347.53,246.73,345.13,202.47,322.15,171.36ZM218.27,298.63c-17.6-8.14-17.69-30.83-15.07-47.52,17.71,25.61,71.93,13.47,83.63,36.29C263.28,281.36,241.84,307.82,218.27,298.63Zm83,5.86c.73-1.29,39.57-70.32-12.45-130.23,0,0,5.94-9.75,21.62-8.72C310.44,165.54,365.81,240.67,301.27,304.49Z"/><path class="cls-3" d="M316.5,260.19h-.05a0,0,0,0,1,0,0Z"/><text class="cls-4" transform="translate(370.36 226.26)"><tspan class="cls-5">C</tspan><tspan class="cls-6" x="59.44" y="0">O</tspan><tspan class="cls-7" x="119.27" y="0">C</tspan><tspan x="179.53" y="0">K</tspan><tspan class="cls-8" x="239.33" y="0">A</tspan><tspan class="cls-9" x="291.35" y="0">T</tspan><tspan class="cls-6" x="346.18" y="0">O</tspan><tspan x="406.01" y="0">O</tspan></text><text class="cls-4" transform="translate(370.36 279.76)">GA<tspan class="cls-10" x="120.33" y="0">N</tspan><tspan x="181.59" y="0">G</tspan></text><text class="cls-11" transform="translate(180.81 641.66)"><tspan class="cls-12">A</tspan><tspan x="26.97" y="0" xml:space="preserve"> g</tspan><tspan class="cls-13" x="58.86" y="0">r</tspan><tspan x="74.16" y="0">oup </tspan><tspan class="cls-14" x="151.67" y="0">o</tspan><tspan class="cls-15" x="173.85" y="0">f</tspan><tspan class="cls-16" x="189.56" y="0" xml:space="preserve"> wild sophisti</tspan><tspan class="cls-17" x="432.15" y="0">c</tspan><tspan x="449.81" y="0">a</tspan><tspan class="cls-18" x="473.14" y="0">t</tspan><tspan x="491.42" y="0">ed bi</tspan><tspan class="cls-13" x="578.99" y="0">r</tspan><tspan x="594.29" y="0">ds</tspan><tspan x="128.82" y="37.57">ha</tspan><tspan class="cls-19" x="175.56" y="37.57">v</tspan><tspan x="196.7" y="37.57">e </tspan><tspan class="cls-17" x="226.85" y="37.57">c</tspan><tspan x="244.51" y="37.57">ome </tspan><tspan class="cls-18" x="332.16" y="37.57">t</tspan><tspan x="350.44" y="37.57">og</tspan><tspan class="cls-20" x="396.1" y="37.57">e</tspan><tspan x="417.24" y="37.57">ther!</tspan></text></svg>