<svg id="Layer_1" data-name="Layer 1" xmlns="http://www.w3.org/2000/svg" xmlns:xlink="http://www.w3.org/1999/xlink" viewBox="0 0 1000 1000"><defs><style>.cls-1{fill:none;}.cls-2{clip-path:url(#clip-path);}.cls-3{fill:#fffde9;}</style><clipPath id="clip-path"><rect class="cls-1" x="-1050.35" width="1000" height="1000"/></clipPath></defs><g class="cls-2"><image width="4000" height="3200" transform="translate(-1175.35) scale(0.31)" xlink:href="../../../../portfolio/Cockatoo%20Gang/yuvStickerMockup.jpg"/></g><rect class="cls-3" width="1000" height="1000"/><path d="M734.35,802.94H275.44v7.57h-9.79v92h462V891.91h6.74Zm-41.74,57.31H682L677.17,854h-8.91v6.23h-10V834.67h24.65a9.66,9.66,0,0,1,9.68,9.67,9.41,9.41,0,0,1-1.54,5.24,9.59,9.59,0,0,1-4,3.5ZM653,844.51v5.92H633v3.27h20v6.58H623V834.69h30v6.55H633v3.27Zm-32.65-.15a9.66,9.66,0,0,1-9.67,9.67H596v6.25H586V834.69h24.65A9.65,9.65,0,0,1,620.34,844.36Zm-60.67-9.67h11.86l13.73,25.59H574l-2-4.39H559.19l-2,4.39H545.94Zm-19,19.34H526v6.25H516V834.69h24.67a9.67,9.67,0,0,1,0,19.34Zm-44.46-9.52v5.92h-20v3.27h20v6.58H466.25V834.69H496.2v6.55h-20v3.27Zm-67-1.71v-8.11h33.69v8.11H451.06v17.48h-10V842.8Zm-3.13-8.15v25.59h-10V834.65ZM385.34,851.5v8.74h-10V834.65h10v8.74h15v-8.74h10v25.59h-10V851.5Zm-10.73-16.81-11.24,25.59H351.52l-5.62-12.8-5.62,12.8H328.42l-11.23-25.59h11.23l5.92,16.2,5.94-16.2h11.24l5.92,16.2,5.93-16.2Zm349.95,64.79H268.71V813.56h6.73v78.35H724.56Z"/><path d="M680.43,842.15H668.26v4.36h12.17a2.19,2.19,0,0,0,2.19-2.17A2.18,2.18,0,0,0,680.43,842.15Z"/><path d="M538.16,842.17H526v4.36h12.19a2.17,2.17,0,0,0,1.52-3.72A2,2,0,0,0,538.16,842.17Z"/><path d="M608.18,842.17H596v4.36h12.18a2.17,2.17,0,0,0,1.52-3.72A2,2,0,0,0,608.18,842.17Z"/><polygon points="565.61 842.09 562.09 849.65 569.11 849.65 565.61 842.09"/><rect width="1000" height="464.67"/><path class="cls-3" d="M322.15,171.36c-9.32-12.6-22.48-23-37.42-28-2.16-.72-3.47-1.53-4-3.78A19.39,19.39,0,0,0,270.41,127c-6.51-3-14.35-1.89-20.47,1.38a26.24,26.24,0,0,0-6.2,4.49,58.29,58.29,0,0,0-8.07,10.68c-7.38,12-13.34,25.42-15.13,39.49-1.7,13.56-6.41,24.09-15.81,34.19-8.55,9.19-18.72,16.82-27.08,26.14-6.14,6.83-14.29,19.28-9.26,28.68,2.21,4.1,6.48,6.29,9.76,9.39,3.65,3.46,6.79,7.68,9.91,11.61,5.23,6.58,8.61,14.51,14.27,21,11.48,13.17,27.47,23.75,45.25,25.17s33.52-9.81,43.55-23.55a7.28,7.28,0,0,1,1.44-1.59c2.85-2.15,7.82-2.79,11.09-4.65a56.14,56.14,0,0,0,10.67-7.94,78.72,78.72,0,0,0,15.33-20.77C347.53,246.73,345.13,202.47,322.15,171.36ZM218.27,298.63c-17.6-8.14-17.69-30.83-15.07-47.52,17.71,25.61,71.93,13.47,83.63,36.29C263.28,281.36,241.84,307.82,218.27,298.63Zm83,5.86c.73-1.29,39.57-70.32-12.45-130.23,0,0,5.94-9.75,21.62-8.72C310.44,165.54,365.81,240.67,301.27,304.49Z"/><path class="cls-3" d="M316.5,260.19h-.05a0,0,0,0,1,0,0Z"/><path class="cls-3" d="M426.49,209.36c-1,13.75-13.06,17.87-27.72,17.87-15.26,0-27.86-4.45-27.8-19.87v-3c-.06-15.38,12.54-19.81,27.8-19.87,14.66,0,26.72,4.15,27.72,17.87H410.22c-1.48-4-6-4.93-11.45-4.93-6.48.09-12,1.24-11.9,7.93v1c-.09,6.63,5.42,7.85,11.9,7.94,5.45,0,10-1,11.45-5Z"/><path class="cls-3" d="M486,204.39v3c.06,15.39-12.48,19.84-27.78,19.87s-27.86-4.48-27.8-19.87v-3c-.06-15.41,12.48-19.84,27.8-19.87S486,189,486,204.39Zm-15.87,1c.09-6.63-5.43-7.84-11.91-7.93-6.51.09-12,1.3-11.93,7.93v1c-.09,6.66,5.42,7.88,11.93,8,6.48-.09,12-1.31,11.91-8Z"/><path class="cls-3" d="M545.76,209.36c-1,13.75-13.06,17.87-27.72,17.87-15.26,0-27.86-4.45-27.8-19.87v-3c-.06-15.38,12.54-19.81,27.8-19.87,14.66,0,26.72,4.15,27.72,17.87H529.49c-1.48-4-6-4.93-11.45-4.93-6.48.09-12,1.24-11.9,7.93v1c-.09,6.63,5.42,7.85,11.9,7.94,5.46,0,10-1,11.45-5Z"/><path class="cls-3" d="M566.37,212.33v13.9H550.5V185.52h15.87v13.9h6.93l14.94-13.9h20.83L588,205.88l21.11,20.35H588.24l-14.94-13.9Z"/><path class="cls-3" d="M632.14,185.58H651l21.84,40.71H655l-3.21-7H631.38l-3.21,7H610.3ZM636,209.39h11.18l-5.58-12Z"/><path class="cls-3" d="M681.18,226.29v-27.8H662.31V185.58h53.61v12.91H697.05v27.8Z"/><path class="cls-3" d="M772.73,204.39v3c.06,15.39-12.48,19.84-27.78,19.87s-27.86-4.48-27.8-19.87v-3c-.06-15.41,12.48-19.84,27.8-19.87S772.73,189,772.73,204.39Zm-15.87,1c.09-6.63-5.43-7.84-11.91-7.93-6.51.09-12,1.3-11.93,7.93v1c-.09,6.66,5.42,7.88,11.93,8,6.48-.09,12-1.31,11.91-8Z"/><path class="cls-3" d="M832.56,204.39v3c.06,15.39-12.48,19.84-27.78,19.87s-27.86-4.48-27.8-19.87v-3c-.06-15.41,12.48-19.84,27.8-19.87S832.56,189,832.56,204.39Zm-15.87,1c.09-6.63-5.42-7.84-11.91-7.93-6.51.09-12,1.3-11.93,7.93v1c-.09,6.66,5.42,7.88,11.93,8,6.49-.09,12-1.31,11.91-8Z"/><path class="cls-3" d="M398.65,257.37h27.66v23.36h-7.94l-.79-6.33c-4.72,4.66-11.9,6.33-18.81,6.33-15.32-.07-27.86-4.49-27.8-19.87v-3c-.06-15.42,12.48-19.84,27.8-19.87,14.12,0,25.75,3.84,27.54,16.38H409.43a7.41,7.41,0,0,0-4.33-2.75,25.08,25.08,0,0,0-6.33-.73c-6.51.09-12,1.3-11.93,7.94v1c-.09,6.69,5.42,7.84,11.93,7.93,6.27,0,10.27-.36,12.66-3.45H398.65Z"/><path class="cls-3" d="M449.37,239.08h18.87l21.84,40.71H472.2l-3.21-7H448.61l-3.21,7H427.53Zm3.84,23.81h11.18l-5.57-12Z"/><path class="cls-3" d="M531,239h15.9v40.71H529l-21.87-24.87v24.87H491.3V239h21.84L531,260.58Z"/><path class="cls-3" d="M580.24,257.37h27.65v23.36H600l-.79-6.33c-4.73,4.66-11.9,6.33-18.81,6.33-15.33-.07-27.87-4.49-27.81-19.87v-3c-.06-15.42,12.48-19.84,27.81-19.87,14.11,0,25.75,3.84,27.53,16.38H591a7.44,7.44,0,0,0-4.33-2.75,25.19,25.19,0,0,0-6.33-.73c-6.51.09-12,1.3-11.93,7.94v1c-.1,6.69,5.42,7.84,11.93,7.93,6.27,0,10.27-.36,12.66-3.45H580.24Z"/><path d="M200.75,636.49H190.41l-2.69,5.17h-7.28l16.42-29.08h4.3l8.11,29.08H202Zm-3.19-13.94-4.51,8.36h6.66Z"/><path d="M240.25,622.63l-2.52,17.71c-.87,6-5,9.76-11.5,9.76-3.85,0-6.75-1-8.57-2.61l3.39-4.75a8.62,8.62,0,0,0,5.46,1.78c3,0,4.39-1.7,4.72-3.64l0-.25a6.4,6.4,0,0,1-4.47,1.4c-4.38,0-7.85-3.18-7.85-8.31,0-7.12,4.3-11.46,9.92-11.46a7,7,0,0,1,4.88,1.74l.46-1.37Zm-7.74,9.14c0-2.15-1.2-3.59-3.26-3.59-2.36,0-3.81,1.86-3.81,4.3,0,2,1.07,3.64,3.43,3.64C230.9,636.12,232.51,634.3,232.51,631.77Z"/><path d="M257.54,622.43l-1.45,6.49a3.74,3.74,0,0,0-1.86-.41,4.51,4.51,0,0,0-4.59,3.8l-1.33,9.35h-6.53l2.69-19h5.37l-.29,3.52a6.72,6.72,0,0,1,6.33-3.89A6.57,6.57,0,0,1,257.54,622.43Z"/><path d="M257.45,633.35c0-7,5-11.09,10.88-11.09,6.08,0,9.27,3.89,9.27,8.69,0,7-5,11.08-11,11.08S257.45,638.15,257.45,633.35Zm13.61-1.74a3.14,3.14,0,0,0-3.14-3.43c-2.57,0-3.93,2.15-3.93,4.51a3.11,3.11,0,0,0,3.18,3.43C269.7,636.12,271.06,634,271.06,631.61Z"/><path d="M301.05,622.63l-2.69,19h-5l.16-2.23a7.55,7.55,0,0,1-6,2.6c-5,0-7.69-3.26-6.91-8.89L282,622.63h6.54l-1.32,9.44c-.29,2.1.37,3.68,2.39,3.68,1.78,0,3.11-1.41,3.56-3.64l1.33-9.48Z"/><path d="M323.92,630.78c0,6.25-3.8,11.25-10.13,11.25a5.67,5.67,0,0,1-4.43-1.77L308,649.73H301.5l3.81-27.1h5.29l-.08,1.86a8.31,8.31,0,0,1,5.83-2.23C320.91,622.26,323.92,625.9,323.92,630.78Zm-6.57.83c0-2-1.12-3.43-3.1-3.43-2.32,0-3.89,2-3.89,4.55a3.1,3.1,0,0,0,3.22,3.39C315.94,636.12,317.35,634.13,317.35,631.61Z"/><path d="M335,633.35c0-7,5-11.09,10.87-11.09,6.09,0,9.27,3.89,9.27,8.69,0,7-5,11.08-11,11.08S335,638.15,335,633.35Zm13.61-1.74a3.14,3.14,0,0,0-3.15-3.43c-2.56,0-3.93,2.15-3.93,4.51a3.11,3.11,0,0,0,3.19,3.43C347.21,636.12,348.58,634,348.58,631.61Z"/><path d="M360.9,628.13h-3.43l.78-5.5h3.52l.25-1.78c.78-5.62,4.34-9.1,9.64-9.1a8.36,8.36,0,0,1,5.21,1.49l-3.1,4.88a4,4,0,0,0-2-.45c-1.41,0-3,.7-3.39,3.68l-.17,1.28h5l-.79,5.5h-5l-1.91,13.53H359Z"/><path d="M414.34,622.63l-9.88,19h-4.6l-2.6-10.17-5.46,10.17h-4.68l-5.13-19h7l1.87,10.68,5.5-10.68h4l2.65,11,4.47-11Z"/><path d="M416.7,622.63h6.53l-2.69,19H414Zm0-6.53a4.22,4.22,0,0,1,4.34-4.35c2.32,0,3.89,1.45,3.89,3.56a4.17,4.17,0,0,1-4.34,4.34A3.56,3.56,0,0,1,416.74,616.1Z"/><path d="M428.9,612.13h6.53l-4.13,29.53h-6.54Z"/><path d="M458.72,612.13l-4.13,29.53h-5.17l0-1.69c-1.24,1.2-2.9,2.06-5.92,2.06-4.55,0-7.61-3.59-7.61-8.48,0-6.24,3.72-11.29,10-11.29a6.59,6.59,0,0,1,4.63,1.61l1.66-11.74Zm-9.18,19.48a3.11,3.11,0,0,0-3.19-3.43c-2.44,0-3.84,2-3.84,4.55a3.09,3.09,0,0,0,3.14,3.39C448.17,636.12,449.54,634.13,449.54,631.61Z"/><path d="M466.74,639.55l3.23-4.76a9.77,9.77,0,0,0,5.87,2.11c1,0,1.45-.33,1.45-1s-.66-.87-2.48-1.28c-2.56-.58-5.75-1.82-5.75-5.34,0-4.18,3.56-7,8.94-7a12.86,12.86,0,0,1,7.65,2.23L483,629a11.2,11.2,0,0,0-5.42-1.57c-1.37,0-1.86.33-1.86.87,0,.7.78.91,3,1.45,1.9.45,5.33,1.53,5.33,5.42s-3.14,6.9-8.6,6.9A14.14,14.14,0,0,1,466.74,639.55Z"/><path d="M487.05,633.35c0-7,5-11.09,10.88-11.09,6.08,0,9.27,3.89,9.27,8.69,0,7-5,11.08-11,11.08S487.05,638.15,487.05,633.35Zm13.61-1.74a3.14,3.14,0,0,0-3.14-3.43c-2.57,0-3.93,2.15-3.93,4.51,0,1.9,1.07,3.43,3.18,3.43C499.3,636.12,500.66,634,500.66,631.61Z"/><path d="M530.49,630.78c0,6.25-3.81,11.25-10.14,11.25a5.67,5.67,0,0,1-4.43-1.77l-1.32,9.47h-6.54l3.81-27.1h5.3l-.09,1.86a8.32,8.32,0,0,1,5.84-2.23C527.47,622.26,530.49,625.9,530.49,630.78Zm-6.58.83c0-2-1.12-3.43-3.1-3.43-2.32,0-3.89,2-3.89,4.55a3.11,3.11,0,0,0,3.22,3.39C522.5,636.12,523.91,634.13,523.91,631.61Z"/><path d="M553.32,631.15l-1.49,10.51h-6.54l1.33-9.72c.37-2.65-.71-3.81-2.53-3.81s-3,.91-3.56,3.07l-1.44,10.46h-6.58l4.14-29.53h6.53l-1.65,11.58a8.16,8.16,0,0,1,4.92-1.45C551.37,622.26,554.1,625.69,553.32,631.15Z"/><path d="M558.57,622.63h6.53l-2.68,19h-6.54Zm0-6.53a4.22,4.22,0,0,1,4.34-4.35c2.32,0,3.89,1.45,3.89,3.56a4.17,4.17,0,0,1-4.34,4.34A3.56,3.56,0,0,1,558.61,616.1Z"/><path d="M565.85,639.55l3.22-4.76A9.8,9.8,0,0,0,575,636.9c1,0,1.45-.33,1.45-1s-.67-.87-2.49-1.28c-2.56-.58-5.75-1.82-5.75-5.34,0-4.18,3.56-7,8.94-7a12.86,12.86,0,0,1,7.65,2.23L582.06,629a11.17,11.17,0,0,0-5.42-1.57c-1.36,0-1.86.33-1.86.87,0,.7.79.91,3,1.45,1.9.45,5.34,1.53,5.34,5.42S580,642,574.49,642A14.1,14.1,0,0,1,565.85,639.55Z"/><path d="M589,634.26l.87-6.13H586.2l.78-5.5h3.93l.91-6.53h6.25l-.91,6.53h6.25l-.79,5.5h-6.25l-.74,5.34c-.29,2,1,2.65,2.32,2.65a5.42,5.42,0,0,0,2.73-.87l1.53,4.84a11.59,11.59,0,0,1-6.54,1.94C590.67,642,588.27,639.26,589,634.26Z"/><path d="M607,622.63h6.54l-2.69,19h-6.54Zm0-6.53a4.23,4.23,0,0,1,4.35-4.35c2.31,0,3.89,1.45,3.89,3.56a4.17,4.17,0,0,1-4.35,4.34A3.57,3.57,0,0,1,607,616.1Z"/><path d="M615.44,633.35c0-6.37,4.18-11.09,10.92-11.09a9,9,0,0,1,6.21,2l-3.27,5.17a4.56,4.56,0,0,0-3.27-1.24c-2.44,0-4,1.69-4,4.46,0,2.07,1,3.48,3.31,3.48a4.58,4.58,0,0,0,3.06-1.24l3.1,4.47a9.24,9.24,0,0,1-7,2.68C619,642,615.44,638.27,615.44,633.35Z"/><path d="M654.53,622.63l-2.69,19h-5.79l0-1.49a6.73,6.73,0,0,1-5.21,1.86c-4.47,0-7.7-3.22-7.7-8.56,0-7.07,4.72-11.21,10-11.21a7.15,7.15,0,0,1,4.84,1.66l.41-1.29Zm-7.74,9a3.11,3.11,0,0,0-3.22-3.43c-2.15,0-3.81,1.73-3.81,4.42,0,2,1.12,3.52,3.19,3.52C645.43,636.12,646.79,634.13,646.79,631.61Z"/><path d="M659.24,634.26l.87-6.13h-3.64l.79-5.5h3.93l.91-6.53h6.24l-.91,6.53h6.25l-.79,5.5h-6.24l-.75,5.34c-.29,2,1,2.65,2.32,2.65a5.42,5.42,0,0,0,2.73-.87l1.53,4.84a11.56,11.56,0,0,1-6.54,1.94C660.94,642,658.54,639.26,659.24,634.26Z"/><path d="M693.45,633.88H681.12a3.72,3.72,0,0,0,3.93,2.69,6.31,6.31,0,0,0,4-1.44l2.68,4.26A11.51,11.51,0,0,1,684,642c-5.83,0-9.27-3.84-9.27-8.72,0-6.95,5-11,10.72-11s8.48,3.43,8.48,8.19A11.39,11.39,0,0,1,693.45,633.88ZM681.37,630h6.54a2.67,2.67,0,0,0-2.94-2.6A3.71,3.71,0,0,0,681.37,630Z"/><path d="M719,612.13l-4.13,29.53h-5.17l0-1.69c-1.24,1.2-2.9,2.06-5.92,2.06-4.55,0-7.61-3.59-7.61-8.48,0-6.24,3.72-11.29,10-11.29a6.59,6.59,0,0,1,4.63,1.61l1.66-11.74Zm-9.18,19.48a3.11,3.11,0,0,0-3.19-3.43c-2.44,0-3.84,2-3.84,4.55a3.09,3.09,0,0,0,3.14,3.39C708.46,636.12,709.83,634.13,709.83,631.61Z"/><path d="M749.17,631.07c0,6-3.85,11-10.3,11a6.62,6.62,0,0,1-5.38-2.23l-.46,1.86h-5.17L732,612.13h6.53L737,623.38a8.11,8.11,0,0,1,4.51-1.12C746,622.26,749.17,625.74,749.17,631.07Zm-6.54.58c0-2.23-1.24-3.47-3.23-3.47-2.19,0-3.8,1.82-3.8,4.59a3.06,3.06,0,0,0,3.27,3.35C741.35,636.12,742.63,633.88,742.63,631.65Z"/><path d="M753.84,622.63h6.53l-2.69,19h-6.53Zm0-6.53a4.22,4.22,0,0,1,4.34-4.35c2.32,0,3.89,1.45,3.89,3.56a4.17,4.17,0,0,1-4.34,4.34A3.56,3.56,0,0,1,753.88,616.1Z"/><path d="M777.66,622.43l-1.44,6.49a3.78,3.78,0,0,0-1.87-.41,4.52,4.52,0,0,0-4.59,3.8l-1.32,9.35H761.9l2.69-19H770l-.29,3.52a6.71,6.71,0,0,1,6.33-3.89A6.44,6.44,0,0,1,777.66,622.43Z"/><path d="M800.41,612.13l-4.13,29.53h-5.17l0-1.69c-1.24,1.2-2.9,2.06-5.92,2.06-4.55,0-7.61-3.59-7.61-8.48,0-6.24,3.72-11.29,10-11.29a6.59,6.59,0,0,1,4.63,1.61l1.66-11.74Zm-9.18,19.48a3.11,3.11,0,0,0-3.19-3.43c-2.44,0-3.84,2-3.84,4.55a3.09,3.09,0,0,0,3.14,3.39C789.87,636.12,791.23,634.13,791.23,631.61Z"/><path d="M799.75,639.55l3.23-4.76a9.74,9.74,0,0,0,5.87,2.11c1,0,1.45-.33,1.45-1s-.66-.87-2.48-1.28c-2.57-.58-5.75-1.82-5.75-5.34,0-4.18,3.55-7,8.93-7,3.19,0,6.17,1,7.65,2.23L816,629a11.17,11.17,0,0,0-5.41-1.57c-1.37,0-1.87.33-1.87.87,0,.7.79.91,3,1.45,1.91.45,5.34,1.53,5.34,5.42s-3.14,6.9-8.6,6.9A14.12,14.12,0,0,1,799.75,639.55Z"/><path d="M332.59,668.73l-1.49,10.5h-6.54l1.33-9.72c.37-2.65-.71-3.8-2.53-3.8s-3,.91-3.55,3.06l-1.45,10.46h-6.58l4.14-29.53h6.53l-1.65,11.58a8.19,8.19,0,0,1,4.92-1.45C330.65,659.83,333.38,663.27,332.59,668.73Z"/><path d="M357,660.2l-2.69,19h-5.79l0-1.49a6.72,6.72,0,0,1-5.21,1.87c-4.47,0-7.69-3.23-7.69-8.57,0-7.07,4.71-11.21,10-11.21a7.15,7.15,0,0,1,4.84,1.66l.41-1.29Zm-7.73,9a3.12,3.12,0,0,0-3.23-3.43c-2.15,0-3.81,1.73-3.81,4.42,0,2,1.12,3.52,3.19,3.52C347.85,673.69,349.22,671.7,349.22,669.18Z"/><path d="M380.65,660.2l-11.08,19h-4.51l-5.75-19h7.15l2.11,10.51,5.13-10.51Z"/><path d="M398.73,671.46H386.4a3.73,3.73,0,0,0,3.93,2.69,6.3,6.3,0,0,0,4-1.45L397,677a11.51,11.51,0,0,1-7.74,2.65c-5.83,0-9.26-3.85-9.26-8.73,0-7,5-11,10.71-11s8.48,3.44,8.48,8.19A11.74,11.74,0,0,1,398.73,671.46Zm-12.08-3.93h6.53a2.66,2.66,0,0,0-2.93-2.61A3.7,3.7,0,0,0,386.65,667.53Z"/><path d="M410.14,670.92c0-6.37,4.18-11.09,10.92-11.09a9,9,0,0,1,6.21,2L424,667a4.56,4.56,0,0,0-3.27-1.24c-2.44,0-4.05,1.69-4.05,4.47,0,2.06,1,3.47,3.31,3.47a4.58,4.58,0,0,0,3.06-1.24l3.1,4.47a9.24,9.24,0,0,1-7,2.69C413.66,679.61,410.14,675.84,410.14,670.92Z"/><path d="M427.8,670.92c0-7,5-11.09,10.88-11.09,6.08,0,9.27,3.89,9.27,8.69,0,7-5,11.09-11,11.09S427.8,675.72,427.8,670.92Zm13.61-1.74a3.14,3.14,0,0,0-3.14-3.43c-2.57,0-3.93,2.15-3.93,4.51a3.11,3.11,0,0,0,3.18,3.43C440.05,673.69,441.41,671.54,441.41,669.18Z"/><path d="M482.53,667.57l-1.61,11.66h-6.54l1.41-10.3c.29-2.23-.71-3.22-2.15-3.22-1.7,0-3,.91-3.56,3.26l-1.41,10.26h-6.53l1.4-10.3c.29-2.23-.7-3.22-2.15-3.22-1.74,0-3,.91-3.51,3.35l-1.45,10.17h-6.54l2.69-19h4.67l-.2,2.86a7.77,7.77,0,0,1,6.28-3.23c2.94,0,5.09,1.08,6.21,2.94a7.64,7.64,0,0,1,6-2.94C480.5,659.83,483.19,662.85,482.53,667.57Z"/><path d="M504,671.46H491.71a3.73,3.73,0,0,0,3.93,2.69,6.3,6.3,0,0,0,4-1.45L502.3,677a11.54,11.54,0,0,1-7.74,2.65c-5.83,0-9.26-3.85-9.26-8.73,0-7,5-11,10.71-11s8.48,3.44,8.48,8.19A11.74,11.74,0,0,1,504,671.46ZM492,667.53h6.53a2.66,2.66,0,0,0-2.93-2.61A3.7,3.7,0,0,0,492,667.53Z"/><path d="M518.26,671.83l.87-6.12h-3.64l.79-5.51h3.93l.91-6.53h6.24l-.91,6.53h6.25l-.79,5.51h-6.24l-.75,5.33c-.29,2,1,2.65,2.32,2.65a5.42,5.42,0,0,0,2.73-.87l1.53,4.84a11.54,11.54,0,0,1-6.54,2C520,679.61,517.56,676.83,518.26,671.83Z"/><path d="M533.73,670.92c0-7,5-11.09,10.88-11.09,6.08,0,9.27,3.89,9.27,8.69,0,7-5,11.09-11,11.09S533.73,675.72,533.73,670.92Zm13.61-1.74a3.14,3.14,0,0,0-3.14-3.43c-2.57,0-3.93,2.15-3.93,4.51,0,1.9,1.07,3.43,3.18,3.43C546,673.69,547.34,671.54,547.34,669.18Z"/><path d="M577.5,660.2,575,677.91c-.87,6-5.05,9.76-11.5,9.76-3.85,0-6.74-.95-8.56-2.6l3.39-4.76a8.56,8.56,0,0,0,5.46,1.78c3,0,4.39-1.7,4.72-3.64l0-.25a6.4,6.4,0,0,1-4.47,1.41c-4.38,0-7.86-3.19-7.86-8.32,0-7.11,4.3-11.46,9.93-11.46a7.07,7.07,0,0,1,4.88,1.74l.46-1.37Zm-7.74,9.15c0-2.16-1.2-3.6-3.27-3.6-2.36,0-3.8,1.86-3.8,4.3,0,2,1.07,3.64,3.43,3.64C568.15,673.69,569.76,671.87,569.76,669.35Z"/><path d="M598.13,671.46H585.81a3.72,3.72,0,0,0,3.93,2.69,6.3,6.3,0,0,0,4-1.45L596.4,677a11.54,11.54,0,0,1-7.74,2.65c-5.83,0-9.26-3.85-9.26-8.73,0-7,5-11,10.71-11s8.48,3.44,8.48,8.19A11.5,11.5,0,0,1,598.13,671.46Zm-12.08-3.93h6.54a2.67,2.67,0,0,0-2.94-2.61A3.72,3.72,0,0,0,586.05,667.53Z"/><path d="M603.34,671.83l.87-6.12h-3.64l.79-5.51h3.93l.91-6.53h6.24l-.91,6.53h6.25l-.78,5.51h-6.25L610,671c-.29,2,1,2.65,2.32,2.65a5.42,5.42,0,0,0,2.73-.87l1.53,4.84a11.54,11.54,0,0,1-6.54,2C605,679.61,602.64,676.83,603.34,671.83Z"/><path d="M639.54,668.73l-1.49,10.5h-6.54l1.33-9.72c.37-2.65-.71-3.8-2.53-3.8s-3,.91-3.56,3.06l-1.44,10.46h-6.58l4.14-29.53h6.53l-1.65,11.58a8.16,8.16,0,0,1,4.92-1.45C637.59,659.83,640.32,663.27,639.54,668.73Z"/><path d="M661.21,671.46H648.88a3.73,3.73,0,0,0,3.93,2.69,6.3,6.3,0,0,0,4-1.45l2.68,4.26a11.5,11.5,0,0,1-7.73,2.65c-5.83,0-9.27-3.85-9.27-8.73,0-7,5-11,10.72-11s8.48,3.44,8.48,8.19A11.5,11.5,0,0,1,661.21,671.46Zm-12.08-3.93h6.54a2.67,2.67,0,0,0-2.94-2.61A3.71,3.71,0,0,0,649.13,667.53Z"/><path d="M679.33,660l-1.45,6.49a3.74,3.74,0,0,0-1.86-.41,4.51,4.51,0,0,0-4.59,3.8l-1.33,9.35h-6.53l2.69-19h5.37l-.29,3.52a6.72,6.72,0,0,1,6.33-3.89A6.57,6.57,0,0,1,679.33,660Z"/><path d="M679.62,676.13a4.5,4.5,0,0,1,4.46-4.38,3.42,3.42,0,0,1,3.35,3.51,4.54,4.54,0,0,1-4.42,4.3A3.29,3.29,0,0,1,679.62,676.13Zm3.84-27.34H691l-4.34,21.55h-5Z"/></svg>