<svg id="Layer_1" data-name="Layer 1" xmlns="http://www.w3.org/2000/svg" viewBox="0 0 600 300"><defs><style>.cls-1{fill:#e18439;}.cls-2{fill:#fffde9;}</style></defs><rect class="cls-1" width="600" height="300"/><path class="cls-2" d="M215.77,121.58a36.85,36.85,0,0,0-17.45-13c-1-.34-1.61-.71-1.86-1.76a9,9,0,0,0-4.81-5.85,10.9,10.9,0,0,0-9.54.64,12.31,12.31,0,0,0-2.89,2.09,26.8,26.8,0,0,0-3.76,5c-3.44,5.58-6.22,11.85-7.05,18.4A26.93,26.93,0,0,1,161,143c-4,4.28-8.73,7.84-12.62,12.18-2.86,3.19-6.66,9-4.32,13.37,1,1.91,3,2.93,4.55,4.38a51.91,51.91,0,0,1,4.62,5.41c2.44,3.06,4,6.76,6.65,9.79,5.35,6.14,12.8,11.07,21.09,11.73s15.62-4.57,20.3-11a3.15,3.15,0,0,1,.67-.74c1.33-1,3.64-1.3,5.16-2.17a26,26,0,0,0,5-3.69,36.66,36.66,0,0,0,7.14-9.68C227.59,156.71,226.47,136.08,215.77,121.58ZM167.35,180.9c-8.2-3.8-8.25-14.37-7-22.15,8.26,11.94,33.53,6.28,39,16.91C188.33,172.85,178.33,185.18,167.35,180.9ZM206,183.63c.34-.6,18.45-32.77-5.8-60.7,0,0,2.77-4.54,10.07-4.06C210.3,118.87,236.11,153.89,206,183.63Z"/><path class="cls-2" d="M192.64,166.05h0a0,0,0,0,1,0,0Z"/><path class="cls-2" d="M264.73,139.19c-.48,6.49-6.17,8.44-13.09,8.44-7.2,0-13.15-2.11-13.12-9.38v-1.4c0-7.27,5.92-9.35,13.12-9.38,6.92,0,12.61,2,13.09,8.43h-7.68c-.7-1.88-2.83-2.33-5.41-2.33-3.06.05-5.66.59-5.61,3.75v.47c-.05,3.13,2.55,3.7,5.61,3.75,2.58,0,4.72-.46,5.41-2.35Z"/><path class="cls-2" d="M292.8,136.85v1.4c0,7.26-5.89,9.36-13.11,9.38s-13.15-2.12-13.12-9.38v-1.4c0-7.28,5.89-9.37,13.12-9.38S292.8,129.58,292.8,136.85Zm-7.49.45c0-3.13-2.56-3.7-5.62-3.74s-5.67.61-5.63,3.74v.48c0,3.14,2.56,3.71,5.63,3.76s5.66-.62,5.62-3.76Z"/><path class="cls-2" d="M321,139.19c-.47,6.49-6.16,8.44-13.08,8.44-7.21,0-13.16-2.11-13.13-9.38v-1.4c0-7.27,5.92-9.35,13.13-9.38,6.92,0,12.61,2,13.08,8.43h-7.68c-.7-1.88-2.83-2.33-5.4-2.33-3.06.05-5.67.59-5.62,3.75v.47c-.05,3.13,2.56,3.7,5.62,3.75,2.57,0,4.71-.46,5.4-2.35Z"/><path class="cls-2" d="M330.73,140.59v6.56h-7.49V127.94h7.49v6.56H334l7.05-6.56h9.84l-10,9.61,10,9.6h-9.84L334,140.59Z"/><path class="cls-2" d="M361.76,128h8.91L381,147.18h-8.44L371,143.89h-9.62l-1.52,3.29h-8.43Zm1.82,11.24h5.28l-2.63-5.68Z"/><path class="cls-2" d="M384.91,147.18V134.06H376V128h25.31v6.09H392.4v13.12Z"/><path class="cls-2" d="M428.11,136.85v1.4c0,7.26-5.89,9.36-13.11,9.38s-13.15-2.12-13.12-9.38v-1.4c0-7.28,5.89-9.37,13.12-9.38S428.11,129.58,428.11,136.85Zm-7.49.45c0-3.13-2.56-3.7-5.62-3.74s-5.67.61-5.63,3.74v.48c0,3.14,2.56,3.71,5.63,3.76s5.66-.62,5.62-3.76Z"/><path class="cls-2" d="M456.35,136.85v1.4c0,7.26-5.89,9.36-13.11,9.38s-13.16-2.12-13.13-9.38v-1.4c0-7.28,5.89-9.37,13.13-9.38S456.35,129.58,456.35,136.85Zm-7.49.45c0-3.13-2.56-3.7-5.62-3.74s-5.68.61-5.64,3.74v.48c0,3.14,2.56,3.71,5.64,3.76s5.66-.62,5.62-3.76Z"/><path class="cls-2" d="M251.59,161.54h13v11H260.9l-.38-3c-2.23,2.2-5.62,3-8.88,3-7.23,0-13.15-2.12-13.12-9.38v-1.4c0-7.28,5.89-9.36,13.12-9.38,6.67,0,12.16,1.82,13,7.74h-8a3.5,3.5,0,0,0-2.05-1.31,12.36,12.36,0,0,0-3-.34c-3.07,0-5.67.62-5.63,3.75v.47c0,3.16,2.56,3.7,5.63,3.75s4.85-.18,6-1.63h-6Z"/><path class="cls-2" d="M275.52,152.9h8.91l10.3,19.22H286.3l-1.52-3.29h-9.62l-1.51,3.29h-8.44Zm1.81,11.24h5.28L280,158.46Z"/><path class="cls-2" d="M314.05,152.87h7.5v19.22h-8.43l-10.33-11.74v11.74H295.3V152.87h10.31l8.44,10.18Z"/><path class="cls-2" d="M337.28,161.54h13.05v11h-3.75l-.37-3c-2.23,2.2-5.62,3-8.88,3-7.23,0-13.15-2.12-13.12-9.38v-1.4c0-7.28,5.89-9.36,13.12-9.38,6.67,0,12.16,1.82,13,7.74h-8a3.54,3.54,0,0,0-2.05-1.31,12.42,12.42,0,0,0-3-.34c-3.07,0-5.67.62-5.63,3.75v.47c0,3.16,2.56,3.7,5.63,3.75s4.85-.18,6-1.63h-6Z"/></svg>