<svg id="Layer_1" data-name="Layer 1" xmlns="http://www.w3.org/2000/svg" viewBox="0 0 600 300"><defs><style>.cls-1{fill:#151e2d;}.cls-2{fill:#fff;}</style></defs><rect class="cls-1" width="600" height="300"/><path class="cls-2" d="M152.76,135.82V134.7c3,0,3.32-1.44,2.08-4.6l-1-2.24h-9.72s-.4,1-.88,2.24c-1.16,3.28,0,4.6,3.08,4.6v1.12h-9.84V134.7c3,0,4.08-2.16,5-4.6l8.76-22.27h1.88l9.68,22.27c1.2,2.56,1.68,4.6,4.72,4.6v1.12Zm.4-9.56-4.44-10.08-4,10.08Z"/><path class="cls-2" d="M187,122.7a3.83,3.83,0,0,1-4.72,2.2c.4-1.4.4-3.12-1.16-3.64a2.46,2.46,0,0,0-3.4,2.24v6.64c0,2.52.24,4.6,3.28,4.6v1.08h-13.2v-1.08c3.08,0,3.44-2.08,3.44-4.6v-4c0-2.52-.36-4.6-3.44-4.6v-1.08a15.17,15.17,0,0,0,8.84-3.12h1.08v3.6c1.28-2.44,3.2-4.08,6.16-3.6A3.9,3.9,0,0,1,187,122.7Z"/><path class="cls-2" d="M207.32,130.1a9.69,9.69,0,0,1-9.12,6.08c-6,0-10-3.88-10.44-8.68-.56-6.44,4.28-10.2,10.28-10.2,5.36,0,9,2.88,8.76,8.16l-12.36,2.08c1,5.16,8.68,5.8,12.2,2A8.38,8.38,0,0,1,207.32,130.1ZM194.2,126l6.56-1.12c.2-3.84-.68-6.36-3.44-6.12C194.8,119,193.72,122.18,194.2,126Z"/><path class="cls-2" d="M248.88,117.7v1.08c-2,0-2.76.84-3.48,2.6l-5.92,14.44h-2.72l-4.48-11.48-4.68,11.48h-2.72l-6.4-14.44c-.76-1.72-1.28-2.6-3.24-2.6V117.7h11.68v1.08c-1.8,0-2.44.64-1.64,2.6l3.4,8.2,2.92-7-.48-1.16c-.72-1.68-1.08-2.6-3.08-2.6V117.7h11.72v1.08c-1.8,0-2.6.6-1.92,2.6l2.76,8.12,3.36-8.12c.88-2.2,0-2.6-2.12-2.6V117.7Z"/><path class="cls-2" d="M267.72,130.1a9.69,9.69,0,0,1-9.12,6.08c-6,0-10-3.88-10.44-8.68-.56-6.44,4.28-10.2,10.28-10.2,5.36,0,9,2.88,8.76,8.16l-12.36,2.08c1,5.16,8.68,5.8,12.2,2A8.38,8.38,0,0,1,267.72,130.1ZM254.6,126l6.56-1.12c.2-3.84-.68-6.36-3.44-6.12C255.2,119,254.12,122.18,254.6,126Z"/><path class="cls-2" d="M295,131.54c-.8,3.92-5.88,4.88-10,4.64-3.32-.16-7.8-1.48-8.44-4.12a3.37,3.37,0,0,1,3.68-4.32,3.22,3.22,0,0,1,2.92,3.36,1.55,1.55,0,0,0-1.72,2c.24,1.08,2.08,1.56,3.68,1.68,2.16.12,3.88-.68,4-2,.28-2.08-1.52-2.72-4.32-4.16-2.64-1.36-6.24-3.12-5.8-7s4.44-4.76,8-4.36c2.6.32,3.2,1.52,3.56,0h.68l.4,6.2h-1c-.68-3.24-1.6-4.48-3.68-4.72-1.4-.2-2.4.28-2.52,1.4-.2,1.56,1.56,2.28,4.32,3.8S295.88,127.06,295,131.54Z"/><path class="cls-2" d="M319.24,126.74c0,5.64-4,10.32-10,9.44a7.59,7.59,0,0,1-4.6-2.44v5.84c0,2.52,1,4.6,4.08,4.6v1.12h-14v-1.12c3,0,3.44-2.08,3.44-4.6V126.1c0-2.52-.4-4.6-3.44-4.6v-1.08a15.05,15.05,0,0,0,8.8-3.12h1.08v2.08a7.36,7.36,0,0,1,4.24-2.08C314.92,116.46,319.24,121.1,319.24,126.74Zm-6.6-.52c-.84-4.8-2.72-7.64-5.16-7.2s-3.28,3.76-2.44,8.56,2.76,7.6,5.2,7.2S313.48,131,312.64,126.22Z"/><path class="cls-2" d="M340.48,130.1a9.69,9.69,0,0,1-9.12,6.08c-6,0-10-3.88-10.44-8.68-.56-6.44,4.28-10.2,10.28-10.2,5.36,0,9,2.88,8.76,8.16l-12.36,2.08c1,5.16,8.68,5.8,12.2,2A8.38,8.38,0,0,1,340.48,130.1ZM327.36,126l6.56-1.12c.2-3.84-.68-6.36-3.44-6.12C328,119,326.88,122.18,327.36,126Z"/><path class="cls-2" d="M361.72,130.1a9.69,9.69,0,0,1-9.12,6.08c-6,0-10-3.72-10.44-8.52-.56-6.44,4.28-10.36,10.28-10.36s7.84,2.4,8.16,4.68a3.58,3.58,0,0,1-1.72,3.92c-1.48.72-3.56.24-5-1.8,2.12-1.72,1.36-5.64-2.08-5.36-2.08.2-3.56,2.52-3.4,6.16.24,4.56,2.56,6.68,6.12,7a7.65,7.65,0,0,0,6.6-2.4A8,8,0,0,1,361.72,130.1Z"/><path class="cls-2" d="M376.12,134.74v1.08h-13.2v-1.08c3,0,3.44-2.08,3.44-4.6v-4c0-2.52-.4-4.6-3.44-4.6v-1.08c2.32,0,6.4-1,8.8-3.12h1.08v12.84C372.8,132.66,373,134.74,376.12,134.74Zm-11.2-23.12a4,4,0,1,1,4,3.8A3.91,3.91,0,0,1,364.92,111.62Z"/><path class="cls-2" d="M398.76,134.62a5.16,5.16,0,0,1-4.2,1.56c-2.16,0-4.68-.72-5.28-2.64a6.25,6.25,0,0,1-5.64,2.64c-3.32,0-6.44-1.08-7-4s.92-5.64,5.64-6.6c3.76-.76,6.08,0,5.64-2.72-.36-2-1.08-4.16-3.08-4.16-2.52-.2-3.68,2.28-2.12,3.56a2.78,2.78,0,0,1-3.72,1.32,2.21,2.21,0,0,1-.92-3c1-2.6,4.44-3.24,6.72-3.24,6.4,0,9,2.12,9.76,7.16.56,4,.76,5.64.76,5.64a11.64,11.64,0,0,0,.88,3.52,1.86,1.86,0,0,0,2.24.12C398.6,134.18,398.64,134.22,398.76,134.62Zm-10-5c-.12-1.44-.28-2.92-.44-3.92-.32.64-.76.84-2.8,1.4a3.57,3.57,0,0,0-2.64,4,3,3,0,0,0,3.56,2.56C388.4,133.26,388.92,131.54,388.8,129.62Z"/><path class="cls-2" d="M413.32,134.74v1.08H400v-1.08c3,0,3.44-2.08,3.44-4.6V116.66c0-2.52-.4-4.6-3.44-4.6v-1.12a15,15,0,0,0,8.84-3.11h1.08v22.31C409.88,132.66,410.24,134.74,413.32,134.74Z"/><path class="cls-2" d="M442.4,126.74c0,5.64-4.36,9.44-10.36,9.44s-10.4-3.8-10.4-9.44S426,117.3,432,117.3,442.4,121.1,442.4,126.74Zm-6.56-.68c-.84-4.8-2.76-7.64-5.2-7.2s-3.24,3.76-2.4,8.56,2.76,7.6,5.16,7.2S436.68,130.86,435.84,126.06Z"/><path class="cls-2" d="M462.8,122.7a3.83,3.83,0,0,1-4.72,2.2c.4-1.4.4-3.12-1.16-3.64a2.46,2.46,0,0,0-3.4,2.24v6.64c0,2.52.24,4.6,3.28,4.6v1.08H443.6v-1.08c3.08,0,3.44-2.08,3.44-4.6v-4c0-2.52-.36-4.6-3.44-4.6v-1.08a15.17,15.17,0,0,0,8.84-3.12h1.08v3.6c1.28-2.44,3.2-4.08,6.16-3.6A3.9,3.9,0,0,1,462.8,122.7Z"/><path class="cls-2" d="M151.52,182.74v1.08H138.68v-1.08c3,0,3.08-2.16,2.8-4.6,0,0-.56-3.64-.8-5.12-.36-2.36-.64-4.52-3.4-4.52-2.4,0-3.4,2.12-3.4,4.8v4.84c0,2.52.24,4.6,3.28,4.6v1.08H124v-1.08c3,0,3.44-2.08,3.44-4.6v-4c0-2.52-.4-4.6-3.44-4.6v-1.08a15.05,15.05,0,0,0,8.8-3.12h1.08v3.12a7.32,7.32,0,0,1,6.36-3.12c4,0,6.2,2.16,6.92,7.2.56,4,.76,5.64.76,5.64C148.24,180.5,148.48,182.74,151.52,182.74Z"/><path class="cls-2" d="M171.88,174.74c0,5.64-4.36,9.44-10.36,9.44s-10.4-3.8-10.4-9.44,4.36-9.44,10.4-9.44S171.88,169.1,171.88,174.74Zm-6.56-.68c-.84-4.8-2.76-7.64-5.2-7.2s-3.24,3.76-2.4,8.56,2.76,7.6,5.16,7.2S166.16,178.86,165.32,174.06Z"/><path class="cls-2" d="M186.76,179.78c-1,2.48-2.6,4.4-5.56,4.4-3.2,0-5.8-2.12-5.8-6.4V167.26h-3.12V165.7c4-.2,7.52-2.44,8.36-6.76h1.24v6.76h4.24v1.56h-4.24V178.1c0,1.88.68,2.4,1.64,2.6a2.37,2.37,0,0,0,2.48-1.32Z"/><path class="cls-2" d="M205.88,162.78c-.44,6.88-9.8,6.8-9.8,12.2h-2.24c-.76-6.36,4.24-7.4,5-12,.6-3.68-.32-5.88-3.12-6a3.25,3.25,0,0,0-3.56,3c-.4,2.6,1,3.6,2.76,3.52A3.48,3.48,0,0,1,191,166.9c-2.8-.2-4.44-2.44-3.68-5.8s4.56-5.64,8.88-5.64C201.28,155.46,206.2,157.62,205.88,162.78Zm-6.36,17.76c0,2-1.68,3.64-4.12,3.64s-4.08-1.6-4.08-3.64,1.64-3.64,4.08-3.64S199.52,178.5,199.52,180.54Z"/><path class="cls-2" d="M241.44,164.46h-1.28c-1.28-4-3.2-7-6.64-7h-2.08v20.72c0,2.52.68,4.6,3.72,4.6v1.08H220.88v-1.08c3,0,3.76-2.08,3.76-4.6V157.42h-2.08c-3.44,0-5.4,3-6.64,7h-1.28l.64-8.63H240.8Z"/><path class="cls-2" d="M270.16,182.74v1.08H257.32v-1.08c3,0,3.08-2.12,2.8-4.6,0,0-.56-3.64-.8-5.12-.36-2.36-.64-4.48-3.4-4.48-2.4,0-3.4,2.12-3.4,4.76v4.84c0,2.52.24,4.6,3.28,4.6v1.08H242.64v-1.08c3,0,3.44-2.08,3.44-4.6V164.66c0-2.52-.4-4.6-3.44-4.6v-1.12c2.32,0,6.4-1,8.8-3.11h1.08v12.59a7.37,7.37,0,0,1,6.36-3.12c4,0,6.2,2.16,6.92,7.2.56,4,.76,5.64.76,5.64C266.88,180.5,267.12,182.74,270.16,182.74Z"/><path class="cls-2" d="M289.4,178.1a9.69,9.69,0,0,1-9.12,6.08c-6,0-10-3.88-10.44-8.68-.56-6.44,4.28-10.2,10.28-10.2,5.36,0,9,2.88,8.76,8.16l-12.36,2.08c1,5.16,8.68,5.8,12.2,2A8.38,8.38,0,0,1,289.4,178.1ZM276.28,174l6.56-1.12c.2-3.84-.68-6.36-3.44-6.12C276.88,167,275.8,170.18,276.28,174Z"/><path class="cls-2" d="M322.12,181.22a4.59,4.59,0,0,1-4.6,3c-2.08,0-3.6-.56-4.44-1.88a7.51,7.51,0,0,1-5,1.88c-6,0-10.4-3.8-10.4-9.44s4.32-10.28,10.4-9.44a7.36,7.36,0,0,1,4.24,2.08v-2.72c0-2.52-.4-4.6-3.44-4.6v-1.12a15,15,0,0,0,8.84-3.11h1.08V178.1c0,1.92,0,3.32,1,3.56a1.41,1.41,0,0,0,1.6-.84Zm-10.2-7.16c-.84-4.76-2.76-7.6-5.2-7.2s-3.24,3.76-2.4,8.56,2.76,7.6,5.2,7.2S312.76,178.86,311.92,174.06Z"/><path class="cls-2" d="M336.52,182.74v1.08h-13.2v-1.08c3,0,3.44-2.08,3.44-4.6v-4c0-2.52-.4-4.6-3.44-4.6v-1.08c2.32,0,6.4-1,8.8-3.12h1.08v12.84C333.2,180.66,333.44,182.74,336.52,182.74Zm-11.2-23.12a4,4,0,1,1,4,3.8A3.91,3.91,0,0,1,325.32,159.62Z"/><path class="cls-2" d="M351.08,182.74v1.08H337.72v-1.08c3,0,3.44-2.08,3.44-4.6V164.66c0-2.52-.4-4.6-3.44-4.6v-1.12a15,15,0,0,0,8.84-3.11h1.08v22.31C347.64,180.66,348,182.74,351.08,182.74Z"/><path class="cls-2" d="M370.72,178.1a9.69,9.69,0,0,1-9.12,6.08c-6,0-10-3.88-10.44-8.68-.56-6.44,4.28-10.2,10.28-10.2,5.36,0,9,2.88,8.76,8.16l-12.36,2.08c1,5.16,8.68,5.8,12.2,2A8.38,8.38,0,0,1,370.72,178.1ZM357.6,174l6.56-1.12c.2-3.84-.68-6.36-3.44-6.12C358.2,167,357.12,170.18,357.6,174Z"/><path class="cls-2" d="M412.23,182.74v1.08H399.35v-1.08c3,0,3.12-2.12,2.8-4.6,0,0-.56-3.64-.75-5.12-.37-2.36-.61-4.48-3.25-4.48-2.35,0-3.07,2.12-3.07,4.76v4.84c0,2.52.36,4.6,3.44,4.6v1.08H385.64v-1.08c3,0,3-2.08,3-4.6V173c0-2.36-.64-4.48-3.4-4.48-2.4,0-3.4,2.12-3.4,4.76v4.84c0,2.52-.08,4.6,3,4.6v1.08H371.92v-1.08c3,0,3.44-2.08,3.44-4.6v-4c0-2.52-.4-4.6-3.44-4.6v-1.08c2.32,0,6.4-1,8.8-3.12h1.08v3.12a7.32,7.32,0,0,1,6.36-3.12c3,0,5.32,1.12,6.32,3.76a6.88,6.88,0,0,1,6.43-3.76c3.92,0,6.24,2.16,6.92,7.2.56,4,.8,5.64.8,5.64C408.91,180.5,409.19,182.74,412.23,182.74Z"/><path class="cls-2" d="M453.75,182.74v1.08H440.87v-1.08c3,0,3.12-2.12,2.8-4.6,0,0-.56-3.64-.76-5.12-.36-2.36-.6-4.48-3.24-4.48-2.36,0-3.07,2.12-3.07,4.76v4.84c0,2.52.36,4.6,3.43,4.6v1.08H427.16v-1.08c3,0,3-2.08,3-4.6V173c0-2.36-.64-4.48-3.4-4.48-2.4,0-3.4,2.12-3.4,4.76v4.84c0,2.52-.08,4.6,3,4.6v1.08H413.44v-1.08c3,0,3.44-2.08,3.44-4.6v-4c0-2.52-.4-4.6-3.44-4.6v-1.08c2.32,0,6.4-1,8.8-3.12h1.08v3.12a7.32,7.32,0,0,1,6.36-3.12c3,0,5.32,1.12,6.32,3.76a6.86,6.86,0,0,1,6.43-3.76c3.92,0,6.24,2.16,6.92,7.2.56,4,.8,5.64.8,5.64C450.43,180.5,450.71,182.74,453.75,182.74Z"/><path class="cls-2" d="M476.4,182.62a5.16,5.16,0,0,1-4.2,1.56c-2.16,0-4.68-.72-5.28-2.64a6.25,6.25,0,0,1-5.64,2.64c-3.32,0-6.44-1.08-7-4s.92-5.64,5.64-6.6c3.76-.76,6.08,0,5.64-2.72-.36-2-1.08-4.16-3.08-4.16-2.52-.2-3.68,2.28-2.12,3.56a2.78,2.78,0,0,1-3.72,1.32,2.21,2.21,0,0,1-.92-3c1-2.6,4.44-3.24,6.72-3.24,6.4,0,9,2.12,9.76,7.16.56,4,.76,5.64.76,5.64a11.64,11.64,0,0,0,.88,3.52,1.86,1.86,0,0,0,2.24.12C476.24,182.18,476.28,182.22,476.4,182.62Zm-10-5c-.12-1.44-.28-2.92-.44-3.92-.32.64-.76.84-2.8,1.4a3.57,3.57,0,0,0-2.64,4,3,3,0,0,0,3.56,2.56C466,181.26,466.56,179.54,466.44,177.62Z"/></svg>