<svg id="Layer_1" data-name="Layer 1" xmlns="http://www.w3.org/2000/svg" viewBox="0 0 600 300"><defs><style>.cls-1{fill:#3a5639;}.cls-2{fill:#fff;}</style></defs><rect class="cls-1" width="600" height="300"/><path class="cls-2" d="M214.52,151l-.64,9.16H213c-.6-2.32-4.32,0-8.88,0-9.2,0-15.52-6.16-15.52-14.36s5.76-14.36,15.2-14.36c4.56,0,8.28,2.32,8.88,0h.84l.64,9h-1.12c-1-4.88-3.68-7.84-9.24-7.48-4.76.28-7.88,4.6-7.88,12.84s3.44,12.68,8.2,12.88c5.56.24,8.2-2.76,9.24-7.68Z"/><path class="cls-2" d="M235.76,154.1a9.69,9.69,0,0,1-9.12,6.08c-6,0-10-3.88-10.44-8.68-.56-6.44,4.28-10.2,10.28-10.2,5.36,0,9,2.88,8.76,8.16l-12.36,2.08c1,5.16,8.68,5.8,12.2,2A8.38,8.38,0,0,1,235.76,154.1ZM222.64,150l6.56-1.12c.2-3.84-.68-6.36-3.44-6.12C223.24,143,222.16,146.18,222.64,150Z"/><path class="cls-2" d="M264.48,158.74v1.08H251.64v-1.08c3,0,3.08-2.16,2.8-4.6,0,0-.56-3.64-.8-5.12-.36-2.36-.64-4.52-3.4-4.52-2.4,0-3.4,2.12-3.4,4.8v4.84c0,2.52.24,4.6,3.28,4.6v1.08H237v-1.08c3,0,3.44-2.08,3.44-4.6v-4c0-2.52-.4-4.6-3.44-4.6v-1.08a15.05,15.05,0,0,0,8.8-3.12h1.08v3.12a7.32,7.32,0,0,1,6.36-3.12c4,0,6.2,2.16,6.92,7.2.56,4,.76,5.64.76,5.64C261.2,156.5,261.44,158.74,264.48,158.74Z"/><path class="cls-2" d="M283,155.54c-.8,3.92-5.88,4.88-10,4.64-3.32-.16-7.8-1.48-8.44-4.12a3.37,3.37,0,0,1,3.68-4.32,3.22,3.22,0,0,1,2.92,3.36,1.55,1.55,0,0,0-1.72,2c.24,1.08,2.08,1.56,3.68,1.68,2.16.12,3.88-.68,4-2,.28-2.08-1.52-2.72-4.32-4.16-2.64-1.36-6.24-3.12-5.8-7s4.44-4.76,8-4.36c2.6.32,3.2,1.52,3.56,0h.68l.4,6.2h-1c-.68-3.24-1.6-4.48-3.68-4.72-1.4-.2-2.4.28-2.52,1.4-.2,1.56,1.56,2.28,4.32,3.8S283.92,151.06,283,155.54Z"/><path class="cls-2" d="M305.12,150.74c0,5.64-4.36,9.44-10.36,9.44s-10.4-3.8-10.4-9.44,4.36-9.44,10.4-9.44S305.12,145.1,305.12,150.74Zm-6.56-.68c-.84-4.8-2.76-7.64-5.2-7.2s-3.24,3.76-2.4,8.56,2.76,7.6,5.16,7.2S299.4,154.86,298.56,150.06Z"/><path class="cls-2" d="M325.52,146.7a3.83,3.83,0,0,1-4.72,2.2c.4-1.4.4-3.12-1.16-3.64a2.46,2.46,0,0,0-3.4,2.24v6.64c0,2.52.24,4.6,3.28,4.6v1.08h-13.2v-1.08c3.08,0,3.44-2.08,3.44-4.6v-4c0-2.52-.36-4.6-3.44-4.6v-1.08a15.17,15.17,0,0,0,8.84-3.12h1.08v3.6c1.28-2.44,3.2-4.08,6.16-3.6A3.9,3.9,0,0,1,325.52,146.7Z"/><path class="cls-2" d="M343.56,155.54c-.8,3.92-5.88,4.88-10,4.64-3.32-.16-7.8-1.48-8.44-4.12a3.37,3.37,0,0,1,3.68-4.32,3.22,3.22,0,0,1,2.92,3.36,1.55,1.55,0,0,0-1.72,2c.24,1.08,2.08,1.56,3.68,1.68,2.16.12,3.88-.68,4-2,.28-2.08-1.52-2.72-4.32-4.16-2.64-1.36-6.24-3.12-5.8-7s4.44-4.76,8-4.36c2.6.32,3.2,1.52,3.56,0h.68l.4,6.2h-1c-.68-3.24-1.6-4.48-3.68-4.72-1.4-.2-2.4.28-2.52,1.4-.2,1.56,1.56,2.28,4.32,3.8S344.48,151.06,343.56,155.54Z"/><path class="cls-2" d="M371.64,158.74v1.08H358.8v-1.08c3,0,3.08-2.12,2.8-4.6,0,0-.56-3.64-.8-5.12-.36-2.36-.64-4.48-3.4-4.48-2.4,0-3.4,2.12-3.4,4.76v4.84c0,2.52.24,4.6,3.28,4.6v1.08H344.12v-1.08c3,0,3.44-2.08,3.44-4.6V140.66c0-2.52-.4-4.6-3.44-4.6v-1.12c2.32,0,6.4-1,8.8-3.12H354v12.6a7.37,7.37,0,0,1,6.36-3.12c4,0,6.2,2.16,6.92,7.2.56,4,.76,5.64.76,5.64C368.36,156.5,368.6,158.74,371.64,158.74Z"/><path class="cls-2" d="M386,158.74v1.08h-13.2v-1.08c3,0,3.44-2.08,3.44-4.6v-4c0-2.52-.4-4.6-3.44-4.6v-1.08c2.32,0,6.4-1,8.8-3.12h1.08v12.84C382.72,156.66,383,158.74,386,158.74Zm-11.2-23.12a4,4,0,1,1,4,3.8A3.92,3.92,0,0,1,374.84,135.62Z"/><path class="cls-2" d="M411,150.74c0,5.64-3.95,10.32-10,9.44a7.59,7.59,0,0,1-4.6-2.44v5.84c0,2.52,1,4.6,4.08,4.6v1.12h-14v-1.12c3,0,3.44-2.08,3.44-4.6V150.1c0-2.52-.4-4.6-3.44-4.6v-1.08a15.05,15.05,0,0,0,8.8-3.12h1.08v2.08a7.36,7.36,0,0,1,4.24-2.08C406.64,140.46,411,145.1,411,150.74Zm-6.59-.52c-.84-4.8-2.72-7.64-5.16-7.2s-3.28,3.76-2.44,8.56,2.76,7.6,5.2,7.2S405.2,155,404.36,150.22Z"/></svg>