<svg xmlns="http://www.w3.org/2000/svg" viewBox="0 0 600 300"><defs><style>.cls-1{fill:#4f517d;}.cls-2{fill:#fff;}</style></defs><g id="devNotes"><rect class="cls-1" width="600" height="300"/><path class="cls-2" d="M182.06,140.42V112H193a15.88,15.88,0,0,1,6.2,1.12,12.48,12.48,0,0,1,7.2,7.54,17.13,17.13,0,0,1-.1,11.36,12.57,12.57,0,0,1-2.9,4.48,13,13,0,0,1-4.52,2.88,16.2,16.2,0,0,1-5.88,1Zm17.32-14.24a9.54,9.54,0,0,0-.44-3,6.56,6.56,0,0,0-1.26-2.32,5.63,5.63,0,0,0-2-1.5,6.45,6.45,0,0,0-2.68-.54h-3.12v14.8H193a6.39,6.39,0,0,0,2.72-.56,5.55,5.55,0,0,0,2-1.56,6.82,6.82,0,0,0,1.24-2.36A10,10,0,0,0,199.38,126.18Z"/><path class="cls-2" d="M220.54,140.82a13.28,13.28,0,0,1-4.92-.86,10.39,10.39,0,0,1-3.62-2.34,10.21,10.21,0,0,1-2.22-3.4,10.82,10.82,0,0,1-.76-4,12.65,12.65,0,0,1,.74-4.32,10.11,10.11,0,0,1,2.2-3.56,10.81,10.81,0,0,1,3.6-2.42,14.17,14.17,0,0,1,9.94,0,10.7,10.7,0,0,1,3.62,2.4,9.77,9.77,0,0,1,2.2,3.48,11.8,11.8,0,0,1,.74,4.14c0,.4,0,.81-.06,1.22s-.08.78-.14,1.1H217.1a3,3,0,0,0,1.24,2.42,4.37,4.37,0,0,0,2.44.74,5.11,5.11,0,0,0,2.34-.56,2.81,2.81,0,0,0,1.46-1.56L231,135.1a10.17,10.17,0,0,1-3.94,4.12A12.43,12.43,0,0,1,220.54,140.82Zm3.36-13.16a3.87,3.87,0,0,0-1.12-2.4,3.6,3.6,0,0,0-4.72,0,4,4,0,0,0-1.12,2.4Z"/><path class="cls-2" d="M239.06,140.42l-7.08-21h7.8l3.76,15.08,3.8-15.08h7.08l-7.08,21Z"/><path class="cls-2" d="M266,140.82a13.28,13.28,0,0,1-4.92-.86,10.07,10.07,0,0,1-5.84-5.74,10.82,10.82,0,0,1-.76-4,12.65,12.65,0,0,1,.74-4.32,10,10,0,0,1,2.2-3.56,10.61,10.61,0,0,1,3.6-2.42,14.17,14.17,0,0,1,9.94,0,10.7,10.7,0,0,1,3.62,2.4,9.91,9.91,0,0,1,2.2,3.48,11.8,11.8,0,0,1,.74,4.14c0,.4,0,.81-.06,1.22s-.08.78-.14,1.1H262.58a2.94,2.94,0,0,0,1.24,2.42,4.37,4.37,0,0,0,2.44.74,5.11,5.11,0,0,0,2.34-.56,2.81,2.81,0,0,0,1.46-1.56l6.44,1.84a10.17,10.17,0,0,1-3.94,4.12A12.43,12.43,0,0,1,266,140.82Zm3.36-13.16a3.92,3.92,0,0,0-1.12-2.4,3.6,3.6,0,0,0-4.72,0,4,4,0,0,0-1.12,2.4Z"/><path class="cls-2" d="M279.86,111.22h7.6v20.84c0,1.6.65,2.4,2,2.4a3.66,3.66,0,0,0,1-.16,4.58,4.58,0,0,0,1-.44l1,5.6a13.91,13.91,0,0,1-3.06,1,15.56,15.56,0,0,1-3.22.36,6.52,6.52,0,0,1-4.68-1.56,6,6,0,0,1-1.64-4.52Z"/><path class="cls-2" d="M304.58,140.82a12.79,12.79,0,0,1-5-.9,10.71,10.71,0,0,1-3.6-2.4,9.91,9.91,0,0,1-2.2-3.48,12,12,0,0,1,0-8.28,9.91,9.91,0,0,1,2.2-3.48,10.71,10.71,0,0,1,3.6-2.4,14.17,14.17,0,0,1,9.94,0,10.7,10.7,0,0,1,3.62,2.4,9.91,9.91,0,0,1,2.2,3.48,12,12,0,0,1,0,8.28,9.91,9.91,0,0,1-2.2,3.48,10.7,10.7,0,0,1-3.62,2.4A12.79,12.79,0,0,1,304.58,140.82Zm-3.72-10.92a4.93,4.93,0,0,0,1,3.32,3.59,3.59,0,0,0,5.36,0,5.82,5.82,0,0,0,0-6.64,3.59,3.59,0,0,0-5.36,0A4.93,4.93,0,0,0,300.86,129.9Z"/><path class="cls-2" d="M332.94,140.82a8.27,8.27,0,0,1-4-.9,6.2,6.2,0,0,1-2.6-2.62v11.64h-7.6V119.38h6.6v3.16a7.89,7.89,0,0,1,2.76-2.64,8.18,8.18,0,0,1,4-.92,9.23,9.23,0,0,1,7,3.08,10.74,10.74,0,0,1,2,3.44,12.4,12.4,0,0,1,.74,4.32,13.77,13.77,0,0,1-.68,4.38,11.07,11.07,0,0,1-1.88,3.5,8.59,8.59,0,0,1-2.84,2.3A7.8,7.8,0,0,1,332.94,140.82Zm-2.64-6.4a3.33,3.33,0,0,0,1.54-.36,3.5,3.5,0,0,0,1.2-1,5.39,5.39,0,0,0,.8-1.48,5.31,5.31,0,0,0,.3-1.8,4.46,4.46,0,0,0-1.14-3.2,4,4,0,0,0-3-1.2,4.31,4.31,0,0,0-3.6,2.16v3.64A5.81,5.81,0,0,0,328,133.5,3.49,3.49,0,0,0,330.3,134.42Z"/><path class="cls-2" d="M355,140.82a13.28,13.28,0,0,1-4.92-.86,10.07,10.07,0,0,1-5.84-5.74,10.82,10.82,0,0,1-.76-4,12.65,12.65,0,0,1,.74-4.32,10,10,0,0,1,2.2-3.56,10.61,10.61,0,0,1,3.6-2.42,14.17,14.17,0,0,1,9.94,0,10.7,10.7,0,0,1,3.62,2.4,9.91,9.91,0,0,1,2.2,3.48,11.8,11.8,0,0,1,.74,4.14c0,.4,0,.81-.06,1.22s-.09.78-.14,1.1H351.58a2.94,2.94,0,0,0,1.24,2.42,4.37,4.37,0,0,0,2.44.74,5.11,5.11,0,0,0,2.34-.56,2.81,2.81,0,0,0,1.46-1.56l6.44,1.84a10.17,10.17,0,0,1-3.94,4.12A12.43,12.43,0,0,1,355,140.82Zm3.36-13.16a3.92,3.92,0,0,0-1.12-2.4,3.6,3.6,0,0,0-4.72,0,3.92,3.92,0,0,0-1.12,2.4Z"/><path class="cls-2" d="M383.3,125.86a15.5,15.5,0,0,0-4,.48,4.87,4.87,0,0,0-2.68,1.6v12.48H369v-21h7v4a8.91,8.91,0,0,1,2.78-3.26,6.21,6.21,0,0,1,3.58-1.14,6.14,6.14,0,0,1,1,0Z"/><path class="cls-2" d="M386.5,122.3l1-5.24h-2.08v-6.4h7.88v6.6l-1.68,5Z"/><path class="cls-2" d="M405.1,140.82a16.63,16.63,0,0,1-5.4-.9,12.23,12.23,0,0,1-4.48-2.62l2.6-4.56a20.21,20.21,0,0,0,3.78,2,9.15,9.15,0,0,0,3.34.72c1.07,0,1.6-.33,1.6-1a1.16,1.16,0,0,0-.62-1,10.36,10.36,0,0,0-2.42-.92,37.49,37.49,0,0,1-3.74-1.26,10.77,10.77,0,0,1-2.44-1.34,4.24,4.24,0,0,1-1.34-1.6,5,5,0,0,1-.4-2.08,6.82,6.82,0,0,1,.64-3A7.22,7.22,0,0,1,398,121a8,8,0,0,1,2.72-1.54,10.64,10.64,0,0,1,3.46-.54,16,16,0,0,1,4.42.6,11.19,11.19,0,0,1,4.22,2.44l-2.88,4.56a21.06,21.06,0,0,0-3.28-1.82,6.58,6.58,0,0,0-2.48-.54,2.21,2.21,0,0,0-1.12.26.89.89,0,0,0-.44.82,1.11,1.11,0,0,0,.64,1,11.34,11.34,0,0,0,2.52.86,28.85,28.85,0,0,1,3.84,1.26,10.11,10.11,0,0,1,2.5,1.44,4.53,4.53,0,0,1,1.34,1.76,5.88,5.88,0,0,1,.4,2.26,6.8,6.8,0,0,1-.6,2.92,6.16,6.16,0,0,1-1.74,2.2,8,8,0,0,1-2.76,1.4A12.88,12.88,0,0,1,405.1,140.82Z"/><path class="cls-2" d="M202.7,184.42h-7.6V172.58a3.09,3.09,0,0,0-.7-2.26,2.19,2.19,0,0,0-1.62-.7,3.39,3.39,0,0,0-2,.84,5,5,0,0,0-1.6,2.16v11.8h-7.6v-21h6.84v3.12a7.11,7.11,0,0,1,3.14-2.62,11.68,11.68,0,0,1,4.78-.9,6.46,6.46,0,0,1,3.42.78,5.48,5.48,0,0,1,1.92,1.94,7,7,0,0,1,.86,2.48,15.3,15.3,0,0,1,.2,2.4Z"/><path class="cls-2" d="M216.74,184.82a12.79,12.79,0,0,1-5-.9,10.92,10.92,0,0,1-3.6-2.4A10,10,0,0,1,206,178a12,12,0,0,1,0-8.28,10,10,0,0,1,2.2-3.48,10.92,10.92,0,0,1,3.6-2.4,14.17,14.17,0,0,1,9.94,0,10.7,10.7,0,0,1,3.62,2.4,9.77,9.77,0,0,1,2.2,3.48,12,12,0,0,1,0,8.28,9.77,9.77,0,0,1-2.2,3.48,10.7,10.7,0,0,1-3.62,2.4A12.79,12.79,0,0,1,216.74,184.82ZM213,173.9a4.93,4.93,0,0,0,1,3.32,3.59,3.59,0,0,0,5.36,0,5.82,5.82,0,0,0,0-6.64,3.59,3.59,0,0,0-5.36,0A4.93,4.93,0,0,0,213,173.9Z"/><path class="cls-2" d="M245.38,183.26A23.64,23.64,0,0,1,242,184.4a14.36,14.36,0,0,1-3.58.46,9.33,9.33,0,0,1-2.44-.32,5.32,5.32,0,0,1-2-1,5.1,5.1,0,0,1-1.36-1.88,7.33,7.33,0,0,1-.5-2.88V169.1h-2.6v-5.72h2.6v-6.6h7.6v6.6h4.12v5.72h-4.12v7a2,2,0,0,0,.44,1.46,1.69,1.69,0,0,0,1.2.42,5.3,5.3,0,0,0,1.28-.18,9.12,9.12,0,0,0,1.44-.5Z"/><path class="cls-2" d="M257.66,184.82a13.28,13.28,0,0,1-4.92-.86,10.39,10.39,0,0,1-3.62-2.34,10.21,10.21,0,0,1-2.22-3.4,11,11,0,0,1-.76-4,12.65,12.65,0,0,1,.74-4.32,10.11,10.11,0,0,1,2.2-3.56,10.81,10.81,0,0,1,3.6-2.42,14.17,14.17,0,0,1,9.94,0,10.7,10.7,0,0,1,3.62,2.4,9.77,9.77,0,0,1,2.2,3.48,11.58,11.58,0,0,1,.74,4.14c0,.4,0,.81-.06,1.22s-.08.78-.14,1.1H254.22a3,3,0,0,0,1.24,2.42,4.37,4.37,0,0,0,2.44.74,5.11,5.11,0,0,0,2.34-.56,2.77,2.77,0,0,0,1.46-1.56l6.44,1.84a10.1,10.1,0,0,1-3.94,4.12A12.43,12.43,0,0,1,257.66,184.82ZM261,171.66a3.87,3.87,0,0,0-1.12-2.4,3.6,3.6,0,0,0-4.72,0,4,4,0,0,0-1.12,2.4Z"/><path class="cls-2" d="M280.34,184.82a16.63,16.63,0,0,1-5.4-.9,12.23,12.23,0,0,1-4.48-2.62l2.6-4.56a20.21,20.21,0,0,0,3.78,2,9.2,9.2,0,0,0,3.34.72c1.07,0,1.6-.33,1.6-1a1.16,1.16,0,0,0-.62-1,10.36,10.36,0,0,0-2.42-.92,37.49,37.49,0,0,1-3.74-1.26,10.77,10.77,0,0,1-2.44-1.34,4.34,4.34,0,0,1-1.34-1.6,5,5,0,0,1-.4-2.08,6.82,6.82,0,0,1,.64-3,7.22,7.22,0,0,1,1.78-2.36,8,8,0,0,1,2.72-1.54,10.68,10.68,0,0,1,3.46-.54,16,16,0,0,1,4.42.6,11.19,11.19,0,0,1,4.22,2.44l-2.88,4.56a21.06,21.06,0,0,0-3.28-1.82,6.58,6.58,0,0,0-2.48-.54,2.24,2.24,0,0,0-1.12.26.89.89,0,0,0-.44.82,1.11,1.11,0,0,0,.64,1,11.34,11.34,0,0,0,2.52.86,28.85,28.85,0,0,1,3.84,1.26,10.11,10.11,0,0,1,2.5,1.44,4.43,4.43,0,0,1,1.34,1.76,5.88,5.88,0,0,1,.4,2.26,6.8,6.8,0,0,1-.6,2.92,6.16,6.16,0,0,1-1.74,2.2,8,8,0,0,1-2.76,1.4A12.88,12.88,0,0,1,280.34,184.82Z"/><path class="cls-2" d="M308.3,184.42l-8.68-20.8h2.08l7.68,18.8,7.72-18.8h2l-8.68,20.8Z"/><path class="cls-2" d="M335.38,182.58v1.84H322.62v-1.84h5.68V164.1a5.25,5.25,0,0,1-1.12,1,13.31,13.31,0,0,1-1.72,1.06,14.63,14.63,0,0,1-2,.84,5.6,5.6,0,0,1-1.8.34v-2a4.89,4.89,0,0,0,2.12-.54,15.38,15.38,0,0,0,2.1-1.22,14.68,14.68,0,0,0,1.64-1.3,7.47,7.47,0,0,0,.74-.74h2v21Z"/><path class="cls-2" d="M338.9,184.42V181h1.76v3.4Z"/><path class="cls-2" d="M356.5,175a6.84,6.84,0,0,1,4.36,2.44,7.51,7.51,0,0,1,1.64,4.92,7.81,7.81,0,0,1-.66,3.26,7.26,7.26,0,0,1-1.84,2.5,8.68,8.68,0,0,1-2.82,1.62,10.77,10.77,0,0,1-3.64.58,10.64,10.64,0,0,1-5.28-1.28,7.68,7.68,0,0,1-3.32-3.52l1.48-1.2a6.33,6.33,0,0,0,2.64,3,8.51,8.51,0,0,0,4.52,1.12,7.26,7.26,0,0,0,5-1.64,5.77,5.77,0,0,0,1.84-4.56,5.94,5.94,0,0,0-1.9-4.64,7.73,7.73,0,0,0-5.38-1.72h-1v-1.76h1a7.49,7.49,0,0,0,5-1.46,4.84,4.84,0,0,0,1.72-3.9,5.44,5.44,0,0,0-.48-2.34,5.15,5.15,0,0,0-1.32-1.74,5.79,5.79,0,0,0-2-1.1,8.12,8.12,0,0,0-2.52-.38,7.92,7.92,0,0,0-4.2,1.1,6.57,6.57,0,0,0-2.64,3l-1.36-1.12a7,7,0,0,1,1.3-2,8.47,8.47,0,0,1,1.92-1.52,9.45,9.45,0,0,1,2.4-1,10.66,10.66,0,0,1,2.74-.34,9.93,9.93,0,0,1,3.3.52,7.81,7.81,0,0,1,2.6,1.48,6.74,6.74,0,0,1,2.34,5.2,7,7,0,0,1-.38,2.32,5.9,5.9,0,0,1-1.1,1.92,6.56,6.56,0,0,1-1.74,1.42A6.08,6.08,0,0,1,356.5,175Z"/><path class="cls-2" d="M367.14,184.42V181h1.76v3.4Z"/><path class="cls-2" d="M386.22,189.5v-7.44H372.38V180.3l14.44-18.72h1.4v18.64h3.52v1.84h-3.52v7.44Zm-11.6-9.28h11.76v-15.4Z"/><path class="cls-2" d="M395.66,184.42V181h1.76v3.4Z"/><path class="cls-2" d="M401.86,184.42a16.62,16.62,0,0,1,.2-2.5,9.22,9.22,0,0,1,.9-2.8,10.13,10.13,0,0,1,2-2.76,12.93,12.93,0,0,1,3.58-2.42c.74-.37,1.54-.75,2.4-1.12a14.45,14.45,0,0,0,2.36-1.3,7.51,7.51,0,0,0,1.8-1.7,3.75,3.75,0,0,0,.72-2.32,3.87,3.87,0,0,0-.36-1.6,4.55,4.55,0,0,0-1.06-1.44,5.4,5.4,0,0,0-1.78-1,8.08,8.08,0,0,0-5,0,8.69,8.69,0,0,0-3.28,2.08,10.32,10.32,0,0,0-.78.88l-1.36-1.4q.15-.16.78-.78a9.51,9.51,0,0,1,1.66-1.28,13,13,0,0,1,2.5-1.2,9.33,9.33,0,0,1,3.26-.54,9.76,9.76,0,0,1,3.22.5A7.37,7.37,0,0,1,416,163a5.76,5.76,0,0,1,1.48,2,5.91,5.91,0,0,1,.5,2.38,5,5,0,0,1-.8,2.84,9.09,9.09,0,0,1-2,2.1,13.44,13.44,0,0,1-2.42,1.5c-.84.4-1.57.73-2.18,1a13.46,13.46,0,0,0-4.78,3.14,6.81,6.81,0,0,0-1.74,4.58h14.32v1.84Z"/></g></svg>