<svg id="Layer_1" data-name="Layer 1" xmlns="http://www.w3.org/2000/svg" viewBox="0 0 600 300"><defs><style>.cls-1{fill:#151e2d;}.cls-2{fill:#fff;}</style></defs><rect class="cls-1" width="600" height="300"/><path class="cls-2" d="M167.24,151.18l-.64,8.64H142v-1.08c3,0,3.76-2.08,3.76-4.6v-16.6c0-2.52-.72-4.6-3.76-4.6v-1.12h23.2l.64,8.64h-1.24c-1.28-4-3.24-7-6.68-7h-5.4V145H153c3.44,0,5.68,0,6-5h1.08v11.6H159c-.36-5-2.6-5-6-5h-.52v11.64h6.84c3.44,0,5.36-3,6.64-7.08Z"/><path class="cls-2" d="M188.64,141.7v1.08c-2,0-2.84,1-3.48,2.6l-5.8,14.44h-2.68l-6.52-14.44c-.8-1.64-1.32-2.6-3.32-2.6V141.7h11.72v1.08c-1.8,0-2.32.64-1.6,2.6l3.48,8.16,3.28-8.16c.88-2.2,0-2.6-2.12-2.6V141.7Z"/><path class="cls-2" d="M207.48,154.1a9.69,9.69,0,0,1-9.12,6.08c-6,0-10-3.88-10.44-8.68-.56-6.44,4.28-10.2,10.28-10.2,5.36,0,9,2.88,8.76,8.16l-12.36,2.08c1,5.16,8.68,5.8,12.2,2A8.38,8.38,0,0,1,207.48,154.1ZM194.36,150l6.56-1.12c.2-3.84-.68-6.36-3.44-6.12C195,143,193.88,146.18,194.36,150Z"/><path class="cls-2" d="M227.88,146.7a3.83,3.83,0,0,1-4.72,2.2c.4-1.4.4-3.12-1.16-3.64a2.46,2.46,0,0,0-3.4,2.24v6.64c0,2.52.24,4.6,3.28,4.6v1.08h-13.2v-1.08c3.08,0,3.44-2.08,3.44-4.6v-4c0-2.52-.36-4.6-3.44-4.6v-1.08a15.17,15.17,0,0,0,8.84-3.12h1.08v3.6c1.28-2.44,3.2-4.08,6.16-3.6A3.9,3.9,0,0,1,227.88,146.7Z"/><path class="cls-2" d="M250.4,141.7v1.08c-2,0-2.84,1-3.48,2.6l-5.8,14.44c-1.64,4.2-3.88,10.2-8.2,10.2a3.62,3.62,0,0,1-3.52-2,4,4,0,0,1,2.08-4.88,3.47,3.47,0,0,0,3.56,1.76c1.76-.2,3.28-1.48,4.6-4.68l-7.84-15.44a3.23,3.23,0,0,0-3.2-2V141.7h11.68v1.08c-1.76,0-2.24.64-1.44,2.6l3.56,7.68,3.08-7.68c.88-2.2,0-2.6-2.12-2.6V141.7Z"/><path class="cls-2" d="M265.28,155.78c-1,2.48-2.6,4.4-5.56,4.4-3.2,0-5.8-2.12-5.8-6.4V143.26H250.8V141.7c4-.2,7.52-2.44,8.36-6.76h1.24v6.76h4.24v1.56H260.4V154.1c0,1.88.68,2.4,1.64,2.6a2.37,2.37,0,0,0,2.48-1.32Z"/><path class="cls-2" d="M293.6,158.74v1.08H280.76v-1.08c3,0,3.08-2.12,2.8-4.6,0,0-.56-3.64-.8-5.12-.36-2.36-.64-4.48-3.4-4.48-2.4,0-3.4,2.12-3.4,4.76v4.84c0,2.52.24,4.6,3.28,4.6v1.08H266.08v-1.08c3,0,3.44-2.08,3.44-4.6V140.66c0-2.52-.4-4.6-3.44-4.6v-1.12c2.32,0,6.4-1,8.8-3.12H276v12.6a7.37,7.37,0,0,1,6.36-3.12c4,0,6.2,2.16,6.92,7.2.56,4,.76,5.64.76,5.64C290.32,156.5,290.56,158.74,293.6,158.74Z"/><path class="cls-2" d="M308,158.74v1.08H294.8v-1.08c3,0,3.44-2.08,3.44-4.6v-4c0-2.52-.4-4.6-3.44-4.6v-1.08c2.32,0,6.4-1,8.8-3.12h1.08v12.84C304.68,156.66,304.92,158.74,308,158.74Zm-11.2-23.12a4,4,0,1,1,4,3.8A3.92,3.92,0,0,1,296.8,135.62Z"/><path class="cls-2" d="M336.72,158.74v1.08H323.88v-1.08c3,0,3.08-2.16,2.8-4.6,0,0-.56-3.64-.8-5.12-.36-2.36-.64-4.52-3.4-4.52-2.4,0-3.4,2.12-3.4,4.8v4.84c0,2.52.24,4.6,3.28,4.6v1.08H309.2v-1.08c3,0,3.44-2.08,3.44-4.6v-4c0-2.52-.4-4.6-3.44-4.6v-1.08a15.05,15.05,0,0,0,8.8-3.12h1.08v3.12a7.32,7.32,0,0,1,6.36-3.12c4,0,6.2,2.16,6.92,7.2.56,4,.76,5.64.76,5.64C333.44,156.5,333.68,158.74,336.72,158.74Z"/><path class="cls-2" d="M358.24,163.06c-.32,5.16-6.68,7-10.8,7s-9.52-.76-9.52-4.24c0-1.64,1.28-2.48,2.8-3a3.81,3.81,0,0,1-2.52-4.24c.44-2.32,2.48-3.32,4-3.84a7,7,0,0,1-3.24-6c0-4.44,3.68-7.44,8.8-7.44a11.67,11.67,0,0,1,3.2.44c.2-2.48,1.12-4.6,3.72-4.92A3,3,0,0,1,358.2,140a2.91,2.91,0,0,1-2.88,2.76c-.08-1.12-.48-2.36-1.76-2.36A1.41,1.41,0,0,0,352,142.1a7.07,7.07,0,0,1,4.52,6.64c0,4.48-3.68,7.48-8.8,7.48a10.57,10.57,0,0,1-4.16-.8,1.66,1.66,0,0,0-.84,1.48c.08,1.44,3.84,1.36,5.6,1.36C351.72,158.26,358.6,157.34,358.24,163.06ZM353,165.14c0-.84-.52-1.32-1.72-1.32s-5.32-.2-7.84-.4a2.79,2.79,0,0,0-.88,1.88c-.12,2,1.76,3.48,5.8,3.4S353,166.58,353,165.14Zm-8.32-15.88c.72,3.8,2.28,5.56,4.24,5.24s2.6-2.48,1.92-6.28-2.4-5.48-4.24-5.2S344,145.5,344.64,149.26Z"/><path class="cls-2" d="M386.24,154.1a9.69,9.69,0,0,1-9.12,6.08c-6,0-10-3.88-10.44-8.68-.56-6.44,4.28-10.2,10.28-10.2,5.36,0,9,2.88,8.76,8.16l-12.36,2.08c1,5.16,8.68,5.8,12.2,2A8.38,8.38,0,0,1,386.24,154.1ZM373.12,150l6.56-1.12c.2-3.84-.68-6.36-3.44-6.12C373.72,143,372.64,146.18,373.12,150Z"/><path class="cls-2" d="M415,158.74v1.08H402.12v-1.08c3,0,3.08-2.16,2.8-4.6,0,0-.56-3.64-.8-5.12-.36-2.36-.64-4.52-3.4-4.52-2.4,0-3.4,2.12-3.4,4.8v4.84c0,2.52.24,4.6,3.28,4.6v1.08H387.44v-1.08c3,0,3.44-2.08,3.44-4.6v-4c0-2.52-.4-4.6-3.44-4.6v-1.08a15.05,15.05,0,0,0,8.8-3.12h1.08v3.12a7.32,7.32,0,0,1,6.36-3.12c4,0,6.2,2.16,6.91,7.2.56,4,.76,5.64.76,5.64C411.68,156.5,411.91,158.74,415,158.74Z"/><path class="cls-2" d="M439,157.22a4.58,4.58,0,0,1-4.59,3c-2.08,0-3.6-.56-4.44-1.88a7.51,7.51,0,0,1-5,1.88c-6,0-10.4-3.8-10.4-9.44s4.32-10.28,10.4-9.44a7.36,7.36,0,0,1,4.24,2.08v-2.72c0-2.52-.4-4.6-3.44-4.6v-1.12a15,15,0,0,0,8.84-3.12h1.08V154.1c0,1.92,0,3.32,1,3.56a1.39,1.39,0,0,0,1.59-.84Zm-10.19-7.16c-.84-4.76-2.76-7.6-5.2-7.2s-3.24,3.76-2.4,8.56,2.76,7.6,5.2,7.2S429.6,154.86,428.76,150.06Z"/><path class="cls-2" d="M458.27,155.54c-.8,3.92-5.87,4.88-9.95,4.64-3.32-.16-7.8-1.48-8.44-4.12a3.37,3.37,0,0,1,3.68-4.32,3.22,3.22,0,0,1,2.92,3.36,1.55,1.55,0,0,0-1.72,2c.24,1.08,2.08,1.56,3.68,1.68,2.16.12,3.88-.68,4-2,.28-2.08-1.52-2.72-4.32-4.16-2.64-1.36-6.24-3.12-5.8-7s4.44-4.76,8-4.36c2.6.32,3.19,1.52,3.56,0h.67l.41,6.2h-1c-.68-3.24-1.6-4.48-3.68-4.72-1.4-.2-2.4.28-2.52,1.4-.2,1.56,1.56,2.28,4.32,3.8S459.19,151.06,458.27,155.54Z"/></svg>