<svg id="Layer_1" data-name="Layer 1" xmlns="http://www.w3.org/2000/svg" viewBox="0 0 600 300"><defs><style>.cls-1{fill:#3a5639;}.cls-2{fill:#fff;}</style></defs><rect class="cls-1" width="600" height="300"/><path class="cls-2" d="M80.32,127.2c0,5.4-5.36,7.88-13.92,7.88H53.2V134c3.08,0,3.76-2.08,3.76-4.6V112.8c0-2.52-.68-4.6-3.76-4.6v-1.12H65c8.56,0,13.16,2,13.16,6.92,0,3-2,5-5.28,6C77.64,121,80.32,123.4,80.32,127.2ZM63.76,108.68v10.68h1.68c4.12,0,5.92-2.08,5.92-5.36,0-2.8-1.28-5.32-5.44-5.32Zm9.32,18.52c0-3.64-2.16-6.28-6.84-6.28H63.76v12.6h2.48C70.92,133.52,73.08,130.88,73.08,127.2Z"/><path class="cls-2" d="M101.56,129.36a9.69,9.69,0,0,1-9.12,6.08c-6,0-10-3.88-10.44-8.68-.56-6.44,4.28-10.2,10.28-10.2,5.36,0,9,2.88,8.76,8.16L88.68,126.8c1,5.16,8.68,5.8,12.2,2A8.38,8.38,0,0,1,101.56,129.36Zm-13.12-4.12L95,124.12c.2-3.84-.68-6.36-3.44-6.12C89,118.24,88,121.44,88.44,125.24Z"/><path class="cls-2" d="M116,134v1.08h-13.2V134c3,0,3.44-2.08,3.44-4.6v-4c0-2.52-.4-4.6-3.44-4.6v-1.08c2.32,0,6.4-1,8.8-3.12h1.08V129.4C112.64,131.92,112.88,134,116,134Zm-11.2-23.12a4,4,0,1,1,4,3.8A3.92,3.92,0,0,1,104.76,110.88Z"/><path class="cls-2" d="M144.68,134v1.08H131.84V134c3,0,3.08-2.16,2.8-4.6,0,0-.56-3.64-.8-5.12-.36-2.36-.64-4.52-3.4-4.52-2.4,0-3.4,2.12-3.4,4.8v4.84c0,2.52.24,4.6,3.28,4.6v1.08H117.16V134c3,0,3.44-2.08,3.44-4.6v-4c0-2.52-.4-4.6-3.44-4.6v-1.08a15.05,15.05,0,0,0,8.8-3.12H127v3.12a7.32,7.32,0,0,1,6.36-3.12c4,0,6.2,2.16,6.92,7.2.56,4,.76,5.64.76,5.64C141.4,131.76,141.64,134,144.68,134Z"/><path class="cls-2" d="M166.2,138.32c-.32,5.16-6.68,7-10.8,7s-9.52-.76-9.52-4.24c0-1.64,1.28-2.48,2.8-3a3.81,3.81,0,0,1-2.52-4.24c.44-2.32,2.48-3.32,4-3.84a7,7,0,0,1-3.24-6c0-4.44,3.68-7.44,8.8-7.44a11.67,11.67,0,0,1,3.2.44c.2-2.48,1.12-4.6,3.72-4.92a3,3,0,0,1,3.56,3.16,2.91,2.91,0,0,1-2.88,2.76c-.08-1.12-.48-2.36-1.76-2.36a1.41,1.41,0,0,0-1.56,1.72,7.07,7.07,0,0,1,4.52,6.64c0,4.48-3.68,7.48-8.8,7.48a10.57,10.57,0,0,1-4.16-.8,1.66,1.66,0,0,0-.84,1.48c.08,1.44,3.84,1.36,5.6,1.36C159.68,133.52,166.56,132.6,166.2,138.32Zm-5.28,2.08c0-.84-.52-1.32-1.72-1.32s-5.32-.2-7.84-.4a2.79,2.79,0,0,0-.88,1.88c-.12,2,1.76,3.48,5.8,3.4S160.92,141.84,160.92,140.4Zm-8.32-15.88c.72,3.8,2.28,5.56,4.24,5.24s2.6-2.48,1.92-6.28-2.4-5.48-4.24-5.2S151.92,120.76,152.6,124.52Z"/><path class="cls-2" d="M197.2,133.88a5.16,5.16,0,0,1-4.2,1.56c-2.16,0-4.68-.72-5.28-2.64a6.25,6.25,0,0,1-5.64,2.64c-3.32,0-6.44-1.08-7-4s.92-5.64,5.64-6.6c3.76-.76,6.08,0,5.64-2.72-.36-2-1.08-4.16-3.08-4.16-2.52-.2-3.68,2.28-2.12,3.56a2.78,2.78,0,0,1-3.72,1.32,2.21,2.21,0,0,1-.92-3c1-2.6,4.44-3.24,6.72-3.24,6.4,0,9,2.12,9.76,7.16.56,4,.76,5.64.76,5.64a11.64,11.64,0,0,0,.88,3.52,1.86,1.86,0,0,0,2.24.12C197,133.44,197.08,133.48,197.2,133.88Zm-10-5c-.12-1.44-.28-2.92-.44-3.92-.32.64-.76.84-2.8,1.4a3.57,3.57,0,0,0-2.64,4,3,3,0,0,0,3.56,2.56C186.84,132.52,187.36,130.8,187.24,128.88Z"/><path class="cls-2" d="M217,108.16c-2,0-2.64,2-1.84,4.24a16.61,16.61,0,0,1,1.08,4.52h5.64v1.6h-5.6v10.84c0,2.52,1,4.6,4.08,4.6v1.12h-14V134c3,0,3.44-2.08,3.44-4.6V118.52h-3.32v-1.6h3.32v-.2c0-5.72,1.56-10,7.44-10,3.48,0,6.68,1.36,6.36,4.2-.32,2.52-3.32,2.4-4.88,1.84C219.2,111.6,219.72,108.16,217,108.16Z"/><path class="cls-2" d="M241.08,122a3.83,3.83,0,0,1-4.72,2.2c.4-1.4.4-3.12-1.16-3.64a2.46,2.46,0,0,0-3.4,2.24v6.64c0,2.52.24,4.6,3.28,4.6v1.08h-13.2V134c3.08,0,3.44-2.08,3.44-4.6v-4c0-2.52-.36-4.6-3.44-4.6v-1.08a15.17,15.17,0,0,0,8.84-3.12h1.08v3.6c1.28-2.44,3.2-4.08,6.16-3.6A3.9,3.9,0,0,1,241.08,122Z"/><path class="cls-2" d="M261.44,129.36a9.69,9.69,0,0,1-9.12,6.08c-6,0-10-3.88-10.44-8.68-.56-6.44,4.28-10.2,10.28-10.2,5.36,0,9,2.88,8.76,8.16l-12.36,2.08c1,5.16,8.68,5.8,12.2,2A8.38,8.38,0,0,1,261.44,129.36Zm-13.12-4.12,6.56-1.12c.2-3.84-.68-6.36-3.44-6.12C248.92,118.24,247.84,121.44,248.32,125.24Z"/><path class="cls-2" d="M282.68,129.36a9.69,9.69,0,0,1-9.12,6.08c-6,0-10-3.88-10.44-8.68-.56-6.44,4.28-10.2,10.28-10.2,5.36,0,9,2.88,8.76,8.16L269.8,126.8c1,5.16,8.68,5.8,12.2,2A8.38,8.38,0,0,1,282.68,129.36Zm-13.12-4.12,6.56-1.12c.2-3.84-.68-6.36-3.44-6.12C270.16,118.24,269.08,121.44,269.56,125.24Z"/><path class="cls-2" d="M296.44,134v1.08H283.08V134c3,0,3.44-2.08,3.44-4.6V115.92c0-2.52-.4-4.6-3.44-4.6V110.2a15,15,0,0,0,8.84-3.12H293V129.4C293,131.92,293.36,134,296.44,134Z"/><path class="cls-2" d="M319.48,133.88a5.16,5.16,0,0,1-4.2,1.56c-2.16,0-4.68-.72-5.28-2.64a6.25,6.25,0,0,1-5.64,2.64c-3.32,0-6.44-1.08-7-4s.92-5.64,5.64-6.6c3.76-.76,6.08,0,5.64-2.72-.36-2-1.08-4.16-3.08-4.16-2.52-.2-3.68,2.28-2.12,3.56a2.78,2.78,0,0,1-3.72,1.32,2.21,2.21,0,0,1-.92-3c1-2.6,4.44-3.24,6.72-3.24,6.4,0,9,2.12,9.76,7.16.56,4,.76,5.64.76,5.64a11.64,11.64,0,0,0,.88,3.52,1.86,1.86,0,0,0,2.24.12C319.32,133.44,319.36,133.48,319.48,133.88Zm-10-5c-.12-1.44-.28-2.92-.44-3.92-.32.64-.76.84-2.8,1.4a3.57,3.57,0,0,0-2.64,4A3,3,0,0,0,307.2,133C309.12,132.52,309.64,130.8,309.52,128.88Z"/><path class="cls-2" d="M348.19,134v1.08H335.36V134c3,0,3.08-2.16,2.8-4.6,0,0-.56-3.64-.8-5.12-.36-2.36-.64-4.52-3.4-4.52-2.4,0-3.4,2.12-3.4,4.8v4.84c0,2.52.24,4.6,3.28,4.6v1.08H320.68V134c3,0,3.44-2.08,3.44-4.6v-4c0-2.52-.4-4.6-3.44-4.6v-1.08a15.05,15.05,0,0,0,8.8-3.12h1.08v3.12a7.32,7.32,0,0,1,6.36-3.12c4,0,6.2,2.16,6.92,7.2.56,4,.76,5.64.76,5.64C344.92,131.76,345.15,134,348.19,134Z"/><path class="cls-2" d="M367.44,129.36a9.69,9.69,0,0,1-9.12,6.08c-6,0-10-3.72-10.44-8.52-.56-6.44,4.28-10.36,10.28-10.36s7.84,2.4,8.16,4.68a3.58,3.58,0,0,1-1.72,3.92c-1.48.72-3.56.24-5-1.8,2.12-1.72,1.36-5.64-2.08-5.36-2.08.2-3.56,2.52-3.4,6.16.24,4.56,2.56,6.68,6.12,7a7.65,7.65,0,0,0,6.6-2.4A8,8,0,0,1,367.44,129.36Z"/><path class="cls-2" d="M388.28,129.36a9.69,9.69,0,0,1-9.12,6.08c-6,0-10-3.88-10.44-8.68-.56-6.44,4.28-10.2,10.28-10.2,5.36,0,9,2.88,8.76,8.16L375.4,126.8c1,5.16,8.68,5.8,12.2,2A8.38,8.38,0,0,1,388.28,129.36Zm-13.12-4.12,6.56-1.12c.2-3.84-.68-6.36-3.44-6.12C375.76,118.24,374.68,121.44,375.16,125.24Z"/><path class="cls-2" d="M417.72,138.32c-.32,5.16-6.68,7-10.8,7s-9.52-.76-9.52-4.24c0-1.64,1.28-2.48,2.8-3a3.81,3.81,0,0,1-2.52-4.24c.44-2.32,2.48-3.32,4-3.84a7,7,0,0,1-3.24-6c0-4.44,3.68-7.44,8.8-7.44a11.67,11.67,0,0,1,3.2.44c.2-2.48,1.12-4.6,3.72-4.92a3,3,0,0,1,3.56,3.16A2.91,2.91,0,0,1,414.8,118c-.08-1.12-.48-2.36-1.76-2.36a1.41,1.41,0,0,0-1.56,1.72A7.07,7.07,0,0,1,416,124c0,4.48-3.68,7.48-8.8,7.48a10.57,10.57,0,0,1-4.16-.8,1.66,1.66,0,0,0-.84,1.48c.08,1.44,3.84,1.36,5.6,1.36C411.2,133.52,418.08,132.6,417.72,138.32Zm-5.28,2.08c0-.84-.52-1.32-1.72-1.32s-5.32-.2-7.84-.4a2.79,2.79,0,0,0-.88,1.88c-.12,2,1.76,3.48,5.8,3.4S412.44,141.84,412.44,140.4Zm-8.32-15.88c.72,3.8,2.28,5.56,4.24,5.24s2.6-2.48,1.92-6.28-2.4-5.48-4.24-5.2S403.44,120.76,404.12,124.52Z"/><path class="cls-2" d="M437.76,122a3.83,3.83,0,0,1-4.72,2.2c.4-1.4.4-3.12-1.16-3.64a2.46,2.46,0,0,0-3.4,2.24v6.64c0,2.52.24,4.6,3.28,4.6v1.08h-13.2V134c3.08,0,3.44-2.08,3.44-4.6v-4c0-2.52-.36-4.6-3.44-4.6v-1.08a15.17,15.17,0,0,0,8.84-3.12h1.08v3.6c1.28-2.44,3.2-4.08,6.16-3.6A3.9,3.9,0,0,1,437.76,122Z"/><path class="cls-2" d="M460.31,133.88c-.71.84-1.95,1.56-4.19,1.56s-4.68-.72-5.28-2.64a6.25,6.25,0,0,1-5.64,2.64c-3.32,0-6.44-1.08-7-4s.92-5.64,5.64-6.6c3.76-.76,6.08,0,5.64-2.72-.36-2-1.08-4.16-3.08-4.16-2.52-.2-3.68,2.28-2.12,3.56a2.78,2.78,0,0,1-3.72,1.32,2.21,2.21,0,0,1-.92-3c1-2.6,4.44-3.24,6.72-3.24,6.4,0,9,2.12,9.76,7.16.56,4,.76,5.64.76,5.64a11.64,11.64,0,0,0,.88,3.52A1.86,1.86,0,0,0,460,133,8.56,8.56,0,0,1,460.31,133.88Zm-9.95-5c-.12-1.44-.28-2.92-.44-3.92-.32.64-.76.84-2.8,1.4a3.57,3.57,0,0,0-2.64,4A3,3,0,0,0,448,133C450,132.52,450.48,130.8,450.36,128.88Z"/><path class="cls-2" d="M484.44,126c0,5.64-4,10.32-10,9.44a7.59,7.59,0,0,1-4.6-2.44v5.84c0,2.52,1,4.6,4.08,4.6v1.12h-14v-1.12c3,0,3.44-2.08,3.44-4.6V125.36c0-2.52-.4-4.6-3.44-4.6v-1.08a15.05,15.05,0,0,0,8.8-3.12h1.08v2.08a7.36,7.36,0,0,1,4.24-2.08C480.12,115.72,484.44,120.36,484.44,126Zm-6.6-.52c-.84-4.8-2.72-7.64-5.16-7.2s-3.28,3.76-2.44,8.56,2.76,7.6,5.2,7.2S478.68,130.28,477.84,125.48Z"/><path class="cls-2" d="M512.36,134v1.08H499.52V134c3,0,3.08-2.12,2.8-4.6,0,0-.56-3.64-.8-5.12-.36-2.36-.64-4.48-3.4-4.48-2.4,0-3.4,2.12-3.4,4.76v4.84c0,2.52.24,4.6,3.28,4.6v1.08H484.84V134c3,0,3.44-2.08,3.44-4.6V115.92c0-2.52-.4-4.6-3.44-4.6V110.2c2.32,0,6.4-1,8.8-3.12h1.08v12.6a7.37,7.37,0,0,1,6.36-3.12c4,0,6.2,2.16,6.92,7.2.56,4,.76,5.64.76,5.64C509.08,131.76,509.32,134,512.36,134Z"/><path class="cls-2" d="M526.76,134v1.08h-13.2V134c3,0,3.44-2.08,3.44-4.6v-4c0-2.52-.4-4.6-3.44-4.6v-1.08c2.32,0,6.4-1,8.8-3.12h1.08V129.4C523.44,131.92,523.68,134,526.76,134Zm-11.2-23.12a4,4,0,1,1,4,3.8A3.92,3.92,0,0,1,515.56,110.88Z"/><path class="cls-2" d="M546.8,129.36a9.69,9.69,0,0,1-9.12,6.08c-6,0-10-3.72-10.44-8.52-.56-6.44,4.28-10.36,10.28-10.36s7.84,2.4,8.16,4.68a3.58,3.58,0,0,1-1.72,3.92c-1.48.72-3.56.24-5-1.8,2.12-1.72,1.36-5.64-2.08-5.36-2.08.2-3.56,2.52-3.4,6.16.24,4.56,2.56,6.68,6.12,7a7.65,7.65,0,0,0,6.6-2.4A8,8,0,0,1,546.8,129.36Z"/><path class="cls-2" d="M134,180.48a4.59,4.59,0,0,1-4.6,3c-2.08,0-3.6-.56-4.44-1.88a7.51,7.51,0,0,1-5,1.88c-6,0-10.4-3.8-10.4-9.44s4.32-10.28,10.4-9.44a7.36,7.36,0,0,1,4.24,2.08v-2.72c0-2.52-.4-4.6-3.44-4.6V158.2a15,15,0,0,0,8.84-3.12h1.08v22.28c0,1.92,0,3.32,1,3.56a1.41,1.41,0,0,0,1.6-.84Zm-10.2-7.16c-.84-4.76-2.76-7.6-5.2-7.2s-3.24,3.76-2.4,8.56,2.76,7.6,5.2,7.2S124.62,178.12,123.78,173.32Z"/><path class="cls-2" d="M154,177.36a9.69,9.69,0,0,1-9.12,6.08c-6,0-10-3.88-10.44-8.68-.56-6.44,4.28-10.2,10.28-10.2,5.36,0,9,2.88,8.76,8.16l-12.36,2.08c1,5.16,8.68,5.8,12.2,2A8.38,8.38,0,0,1,154,177.36Zm-13.12-4.12,6.56-1.12c.2-3.84-.68-6.36-3.44-6.12C141.5,166.24,140.42,169.44,140.9,173.24Z"/><path class="cls-2" d="M173.34,178.8c-.8,3.92-5.88,4.88-10,4.64-3.32-.16-7.8-1.48-8.44-4.12a3.37,3.37,0,0,1,3.68-4.32,3.22,3.22,0,0,1,2.92,3.36,1.55,1.55,0,0,0-1.72,2c.24,1.08,2.08,1.56,3.68,1.68,2.16.12,3.88-.68,4-2,.28-2.08-1.52-2.72-4.32-4.16-2.64-1.36-6.24-3.12-5.8-7s4.44-4.76,8-4.36c2.6.32,3.2,1.52,3.56,0h.68l.4,6.2h-1c-.68-3.24-1.6-4.48-3.68-4.72-1.4-.2-2.4.28-2.52,1.4-.2,1.56,1.56,2.28,4.32,3.8S174.26,174.32,173.34,178.8Z"/><path class="cls-2" d="M187.1,182v1.08H173.9V182c3,0,3.44-2.08,3.44-4.6v-4c0-2.52-.4-4.6-3.44-4.6v-1.08c2.32,0,6.4-1,8.8-3.12h1.08V177.4C183.78,179.92,184,182,187.1,182Zm-11.2-23.12a4,4,0,1,1,4,3.8A3.92,3.92,0,0,1,175.9,158.88Z"/><path class="cls-2" d="M208.62,186.32c-.32,5.16-6.68,7-10.8,7s-9.52-.76-9.52-4.24c0-1.64,1.28-2.48,2.8-3a3.81,3.81,0,0,1-2.52-4.24c.44-2.32,2.48-3.32,4-3.84a7,7,0,0,1-3.24-6c0-4.44,3.68-7.44,8.8-7.44a11.67,11.67,0,0,1,3.2.44c.2-2.48,1.12-4.6,3.72-4.92a3,3,0,0,1,3.56,3.16A2.91,2.91,0,0,1,205.7,166c-.08-1.12-.48-2.36-1.76-2.36a1.41,1.41,0,0,0-1.56,1.72A7.07,7.07,0,0,1,206.9,172c0,4.48-3.68,7.48-8.8,7.48a10.57,10.57,0,0,1-4.16-.8,1.66,1.66,0,0,0-.84,1.48c.08,1.44,3.84,1.36,5.6,1.36C202.1,181.52,209,180.6,208.62,186.32Zm-5.28,2.08c0-.84-.52-1.32-1.72-1.32s-5.32-.2-7.84-.4a2.79,2.79,0,0,0-.88,1.88c-.12,2,1.76,3.48,5.8,3.4S203.34,189.84,203.34,188.4ZM195,172.52c.72,3.8,2.28,5.56,4.24,5.24s2.6-2.48,1.92-6.28-2.4-5.48-4.24-5.2S194.34,168.76,195,172.52Z"/><path class="cls-2" d="M237,182v1.08H224.14V182c3,0,3.08-2.16,2.8-4.6,0,0-.56-3.64-.8-5.12-.36-2.36-.64-4.52-3.4-4.52-2.4,0-3.4,2.12-3.4,4.8v4.84c0,2.52.24,4.6,3.28,4.6v1.08H209.46V182c3,0,3.44-2.08,3.44-4.6v-4c0-2.52-.4-4.6-3.44-4.6v-1.08a15.05,15.05,0,0,0,8.8-3.12h1.08v3.12a7.32,7.32,0,0,1,6.36-3.12c4,0,6.2,2.16,6.92,7.2.56,4,.76,5.64.76,5.64C233.7,179.76,233.94,182,237,182Z"/><path class="cls-2" d="M256.22,177.36a9.69,9.69,0,0,1-9.12,6.08c-6,0-10-3.88-10.44-8.68-.56-6.44,4.28-10.2,10.28-10.2,5.36,0,9,2.88,8.76,8.16l-12.36,2.08c1,5.16,8.68,5.8,12.2,2A8.38,8.38,0,0,1,256.22,177.36Zm-13.12-4.12,6.56-1.12c.2-3.84-.68-6.36-3.44-6.12C243.7,166.24,242.62,169.44,243.1,173.24Z"/><path class="cls-2" d="M276.62,170a3.83,3.83,0,0,1-4.72,2.2c.4-1.4.4-3.12-1.16-3.64a2.46,2.46,0,0,0-3.4,2.24v6.64c0,2.52.24,4.6,3.28,4.6v1.08h-13.2V182c3.08,0,3.44-2.08,3.44-4.6v-4c0-2.52-.36-4.6-3.44-4.6v-1.08a15.17,15.17,0,0,0,8.84-3.12h1.08v3.6c1.28-2.44,3.2-4.08,6.16-3.6A3.9,3.9,0,0,1,276.62,170Z"/><path class="cls-2" d="M299.66,182v1.08h-13.2V182c3,0,3.44-2.08,3.44-4.6v-4c0-2.52-.4-4.6-3.44-4.6v-1.08c2.32,0,6.4-1,8.8-3.12h1.08V177.4C296.34,179.92,296.58,182,299.66,182Zm-11.2-23.12a4,4,0,1,1,4,3.8A3.92,3.92,0,0,1,288.46,158.88Z"/><path class="cls-2" d="M328.37,182v1.08H315.54V182c3,0,3.08-2.16,2.8-4.6,0,0-.56-3.64-.8-5.12-.36-2.36-.64-4.52-3.4-4.52-2.4,0-3.4,2.12-3.4,4.8v4.84c0,2.52.24,4.6,3.28,4.6v1.08H300.86V182c3,0,3.44-2.08,3.44-4.6v-4c0-2.52-.4-4.6-3.44-4.6v-1.08a15.05,15.05,0,0,0,8.8-3.12h1.08v3.12a7.32,7.32,0,0,1,6.36-3.12c4,0,6.2,2.16,6.92,7.2.55,4,.75,5.64.75,5.64C325.1,179.76,325.33,182,328.37,182Z"/><path class="cls-2" d="M364.29,163.72H363c-1.28-4-3.2-7-6.63-7H354.3V177.4c0,2.52.68,4.6,3.72,4.6v1.08H343.74V182c3,0,3.76-2.08,3.76-4.6V156.68h-2.08c-3.44,0-5.4,3-6.64,7H337.5l.64-8.64h25.51Z"/><path class="cls-2" d="M389.69,180.48a4.59,4.59,0,0,1-4.59,3c-2.68,0-4.48-1-5-3.2a7.15,7.15,0,0,1-6.32,3.2c-4,0-6.88-2.08-6.92-7.08v-3c0-2.52.08-4.6-3-4.6v-1.08a13.76,13.76,0,0,0,8.32-3.12h1.08v11.16c0,2.36.68,4.48,3.4,4.48,2.44,0,3.24-2.12,3.24-4.76v-2.08c0-2.52.08-4.6-3-4.6v-1.08a13.9,13.9,0,0,0,8.35-3.12h1.08v12.8c0,1.92,0,3.28,1,3.56.68.2,1.2-.16,1.6-.84Zm-13.63-20.12a2.48,2.48,0,0,1-2.68,2.4,2.42,2.42,0,1,1,0-4.8A2.48,2.48,0,0,1,376.06,160.36Zm6.88,0a2.52,2.52,0,0,1-2.72,2.4,2.41,2.41,0,1,1,0-4.8A2.52,2.52,0,0,1,382.94,160.36Z"/><path class="cls-2" d="M410.1,170a3.83,3.83,0,0,1-4.72,2.2c.4-1.4.4-3.12-1.16-3.64a2.46,2.46,0,0,0-3.4,2.24v6.64c0,2.52.24,4.6,3.28,4.6v1.08H390.9V182c3.08,0,3.44-2.08,3.44-4.6v-4c0-2.52-.36-4.6-3.44-4.6v-1.08a15.17,15.17,0,0,0,8.84-3.12h1.08v3.6c1.28-2.44,3.2-4.08,6.16-3.6A3.9,3.9,0,0,1,410.1,170Z"/><path class="cls-2" d="M436.17,182v1.08H424.62V182c1.32,0,1.64-.72.88-2.16L422.38,174l-2.44,2.2v1.24c0,2.52.4,4.6,3.44,4.6v1.08H410V182c3.08,0,3.44-2.08,3.44-4.6V163.92c0-2.52-.36-4.6-3.44-4.6V158.2a14.89,14.89,0,0,0,8.84-3.12h1.08v19l6.28-5.56c1.56-1.4,1.36-2.48-.52-2.48V165h8.15V166c-2.11,0-4.59,1.64-6.35,3.24l-.52.48,5.32,9.64A4.36,4.36,0,0,0,436.17,182Z"/><path class="cls-2" d="M450.58,182v1.08h-13.2V182c3,0,3.44-2.08,3.44-4.6v-4c0-2.52-.4-4.6-3.44-4.6v-1.08c2.32,0,6.4-1,8.8-3.12h1.08V177.4C447.26,179.92,447.5,182,450.58,182Zm-11.2-23.12a4,4,0,1,1,4,3.8A3.92,3.92,0,0,1,439.38,158.88Z"/><path class="cls-2" d="M471.57,165V166c-2,0-2.84,1-3.47,2.6l-5.8,14.44c-1.64,4.2-3.88,10.2-8.2,10.2a3.62,3.62,0,0,1-3.52-2,4,4,0,0,1,2.08-4.88,3.47,3.47,0,0,0,3.56,1.76c1.76-.2,3.28-1.48,4.6-4.68L453,168a3.23,3.23,0,0,0-3.2-2V165h11.68V166c-1.76,0-2.24.64-1.44,2.6l3.56,7.68,3.08-7.68c.88-2.2,0-2.6-2.12-2.6V165Z"/><path class="cls-2" d="M489.61,177.36a9.67,9.67,0,0,1-9.11,6.08c-6,0-10-3.88-10.44-8.68-.56-6.44,4.28-10.2,10.28-10.2,5.36,0,9,2.88,8.76,8.16l-12.36,2.08c1,5.16,8.68,5.8,12.2,2A8.28,8.28,0,0,1,489.61,177.36Zm-13.11-4.12,6.56-1.12c.2-3.84-.68-6.36-3.44-6.12C477.1,166.24,476,169.44,476.5,173.24Z"/></svg>