<?xml version="1.0" encoding="UTF-8"?>
<svg id="devNotes" xmlns="http://www.w3.org/2000/svg" viewBox="0 0 600 300">
  <defs>
    <style>
      .cls-1 {
        fill: #fff;
      }
    </style>
  </defs>
  <rect width="600" height="300"/>
  <g>
    <path class="cls-1" d="M149.2,134.74v1.08h-15.08v-1.08c3.04,0,2.88-1.96,1.64-4l-5.76-9.36-3.64,3.4v5.36c0,2.52.72,4.6,3.76,4.6v1.08h-14.28v-1.08c3.04,0,3.72-2.08,3.72-4.6v-16.6c0-2.52-.68-4.6-3.72-4.6v-1.12h14.28v1.12c-3.04,0-3.76,2.08-3.76,4.6v8.88l9.96-9.08c2.28-2.08,2.36-4.4-.72-4.4v-1.12h10.68v1.12c-3.04,0-6.32,3.24-7.84,4.6-1.52,1.32-3.52,3.24-3.52,3.24l8.48,13.76c1.36,2.2,2.96,4.2,5.8,4.2Z"/>
    <path class="cls-1" d="M172.24,134.62c-.72.84-1.96,1.56-4.2,1.56s-4.68-.72-5.28-2.64c-1.4,2.16-3.64,2.64-5.64,2.64-3.32,0-6.44-1.08-7-4-.56-2.92.92-5.64,5.64-6.6,3.76-.76,6.08.04,5.64-2.72-.36-2.04-1.08-4.16-3.08-4.16-2.52-.2-3.68,2.28-2.12,3.56-.96,1.72-2.6,1.84-3.72,1.32-1.04-.52-1.48-1.64-.92-3.04.96-2.6,4.44-3.24,6.72-3.24,6.4,0,9.04,2.12,9.76,7.16.56,4.04.76,5.64.76,5.64.24,1.4.48,3,.88,3.52.44.52,1.32.56,2.24.12.16.44.2.48.32.88ZM162.28,129.62c-.12-1.44-.28-2.92-.44-3.92-.32.64-.76.84-2.8,1.4-1.72.52-2.92,2-2.64,4.04.28,1.84,2.08,2.96,3.56,2.56,1.92-.44,2.44-2.16,2.32-4.08Z"/>
    <path class="cls-1" d="M200.96,134.74v1.08h-12.84v-1.08c3.04,0,3.08-2.12,2.8-4.6,0,0-.56-3.64-.8-5.12-.36-2.36-.64-4.48-3.4-4.48-2.4,0-3.4,2.12-3.4,4.76v4.84c0,2.52.24,4.6,3.28,4.6v1.08h-13.16v-1.08c3.04,0,3.44-2.08,3.44-4.6v-13.48c0-2.52-.4-4.6-3.44-4.6v-1.12c2.32,0,6.4-.96,8.8-3.12h1.08v12.6c1.2-1.68,3.16-3.12,6.36-3.12,4.04,0,6.2,2.16,6.92,7.2.56,4,.76,5.64.76,5.64.32,2.36.56,4.6,3.6,4.6Z"/>
    <path class="cls-1" d="M221.36,122.7c-.96,2.32-3.4,2.68-4.72,2.2.4-1.4.4-3.12-1.16-3.64-1.8-.56-3.24.44-3.4,2.24v6.64c0,2.52.24,4.6,3.28,4.6v1.08h-13.2v-1.08c3.08,0,3.44-2.08,3.44-4.6v-4.04c0-2.52-.36-4.6-3.44-4.6v-1.08c2.36,0,6.4-1,8.84-3.12h1.08v3.6c1.28-2.44,3.2-4.08,6.16-3.6,2.88.48,4,3.12,3.12,5.4Z"/>
    <path class="cls-1" d="M241.72,130.1c-1.32,3-4.2,6.08-9.12,6.08-6.04,0-10.04-3.88-10.44-8.68-.56-6.44,4.28-10.2,10.28-10.2,5.36,0,8.96,2.88,8.76,8.16l-12.36,2.08c.96,5.16,8.68,5.8,12.2,2,0,0,.68.52.68.56ZM228.6,125.98l6.56-1.12c.2-3.84-.68-6.36-3.44-6.12-2.52.24-3.6,3.44-3.12,7.24Z"/>
    <path class="cls-1" d="M256.6,131.78c-1.04,2.48-2.6,4.4-5.56,4.4-3.2,0-5.8-2.12-5.8-6.4v-10.52h-3.12v-1.56c3.96-.2,7.52-2.44,8.36-6.76h1.24v6.76h4.24v1.56h-4.24v10.84c0,1.88.68,2.4,1.64,2.6,1.04.16,1.88-.32,2.48-1.32l.76.4Z"/>
    <path class="cls-1" d="M276.32,131.54c-.8,3.92-5.88,4.88-9.96,4.64-3.32-.16-7.8-1.48-8.44-4.12-.6-2.44,1.24-4.68,3.68-4.32,2.04.28,2.88,1.76,2.92,3.36-1.16-.08-1.96.76-1.72,1.96.24,1.08,2.08,1.56,3.68,1.68,2.16.12,3.88-.68,4.04-1.96.28-2.08-1.52-2.72-4.32-4.16-2.64-1.36-6.24-3.12-5.8-6.96.48-3.88,4.44-4.76,7.96-4.36,2.6.32,3.2,1.52,3.56,0h.68l.4,6.2h-.96c-.68-3.24-1.6-4.48-3.68-4.72-1.4-.2-2.4.28-2.52,1.4-.2,1.56,1.56,2.28,4.32,3.8,2.8,1.56,7.08,3.08,6.16,7.56Z"/>
    <path class="cls-1" d="M290.08,134.74v1.08h-13.2v-1.08c3.04,0,3.44-2.08,3.44-4.6v-4.04c0-2.52-.4-4.6-3.44-4.6v-1.08c2.32,0,6.4-.96,8.8-3.12h1.08v12.84c0,2.52.24,4.6,3.32,4.6ZM278.88,111.62c0-2.08,1.8-3.8,4-3.8s4,1.72,4,3.8-1.8,3.8-4,3.8-4-1.72-4-3.8Z"/>
    <path class="cls-1" d="M318.8,134.74v1.08h-12.84v-1.08c3.04,0,3.08-2.16,2.8-4.6,0,0-.56-3.64-.8-5.12-.36-2.36-.64-4.52-3.4-4.52-2.4,0-3.4,2.12-3.4,4.8v4.84c0,2.52.24,4.6,3.28,4.6v1.08h-13.16v-1.08c3.04,0,3.44-2.08,3.44-4.6v-4.04c0-2.52-.4-4.6-3.44-4.6v-1.08c2.32,0,6.4-1,8.8-3.12h1.08v3.12c1.2-1.68,3.12-3.12,6.36-3.12,4.04,0,6.2,2.16,6.92,7.2.56,4,.76,5.64.76,5.64.32,2.36.56,4.6,3.6,4.6Z"/>
    <path class="cls-1" d="M341.12,134.74v1.08h-13.2v-1.08c3.04,0,3.44-2.08,3.44-4.6v-4.04c0-2.52-.4-4.6-3.44-4.6v-1.08c2.32,0,6.4-.96,8.8-3.12h1.08v12.84c0,2.52.24,4.6,3.32,4.6ZM329.92,111.62c0-2.08,1.8-3.8,4-3.8s4,1.72,4,3.8-1.8,3.8-4,3.8-4-1.72-4-3.8Z"/>
    <path class="cls-1" d="M360.44,131.54c-.8,3.92-5.88,4.88-9.96,4.64-3.32-.16-7.8-1.48-8.44-4.12-.6-2.44,1.24-4.68,3.68-4.32,2.04.28,2.88,1.76,2.92,3.36-1.16-.08-1.96.76-1.72,1.96.24,1.08,2.08,1.56,3.68,1.68,2.16.12,3.88-.68,4.04-1.96.28-2.08-1.52-2.72-4.32-4.16-2.64-1.36-6.24-3.12-5.8-6.96.48-3.88,4.44-4.76,7.96-4.36,2.6.32,3.2,1.52,3.56,0h.68l.4,6.2h-.96c-.68-3.24-1.6-4.48-3.68-4.72-1.4-.2-2.4.28-2.52,1.4-.2,1.56,1.56,2.28,4.32,3.8,2.8,1.56,7.08,3.08,6.16,7.56Z"/>
    <path class="cls-1" d="M374.68,131.78c-1.04,2.48-2.6,4.4-5.56,4.4-3.2,0-5.8-2.12-5.8-6.4v-10.52h-3.12v-1.56c3.96-.2,7.52-2.44,8.36-6.76h1.24v6.76h4.24v1.56h-4.24v10.84c0,1.88.68,2.4,1.64,2.6,1.04.16,1.88-.32,2.48-1.32l.76.4Z"/>
    <path class="cls-1" d="M388.68,134.74v1.08h-13.2v-1.08c3.04,0,3.44-2.08,3.44-4.6v-4.04c0-2.52-.4-4.6-3.44-4.6v-1.08c2.32,0,6.4-.96,8.8-3.12h1.08v12.84c0,2.52.24,4.6,3.32,4.6ZM377.48,111.62c0-2.08,1.8-3.8,4-3.8s4,1.72,4,3.8-1.8,3.8-4,3.8-4-1.72-4-3.8Z"/>
    <path class="cls-1" d="M412.44,126.74c0,5.64-3.96,10.32-10.04,9.44-2.32-.32-3.96-1.52-5.08-3l-5,2.64h-1v-19.16c0-2.52-.36-4.6-3.44-4.6v-1.12c2.36,0,6.4-.96,8.84-3.12h1.08v11.56c1.04-1.04,2.48-1.84,4.24-2.08,6.08-.84,10.4,3.8,10.4,9.44ZM405.84,126.22c-.84-4.76-2.72-7.6-5.16-7.2-2.44.44-3.28,3.76-2.44,8.56.84,4.76,2.76,7.6,5.2,7.2,2.44-.44,3.24-3.76,2.4-8.56Z"/>
    <path class="cls-1" d="M438.43,133.22c-.96,2.04-2.36,2.96-4.6,2.96-2.08,0-3.6-.56-4.44-1.88-1.28,1.12-3,1.88-4.96,1.88-6.04,0-10.4-3.8-10.4-9.44s4.32-10.28,10.4-9.44c1.76.24,3.2,1.04,4.24,2.08v-2.72c0-2.52-.4-4.6-3.44-4.6v-1.12c2.32,0,6.4-.96,8.84-3.12h1.08v22.28c0,1.92.04,3.32,1,3.56.68.16,1.2-.16,1.6-.84l.68.4ZM428.24,126.06c-.84-4.76-2.76-7.6-5.2-7.2-2.4.44-3.24,3.76-2.4,8.56.84,4.76,2.76,7.6,5.2,7.2,2.4-.44,3.24-3.76,2.4-8.56Z"/>
    <path class="cls-1" d="M461.87,134.62c-.72.84-1.96,1.56-4.2,1.56s-4.68-.72-5.28-2.64c-1.4,2.16-3.64,2.64-5.64,2.64-3.32,0-6.44-1.08-7-4-.56-2.92.92-5.64,5.64-6.6,3.76-.76,6.08.04,5.64-2.72-.36-2.04-1.08-4.16-3.08-4.16-2.52-.2-3.68,2.28-2.12,3.56-.96,1.72-2.6,1.84-3.72,1.32-1.04-.52-1.48-1.64-.92-3.04.96-2.6,4.44-3.24,6.72-3.24,6.4,0,9.04,2.12,9.76,7.16.56,4.04.76,5.64.76,5.64.24,1.4.48,3,.88,3.52.44.52,1.32.56,2.24.12.16.44.2.48.32.88ZM451.92,129.62c-.12-1.44-.28-2.92-.44-3.92-.32.64-.76.84-2.8,1.4-1.72.52-2.92,2-2.64,4.04.28,1.84,2.08,2.96,3.56,2.56,1.92-.44,2.44-2.16,2.32-4.08Z"/>
    <path class="cls-1" d="M474.76,131.78c-1.04,2.48-2.6,4.4-5.56,4.4-3.2,0-5.8-2.12-5.8-6.4v-10.52h-3.12v-1.56c3.96-.2,7.52-2.44,8.36-6.76h1.24v6.76h4.24v1.56h-4.24v10.84c0,1.88.68,2.4,1.64,2.6,1.04.16,1.88-.32,2.48-1.32l.76.4Z"/>
    <path class="cls-1" d="M484.16,132.54c0,3.92-2.64,7.24-5.92,8.44l-.6-.92c1.36-1.16,2.04-2.36,2.36-3.88-2.4,0-4.04-1.6-4.04-3.64s1.64-3.64,4.08-3.64,4.12,1.6,4.12,3.64Z"/>
    <path class="cls-1" d="M156.78,165.7v1.08c-2,0-2.84,1-3.48,2.6l-5.8,14.44c-1.64,4.2-3.88,10.2-8.2,10.2-1.4,0-2.96-.6-3.52-2.04-.88-2.36.8-4.28,2.08-4.88.72,1.28,1.92,1.88,3.56,1.76,1.76-.2,3.28-1.48,4.6-4.68l-7.84-15.44c-.68-1.24-1.48-1.96-3.2-1.96v-1.08h11.68v1.08c-1.76,0-2.24.64-1.44,2.6l3.56,7.68,3.08-7.68c.88-2.2-.04-2.6-2.12-2.6v-1.08h7.04Z"/>
    <path class="cls-1" d="M178.22,182.62c-.72.84-1.96,1.56-4.2,1.56s-4.68-.72-5.28-2.64c-1.4,2.16-3.64,2.64-5.64,2.64-3.32,0-6.44-1.08-7-4-.56-2.92.92-5.64,5.64-6.6,3.76-.76,6.08.04,5.64-2.72-.36-2.04-1.08-4.16-3.08-4.16-2.52-.2-3.68,2.28-2.12,3.56-.96,1.72-2.6,1.84-3.72,1.32-1.04-.52-1.48-1.64-.92-3.04.96-2.6,4.44-3.24,6.72-3.24,6.4,0,9.04,2.12,9.76,7.16.56,4.04.76,5.64.76,5.64.24,1.4.48,3,.88,3.52.44.52,1.32.56,2.24.12.16.44.2.48.32.88ZM168.26,177.62c-.12-1.44-.28-2.92-.44-3.92-.32.64-.76.84-2.8,1.4-1.72.52-2.92,2-2.64,4.04.28,1.84,2.08,2.96,3.56,2.56,1.92-.44,2.44-2.16,2.32-4.08Z"/>
    <path class="cls-1" d="M197.54,179.54c-.76,3.84-5.52,4.8-9.52,4.64l-.28,1.6c5.08-1.12,7.84,1,7.12,3.76-.64,2.4-2.72,3.12-5.24,2.92-2-.2-3.84-1.44-4.28-2l.2-.56c1.12.36,4.44,1.16,5.08-1.08.24-.96.44-2.4-3.16-2.04h-.76l.4-2.68c-3.12-.32-7.32-1.6-7.96-4.04-.6-2.44,1.24-4.68,3.68-4.32,2.04.28,2.88,1.72,2.92,3.32-1.12-.04-1.96.8-1.68,2,.24,1.08,2.04,1.56,3.64,1.68,2.2.12,3.88-.68,4.04-1.96.28-2.08-1.48-2.72-4.32-4.16-2.64-1.36-6.24-3.12-5.8-7,.48-3.84,4.44-4.72,7.96-4.32,2.6.32,3.2,1.52,3.56,0h.68l.44,6.2h-1c-.68-3.24-1.56-4.48-3.68-4.72-1.4-.2-2.36.28-2.52,1.4-.2,1.56,1.6,2.28,4.36,3.8,2.76,1.56,7.04,3.08,6.12,7.56Z"/>
    <path class="cls-1" d="M220.74,182.62c-.72.84-1.96,1.56-4.2,1.56s-4.68-.72-5.28-2.64c-1.4,2.16-3.64,2.64-5.64,2.64-3.32,0-6.44-1.08-7-4-.56-2.92.92-5.64,5.64-6.6,3.76-.76,6.08.04,5.64-2.72-.36-2.04-1.08-4.16-3.08-4.16-2.52-.2-3.68,2.28-2.12,3.56-.96,1.72-2.6,1.84-3.72,1.32-1.04-.52-1.48-1.64-.92-3.04.96-2.6,4.44-3.24,6.72-3.24,6.4,0,9.04,2.12,9.76,7.16.56,4.04.76,5.64.76,5.64.24,1.4.48,3,.88,3.52.44.52,1.32.56,2.24.12.16.44.2.48.32.88ZM210.78,177.62c-.12-1.44-.28-2.92-.44-3.92-.32.64-.76.84-2.8,1.4-1.72.52-2.92,2-2.64,4.04.28,1.84,2.08,2.96,3.56,2.56,1.92-.44,2.44-2.16,2.32-4.08Z"/>
    <path class="cls-1" d="M239.66,179.54c-.8,3.92-5.88,4.88-9.96,4.64-3.32-.16-7.8-1.48-8.44-4.12-.6-2.44,1.24-4.68,3.68-4.32,2.04.28,2.88,1.76,2.92,3.36-1.16-.08-1.96.76-1.72,1.96.24,1.08,2.08,1.56,3.68,1.68,2.16.12,3.88-.68,4.04-1.96.28-2.08-1.52-2.72-4.32-4.16-2.64-1.36-6.24-3.12-5.8-6.96.48-3.88,4.44-4.76,7.96-4.36,2.6.32,3.2,1.52,3.56,0h.68l.4,6.2h-.96c-.68-3.24-1.6-4.48-3.68-4.72-1.4-.2-2.4.28-2.52,1.4-.2,1.56,1.56,2.28,4.32,3.8,2.8,1.56,7.08,3.08,6.16,7.56Z"/>
    <path class="cls-1" d="M253.42,182.74v1.08h-13.2v-1.08c3.04,0,3.44-2.08,3.44-4.6v-4.04c0-2.52-.4-4.6-3.44-4.6v-1.08c2.32,0,6.4-.96,8.8-3.12h1.08v12.84c0,2.52.24,4.6,3.32,4.6Z"/>
    <path class="cls-1" d="M282.14,182.74v1.08h-12.84v-1.08c3.04,0,3.08-2.16,2.8-4.6,0,0-.56-3.64-.8-5.12-.36-2.36-.64-4.52-3.4-4.52-2.4,0-3.4,2.12-3.4,4.8v4.84c0,2.52.24,4.6,3.28,4.6v1.08h-13.16v-1.08c3.04,0,3.44-2.08,3.44-4.6v-4.04c0-2.52-.4-4.6-3.44-4.6v-1.08c2.32,0,6.4-1,8.8-3.12h1.08v3.12c1.2-1.68,3.12-3.12,6.36-3.12,4.04,0,6.2,2.16,6.92,7.2.56,4,.76,5.64.76,5.64.32,2.36.56,4.6,3.6,4.6Z"/>
    <path class="cls-1" d="M318.78,182.74v1.08h-12.84v-1.08c3.04,0,3.08-2.12,2.8-4.6,0,0-.56-3.64-.8-5.12-.36-2.36-.64-4.48-3.4-4.48-2.4,0-3.4,2.12-3.4,4.76v4.84c0,2.52.24,4.6,3.28,4.6v1.08h-13.16v-1.08c3.04,0,3.44-2.08,3.44-4.6v-13.48c0-2.52-.4-4.6-3.44-4.6v-1.12c2.32,0,6.4-.96,8.8-3.12h1.08v12.6c1.2-1.68,3.16-3.12,6.36-3.12,4.04,0,6.2,2.16,6.92,7.2.56,4,.76,5.64.76,5.64.32,2.36.56,4.6,3.6,4.6Z"/>
    <path class="cls-1" d="M343.78,181.22c-.96,2.04-2.36,2.96-4.6,2.96-2.68,0-4.48-.96-5-3.2-1.16,1.72-3.08,3.2-6.32,3.2-4,0-6.88-2.08-6.92-7.08v-3c0-2.52.08-4.6-2.96-4.6v-1.08c2.32,0,5.92-1,8.32-3.12h1.08v11.16c0,2.36.68,4.48,3.4,4.48,2.44,0,3.24-2.12,3.24-4.76v-2.08c0-2.52.08-4.6-2.96-4.6v-1.08c2.32,0,5.92-1,8.36-3.12h1.08v12.8c0,1.92.04,3.28,1,3.56.68.2,1.2-.16,1.6-.84l.68.4ZM330.14,161.1c0,1.32-1.08,2.4-2.68,2.4s-2.72-1.08-2.72-2.4,1.12-2.4,2.72-2.4,2.68,1.08,2.68,2.4ZM337.02,161.1c0,1.32-1.12,2.4-2.72,2.4s-2.68-1.08-2.68-2.4,1.08-2.4,2.68-2.4,2.72,1.08,2.72,2.4Z"/>
    <path class="cls-1" d="M364.18,170.7c-.96,2.32-3.4,2.68-4.72,2.2.4-1.4.4-3.12-1.16-3.64-1.8-.56-3.24.44-3.4,2.24v6.64c0,2.52.24,4.6,3.28,4.6v1.08h-13.2v-1.08c3.08,0,3.44-2.08,3.44-4.6v-4.04c0-2.52-.36-4.6-3.44-4.6v-1.08c2.36,0,6.4-1,8.84-3.12h1.08v3.6c1.28-2.44,3.2-4.08,6.16-3.6,2.88.48,4,3.12,3.12,5.4Z"/>
    <path class="cls-1" d="M385.3,170.7c-.96,2.32-3.4,2.68-4.72,2.2.4-1.4.4-3.12-1.16-3.64-1.8-.56-3.24.44-3.4,2.24v6.64c0,2.52.24,4.6,3.28,4.6v1.08h-13.2v-1.08c3.08,0,3.44-2.08,3.44-4.6v-4.04c0-2.52-.36-4.6-3.44-4.6v-1.08c2.36,0,6.4-1,8.84-3.12h1.08v3.6c1.28-2.44,3.2-4.08,6.16-3.6,2.88.48,4,3.12,3.12,5.4Z"/>
    <path class="cls-1" d="M400.42,182.74v1.08h-13.2v-1.08c3.04,0,3.44-2.08,3.44-4.6v-4.04c0-2.52-.4-4.6-3.44-4.6v-1.08c2.32,0,6.4-.96,8.8-3.12h1.08v12.84c0,2.52.24,4.6,3.32,4.6ZM389.22,159.62c0-2.08,1.8-3.8,4-3.8s4,1.72,4,3.8-1.8,3.8-4,3.8-4-1.72-4-3.8Z"/>
    <path class="cls-1" d="M421.42,165.7v1.08c-2,0-2.84,1-3.48,2.6l-5.8,14.44c-1.64,4.2-3.88,10.2-8.2,10.2-1.4,0-2.96-.6-3.52-2.04-.88-2.36.8-4.28,2.08-4.88.72,1.28,1.92,1.88,3.56,1.76,1.76-.2,3.28-1.48,4.6-4.68l-7.84-15.44c-.68-1.24-1.48-1.96-3.2-1.96v-1.08h11.68v1.08c-1.76,0-2.24.64-1.44,2.6l3.56,7.68,3.08-7.68c.88-2.2-.04-2.6-2.12-2.6v-1.08h7.04Z"/>
    <path class="cls-1" d="M439.46,178.1c-1.32,3-4.2,6.08-9.12,6.08-6.04,0-10.04-3.88-10.44-8.68-.56-6.44,4.28-10.2,10.28-10.2,5.36,0,8.96,2.88,8.76,8.16l-12.36,2.08c.96,5.16,8.68,5.8,12.2,2,0,0,.68.52.68.56ZM426.34,173.98l6.56-1.12c.2-3.84-.68-6.36-3.44-6.12-2.52.24-3.6,3.44-3.12,7.24Z"/>
    <path class="cls-1" d="M454.34,179.78c-1.04,2.48-2.6,4.4-5.56,4.4-3.2,0-5.8-2.12-5.8-6.4v-10.52h-3.12v-1.56c3.96-.2,7.52-2.44,8.36-6.76h1.24v6.76h4.24v1.56h-4.24v10.84c0,1.88.68,2.4,1.64,2.6,1.04.16,1.88-.32,2.48-1.32l.76.4Z"/>
    <path class="cls-1" d="M455.62,160.3c-.48-3.52,2.04-4.84,4.04-4.84s4.52,1.32,4.04,4.84c-.64,4.8-3.04,14.68-3.04,14.68h-2s-2.4-9.88-3.04-14.68ZM463.82,180.54c0,2.04-1.68,3.64-4.12,3.64s-4.12-1.6-4.12-3.64,1.68-3.64,4.12-3.64,4.12,1.6,4.12,3.64Z"/>
  </g>
</svg>