<svg id="Layer_1" data-name="Layer 1" xmlns="http://www.w3.org/2000/svg" viewBox="0 0 600 300"><defs><style>.cls-1{fill:#fff;}</style></defs><rect width="600" height="300"/><path class="cls-1" d="M154.2,121.12v1.08c-3,0-3.76,2.08-3.76,4.6v8.64h-.84c-.6-2.32-5.88,0-10.48,0-9.16,0-15.52-6.16-15.52-14.36s5.8-14.36,15.2-14.36c4.6,0,8.28,2.32,8.92,0h.84l.6,9h-1.08c-1-4.88-3.68-7.84-9.28-7.48-4.72.28-7.84,4.6-7.84,12.84s3.4,12.68,8.16,12.88c1.16,0,4.68.16,4.68-5v-2.2c0-2.52-.68-4.6-3.72-4.6v-1.08Z"/><path class="cls-1" d="M173.8,122a3.83,3.83,0,0,1-4.72,2.2c.4-1.4.4-3.12-1.16-3.64a2.46,2.46,0,0,0-3.4,2.24v6.64c0,2.52.24,4.6,3.28,4.6v1.08H154.6V134c3.08,0,3.44-2.08,3.44-4.6v-4c0-2.52-.36-4.6-3.44-4.6v-1.08a15.17,15.17,0,0,0,8.84-3.12h1.08v3.6c1.28-2.44,3.2-4.08,6.16-3.6A3.9,3.9,0,0,1,173.8,122Z"/><path class="cls-1" d="M195.28,126c0,5.64-4.36,9.44-10.36,9.44s-10.4-3.8-10.4-9.44,4.36-9.44,10.4-9.44S195.28,120.36,195.28,126Zm-6.56-.68c-.84-4.8-2.76-7.64-5.2-7.2s-3.24,3.76-2.4,8.56,2.76,7.6,5.16,7.2S189.56,130.12,188.72,125.32Z"/><path class="cls-1" d="M228.12,117V118c-2,0-2.76.84-3.48,2.6l-5.92,14.44H216l-4.48-11.48-4.68,11.48h-2.72l-6.4-14.44c-.76-1.72-1.28-2.6-3.24-2.6V117h11.68V118c-1.8,0-2.44.64-1.64,2.6l3.4,8.2,2.92-7-.48-1.16c-.72-1.68-1.08-2.6-3.08-2.6V117H219V118c-1.8,0-2.6.6-1.92,2.6l2.76,8.12,3.36-8.12c.88-2.2,0-2.6-2.12-2.6V117Z"/><path class="cls-1" d="M242.12,134v1.08h-13.2V134c3,0,3.44-2.08,3.44-4.6v-4c0-2.52-.4-4.6-3.44-4.6v-1.08c2.32,0,6.4-1,8.8-3.12h1.08V129.4C238.8,131.92,239,134,242.12,134Zm-11.2-23.12a4,4,0,1,1,4,3.8A3.92,3.92,0,0,1,230.92,110.88Z"/><path class="cls-1" d="M270.84,134v1.08H258V134c3,0,3.08-2.16,2.8-4.6,0,0-.56-3.64-.8-5.12-.36-2.36-.64-4.52-3.4-4.52-2.4,0-3.4,2.12-3.4,4.8v4.84c0,2.52.24,4.6,3.28,4.6v1.08H243.32V134c3,0,3.44-2.08,3.44-4.6v-4c0-2.52-.4-4.6-3.44-4.6v-1.08a15.05,15.05,0,0,0,8.8-3.12h1.08v3.12a7.32,7.32,0,0,1,6.36-3.12c4,0,6.2,2.16,6.92,7.2.56,4,.76,5.64.76,5.64C267.56,131.76,267.8,134,270.84,134Z"/><path class="cls-1" d="M292.36,138.32c-.32,5.16-6.68,7-10.8,7S272,144.52,272,141c0-1.64,1.28-2.48,2.8-3a3.81,3.81,0,0,1-2.52-4.24c.44-2.32,2.48-3.32,4-3.84a7,7,0,0,1-3.24-6c0-4.44,3.68-7.44,8.8-7.44a11.67,11.67,0,0,1,3.2.44c.2-2.48,1.12-4.6,3.72-4.92a3,3,0,0,1,3.56,3.16,2.91,2.91,0,0,1-2.88,2.76c-.08-1.12-.48-2.36-1.76-2.36a1.41,1.41,0,0,0-1.56,1.72,7.07,7.07,0,0,1,4.52,6.64c0,4.48-3.68,7.48-8.8,7.48a10.57,10.57,0,0,1-4.16-.8,1.66,1.66,0,0,0-.84,1.48c.08,1.44,3.84,1.36,5.6,1.36C285.84,133.52,292.72,132.6,292.36,138.32Zm-5.28,2.08c0-.84-.52-1.32-1.72-1.32s-5.32-.2-7.84-.4a2.79,2.79,0,0,0-.88,1.88c-.12,2,1.76,3.48,5.8,3.4S287.08,141.84,287.08,140.4Zm-8.32-15.88c.72,3.8,2.28,5.56,4.24,5.24s2.6-2.48,1.92-6.28-2.4-5.48-4.24-5.2S278.08,120.76,278.76,124.52Z"/><path class="cls-1" d="M325.32,132.48a4.59,4.59,0,0,1-4.6,3c-2.68,0-4.48-1-5-3.2a7.15,7.15,0,0,1-6.32,3.2c-4,0-6.88-2.08-6.92-7.08v-3c0-2.52.08-4.6-3-4.6v-1.08a13.76,13.76,0,0,0,8.32-3.12h1.08v11.16c0,2.36.68,4.48,3.4,4.48,2.44,0,3.24-2.12,3.24-4.76v-2.08c0-2.52.08-4.6-3-4.6v-1.08a14,14,0,0,0,8.36-3.12H322v12.8c0,1.92,0,3.28,1,3.56.68.2,1.2-.16,1.6-.84Z"/><path class="cls-1" d="M349.44,126c0,5.64-4,10.32-10,9.44a7.59,7.59,0,0,1-4.6-2.44v5.84c0,2.52,1,4.6,4.08,4.6v1.12h-14v-1.12c3,0,3.44-2.08,3.44-4.6V125.36c0-2.52-.4-4.6-3.44-4.6v-1.08a15.05,15.05,0,0,0,8.8-3.12h1.08v2.08a7.36,7.36,0,0,1,4.24-2.08C345.12,115.72,349.44,120.36,349.44,126Zm-6.6-.52c-.84-4.8-2.72-7.64-5.16-7.2s-3.28,3.76-2.44,8.56,2.76,7.6,5.2,7.2S343.68,130.28,342.84,125.48Z"/><path class="cls-1" d="M379.16,117V118c-2,0-2.84,1-3.48,2.6l-5.8,14.44c-1.64,4.2-3.88,10.2-8.2,10.2a3.62,3.62,0,0,1-3.52-2,4,4,0,0,1,2.08-4.88,3.47,3.47,0,0,0,3.56,1.76c1.76-.2,3.28-1.48,4.6-4.68L360.56,120a3.23,3.23,0,0,0-3.2-2V117H369V118c-1.76,0-2.24.64-1.44,2.6l3.56,7.68,3.08-7.68c.88-2.2,0-2.6-2.12-2.6V117Z"/><path class="cls-1" d="M398.32,126c0,5.64-4.36,9.44-10.36,9.44s-10.4-3.8-10.4-9.44,4.36-9.44,10.4-9.44S398.32,120.36,398.32,126Zm-6.56-.68c-.84-4.8-2.76-7.64-5.2-7.2s-3.24,3.76-2.4,8.56,2.76,7.6,5.16,7.2S392.6,130.12,391.76,125.32Z"/><path class="cls-1" d="M424.92,132.48a4.59,4.59,0,0,1-4.6,3c-2.68,0-4.48-1-5-3.2a7.15,7.15,0,0,1-6.32,3.2c-4,0-6.88-2.08-6.92-7.08v-3c0-2.52.08-4.6-3-4.6v-1.08a13.76,13.76,0,0,0,8.32-3.12h1.08v11.16c0,2.36.68,4.48,3.4,4.48,2.44,0,3.24-2.12,3.24-4.76v-2.08c0-2.52.08-4.6-3-4.6v-1.08a14,14,0,0,0,8.36-3.12h1.08v12.8c0,1.92,0,3.28,1,3.56.68.2,1.2-.16,1.6-.84Z"/><path class="cls-1" d="M453.24,134v1.08H440.4V134c3,0,3.08-2.16,2.8-4.6,0,0-.56-3.64-.8-5.12-.36-2.36-.64-4.52-3.4-4.52-2.4,0-3.4,2.12-3.4,4.8v4.84c0,2.52.24,4.6,3.28,4.6v1.08H425.72V134c3,0,3.44-2.08,3.44-4.6v-4c0-2.52-.4-4.6-3.44-4.6v-1.08a15.05,15.05,0,0,0,8.8-3.12h1.08v3.12a7.32,7.32,0,0,1,6.36-3.12c4,0,6.2,2.16,6.92,7.2.56,4,.76,5.64.76,5.64C450,131.76,450.2,134,453.24,134Z"/><path class="cls-1" d="M474.76,138.32c-.32,5.16-6.68,7-10.8,7s-9.52-.76-9.52-4.24c0-1.64,1.28-2.48,2.8-3a3.81,3.81,0,0,1-2.52-4.24c.44-2.32,2.48-3.32,4-3.84a7,7,0,0,1-3.24-6c0-4.44,3.68-7.44,8.8-7.44a11.67,11.67,0,0,1,3.2.44c.2-2.48,1.12-4.6,3.72-4.92a3,3,0,0,1,3.56,3.16,2.91,2.91,0,0,1-2.88,2.76c-.08-1.12-.48-2.36-1.76-2.36a1.41,1.41,0,0,0-1.56,1.72A7.07,7.07,0,0,1,473,124c0,4.48-3.68,7.48-8.8,7.48a10.57,10.57,0,0,1-4.16-.8,1.66,1.66,0,0,0-.84,1.48c.08,1.44,3.84,1.36,5.6,1.36C468.24,133.52,475.12,132.6,474.76,138.32Zm-5.28,2.08c0-.84-.52-1.32-1.72-1.32s-5.32-.2-7.84-.4a2.79,2.79,0,0,0-.88,1.88c-.12,2,1.76,3.48,5.8,3.4S469.48,141.84,469.48,140.4Zm-8.32-15.88c.72,3.8,2.28,5.56,4.24,5.24s2.6-2.48,1.92-6.28-2.4-5.48-4.24-5.2S460.48,120.76,461.16,124.52Z"/><path class="cls-1" d="M105.7,182v1.08H92.5V182c3,0,3.44-2.08,3.44-4.6v-4c0-2.52-.4-4.6-3.44-4.6v-1.08c2.32,0,6.4-1,8.8-3.12h1.08V177.4C102.38,179.92,102.62,182,105.7,182ZM94.5,158.88a4,4,0,1,1,4,3.8A3.92,3.92,0,0,1,94.5,158.88Z"/><path class="cls-1" d="M134.42,182v1.08H121.58V182c3,0,3.08-2.16,2.8-4.6,0,0-.56-3.64-.8-5.12-.36-2.36-.64-4.52-3.4-4.52-2.4,0-3.4,2.12-3.4,4.8v4.84c0,2.52.24,4.6,3.28,4.6v1.08H106.9V182c3,0,3.44-2.08,3.44-4.6v-4c0-2.52-.4-4.6-3.44-4.6v-1.08a15.05,15.05,0,0,0,8.8-3.12h1.08v3.12a7.32,7.32,0,0,1,6.36-3.12c4,0,6.2,2.16,6.92,7.2.56,4,.76,5.64.76,5.64C131.14,179.76,131.38,182,134.42,182Z"/><path class="cls-1" d="M165.38,181.88a5.16,5.16,0,0,1-4.2,1.56c-2.16,0-4.68-.72-5.28-2.64a6.25,6.25,0,0,1-5.64,2.64c-3.32,0-6.44-1.08-7-4s.92-5.64,5.64-6.6c3.76-.76,6.08,0,5.64-2.72-.36-2-1.08-4.16-3.08-4.16-2.52-.2-3.68,2.28-2.12,3.56a2.78,2.78,0,0,1-3.72,1.32,2.21,2.21,0,0,1-.92-3c1-2.6,4.44-3.24,6.72-3.24,6.4,0,9,2.12,9.76,7.16.56,4,.76,5.64.76,5.64a11.64,11.64,0,0,0,.88,3.52,1.86,1.86,0,0,0,2.24.12C165.22,181.44,165.26,181.48,165.38,181.88Zm-10-5c-.12-1.44-.28-2.92-.44-3.92-.32.64-.76.84-2.8,1.4a3.57,3.57,0,0,0-2.64,4A3,3,0,0,0,153.1,181C155,180.52,155.54,178.8,155.42,176.88Z"/><path class="cls-1" d="M192.62,178.8c-.8,3.92-5.88,4.88-10,4.64-3.32-.16-7.8-1.48-8.44-4.12A3.37,3.37,0,0,1,177.9,175a3.22,3.22,0,0,1,2.92,3.36,1.55,1.55,0,0,0-1.72,2c.24,1.08,2.08,1.56,3.68,1.68,2.16.12,3.88-.68,4-2,.28-2.08-1.52-2.72-4.32-4.16-2.64-1.36-6.24-3.12-5.8-7s4.44-4.76,8-4.36c2.6.32,3.2,1.52,3.56,0h.68l.4,6.2h-1c-.68-3.24-1.6-4.48-3.68-4.72-1.4-.2-2.4.28-2.52,1.4-.2,1.56,1.56,2.28,4.32,3.8S193.54,174.32,192.62,178.8Z"/><path class="cls-1" d="M206.38,182v1.08h-13.2V182c3,0,3.44-2.08,3.44-4.6v-4c0-2.52-.4-4.6-3.44-4.6v-1.08c2.32,0,6.4-1,8.8-3.12h1.08V177.4C203.06,179.92,203.3,182,206.38,182Zm-11.2-23.12a4,4,0,1,1,4,3.8A3.92,3.92,0,0,1,195.18,158.88Z"/><path class="cls-1" d="M235.1,182v1.08H222.26V182c3,0,3.08-2.16,2.8-4.6,0,0-.56-3.64-.8-5.12-.36-2.36-.64-4.52-3.4-4.52-2.4,0-3.4,2.12-3.4,4.8v4.84c0,2.52.24,4.6,3.28,4.6v1.08H207.58V182c3,0,3.44-2.08,3.44-4.6v-4c0-2.52-.4-4.6-3.44-4.6v-1.08a15.05,15.05,0,0,0,8.8-3.12h1.08v3.12a7.32,7.32,0,0,1,6.36-3.12c4,0,6.2,2.16,6.92,7.2.56,4,.76,5.64.76,5.64C231.82,179.76,232.06,182,235.1,182Z"/><path class="cls-1" d="M262.46,182v1.08H250.9V182c1.32,0,1.64-.72.88-2.16L248.66,174l-2.44,2.2v1.24c0,2.52.4,4.6,3.44,4.6v1.08H236.3V182c3.08,0,3.44-2.08,3.44-4.6V163.92c0-2.52-.36-4.6-3.44-4.6V158.2a14.89,14.89,0,0,0,8.84-3.12h1.08v19l6.28-5.56c1.56-1.4,1.36-2.48-.52-2.48V165h8.16V166c-2.12,0-4.6,1.64-6.36,3.24l-.52.48,5.32,9.64A4.37,4.37,0,0,0,262.46,182Z"/><path class="cls-1" d="M276.86,182v1.08h-13.2V182c3,0,3.44-2.08,3.44-4.6v-4c0-2.52-.4-4.6-3.44-4.6v-1.08c2.32,0,6.4-1,8.8-3.12h1.08V177.4C273.54,179.92,273.78,182,276.86,182Zm-11.2-23.12a4,4,0,1,1,4,3.8A3.92,3.92,0,0,1,265.66,158.88Z"/><path class="cls-1" d="M305.58,182v1.08H292.74V182c3,0,3.08-2.16,2.8-4.6,0,0-.56-3.64-.8-5.12-.36-2.36-.64-4.52-3.4-4.52-2.4,0-3.4,2.12-3.4,4.8v4.84c0,2.52.24,4.6,3.28,4.6v1.08H278.06V182c3,0,3.44-2.08,3.44-4.6v-4c0-2.52-.4-4.6-3.44-4.6v-1.08a15.05,15.05,0,0,0,8.8-3.12h1.08v3.12a7.32,7.32,0,0,1,6.36-3.12c4,0,6.2,2.16,6.92,7.2.56,4,.76,5.64.76,5.64C302.3,179.76,302.54,182,305.58,182Z"/><path class="cls-1" d="M327.1,186.32c-.32,5.16-6.68,7-10.8,7s-9.52-.76-9.52-4.24c0-1.64,1.28-2.48,2.8-3a3.81,3.81,0,0,1-2.52-4.24c.44-2.32,2.48-3.32,4-3.84a7,7,0,0,1-3.24-6c0-4.44,3.68-7.44,8.8-7.44a11.67,11.67,0,0,1,3.2.44c.2-2.48,1.12-4.6,3.72-4.92a3,3,0,0,1,3.56,3.16,2.91,2.91,0,0,1-2.88,2.76c-.08-1.12-.48-2.36-1.76-2.36a1.41,1.41,0,0,0-1.56,1.72,7.07,7.07,0,0,1,4.52,6.64c0,4.48-3.68,7.48-8.8,7.48a10.57,10.57,0,0,1-4.16-.8,1.66,1.66,0,0,0-.84,1.48c.08,1.44,3.84,1.36,5.6,1.36C320.58,181.52,327.46,180.6,327.1,186.32Zm-5.28,2.08c0-.84-.52-1.32-1.72-1.32s-5.32-.2-7.84-.4a2.79,2.79,0,0,0-.88,1.88c-.12,2,1.76,3.48,5.8,3.4S321.82,189.84,321.82,188.4Zm-8.32-15.88c.72,3.8,2.28,5.56,4.24,5.24s2.6-2.48,1.92-6.28-2.4-5.48-4.24-5.2S312.82,168.76,313.5,172.52Z"/><path class="cls-1" d="M355.1,177.36a9.69,9.69,0,0,1-9.12,6.08c-6,0-10-3.88-10.44-8.68-.56-6.44,4.28-10.2,10.28-10.2,5.36,0,9,2.88,8.76,8.16l-12.36,2.08c1,5.16,8.68,5.8,12.2,2A8.38,8.38,0,0,1,355.1,177.36ZM342,173.24l6.56-1.12c.2-3.84-.68-6.36-3.44-6.12C342.58,166.24,341.5,169.44,342,173.24Z"/><path class="cls-1" d="M376.34,177.36a9.69,9.69,0,0,1-9.12,6.08c-6,0-10-3.72-10.44-8.52-.56-6.44,4.28-10.36,10.28-10.36s7.84,2.4,8.16,4.68a3.58,3.58,0,0,1-1.72,3.92c-1.48.72-3.56.24-5-1.8,2.12-1.72,1.36-5.64-2.08-5.36-2.08.2-3.56,2.52-3.4,6.16.24,4.56,2.56,6.68,6.12,7a7.65,7.65,0,0,0,6.6-2.4A8,8,0,0,1,376.34,177.36Z"/><path class="cls-1" d="M398.3,174c0,5.64-4.36,9.44-10.36,9.44s-10.4-3.8-10.4-9.44,4.36-9.44,10.4-9.44S398.3,168.36,398.3,174Zm-6.56-.68c-.84-4.8-2.76-7.64-5.2-7.2s-3.24,3.76-2.4,8.56,2.76,7.6,5.16,7.2S392.58,178.12,391.74,173.32Z"/><path class="cls-1" d="M427,182v1.08H414.18V182c3,0,3.08-2.16,2.8-4.6,0,0-.56-3.64-.8-5.12-.36-2.36-.64-4.52-3.4-4.52-2.4,0-3.4,2.12-3.4,4.8v4.84c0,2.52.24,4.6,3.28,4.6v1.08H399.5V182c3,0,3.44-2.08,3.44-4.6v-4c0-2.52-.4-4.6-3.44-4.6v-1.08a15.05,15.05,0,0,0,8.8-3.12h1.08v3.12a7.32,7.32,0,0,1,6.36-3.12c4,0,6.2,2.16,6.92,7.2.55,4,.76,5.64.76,5.64C423.74,179.76,424,182,427,182Z"/><path class="cls-1" d="M447.38,174c0,5.64-4.36,9.44-10.36,9.44s-10.4-3.8-10.4-9.44,4.36-9.44,10.4-9.44S447.38,168.36,447.38,174Zm-6.56-.68c-.84-4.8-2.76-7.64-5.2-7.2s-3.24,3.76-2.4,8.56,2.76,7.6,5.16,7.2S441.66,178.12,440.82,173.32Z"/><path class="cls-1" d="M488.89,182v1.08H476V182c3,0,3.12-2.12,2.8-4.6,0,0-.56-3.64-.76-5.12-.36-2.36-.6-4.48-3.24-4.48-2.36,0-3.08,2.12-3.08,4.76v4.84c0,2.52.36,4.6,3.44,4.6v1.08H462.3V182c3,0,3-2.08,3-4.6v-5.12c0-2.36-.64-4.48-3.4-4.48-2.4,0-3.4,2.12-3.4,4.76v4.84c0,2.52-.08,4.6,3,4.6v1.08H448.58V182c3,0,3.44-2.08,3.44-4.6v-4c0-2.52-.4-4.6-3.44-4.6v-1.08c2.32,0,6.4-1,8.8-3.12h1.08v3.12a7.32,7.32,0,0,1,6.36-3.12c3,0,5.31,1.12,6.31,3.76a6.89,6.89,0,0,1,6.44-3.76c3.92,0,6.24,2.16,6.92,7.2.56,4,.8,5.64.8,5.64C485.57,179.76,485.85,182,488.89,182Z"/><path class="cls-1" d="M507.5,165V166c-2,0-2.84,1-3.48,2.6l-5.8,14.44c-1.64,4.2-3.88,10.2-8.2,10.2a3.62,3.62,0,0,1-3.52-2,4,4,0,0,1,2.08-4.88,3.47,3.47,0,0,0,3.56,1.76c1.76-.2,3.28-1.48,4.6-4.68L488.9,168a3.23,3.23,0,0,0-3.2-2V165h11.68V166c-1.76,0-2.24.64-1.44,2.6l3.56,7.68,3.08-7.68c.88-2.2,0-2.6-2.12-2.6V165Z"/></svg>