<svg id="Layer_1" data-name="Layer 1" xmlns="http://www.w3.org/2000/svg" xmlns:xlink="http://www.w3.org/1999/xlink" viewBox="0 0 600 300"><defs><style>.cls-1{fill:none;}.cls-2{fill:#0a0f1e;}.cls-3{fill:#ffe9d6;}.cls-4{clip-path:url(#clip-path);}</style><clipPath id="clip-path"><rect class="cls-1" x="634.65" width="1000" height="1000"/></clipPath></defs><rect class="cls-2" width="600" height="300"/><path class="cls-3" d="M144.76,150.72h-4.83V107.49h5a18.18,18.18,0,0,1,3.94.32,6,6,0,0,1,2.74,1.6,7.75,7.75,0,0,1,2,4,34.21,34.21,0,0,1,.62,7.28V137a37.35,37.35,0,0,1-.62,7.57,8.32,8.32,0,0,1-2,4.21,5.7,5.7,0,0,1-2.8,1.66A19.18,19.18,0,0,1,144.76,150.72Z"/><path class="cls-3" d="M179.16,97.18,165.47,202.82H139.93V160.89h8.16q11.67,0,15.39-4.8t3.71-17.5v-19a63.15,63.15,0,0,0-.65-10,16.34,16.34,0,0,0-2.74-6.81A12.68,12.68,0,0,0,158,98.65a27.09,27.09,0,0,0-9.89-1.47Z"/><polygon class="cls-3" points="196.44 174.25 184.38 174.25 190.45 110.03 196.44 174.25"/><polygon class="cls-3" points="197.23 184.36 199.25 202.82 181.31 202.82 183.34 184.36 197.23 184.36"/><polygon class="cls-3" points="221.27 202.82 215.09 202.82 201.79 97.18 221.26 97.18 221.27 202.82"/><polygon class="cls-3" points="254.26 164.99 234.69 97.18 254.26 97.18 254.26 164.99"/><polygon class="cls-3" points="255.17 202.82 236.07 202.82 236.07 135.13 255.17 202.82"/><path class="cls-3" d="M313.36,97.18l-18,53,17.87,52.62H297.36l-13.5-43v43h-14.8V97.18h14.8v43.43l13.58-43.43Z"/><path class="cls-3" d="M316.07,202.81l13.7-105.63h22.62l13.3,105.63H349.85l-2-18.45H333.94l-2,18.45ZM335,174.26h12.07l-6-64.23Z"/><path class="cls-3" d="M413.05,134.55q0,14.79-9.26,19.1,8.94,4.69,9,18.06v31.1H399V175q0-10.17-1.56-13.3t-7-3.13h-5.61v44.2H369.89V97.18h24.72a25.73,25.73,0,0,1,9.48,1.47,11.16,11.16,0,0,1,5.54,4.14,18.88,18.88,0,0,1,2.67,6.75,54.21,54.21,0,0,1,.75,10.07Zm-28.23-27.07-.13,41h5a19.29,19.29,0,0,0,4-.32,5.82,5.82,0,0,0,2.8-1.66,8.48,8.48,0,0,0,2-4.21,37,37,0,0,0,.61-7.5V120.66q0-6-1.14-8.94c-.76-2-1.65-3.15-2.67-3.58a12.19,12.19,0,0,0-4.6-.66Z"/><path class="cls-3" d="M460.07,107.48H445.72v95.33h-14.8V107.48H416.77V97.18h43.3Z"/><g class="cls-4"><image width="2500" height="1800" transform="translate(554.65 82.4) scale(0.46)" xlink:href="../../../../portfolio/Pankart/te%C5%9Fekk%C3%BCrKart/mockup4.jpg"/></g></svg>