<svg xmlns="http://www.w3.org/2000/svg" viewBox="0 0 600 600"><defs><style>.cls-1{opacity:0.77;}.cls-2{fill:#d4ce46;}.cls-3{fill:#0e5135;}</style></defs><g id="presentation"><rect class="cls-2" width="600" height="600"/><polygon class="cls-3" points="155.03 302.37 155.03 350.95 179.85 350.95 179.85 336.51 169.85 336.51 169.85 318.24 198.13 318.24 198.13 369.22 136.76 369.22 136.76 284.1 198.13 284.1 198.13 302.37 155.03 302.37"/><polygon class="cls-3" points="270.02 284.1 270.02 369.22 208.65 369.22 208.65 284.1 226.92 284.1 226.92 350.95 251.74 350.95 251.74 284.1 270.02 284.1"/><polygon class="cls-3" points="198.13 194.11 160.03 242.38 198.13 242.38 198.13 260.65 136.76 260.65 136.76 242.38 174.85 194.11 136.76 194.11 136.76 175.84 198.13 175.84 198.13 194.11"/><polygon class="cls-3" points="226.92 194.11 226.92 206.74 264.5 206.74 264.5 225.01 226.92 225.01 226.92 242.38 270.02 242.38 270.02 260.65 208.65 260.65 208.65 175.84 270.02 175.84 270.02 194.11 226.92 194.11"/><path class="cls-3" d="M384.34,175.84H343.63v84.81h40.71L405,238.74h0v-41Zm-21.4,18.27h13l9.75,10.32V232l-9.86,10.43H362.94Z"/><path class="cls-3" d="M350.22,284.1H309.5v84.82h40.72L370.86,347h0V306Zm1.34,56.21-10.2,10.79H328.81V301.92h12.56l10.19,10.77Z"/><path class="cls-3" d="M299,380V194.11l-9.14-18.27-9.13,18.27V380H270v10.56h10.69V417H299V390.51h10.51V380Zm-2.53,34.48H283.23v-4.32h13.22Zm0-6.84H283.23v-4.25h13.22Zm0-6.77H283.23v-3.89h13.22Zm0-6.42H283.23v-3.89h13.22ZM307,388H272.54v-5.5h8.17l9.09-4.4,9.18,4.4h8Z"/><rect class="cls-3" x="302.43" y="242.38" width="30.69" height="18.27"/><polygon class="cls-3" points="399.66 302.37 399.66 315 437.24 315 437.24 333.27 399.66 333.27 399.66 350.64 442.75 350.64 442.75 368.92 381.38 368.92 381.38 284.1 442.75 284.1 442.75 302.37 399.66 302.37"/><rect class="cls-3" x="433.52" y="304.76" width="59.61" height="18.27" transform="translate(777.22 -149.42) rotate(90)"/><rect class="cls-3" x="454.19" y="350.95" width="18.27" height="18.27" transform="translate(823.42 -103.24) rotate(90)"/><path class="cls-3" d="M461.09,175.84H422.47L411.1,260.65h19.31l3-22.5h16.71l3,22.5h19.3Zm-25.22,44,3.46-25.77h4.9l3.46,25.77Z"/></g></svg>