<svg xmlns="http://www.w3.org/2000/svg" viewBox="0 0 1200 600"><defs><style>.cls-1{opacity:0.77;}.cls-2{fill:#0e5135;}.cls-3{fill:#d4ce46;}</style></defs><g id="presentation"><rect class="cls-2" width="1200" height="600"/><polygon class="cls-3" points="419.47 307.22 419.47 365.84 449.43 365.84 449.43 348.42 437.36 348.42 437.36 326.36 471.48 326.36 471.48 387.9 397.41 387.9 397.41 285.16 471.48 285.16 471.48 307.22 419.47 307.22"/><polygon class="cls-3" points="558.25 285.16 558.25 387.9 484.18 387.9 484.18 285.16 506.23 285.16 506.23 365.84 536.19 365.84 536.19 285.16 558.25 285.16"/><polygon class="cls-3" points="471.48 176.55 425.51 234.81 471.48 234.81 471.48 256.86 397.41 256.86 397.41 234.81 443.39 176.55 397.41 176.55 397.41 154.5 471.48 154.5 471.48 176.55"/><polygon class="cls-3" points="506.23 176.55 506.23 191.79 551.59 191.79 551.59 213.84 506.23 213.84 506.23 234.81 558.25 234.81 558.25 256.86 484.18 256.86 484.18 154.5 558.25 154.5 558.25 176.55 506.23 176.55"/><path class="cls-3" d="M696.23,154.5H647.09V256.86h49.14l24.92-26.44h0V180.93ZM670.4,176.55h15.69L697.86,189v33.33L686,234.92H670.4Z"/><path class="cls-3" d="M655,285.16H605.9V387.54H655L680,361.08h0V311.6ZM656.66,353l-12.31,13H629.2V306.67h15.17l12.29,13Z"/><path class="cls-3" d="M593.2,400.84V176.55l-11-22.05-11,22.05V400.84h-12.9v12.75h12.9V445.5H593.2V413.59h12.69V400.84Zm-3.05,41.62H574.2v-5.21h15.95Zm0-8.26H574.2v-5.12h15.95Zm0-8.16H574.2v-4.71h15.95Zm0-7.76H574.2v-4.69h15.95Zm12.7-7.74H561.3V403.9h9.85l11-5.31,11.08,5.31h9.65Z"/><rect class="cls-3" x="597.36" y="234.81" width="37.04" height="22.06"/><polygon class="cls-3" points="714.71 307.22 714.71 322.45 760.07 322.45 760.07 344.51 714.71 344.51 714.71 365.47 766.73 365.47 766.73 387.54 692.66 387.54 692.66 285.16 766.73 285.16 766.73 307.22 714.71 307.22"/><rect class="cls-3" x="755.58" y="310.1" width="71.94" height="22.06" transform="translate(1112.67 -470.42) rotate(90)"/><rect class="cls-3" x="780.53" y="365.84" width="22.06" height="22.06" transform="translate(1168.43 -414.69) rotate(90)"/><path class="cls-3" d="M788.86,154.5H742.25L728.52,256.86h23.31l3.64-27.15h20.17l3.64,27.15h23.3Zm-30.44,53.15,4.18-31.1h5.91l4.17,31.1Z"/></g></svg>