<svg id="Layer_1" data-name="Layer 1" xmlns="http://www.w3.org/2000/svg" xmlns:xlink="http://www.w3.org/1999/xlink" viewBox="0 0 1000 1000"><defs><style>.cls-1{fill:none;}.cls-2{clip-path:url(#clip-path);}.cls-3{fill:#f2e7eb;}.cls-4{fill:#557571;}.cls-5{fill:#d49a89;}</style><clipPath id="clip-path"><rect class="cls-1" x="-1050.35" width="1000" height="1000"/></clipPath></defs><g class="cls-2"><image width="4000" height="3200" transform="translate(-1175.35) scale(0.31)" xlink:href="../../../../portfolio/PaperPack/buscard.jpg"/></g><rect class="cls-3" width="1000" height="1000"/><rect class="cls-4" x="93.75" y="93.75" width="406.25" height="406.25"/><rect class="cls-5" x="500" y="93.75" width="403.92" height="406.25"/><rect x="93.75" y="500" width="406.25" height="406.25"/><rect class="cls-3" x="500" y="500" width="403.92" height="406.25"/><path class="cls-5" d="M299,278l-8.88-19.2h-50L199.5,329h19.3l11-19.11h30.72L269.48,329h19.29l18.62-32.22Zm-18.41,31.83-8.87-19.21H241L248.22,278H279l8.9,19.11Z"/><path class="cls-5" d="M323.4,283.64a6.8,6.8,0,0,1,5,2,6.93,6.93,0,0,1,0,9.78,6.84,6.84,0,0,1-5,2h-3.6v6.73h-4V283.64Zm0,10a2.85,2.85,0,0,0,2.14-.89,3.32,3.32,0,0,0,0-4.44,2.88,2.88,0,0,0-2.14-.88h-3.6v6.21Z"/><path class="cls-5" d="M343,289.49h3.77v14.64H343V302.4a5.74,5.74,0,0,1-4.77,2.14,6.62,6.62,0,0,1-5-2.24,8.23,8.23,0,0,1,0-11,6.62,6.62,0,0,1,5-2.24,5.77,5.77,0,0,1,4.77,2.14Zm-7,10.29a4.22,4.22,0,0,0,5.81,0,4.38,4.38,0,0,0,0-5.94,4.22,4.22,0,0,0-5.81,0,4.44,4.44,0,0,0,0,5.94Z"/><path class="cls-5" d="M358.74,289.08a6.68,6.68,0,0,1,5.05,2.24,8.26,8.26,0,0,1,0,11,6.68,6.68,0,0,1-5.05,2.24A5.64,5.64,0,0,1,354,302.4V310h-3.78V289.49H354v1.73A5.67,5.67,0,0,1,358.74,289.08Zm-3.6,10.7a3.89,3.89,0,0,0,2.89,1.16,4,4,0,0,0,2.92-1.16,4.41,4.41,0,0,0,0-5.94,4,4,0,0,0-2.92-1.16,3.89,3.89,0,0,0-2.89,1.16,4.44,4.44,0,0,0,0,5.94Z"/><path class="cls-5" d="M371.73,298.36c.51,1.84,1.89,2.75,4.13,2.75a3.84,3.84,0,0,0,3.28-1.46l3.05,1.76a7.28,7.28,0,0,1-6.39,3.13,7.83,7.83,0,0,1-5.82-2.2,7.46,7.46,0,0,1-2.2-5.53,7.57,7.57,0,0,1,2.17-5.52,7.46,7.46,0,0,1,5.56-2.21,7,7,0,0,1,5.31,2.23,7.71,7.71,0,0,1,2.1,5.5,8.54,8.54,0,0,1-.15,1.55Zm-.05-2.92h7.46a3.54,3.54,0,0,0-1.33-2.23,3.8,3.8,0,0,0-2.3-.73,4,4,0,0,0-2.52.77A3.72,3.72,0,0,0,371.68,295.44Z"/><path class="cls-5" d="M389.33,292a3.93,3.93,0,0,1,1.74-2.11,5.29,5.29,0,0,1,2.71-.7v4.22a4.41,4.41,0,0,0-3.09.7,3.34,3.34,0,0,0-1.36,3v7h-3.78V289.49h3.78Z"/><path class="cls-5" d="M323.4,306.81a6.84,6.84,0,0,1,5,2,6.93,6.93,0,0,1,0,9.78,6.8,6.8,0,0,1-5,2h-3.6v6.74h-4v-20.5Zm0,10a2.82,2.82,0,0,0,2.14-.9,3.31,3.31,0,0,0,0-4.43,2.84,2.84,0,0,0-2.14-.88h-3.6v6.21Z"/><path class="cls-5" d="M343,312.67h3.77v14.64H343v-1.73a5.77,5.77,0,0,1-4.77,2.14,6.62,6.62,0,0,1-5-2.24,8.23,8.23,0,0,1,0-11,6.59,6.59,0,0,1,5-2.24A5.74,5.74,0,0,1,343,314.4Zm-7,10.29a4.22,4.22,0,0,0,5.81,0,4.38,4.38,0,0,0,0-5.94,4.22,4.22,0,0,0-5.81,0,4.44,4.44,0,0,0,0,5.94Z"/><path class="cls-5" d="M357.19,327.72a7.73,7.73,0,1,1,0-15.46,7.61,7.61,0,0,1,3.89,1,6.79,6.79,0,0,1,2.66,2.76l-3.25,1.9a3.24,3.24,0,0,0-1.33-1.44,3.85,3.85,0,0,0-2-.52,3.77,3.77,0,0,0-2.81,1.12,3.93,3.93,0,0,0-1.12,2.89,3.86,3.86,0,0,0,1.12,2.85,3.77,3.77,0,0,0,2.81,1.13,4,4,0,0,0,2-.51,3.2,3.2,0,0,0,1.33-1.42l3.28,1.87a7.37,7.37,0,0,1-2.72,2.77A7.53,7.53,0,0,1,357.19,327.72Z"/><path class="cls-5" d="M379.29,327.31H374.9l-5.33-6.65v6.65h-3.78v-20.5h3.78v12.32l5-6.46h4.51l-5.88,7.23Z"/><path class="cls-4" d="M704.06,277.94l-8.87-19.19h-50L604.59,329h19.29l11-19.11h30.72L674.57,329h19.28l18.63-32.22Zm-18.4,31.84-8.88-19.21H646.06L653.3,278h30.76l8.9,19.11Z"/><path class="cls-4" d="M728.49,283.64a6.78,6.78,0,0,1,5,2,6.93,6.93,0,0,1,0,9.78,6.82,6.82,0,0,1-5,2h-3.6v6.73h-4V283.64Zm0,10a2.81,2.81,0,0,0,2.13-.89,3.32,3.32,0,0,0,0-4.44,2.84,2.84,0,0,0-2.13-.88h-3.6v6.21Z"/><path class="cls-4" d="M748.1,289.49h3.78v14.64H748.1V302.4a5.73,5.73,0,0,1-4.77,2.14,6.64,6.64,0,0,1-5-2.24,8.26,8.26,0,0,1,0-11,6.64,6.64,0,0,1,5-2.24,5.76,5.76,0,0,1,4.77,2.14Zm-7,10.29a3.93,3.93,0,0,0,2.9,1.16,4.13,4.13,0,1,0,0-8.26,3.93,3.93,0,0,0-2.9,1.16,4.44,4.44,0,0,0,0,5.94Z"/><path class="cls-4" d="M763.82,289.08a6.67,6.67,0,0,1,5,2.24,8.26,8.26,0,0,1,0,11,6.67,6.67,0,0,1-5,2.24,5.64,5.64,0,0,1-4.74-2.14V310H755.3V289.49h3.78v1.73A5.67,5.67,0,0,1,763.82,289.08Zm-3.6,10.7a4.22,4.22,0,0,0,5.81,0,4.38,4.38,0,0,0,0-5.94,4.22,4.22,0,0,0-5.81,0,4.44,4.44,0,0,0,0,5.94Z"/><path class="cls-4" d="M776.82,298.36c.51,1.84,1.88,2.75,4.13,2.75a3.84,3.84,0,0,0,3.27-1.46l3,1.76a7.25,7.25,0,0,1-6.38,3.13,7.87,7.87,0,0,1-5.83-2.2,7.49,7.49,0,0,1-2.19-5.53,7.6,7.6,0,0,1,2.16-5.52,7.47,7.47,0,0,1,5.56-2.21,7,7,0,0,1,5.32,2.23,7.74,7.74,0,0,1,2.09,5.5,8.54,8.54,0,0,1-.15,1.55Zm-.06-2.92h7.46a3.49,3.49,0,0,0-1.33-2.23,3.8,3.8,0,0,0-2.3-.73,4,4,0,0,0-2.51.77A3.68,3.68,0,0,0,776.76,295.44Z"/><path class="cls-4" d="M794.41,292a3.93,3.93,0,0,1,1.74-2.11,5.31,5.31,0,0,1,2.71-.7v4.22a4.41,4.41,0,0,0-3.09.7,3.36,3.36,0,0,0-1.36,3v7h-3.77V289.49h3.77Z"/><path class="cls-4" d="M728.49,306.81a6.82,6.82,0,0,1,5,2,6.93,6.93,0,0,1,0,9.78,6.78,6.78,0,0,1-5,2h-3.6v6.74h-4v-20.5Zm0,10a2.79,2.79,0,0,0,2.13-.9,3.31,3.31,0,0,0,0-4.43,2.81,2.81,0,0,0-2.13-.88h-3.6v6.21Z"/><path class="cls-4" d="M748.1,312.67h3.78v14.64H748.1v-1.73a5.76,5.76,0,0,1-4.77,2.14,6.64,6.64,0,0,1-5-2.24,8.26,8.26,0,0,1,0-11,6.6,6.6,0,0,1,5-2.24,5.73,5.73,0,0,1,4.77,2.14Zm-7,10.29a3.93,3.93,0,0,0,2.9,1.16,4.13,4.13,0,1,0,0-8.26,3.93,3.93,0,0,0-2.9,1.16,4.44,4.44,0,0,0,0,5.94Z"/><path class="cls-4" d="M762.27,327.72a7.73,7.73,0,1,1,0-15.46,7.61,7.61,0,0,1,3.89,1,6.88,6.88,0,0,1,2.67,2.76l-3.25,1.9a3.3,3.3,0,0,0-1.33-1.44,3.91,3.91,0,0,0-2-.52,3.78,3.78,0,0,0-2.81,1.12,4,4,0,0,0-1.11,2.89,3.89,3.89,0,0,0,1.11,2.85,3.79,3.79,0,0,0,2.81,1.13,4.06,4.06,0,0,0,2-.51,3.31,3.31,0,0,0,1.33-1.42l3.28,1.87a7.54,7.54,0,0,1-6.62,3.81Z"/><path class="cls-4" d="M784.37,327.31H780l-5.33-6.65v6.65h-3.77v-20.5h3.77v12.32l5-6.46h4.51l-5.89,7.23Z"/><path class="cls-3" d="M299,684.19,290.1,665h-50L199.5,735.22h19.3l11-19.11h30.72l8.92,19.11h19.29L307.39,703ZM280.57,716l-8.87-19.21H241l7.24-12.54H279l8.9,19.11Z"/><path class="cls-3" d="M323.4,689.89a6.8,6.8,0,0,1,5,2,6.93,6.93,0,0,1,0,9.78,6.84,6.84,0,0,1-5,2h-3.6v6.73h-4V689.89Zm0,10a2.85,2.85,0,0,0,2.14-.89,3.32,3.32,0,0,0,0-4.44,2.88,2.88,0,0,0-2.14-.88h-3.6v6.21Z"/><path class="cls-3" d="M343,695.74h3.77v14.64H343v-1.73a5.74,5.74,0,0,1-4.77,2.14,6.62,6.62,0,0,1-5-2.24,8.23,8.23,0,0,1,0-11,6.62,6.62,0,0,1,5-2.24,5.77,5.77,0,0,1,4.77,2.14Zm-7,10.29a4.22,4.22,0,0,0,5.81,0,4.38,4.38,0,0,0,0-5.94,4.22,4.22,0,0,0-5.81,0,4.44,4.44,0,0,0,0,5.94Z"/><path class="cls-3" d="M358.74,695.33a6.68,6.68,0,0,1,5.05,2.24,8.26,8.26,0,0,1,0,11,6.68,6.68,0,0,1-5.05,2.24,5.64,5.64,0,0,1-4.74-2.14v7.58h-3.78V695.74H354v1.73A5.67,5.67,0,0,1,358.74,695.33Zm-3.6,10.7a3.89,3.89,0,0,0,2.89,1.16A4,4,0,0,0,361,706a4.41,4.41,0,0,0,0-5.94,4,4,0,0,0-2.92-1.16,3.89,3.89,0,0,0-2.89,1.16,4.44,4.44,0,0,0,0,5.94Z"/><path class="cls-3" d="M371.73,704.61c.51,1.84,1.89,2.75,4.13,2.75a3.84,3.84,0,0,0,3.28-1.46l3.05,1.76a7.28,7.28,0,0,1-6.39,3.13,7.83,7.83,0,0,1-5.82-2.2,7.46,7.46,0,0,1-2.2-5.53,7.57,7.57,0,0,1,2.17-5.52,7.46,7.46,0,0,1,5.56-2.21,7,7,0,0,1,5.31,2.23,7.71,7.71,0,0,1,2.1,5.5,8.54,8.54,0,0,1-.15,1.55Zm-.05-2.92h7.46a3.54,3.54,0,0,0-1.33-2.23,3.8,3.8,0,0,0-2.3-.73,4,4,0,0,0-2.52.77A3.72,3.72,0,0,0,371.68,701.69Z"/><path class="cls-3" d="M389.33,698.26a3.93,3.93,0,0,1,1.74-2.11,5.29,5.29,0,0,1,2.71-.7v4.22a4.41,4.41,0,0,0-3.09.7,3.34,3.34,0,0,0-1.36,3v7h-3.78V695.74h3.78Z"/><path class="cls-3" d="M323.4,713.06a6.84,6.84,0,0,1,5,2,6.93,6.93,0,0,1,0,9.78,6.8,6.8,0,0,1-5,2h-3.6v6.74h-4v-20.5Zm0,10a2.82,2.82,0,0,0,2.14-.9,3.31,3.31,0,0,0,0-4.43,2.84,2.84,0,0,0-2.14-.88h-3.6v6.21Z"/><path class="cls-3" d="M343,718.92h3.77v14.64H343v-1.73a5.77,5.77,0,0,1-4.77,2.14,6.62,6.62,0,0,1-5-2.24,8.23,8.23,0,0,1,0-11,6.59,6.59,0,0,1,5-2.24,5.74,5.74,0,0,1,4.77,2.14Zm-7,10.29a4.22,4.22,0,0,0,5.81,0,4.38,4.38,0,0,0,0-5.94,4.22,4.22,0,0,0-5.81,0,4.44,4.44,0,0,0,0,5.94Z"/><path class="cls-3" d="M357.19,734a7.73,7.73,0,1,1,0-15.46,7.61,7.61,0,0,1,3.89,1,6.79,6.79,0,0,1,2.66,2.76l-3.25,1.9a3.24,3.24,0,0,0-1.33-1.44,3.85,3.85,0,0,0-2-.52,3.77,3.77,0,0,0-2.81,1.12,3.93,3.93,0,0,0-1.12,2.89,3.86,3.86,0,0,0,1.12,2.85,3.77,3.77,0,0,0,2.81,1.13,4,4,0,0,0,2-.51,3.2,3.2,0,0,0,1.33-1.42l3.28,1.87a7.37,7.37,0,0,1-2.72,2.77A7.53,7.53,0,0,1,357.19,734Z"/><path class="cls-3" d="M379.29,733.56H374.9l-5.33-6.65v6.65h-3.78v-20.5h3.78v12.32l5-6.46h4.51l-5.88,7.23Z"/><path d="M704.06,684.19,695.19,665h-50l-40.56,70.22h19.29l11-19.11h30.72l8.93,19.11h19.28L712.48,703ZM685.66,716l-8.88-19.21H646.06l7.24-12.54h30.76l8.9,19.11Z"/><path d="M728.49,689.89a6.78,6.78,0,0,1,5,2,6.93,6.93,0,0,1,0,9.78,6.82,6.82,0,0,1-5,2h-3.6v6.73h-4V689.89Zm0,10a2.81,2.81,0,0,0,2.13-.89,3.32,3.32,0,0,0,0-4.44,2.84,2.84,0,0,0-2.13-.88h-3.6v6.21Z"/><path d="M748.1,695.74h3.78v14.64H748.1v-1.73a5.73,5.73,0,0,1-4.77,2.14,6.64,6.64,0,0,1-5-2.24,8.26,8.26,0,0,1,0-11,6.64,6.64,0,0,1,5-2.24,5.76,5.76,0,0,1,4.77,2.14Zm-7,10.29a3.93,3.93,0,0,0,2.9,1.16,4.13,4.13,0,1,0,0-8.26,3.93,3.93,0,0,0-2.9,1.16,4.44,4.44,0,0,0,0,5.94Z"/><path d="M763.82,695.33a6.67,6.67,0,0,1,5,2.24,8.26,8.26,0,0,1,0,11,6.67,6.67,0,0,1-5,2.24,5.64,5.64,0,0,1-4.74-2.14v7.58H755.3V695.74h3.78v1.73A5.67,5.67,0,0,1,763.82,695.33Zm-3.6,10.7a4.22,4.22,0,0,0,5.81,0,4.38,4.38,0,0,0,0-5.94,4.22,4.22,0,0,0-5.81,0,4.44,4.44,0,0,0,0,5.94Z"/><path d="M776.82,704.61c.51,1.84,1.88,2.75,4.13,2.75a3.84,3.84,0,0,0,3.27-1.46l3,1.76a7.25,7.25,0,0,1-6.38,3.13,7.87,7.87,0,0,1-5.83-2.2,7.49,7.49,0,0,1-2.19-5.53,7.6,7.6,0,0,1,2.16-5.52,7.47,7.47,0,0,1,5.56-2.21,7,7,0,0,1,5.32,2.23,7.74,7.74,0,0,1,2.09,5.5,8.54,8.54,0,0,1-.15,1.55Zm-.06-2.92h7.46a3.49,3.49,0,0,0-1.33-2.23,3.8,3.8,0,0,0-2.3-.73,4,4,0,0,0-2.51.77A3.68,3.68,0,0,0,776.76,701.69Z"/><path d="M794.41,698.26a3.93,3.93,0,0,1,1.74-2.11,5.31,5.31,0,0,1,2.71-.7v4.22a4.41,4.41,0,0,0-3.09.7,3.36,3.36,0,0,0-1.36,3v7h-3.77V695.74h3.77Z"/><path d="M728.49,713.06a6.82,6.82,0,0,1,5,2,6.93,6.93,0,0,1,0,9.78,6.78,6.78,0,0,1-5,2h-3.6v6.74h-4v-20.5Zm0,10a2.79,2.79,0,0,0,2.13-.9,3.31,3.31,0,0,0,0-4.43,2.81,2.81,0,0,0-2.13-.88h-3.6v6.21Z"/><path d="M748.1,718.92h3.78v14.64H748.1v-1.73a5.76,5.76,0,0,1-4.77,2.14,6.64,6.64,0,0,1-5-2.24,8.26,8.26,0,0,1,0-11,6.6,6.6,0,0,1,5-2.24,5.73,5.73,0,0,1,4.77,2.14Zm-7,10.29a3.93,3.93,0,0,0,2.9,1.16,4.13,4.13,0,1,0,0-8.26,3.93,3.93,0,0,0-2.9,1.16,4.44,4.44,0,0,0,0,5.94Z"/><path d="M762.27,734a7.73,7.73,0,1,1,0-15.46,7.61,7.61,0,0,1,3.89,1,6.88,6.88,0,0,1,2.67,2.76l-3.25,1.9a3.3,3.3,0,0,0-1.33-1.44,3.91,3.91,0,0,0-2-.52,3.78,3.78,0,0,0-2.81,1.12,4,4,0,0,0-1.11,2.89,3.89,3.89,0,0,0,1.11,2.85,3.79,3.79,0,0,0,2.81,1.13,4.06,4.06,0,0,0,2-.51,3.31,3.31,0,0,0,1.33-1.42l3.28,1.87a7.54,7.54,0,0,1-6.62,3.81Z"/><path d="M784.37,733.56H780l-5.33-6.65v6.65h-3.77v-20.5h3.77v12.32l5-6.46h4.51l-5.89,7.23Z"/></svg>