<svg id="Layer_1" data-name="Layer 1" xmlns="http://www.w3.org/2000/svg" xmlns:xlink="http://www.w3.org/1999/xlink" viewBox="0 0 1000 1000"><defs><style>.cls-1{fill:none;}.cls-2{clip-path:url(#clip-path);}.cls-11,.cls-3{fill:#f2e7eb;}.cls-10,.cls-4{fill:#557571;}.cls-5,.cls-6{fill:#d49a89;}.cls-10,.cls-11,.cls-12,.cls-6{font-size:29.27px;font-family:Gilroy-Bold;font-weight:700;}.cls-7{letter-spacing:-0.03em;}.cls-8{letter-spacing:0em;}.cls-9{letter-spacing:0em;}</style><clipPath id="clip-path"><rect class="cls-1" x="-1050.35" width="1000" height="1000"/></clipPath></defs><g class="cls-2"><image width="4000" height="3200" transform="translate(-1175.35) scale(0.31)" xlink:href="../../../../portfolio/PaperPack/buscard.jpg"/></g><rect class="cls-3" width="1000" height="1000"/><rect class="cls-4" x="93.75" y="93.75" width="406.25" height="406.25"/><rect class="cls-5" x="500" y="93.75" width="403.92" height="406.25"/><rect x="93.75" y="500" width="406.25" height="406.25"/><rect class="cls-3" x="500" y="500" width="403.92" height="406.25"/><path class="cls-5" d="M299,278l-8.88-19.2h-50L199.5,329h19.3l11-19.11h30.72L269.48,329h19.29l18.62-32.22Zm-18.41,31.83-8.87-19.21H241L248.22,278H279l8.9,19.11Z"/><text class="cls-6" transform="translate(313.86 304.13)"><tspan class="cls-7">P<tspan class="cls-8" x="16.31" y="0">aper</tspan></tspan><tspan class="cls-7" x="0" y="23.18">P</tspan><tspan class="cls-8" x="16.31" y="23.18">a</tspan><tspan class="cls-9" x="34.63" y="23.18">c</tspan><tspan x="50.21" y="23.18">k</tspan></text><path class="cls-4" d="M704.06,277.94l-8.87-19.19h-50L604.59,329h19.29l11-19.11h30.72L674.57,329h19.28l18.63-32.22Zm-18.4,31.84-8.88-19.21H646.06L653.3,278h30.76l8.9,19.11Z"/><text class="cls-10" transform="translate(718.94 304.13)"><tspan class="cls-7">P<tspan class="cls-8" x="16.31" y="0">aper</tspan></tspan><tspan class="cls-7" x="0" y="23.18">P</tspan><tspan class="cls-8" x="16.31" y="23.18">a</tspan><tspan class="cls-9" x="34.63" y="23.18">c</tspan><tspan x="50.21" y="23.18">k</tspan></text><path class="cls-3" d="M299,684.19,290.1,665h-50L199.5,735.22h19.3l11-19.11h30.72l8.92,19.11h19.29L307.39,703ZM280.57,716l-8.87-19.21H241l7.24-12.54H279l8.9,19.11Z"/><text class="cls-11" transform="translate(313.86 710.38)"><tspan class="cls-7">P<tspan class="cls-8" x="16.31" y="0">aper</tspan></tspan><tspan class="cls-7" x="0" y="23.18">P</tspan><tspan class="cls-8" x="16.31" y="23.18">a</tspan><tspan class="cls-9" x="34.63" y="23.18">c</tspan><tspan x="50.21" y="23.18">k</tspan></text><path d="M704.06,684.19,695.19,665h-50l-40.56,70.22h19.29l11-19.11h30.72l8.93,19.11h19.28L712.48,703ZM685.66,716l-8.88-19.21H646.06l7.24-12.54h30.76l8.9,19.11Z"/><text class="cls-12" transform="translate(718.94 710.38)"><tspan class="cls-7">P<tspan class="cls-8" x="16.31" y="0">aper</tspan></tspan><tspan class="cls-7" x="0" y="23.18">P</tspan><tspan class="cls-8" x="16.31" y="23.18">a</tspan><tspan class="cls-9" x="34.63" y="23.18">c</tspan><tspan x="50.21" y="23.18">k</tspan></text></svg>